G04 #@! TF.GenerationSoftware,KiCad,Pcbnew,8.0.5*
G04 #@! TF.CreationDate,2024-12-11T09:51:45-08:00*
G04 #@! TF.ProjectId,OpenPEMF_Final,4f70656e-5045-44d4-965f-46696e616c2e,rev?*
G04 #@! TF.SameCoordinates,Original*
G04 #@! TF.FileFunction,Copper,L1,Top*
G04 #@! TF.FilePolarity,Positive*
%FSLAX46Y46*%
G04 Gerber Fmt 4.6, Leading zero omitted, Abs format (unit mm)*
G04 Created by KiCad (PCBNEW 8.0.5) date 2024-12-11 09:51:45*
%MOMM*%
%LPD*%
G01*
G04 APERTURE LIST*
G04 Aperture macros list*
%AMRoundRect*
0 Rectangle with rounded corners*
0 $1 Rounding radius*
0 $2 $3 $4 $5 $6 $7 $8 $9 X,Y pos of 4 corners*
0 Add a 4 corners polygon primitive as box body*
4,1,4,$2,$3,$4,$5,$6,$7,$8,$9,$2,$3,0*
0 Add four circle primitives for the rounded corners*
1,1,$1+$1,$2,$3*
1,1,$1+$1,$4,$5*
1,1,$1+$1,$6,$7*
1,1,$1+$1,$8,$9*
0 Add four rect primitives between the rounded corners*
20,1,$1+$1,$2,$3,$4,$5,0*
20,1,$1+$1,$4,$5,$6,$7,0*
20,1,$1+$1,$6,$7,$8,$9,0*
20,1,$1+$1,$8,$9,$2,$3,0*%
G04 Aperture macros list end*
G04 #@! TA.AperFunction,EtchedComponent*
%ADD10C,0.001000*%
G04 #@! TD*
G04 #@! TA.AperFunction,SMDPad,CuDef*
%ADD11RoundRect,0.140000X0.140000X0.170000X-0.140000X0.170000X-0.140000X-0.170000X0.140000X-0.170000X0*%
G04 #@! TD*
G04 #@! TA.AperFunction,SMDPad,CuDef*
%ADD12RoundRect,0.150000X-0.150000X0.650000X-0.150000X-0.650000X0.150000X-0.650000X0.150000X0.650000X0*%
G04 #@! TD*
G04 #@! TA.AperFunction,ComponentPad*
%ADD13R,2.400000X2.400000*%
G04 #@! TD*
G04 #@! TA.AperFunction,ComponentPad*
%ADD14C,2.400000*%
G04 #@! TD*
G04 #@! TA.AperFunction,SMDPad,CuDef*
%ADD15RoundRect,0.140000X-0.140000X-0.170000X0.140000X-0.170000X0.140000X0.170000X-0.140000X0.170000X0*%
G04 #@! TD*
G04 #@! TA.AperFunction,SMDPad,CuDef*
%ADD16RoundRect,0.250000X0.250000X0.475000X-0.250000X0.475000X-0.250000X-0.475000X0.250000X-0.475000X0*%
G04 #@! TD*
G04 #@! TA.AperFunction,SMDPad,CuDef*
%ADD17RoundRect,0.225000X-0.225000X-0.250000X0.225000X-0.250000X0.225000X0.250000X-0.225000X0.250000X0*%
G04 #@! TD*
G04 #@! TA.AperFunction,SMDPad,CuDef*
%ADD18RoundRect,0.135000X0.135000X0.185000X-0.135000X0.185000X-0.135000X-0.185000X0.135000X-0.185000X0*%
G04 #@! TD*
G04 #@! TA.AperFunction,SMDPad,CuDef*
%ADD19RoundRect,0.225000X-0.250000X0.225000X-0.250000X-0.225000X0.250000X-0.225000X0.250000X0.225000X0*%
G04 #@! TD*
G04 #@! TA.AperFunction,ComponentPad*
%ADD20R,0.850000X0.850000*%
G04 #@! TD*
G04 #@! TA.AperFunction,ComponentPad*
%ADD21O,0.850000X0.850000*%
G04 #@! TD*
G04 #@! TA.AperFunction,SMDPad,CuDef*
%ADD22RoundRect,0.250000X-0.325000X-0.650000X0.325000X-0.650000X0.325000X0.650000X-0.325000X0.650000X0*%
G04 #@! TD*
G04 #@! TA.AperFunction,SMDPad,CuDef*
%ADD23RoundRect,0.250000X0.300000X-2.050000X0.300000X2.050000X-0.300000X2.050000X-0.300000X-2.050000X0*%
G04 #@! TD*
G04 #@! TA.AperFunction,SMDPad,CuDef*
%ADD24RoundRect,0.250000X2.375000X-2.025000X2.375000X2.025000X-2.375000X2.025000X-2.375000X-2.025000X0*%
G04 #@! TD*
G04 #@! TA.AperFunction,SMDPad,CuDef*
%ADD25RoundRect,0.250002X5.149998X-4.449998X5.149998X4.449998X-5.149998X4.449998X-5.149998X-4.449998X0*%
G04 #@! TD*
G04 #@! TA.AperFunction,SMDPad,CuDef*
%ADD26RoundRect,0.140000X-0.170000X0.140000X-0.170000X-0.140000X0.170000X-0.140000X0.170000X0.140000X0*%
G04 #@! TD*
G04 #@! TA.AperFunction,SMDPad,CuDef*
%ADD27RoundRect,0.200000X-0.200000X-0.275000X0.200000X-0.275000X0.200000X0.275000X-0.200000X0.275000X0*%
G04 #@! TD*
G04 #@! TA.AperFunction,SMDPad,CuDef*
%ADD28RoundRect,0.250000X-0.650000X0.325000X-0.650000X-0.325000X0.650000X-0.325000X0.650000X0.325000X0*%
G04 #@! TD*
G04 #@! TA.AperFunction,SMDPad,CuDef*
%ADD29RoundRect,0.250000X0.650000X-0.325000X0.650000X0.325000X-0.650000X0.325000X-0.650000X-0.325000X0*%
G04 #@! TD*
G04 #@! TA.AperFunction,SMDPad,CuDef*
%ADD30RoundRect,0.250000X0.400000X0.600000X-0.400000X0.600000X-0.400000X-0.600000X0.400000X-0.600000X0*%
G04 #@! TD*
G04 #@! TA.AperFunction,SMDPad,CuDef*
%ADD31RoundRect,0.250000X-2.050000X-0.300000X2.050000X-0.300000X2.050000X0.300000X-2.050000X0.300000X0*%
G04 #@! TD*
G04 #@! TA.AperFunction,SMDPad,CuDef*
%ADD32RoundRect,0.250000X-2.025000X-2.375000X2.025000X-2.375000X2.025000X2.375000X-2.025000X2.375000X0*%
G04 #@! TD*
G04 #@! TA.AperFunction,SMDPad,CuDef*
%ADD33RoundRect,0.250002X-4.449998X-5.149998X4.449998X-5.149998X4.449998X5.149998X-4.449998X5.149998X0*%
G04 #@! TD*
G04 #@! TA.AperFunction,SMDPad,CuDef*
%ADD34RoundRect,0.006000X-0.094000X0.414000X-0.094000X-0.414000X0.094000X-0.414000X0.094000X0.414000X0*%
G04 #@! TD*
G04 #@! TA.AperFunction,SMDPad,CuDef*
%ADD35RoundRect,0.020000X-0.400000X0.080000X-0.400000X-0.080000X0.400000X-0.080000X0.400000X0.080000X0*%
G04 #@! TD*
G04 #@! TA.AperFunction,SMDPad,CuDef*
%ADD36R,3.100000X3.100000*%
G04 #@! TD*
G04 #@! TA.AperFunction,SMDPad,CuDef*
%ADD37R,1.430000X5.500000*%
G04 #@! TD*
G04 #@! TA.AperFunction,SMDPad,CuDef*
%ADD38RoundRect,0.200000X0.275000X-0.200000X0.275000X0.200000X-0.275000X0.200000X-0.275000X-0.200000X0*%
G04 #@! TD*
G04 #@! TA.AperFunction,ComponentPad*
%ADD39R,1.000000X1.000000*%
G04 #@! TD*
G04 #@! TA.AperFunction,ComponentPad*
%ADD40O,1.000000X1.000000*%
G04 #@! TD*
G04 #@! TA.AperFunction,SMDPad,CuDef*
%ADD41R,1.350000X0.400000*%
G04 #@! TD*
G04 #@! TA.AperFunction,ComponentPad*
%ADD42O,0.650000X1.300000*%
G04 #@! TD*
G04 #@! TA.AperFunction,ComponentPad*
%ADD43O,1.550000X0.775000*%
G04 #@! TD*
G04 #@! TA.AperFunction,SMDPad,CuDef*
%ADD44R,1.550000X1.500000*%
G04 #@! TD*
G04 #@! TA.AperFunction,SMDPad,CuDef*
%ADD45RoundRect,0.135000X-0.135000X-0.185000X0.135000X-0.185000X0.135000X0.185000X-0.135000X0.185000X0*%
G04 #@! TD*
G04 #@! TA.AperFunction,SMDPad,CuDef*
%ADD46RoundRect,0.250000X-0.300000X2.050000X-0.300000X-2.050000X0.300000X-2.050000X0.300000X2.050000X0*%
G04 #@! TD*
G04 #@! TA.AperFunction,SMDPad,CuDef*
%ADD47RoundRect,0.250000X-2.375000X2.025000X-2.375000X-2.025000X2.375000X-2.025000X2.375000X2.025000X0*%
G04 #@! TD*
G04 #@! TA.AperFunction,SMDPad,CuDef*
%ADD48RoundRect,0.250002X-5.149998X4.449998X-5.149998X-4.449998X5.149998X-4.449998X5.149998X4.449998X0*%
G04 #@! TD*
G04 #@! TA.AperFunction,SMDPad,CuDef*
%ADD49RoundRect,0.250000X-0.450000X0.262500X-0.450000X-0.262500X0.450000X-0.262500X0.450000X0.262500X0*%
G04 #@! TD*
G04 #@! TA.AperFunction,ComponentPad*
%ADD50R,3.500000X3.500000*%
G04 #@! TD*
G04 #@! TA.AperFunction,ComponentPad*
%ADD51RoundRect,0.750000X-0.750000X-1.000000X0.750000X-1.000000X0.750000X1.000000X-0.750000X1.000000X0*%
G04 #@! TD*
G04 #@! TA.AperFunction,ComponentPad*
%ADD52RoundRect,0.875000X-0.875000X-0.875000X0.875000X-0.875000X0.875000X0.875000X-0.875000X0.875000X0*%
G04 #@! TD*
G04 #@! TA.AperFunction,SMDPad,CuDef*
%ADD53RoundRect,0.140000X0.170000X-0.140000X0.170000X0.140000X-0.170000X0.140000X-0.170000X-0.140000X0*%
G04 #@! TD*
G04 #@! TA.AperFunction,SMDPad,CuDef*
%ADD54R,1.400000X1.200000*%
G04 #@! TD*
G04 #@! TA.AperFunction,SMDPad,CuDef*
%ADD55RoundRect,0.250000X-0.350000X0.850000X-0.350000X-0.850000X0.350000X-0.850000X0.350000X0.850000X0*%
G04 #@! TD*
G04 #@! TA.AperFunction,SMDPad,CuDef*
%ADD56RoundRect,0.250000X-1.125000X1.275000X-1.125000X-1.275000X1.125000X-1.275000X1.125000X1.275000X0*%
G04 #@! TD*
G04 #@! TA.AperFunction,SMDPad,CuDef*
%ADD57RoundRect,0.249997X-2.650003X2.950003X-2.650003X-2.950003X2.650003X-2.950003X2.650003X2.950003X0*%
G04 #@! TD*
G04 #@! TA.AperFunction,SMDPad,CuDef*
%ADD58RoundRect,0.150000X0.150000X-0.512500X0.150000X0.512500X-0.150000X0.512500X-0.150000X-0.512500X0*%
G04 #@! TD*
G04 #@! TA.AperFunction,ComponentPad*
%ADD59R,2.600000X2.600000*%
G04 #@! TD*
G04 #@! TA.AperFunction,ComponentPad*
%ADD60C,2.600000*%
G04 #@! TD*
G04 #@! TA.AperFunction,SMDPad,CuDef*
%ADD61RoundRect,0.250000X1.000000X0.650000X-1.000000X0.650000X-1.000000X-0.650000X1.000000X-0.650000X0*%
G04 #@! TD*
G04 #@! TA.AperFunction,SMDPad,CuDef*
%ADD62R,3.810000X4.240000*%
G04 #@! TD*
G04 #@! TA.AperFunction,ViaPad*
%ADD63C,0.800000*%
G04 #@! TD*
G04 #@! TA.AperFunction,ViaPad*
%ADD64C,0.500000*%
G04 #@! TD*
G04 #@! TA.AperFunction,Conductor*
%ADD65C,1.000000*%
G04 #@! TD*
G04 #@! TA.AperFunction,Conductor*
%ADD66C,0.500000*%
G04 #@! TD*
G04 #@! TA.AperFunction,Conductor*
%ADD67C,0.250000*%
G04 #@! TD*
G04 #@! TA.AperFunction,Conductor*
%ADD68C,0.200000*%
G04 #@! TD*
G04 #@! TA.AperFunction,Conductor*
%ADD69C,0.130000*%
G04 #@! TD*
G04 #@! TA.AperFunction,Conductor*
%ADD70C,0.203200*%
G04 #@! TD*
G04 #@! TA.AperFunction,Conductor*
%ADD71C,0.100000*%
G04 #@! TD*
G04 APERTURE END LIST*
D10*
X106278700Y-134998400D02*
X106078700Y-134998400D01*
X106078700Y-134986400D01*
X106077700Y-134973400D01*
X106075700Y-134960400D01*
X106073700Y-134947400D01*
X106070700Y-134934400D01*
X106066700Y-134922400D01*
X106061700Y-134910400D01*
X106056700Y-134898400D01*
X106051700Y-134886400D01*
X106045700Y-134874400D01*
X106038700Y-134863400D01*
X106030700Y-134853400D01*
X106023700Y-134842400D01*
X106014700Y-134832400D01*
X106005700Y-134823400D01*
X105996700Y-134814400D01*
X105986700Y-134805400D01*
X105975700Y-134798400D01*
X105965700Y-134790400D01*
X105954700Y-134783400D01*
X105942700Y-134777400D01*
X105930700Y-134772400D01*
X105918700Y-134767400D01*
X105906700Y-134762400D01*
X105894700Y-134758400D01*
X105881700Y-134755400D01*
X105868700Y-134753400D01*
X105855700Y-134751400D01*
X105842700Y-134750400D01*
X105828700Y-134750400D01*
X105818700Y-134750400D01*
X105188700Y-134750400D01*
X105178700Y-134750400D01*
X105165700Y-134750400D01*
X105152700Y-134751400D01*
X105139700Y-134753400D01*
X105126700Y-134755400D01*
X105113700Y-134759400D01*
X105101700Y-134762400D01*
X105088700Y-134767400D01*
X105076700Y-134772400D01*
X105065700Y-134777400D01*
X105053700Y-134783400D01*
X105042700Y-134790400D01*
X105031700Y-134798400D01*
X105021700Y-134806400D01*
X105011700Y-134814400D01*
X105001700Y-134823400D01*
X104992700Y-134833400D01*
X104984700Y-134843400D01*
X104976700Y-134853400D01*
X104968700Y-134864400D01*
X104961700Y-134875400D01*
X104955700Y-134887400D01*
X104950700Y-134898400D01*
X104945700Y-134910400D01*
X104940700Y-134923400D01*
X104937700Y-134935400D01*
X104933700Y-134948400D01*
X104931700Y-134961400D01*
X104929700Y-134974400D01*
X104928700Y-134987400D01*
X104928700Y-135000400D01*
X104928700Y-135013400D01*
X104929700Y-135026400D01*
X104931700Y-135039400D01*
X104933700Y-135052400D01*
X104937700Y-135065400D01*
X104940700Y-135077400D01*
X104945700Y-135090400D01*
X104950700Y-135102400D01*
X104955700Y-135113400D01*
X104961700Y-135125400D01*
X104968700Y-135136400D01*
X104976700Y-135147400D01*
X104984700Y-135157400D01*
X104992700Y-135167400D01*
X105001700Y-135177400D01*
X105011700Y-135186400D01*
X105021700Y-135194400D01*
X105031700Y-135202400D01*
X105042700Y-135210400D01*
X105053700Y-135217400D01*
X105065700Y-135223400D01*
X105076700Y-135228400D01*
X105088700Y-135233400D01*
X105101700Y-135238400D01*
X105113700Y-135241400D01*
X105126700Y-135245400D01*
X105139700Y-135247400D01*
X105152700Y-135249400D01*
X105165700Y-135250400D01*
X105178700Y-135250400D01*
X105828700Y-135250400D01*
X105842700Y-135250400D01*
X105855700Y-135249400D01*
X105868700Y-135247400D01*
X105881700Y-135245400D01*
X105894700Y-135242400D01*
X105906700Y-135238400D01*
X105918700Y-135233400D01*
X105930700Y-135228400D01*
X105942700Y-135223400D01*
X105954700Y-135217400D01*
X105965700Y-135210400D01*
X105975700Y-135202400D01*
X105986700Y-135195400D01*
X105996700Y-135186400D01*
X106005700Y-135177400D01*
X106014700Y-135168400D01*
X106023700Y-135158400D01*
X106030700Y-135147400D01*
X106038700Y-135137400D01*
X106045700Y-135126400D01*
X106051700Y-135114400D01*
X106056700Y-135102400D01*
X106061700Y-135090400D01*
X106066700Y-135078400D01*
X106070700Y-135066400D01*
X106073700Y-135053400D01*
X106075700Y-135040400D01*
X106077700Y-135027400D01*
X106078700Y-135014400D01*
X106078700Y-135002400D01*
X106278700Y-135002400D01*
X106277700Y-135027400D01*
X106275700Y-135053400D01*
X106272700Y-135079400D01*
X106267700Y-135105400D01*
X106261700Y-135130400D01*
X106254700Y-135155400D01*
X106245700Y-135180400D01*
X106235700Y-135204400D01*
X106224700Y-135228400D01*
X106211700Y-135251400D01*
X106198700Y-135273400D01*
X106183700Y-135294400D01*
X106167700Y-135315400D01*
X106150700Y-135335400D01*
X106132700Y-135354400D01*
X106113700Y-135372400D01*
X106093700Y-135389400D01*
X106072700Y-135405400D01*
X106051700Y-135420400D01*
X106029700Y-135433400D01*
X106006700Y-135446400D01*
X105982700Y-135457400D01*
X105958700Y-135467400D01*
X105933700Y-135476400D01*
X105908700Y-135483400D01*
X105883700Y-135489400D01*
X105857700Y-135494400D01*
X105831700Y-135497400D01*
X105805700Y-135499400D01*
X105778700Y-135500400D01*
X105228700Y-135500400D01*
X105202700Y-135499400D01*
X105176700Y-135497400D01*
X105150700Y-135494400D01*
X105124700Y-135489400D01*
X105099700Y-135483400D01*
X105073700Y-135476400D01*
X105049700Y-135467400D01*
X105025700Y-135457400D01*
X105001700Y-135446400D01*
X104978700Y-135433400D01*
X104956700Y-135419400D01*
X104934700Y-135405400D01*
X104913700Y-135389400D01*
X104893700Y-135372400D01*
X104874700Y-135354400D01*
X104856700Y-135335400D01*
X104839700Y-135315400D01*
X104823700Y-135294400D01*
X104809700Y-135272400D01*
X104795700Y-135250400D01*
X104782700Y-135227400D01*
X104771700Y-135203400D01*
X104761700Y-135179400D01*
X104752700Y-135155400D01*
X104745700Y-135129400D01*
X104739700Y-135104400D01*
X104734700Y-135078400D01*
X104731700Y-135052400D01*
X104729700Y-135026400D01*
X104728700Y-135000400D01*
X104728700Y-133805400D01*
X104723700Y-133805400D01*
X104723700Y-133800400D01*
X106278700Y-133800400D01*
X106278700Y-134998400D01*
G04 #@! TA.AperFunction,EtchedComponent*
G36*
X106278700Y-134998400D02*
G01*
X106078700Y-134998400D01*
X106078700Y-134986400D01*
X106077700Y-134973400D01*
X106075700Y-134960400D01*
X106073700Y-134947400D01*
X106070700Y-134934400D01*
X106066700Y-134922400D01*
X106061700Y-134910400D01*
X106056700Y-134898400D01*
X106051700Y-134886400D01*
X106045700Y-134874400D01*
X106038700Y-134863400D01*
X106030700Y-134853400D01*
X106023700Y-134842400D01*
X106014700Y-134832400D01*
X106005700Y-134823400D01*
X105996700Y-134814400D01*
X105986700Y-134805400D01*
X105975700Y-134798400D01*
X105965700Y-134790400D01*
X105954700Y-134783400D01*
X105942700Y-134777400D01*
X105930700Y-134772400D01*
X105918700Y-134767400D01*
X105906700Y-134762400D01*
X105894700Y-134758400D01*
X105881700Y-134755400D01*
X105868700Y-134753400D01*
X105855700Y-134751400D01*
X105842700Y-134750400D01*
X105828700Y-134750400D01*
X105818700Y-134750400D01*
X105188700Y-134750400D01*
X105178700Y-134750400D01*
X105165700Y-134750400D01*
X105152700Y-134751400D01*
X105139700Y-134753400D01*
X105126700Y-134755400D01*
X105113700Y-134759400D01*
X105101700Y-134762400D01*
X105088700Y-134767400D01*
X105076700Y-134772400D01*
X105065700Y-134777400D01*
X105053700Y-134783400D01*
X105042700Y-134790400D01*
X105031700Y-134798400D01*
X105021700Y-134806400D01*
X105011700Y-134814400D01*
X105001700Y-134823400D01*
X104992700Y-134833400D01*
X104984700Y-134843400D01*
X104976700Y-134853400D01*
X104968700Y-134864400D01*
X104961700Y-134875400D01*
X104955700Y-134887400D01*
X104950700Y-134898400D01*
X104945700Y-134910400D01*
X104940700Y-134923400D01*
X104937700Y-134935400D01*
X104933700Y-134948400D01*
X104931700Y-134961400D01*
X104929700Y-134974400D01*
X104928700Y-134987400D01*
X104928700Y-135000400D01*
X104928700Y-135013400D01*
X104929700Y-135026400D01*
X104931700Y-135039400D01*
X104933700Y-135052400D01*
X104937700Y-135065400D01*
X104940700Y-135077400D01*
X104945700Y-135090400D01*
X104950700Y-135102400D01*
X104955700Y-135113400D01*
X104961700Y-135125400D01*
X104968700Y-135136400D01*
X104976700Y-135147400D01*
X104984700Y-135157400D01*
X104992700Y-135167400D01*
X105001700Y-135177400D01*
X105011700Y-135186400D01*
X105021700Y-135194400D01*
X105031700Y-135202400D01*
X105042700Y-135210400D01*
X105053700Y-135217400D01*
X105065700Y-135223400D01*
X105076700Y-135228400D01*
X105088700Y-135233400D01*
X105101700Y-135238400D01*
X105113700Y-135241400D01*
X105126700Y-135245400D01*
X105139700Y-135247400D01*
X105152700Y-135249400D01*
X105165700Y-135250400D01*
X105178700Y-135250400D01*
X105828700Y-135250400D01*
X105842700Y-135250400D01*
X105855700Y-135249400D01*
X105868700Y-135247400D01*
X105881700Y-135245400D01*
X105894700Y-135242400D01*
X105906700Y-135238400D01*
X105918700Y-135233400D01*
X105930700Y-135228400D01*
X105942700Y-135223400D01*
X105954700Y-135217400D01*
X105965700Y-135210400D01*
X105975700Y-135202400D01*
X105986700Y-135195400D01*
X105996700Y-135186400D01*
X106005700Y-135177400D01*
X106014700Y-135168400D01*
X106023700Y-135158400D01*
X106030700Y-135147400D01*
X106038700Y-135137400D01*
X106045700Y-135126400D01*
X106051700Y-135114400D01*
X106056700Y-135102400D01*
X106061700Y-135090400D01*
X106066700Y-135078400D01*
X106070700Y-135066400D01*
X106073700Y-135053400D01*
X106075700Y-135040400D01*
X106077700Y-135027400D01*
X106078700Y-135014400D01*
X106078700Y-135002400D01*
X106278700Y-135002400D01*
X106277700Y-135027400D01*
X106275700Y-135053400D01*
X106272700Y-135079400D01*
X106267700Y-135105400D01*
X106261700Y-135130400D01*
X106254700Y-135155400D01*
X106245700Y-135180400D01*
X106235700Y-135204400D01*
X106224700Y-135228400D01*
X106211700Y-135251400D01*
X106198700Y-135273400D01*
X106183700Y-135294400D01*
X106167700Y-135315400D01*
X106150700Y-135335400D01*
X106132700Y-135354400D01*
X106113700Y-135372400D01*
X106093700Y-135389400D01*
X106072700Y-135405400D01*
X106051700Y-135420400D01*
X106029700Y-135433400D01*
X106006700Y-135446400D01*
X105982700Y-135457400D01*
X105958700Y-135467400D01*
X105933700Y-135476400D01*
X105908700Y-135483400D01*
X105883700Y-135489400D01*
X105857700Y-135494400D01*
X105831700Y-135497400D01*
X105805700Y-135499400D01*
X105778700Y-135500400D01*
X105228700Y-135500400D01*
X105202700Y-135499400D01*
X105176700Y-135497400D01*
X105150700Y-135494400D01*
X105124700Y-135489400D01*
X105099700Y-135483400D01*
X105073700Y-135476400D01*
X105049700Y-135467400D01*
X105025700Y-135457400D01*
X105001700Y-135446400D01*
X104978700Y-135433400D01*
X104956700Y-135419400D01*
X104934700Y-135405400D01*
X104913700Y-135389400D01*
X104893700Y-135372400D01*
X104874700Y-135354400D01*
X104856700Y-135335400D01*
X104839700Y-135315400D01*
X104823700Y-135294400D01*
X104809700Y-135272400D01*
X104795700Y-135250400D01*
X104782700Y-135227400D01*
X104771700Y-135203400D01*
X104761700Y-135179400D01*
X104752700Y-135155400D01*
X104745700Y-135129400D01*
X104739700Y-135104400D01*
X104734700Y-135078400D01*
X104731700Y-135052400D01*
X104729700Y-135026400D01*
X104728700Y-135000400D01*
X104728700Y-133805400D01*
X104723700Y-133805400D01*
X104723700Y-133800400D01*
X106278700Y-133800400D01*
X106278700Y-134998400D01*
G37*
G04 #@! TD.AperFunction*
X105804700Y-127501400D02*
X105830700Y-127503400D01*
X105856700Y-127506400D01*
X105882700Y-127511400D01*
X105907700Y-127517400D01*
X105933700Y-127524400D01*
X105957700Y-127533400D01*
X105981700Y-127543400D01*
X106005700Y-127554400D01*
X106028700Y-127567400D01*
X106050700Y-127581400D01*
X106072700Y-127595400D01*
X106093700Y-127611400D01*
X106113700Y-127628400D01*
X106132700Y-127646400D01*
X106150700Y-127665400D01*
X106167700Y-127685400D01*
X106183700Y-127706400D01*
X106197700Y-127728400D01*
X106211700Y-127750400D01*
X106224700Y-127773400D01*
X106235700Y-127797400D01*
X106245700Y-127821400D01*
X106254700Y-127845400D01*
X106261700Y-127871400D01*
X106267700Y-127896400D01*
X106272700Y-127922400D01*
X106275700Y-127948400D01*
X106277700Y-127974400D01*
X106278700Y-128000400D01*
X106278700Y-129195400D01*
X106283700Y-129195400D01*
X106283700Y-129200400D01*
X104728700Y-129200400D01*
X104728700Y-128002400D01*
X104928700Y-128002400D01*
X104928700Y-128014400D01*
X104929700Y-128027400D01*
X104931700Y-128040400D01*
X104933700Y-128053400D01*
X104936700Y-128066400D01*
X104940700Y-128078400D01*
X104945700Y-128090400D01*
X104950700Y-128102400D01*
X104955700Y-128114400D01*
X104961700Y-128126400D01*
X104968700Y-128137400D01*
X104976700Y-128147400D01*
X104983700Y-128158400D01*
X104992700Y-128168400D01*
X105001700Y-128177400D01*
X105010700Y-128186400D01*
X105020700Y-128195400D01*
X105031700Y-128202400D01*
X105041700Y-128210400D01*
X105052700Y-128217400D01*
X105064700Y-128223400D01*
X105076700Y-128228400D01*
X105088700Y-128233400D01*
X105100700Y-128238400D01*
X105112700Y-128242400D01*
X105125700Y-128245400D01*
X105138700Y-128247400D01*
X105151700Y-128249400D01*
X105164700Y-128250400D01*
X105178700Y-128250400D01*
X105188700Y-128250400D01*
X105818700Y-128250400D01*
X105828700Y-128250400D01*
X105841700Y-128250400D01*
X105854700Y-128249400D01*
X105867700Y-128247400D01*
X105880700Y-128245400D01*
X105893700Y-128241400D01*
X105905700Y-128238400D01*
X105918700Y-128233400D01*
X105930700Y-128228400D01*
X105941700Y-128223400D01*
X105953700Y-128217400D01*
X105964700Y-128210400D01*
X105975700Y-128202400D01*
X105985700Y-128194400D01*
X105995700Y-128186400D01*
X106005700Y-128177400D01*
X106014700Y-128167400D01*
X106022700Y-128157400D01*
X106030700Y-128147400D01*
X106038700Y-128136400D01*
X106045700Y-128125400D01*
X106051700Y-128113400D01*
X106056700Y-128102400D01*
X106061700Y-128090400D01*
X106066700Y-128077400D01*
X106069700Y-128065400D01*
X106073700Y-128052400D01*
X106075700Y-128039400D01*
X106077700Y-128026400D01*
X106078700Y-128013400D01*
X106078700Y-128000400D01*
X106078700Y-127987400D01*
X106077700Y-127974400D01*
X106075700Y-127961400D01*
X106073700Y-127948400D01*
X106069700Y-127935400D01*
X106066700Y-127923400D01*
X106061700Y-127910400D01*
X106056700Y-127898400D01*
X106051700Y-127887400D01*
X106045700Y-127875400D01*
X106038700Y-127864400D01*
X106030700Y-127853400D01*
X106022700Y-127843400D01*
X106014700Y-127833400D01*
X106005700Y-127823400D01*
X105995700Y-127814400D01*
X105985700Y-127806400D01*
X105975700Y-127798400D01*
X105964700Y-127790400D01*
X105953700Y-127783400D01*
X105941700Y-127777400D01*
X105930700Y-127772400D01*
X105918700Y-127767400D01*
X105905700Y-127762400D01*
X105893700Y-127759400D01*
X105880700Y-127755400D01*
X105867700Y-127753400D01*
X105854700Y-127751400D01*
X105841700Y-127750400D01*
X105828700Y-127750400D01*
X105178700Y-127750400D01*
X105164700Y-127750400D01*
X105151700Y-127751400D01*
X105138700Y-127753400D01*
X105125700Y-127755400D01*
X105112700Y-127758400D01*
X105100700Y-127762400D01*
X105088700Y-127767400D01*
X105076700Y-127772400D01*
X105064700Y-127777400D01*
X105052700Y-127783400D01*
X105041700Y-127790400D01*
X105031700Y-127798400D01*
X105020700Y-127805400D01*
X105010700Y-127814400D01*
X105001700Y-127823400D01*
X104992700Y-127832400D01*
X104983700Y-127842400D01*
X104976700Y-127853400D01*
X104968700Y-127863400D01*
X104961700Y-127874400D01*
X104955700Y-127886400D01*
X104950700Y-127898400D01*
X104945700Y-127910400D01*
X104940700Y-127922400D01*
X104936700Y-127934400D01*
X104933700Y-127947400D01*
X104931700Y-127960400D01*
X104929700Y-127973400D01*
X104928700Y-127986400D01*
X104928700Y-127998400D01*
X104728700Y-127998400D01*
X104729700Y-127973400D01*
X104731700Y-127947400D01*
X104734700Y-127921400D01*
X104739700Y-127895400D01*
X104745700Y-127870400D01*
X104752700Y-127845400D01*
X104761700Y-127820400D01*
X104771700Y-127796400D01*
X104782700Y-127772400D01*
X104795700Y-127749400D01*
X104808700Y-127727400D01*
X104823700Y-127706400D01*
X104839700Y-127685400D01*
X104856700Y-127665400D01*
X104874700Y-127646400D01*
X104893700Y-127628400D01*
X104913700Y-127611400D01*
X104934700Y-127595400D01*
X104955700Y-127580400D01*
X104977700Y-127567400D01*
X105000700Y-127554400D01*
X105024700Y-127543400D01*
X105048700Y-127533400D01*
X105073700Y-127524400D01*
X105098700Y-127517400D01*
X105123700Y-127511400D01*
X105149700Y-127506400D01*
X105175700Y-127503400D01*
X105201700Y-127501400D01*
X105228700Y-127500400D01*
X105778700Y-127500400D01*
X105804700Y-127501400D01*
G04 #@! TA.AperFunction,EtchedComponent*
G36*
X105804700Y-127501400D02*
G01*
X105830700Y-127503400D01*
X105856700Y-127506400D01*
X105882700Y-127511400D01*
X105907700Y-127517400D01*
X105933700Y-127524400D01*
X105957700Y-127533400D01*
X105981700Y-127543400D01*
X106005700Y-127554400D01*
X106028700Y-127567400D01*
X106050700Y-127581400D01*
X106072700Y-127595400D01*
X106093700Y-127611400D01*
X106113700Y-127628400D01*
X106132700Y-127646400D01*
X106150700Y-127665400D01*
X106167700Y-127685400D01*
X106183700Y-127706400D01*
X106197700Y-127728400D01*
X106211700Y-127750400D01*
X106224700Y-127773400D01*
X106235700Y-127797400D01*
X106245700Y-127821400D01*
X106254700Y-127845400D01*
X106261700Y-127871400D01*
X106267700Y-127896400D01*
X106272700Y-127922400D01*
X106275700Y-127948400D01*
X106277700Y-127974400D01*
X106278700Y-128000400D01*
X106278700Y-129195400D01*
X106283700Y-129195400D01*
X106283700Y-129200400D01*
X104728700Y-129200400D01*
X104728700Y-128002400D01*
X104928700Y-128002400D01*
X104928700Y-128014400D01*
X104929700Y-128027400D01*
X104931700Y-128040400D01*
X104933700Y-128053400D01*
X104936700Y-128066400D01*
X104940700Y-128078400D01*
X104945700Y-128090400D01*
X104950700Y-128102400D01*
X104955700Y-128114400D01*
X104961700Y-128126400D01*
X104968700Y-128137400D01*
X104976700Y-128147400D01*
X104983700Y-128158400D01*
X104992700Y-128168400D01*
X105001700Y-128177400D01*
X105010700Y-128186400D01*
X105020700Y-128195400D01*
X105031700Y-128202400D01*
X105041700Y-128210400D01*
X105052700Y-128217400D01*
X105064700Y-128223400D01*
X105076700Y-128228400D01*
X105088700Y-128233400D01*
X105100700Y-128238400D01*
X105112700Y-128242400D01*
X105125700Y-128245400D01*
X105138700Y-128247400D01*
X105151700Y-128249400D01*
X105164700Y-128250400D01*
X105178700Y-128250400D01*
X105188700Y-128250400D01*
X105818700Y-128250400D01*
X105828700Y-128250400D01*
X105841700Y-128250400D01*
X105854700Y-128249400D01*
X105867700Y-128247400D01*
X105880700Y-128245400D01*
X105893700Y-128241400D01*
X105905700Y-128238400D01*
X105918700Y-128233400D01*
X105930700Y-128228400D01*
X105941700Y-128223400D01*
X105953700Y-128217400D01*
X105964700Y-128210400D01*
X105975700Y-128202400D01*
X105985700Y-128194400D01*
X105995700Y-128186400D01*
X106005700Y-128177400D01*
X106014700Y-128167400D01*
X106022700Y-128157400D01*
X106030700Y-128147400D01*
X106038700Y-128136400D01*
X106045700Y-128125400D01*
X106051700Y-128113400D01*
X106056700Y-128102400D01*
X106061700Y-128090400D01*
X106066700Y-128077400D01*
X106069700Y-128065400D01*
X106073700Y-128052400D01*
X106075700Y-128039400D01*
X106077700Y-128026400D01*
X106078700Y-128013400D01*
X106078700Y-128000400D01*
X106078700Y-127987400D01*
X106077700Y-127974400D01*
X106075700Y-127961400D01*
X106073700Y-127948400D01*
X106069700Y-127935400D01*
X106066700Y-127923400D01*
X106061700Y-127910400D01*
X106056700Y-127898400D01*
X106051700Y-127887400D01*
X106045700Y-127875400D01*
X106038700Y-127864400D01*
X106030700Y-127853400D01*
X106022700Y-127843400D01*
X106014700Y-127833400D01*
X106005700Y-127823400D01*
X105995700Y-127814400D01*
X105985700Y-127806400D01*
X105975700Y-127798400D01*
X105964700Y-127790400D01*
X105953700Y-127783400D01*
X105941700Y-127777400D01*
X105930700Y-127772400D01*
X105918700Y-127767400D01*
X105905700Y-127762400D01*
X105893700Y-127759400D01*
X105880700Y-127755400D01*
X105867700Y-127753400D01*
X105854700Y-127751400D01*
X105841700Y-127750400D01*
X105828700Y-127750400D01*
X105178700Y-127750400D01*
X105164700Y-127750400D01*
X105151700Y-127751400D01*
X105138700Y-127753400D01*
X105125700Y-127755400D01*
X105112700Y-127758400D01*
X105100700Y-127762400D01*
X105088700Y-127767400D01*
X105076700Y-127772400D01*
X105064700Y-127777400D01*
X105052700Y-127783400D01*
X105041700Y-127790400D01*
X105031700Y-127798400D01*
X105020700Y-127805400D01*
X105010700Y-127814400D01*
X105001700Y-127823400D01*
X104992700Y-127832400D01*
X104983700Y-127842400D01*
X104976700Y-127853400D01*
X104968700Y-127863400D01*
X104961700Y-127874400D01*
X104955700Y-127886400D01*
X104950700Y-127898400D01*
X104945700Y-127910400D01*
X104940700Y-127922400D01*
X104936700Y-127934400D01*
X104933700Y-127947400D01*
X104931700Y-127960400D01*
X104929700Y-127973400D01*
X104928700Y-127986400D01*
X104928700Y-127998400D01*
X104728700Y-127998400D01*
X104729700Y-127973400D01*
X104731700Y-127947400D01*
X104734700Y-127921400D01*
X104739700Y-127895400D01*
X104745700Y-127870400D01*
X104752700Y-127845400D01*
X104761700Y-127820400D01*
X104771700Y-127796400D01*
X104782700Y-127772400D01*
X104795700Y-127749400D01*
X104808700Y-127727400D01*
X104823700Y-127706400D01*
X104839700Y-127685400D01*
X104856700Y-127665400D01*
X104874700Y-127646400D01*
X104893700Y-127628400D01*
X104913700Y-127611400D01*
X104934700Y-127595400D01*
X104955700Y-127580400D01*
X104977700Y-127567400D01*
X105000700Y-127554400D01*
X105024700Y-127543400D01*
X105048700Y-127533400D01*
X105073700Y-127524400D01*
X105098700Y-127517400D01*
X105123700Y-127511400D01*
X105149700Y-127506400D01*
X105175700Y-127503400D01*
X105201700Y-127501400D01*
X105228700Y-127500400D01*
X105778700Y-127500400D01*
X105804700Y-127501400D01*
G37*
G04 #@! TD.AperFunction*
D11*
X124765000Y-136065000D03*
X123805000Y-136065000D03*
D12*
X130490000Y-131565000D03*
X129220000Y-131565000D03*
X127950000Y-131565000D03*
X126680000Y-131565000D03*
X126680000Y-138765000D03*
X127950000Y-138765000D03*
X129220000Y-138765000D03*
X130490000Y-138765000D03*
D13*
X139487246Y-79550000D03*
D14*
X146987246Y-79550000D03*
D15*
X111655000Y-137465000D03*
X112615000Y-137465000D03*
D16*
X128400000Y-77300000D03*
X126500000Y-77300000D03*
D17*
X126325000Y-79700000D03*
X127875000Y-79700000D03*
D18*
X111460000Y-127050000D03*
X110440000Y-127050000D03*
D19*
X107500000Y-53882500D03*
X107500000Y-55432500D03*
D18*
X124195000Y-138065000D03*
X123175000Y-138065000D03*
D20*
X121885000Y-143565000D03*
D21*
X122885000Y-143565000D03*
X123885000Y-143565000D03*
D22*
X117925000Y-80900000D03*
X120875000Y-80900000D03*
D18*
X124195000Y-137065000D03*
X123175000Y-137065000D03*
D20*
X111600000Y-143600000D03*
D21*
X112600000Y-143600000D03*
X113600000Y-143600000D03*
X114600000Y-143600000D03*
X115600000Y-143600000D03*
X116600000Y-143600000D03*
X117600000Y-143600000D03*
X118600000Y-143600000D03*
D23*
X108085000Y-123625000D03*
D24*
X107850000Y-116900000D03*
X113400000Y-116900000D03*
D25*
X110625000Y-114475000D03*
D24*
X107850000Y-112050000D03*
X113400000Y-112050000D03*
D23*
X113165000Y-123625000D03*
D26*
X117085000Y-140865000D03*
X117085000Y-141825000D03*
D27*
X130760000Y-129165000D03*
X132410000Y-129165000D03*
D28*
X122500000Y-95225000D03*
X122500000Y-98175000D03*
D29*
X130250000Y-70875000D03*
X130250000Y-67925000D03*
D20*
X111500000Y-139000000D03*
D21*
X111500000Y-140000000D03*
X111500000Y-141000000D03*
X111500000Y-142000000D03*
D30*
X114250000Y-54157500D03*
X110750000Y-54157500D03*
D19*
X130250000Y-72650000D03*
X130250000Y-74200000D03*
D30*
X120250000Y-54157500D03*
X116750000Y-54157500D03*
D11*
X122545000Y-131365000D03*
X121585000Y-131365000D03*
D13*
X139587246Y-116400000D03*
D14*
X147087246Y-116400000D03*
D31*
X120350000Y-110060000D03*
D32*
X127075000Y-109825000D03*
X127075000Y-115375000D03*
D33*
X129500000Y-112600000D03*
D32*
X131925000Y-109825000D03*
X131925000Y-115375000D03*
D31*
X120350000Y-115140000D03*
D28*
X121800000Y-119275000D03*
X121800000Y-122225000D03*
D11*
X131665000Y-140715000D03*
X130705000Y-140715000D03*
D28*
X119850000Y-95250000D03*
X119850000Y-98200000D03*
X125200000Y-95250000D03*
X125200000Y-98200000D03*
D11*
X124165000Y-139065000D03*
X123205000Y-139065000D03*
D34*
X120745000Y-132695000D03*
X120345000Y-132695000D03*
X119945000Y-132695000D03*
X119545000Y-132695000D03*
X119145000Y-132695000D03*
X118745000Y-132695000D03*
X118345000Y-132695000D03*
X117945000Y-132695000D03*
X117545000Y-132695000D03*
X117145000Y-132695000D03*
X116745000Y-132695000D03*
X116345000Y-132695000D03*
X115945000Y-132695000D03*
X115545000Y-132695000D03*
D35*
X114710000Y-133530000D03*
X114710000Y-133930000D03*
X114710000Y-134330000D03*
X114710000Y-134730000D03*
X114710000Y-135130000D03*
X114710000Y-135530000D03*
X114710000Y-135930000D03*
X114710000Y-136330000D03*
X114710000Y-136730000D03*
X114710000Y-137130000D03*
X114710000Y-137530000D03*
X114710000Y-137930000D03*
X114710000Y-138330000D03*
X114710000Y-138730000D03*
D34*
X115545000Y-139565000D03*
X115945000Y-139565000D03*
X116345000Y-139565000D03*
X116745000Y-139565000D03*
X117145000Y-139565000D03*
X117545000Y-139565000D03*
X117945000Y-139565000D03*
X118345000Y-139565000D03*
X118745000Y-139565000D03*
X119145000Y-139565000D03*
X119545000Y-139565000D03*
X119945000Y-139565000D03*
X120345000Y-139565000D03*
X120745000Y-139565000D03*
D35*
X121580000Y-138730000D03*
X121580000Y-138330000D03*
X121580000Y-137930000D03*
X121580000Y-137530000D03*
X121580000Y-137130000D03*
X121580000Y-136730000D03*
X121580000Y-136330000D03*
X121580000Y-135930000D03*
X121580000Y-135530000D03*
X121580000Y-135130000D03*
X121580000Y-134730000D03*
X121580000Y-134330000D03*
X121580000Y-133930000D03*
X121580000Y-133530000D03*
D36*
X118145000Y-136130000D03*
D37*
X122745000Y-75750000D03*
X118705000Y-75750000D03*
D13*
X139487246Y-61600000D03*
D14*
X146987246Y-61600000D03*
D38*
X110000000Y-138325000D03*
X110000000Y-136675000D03*
D39*
X133200000Y-134750000D03*
D40*
X133200000Y-133480000D03*
D41*
X108203700Y-130200400D03*
X108203700Y-130850400D03*
X108203700Y-131500400D03*
X108203700Y-132150400D03*
X108203700Y-132800400D03*
D42*
X108203700Y-129000400D03*
X108203700Y-134000400D03*
D43*
X105503700Y-128000400D03*
D44*
X105503700Y-130500400D03*
X105503700Y-132500400D03*
D43*
X105503700Y-135000400D03*
D45*
X114700000Y-69950000D03*
X115720000Y-69950000D03*
D46*
X113165000Y-73425000D03*
D47*
X113400000Y-80150000D03*
X107850000Y-80150000D03*
D48*
X110625000Y-82575000D03*
D47*
X113400000Y-85000000D03*
X107850000Y-85000000D03*
D46*
X108085000Y-73425000D03*
D49*
X125800000Y-100300000D03*
X125800000Y-102125000D03*
D50*
X114700000Y-61600000D03*
D51*
X108600000Y-61600000D03*
D52*
X111700000Y-66200000D03*
D27*
X129825000Y-79700000D03*
X131475000Y-79700000D03*
D53*
X113300000Y-139980000D03*
X113300000Y-139020000D03*
D31*
X120325000Y-85485000D03*
D32*
X127050000Y-85250000D03*
X127050000Y-90800000D03*
D33*
X129475000Y-88025000D03*
D32*
X131900000Y-85250000D03*
X131900000Y-90800000D03*
D31*
X120325000Y-90565000D03*
D13*
X139587246Y-98400000D03*
D14*
X147087246Y-98400000D03*
D29*
X127750000Y-70875000D03*
X127750000Y-67925000D03*
D54*
X110485000Y-134715000D03*
X112685000Y-134715000D03*
X112685000Y-133015000D03*
X110485000Y-133015000D03*
D55*
X131405000Y-54725000D03*
D56*
X130650000Y-59350000D03*
X127600000Y-59350000D03*
D57*
X129125000Y-61025000D03*
D56*
X130650000Y-62700000D03*
X127600000Y-62700000D03*
D55*
X126845000Y-54725000D03*
D17*
X119125000Y-105000000D03*
X120675000Y-105000000D03*
D49*
X122000000Y-100300000D03*
X122000000Y-102125000D03*
D58*
X126500000Y-75137500D03*
X127450000Y-75137500D03*
X128400000Y-75137500D03*
X128400000Y-72862500D03*
X127450000Y-72862500D03*
X126500000Y-72862500D03*
D15*
X123805000Y-135065000D03*
X124765000Y-135065000D03*
D13*
X139587246Y-134600000D03*
D14*
X147087246Y-134600000D03*
D59*
X111495000Y-96255000D03*
D60*
X111495000Y-101335000D03*
D61*
X122725000Y-69850000D03*
X118725000Y-69850000D03*
D49*
X119800000Y-100287500D03*
X119800000Y-102112500D03*
D20*
X129000000Y-143600000D03*
D21*
X130000000Y-143600000D03*
X131000000Y-143600000D03*
D53*
X112700000Y-131660000D03*
X112700000Y-130700000D03*
D27*
X127560000Y-129165000D03*
X129210000Y-129165000D03*
D15*
X111655000Y-136465000D03*
X112615000Y-136465000D03*
D62*
X122100000Y-64935000D03*
X122100000Y-58565000D03*
D53*
X117000000Y-131095000D03*
X117000000Y-130135000D03*
D11*
X108560000Y-136800000D03*
X107600000Y-136800000D03*
D15*
X123205000Y-140065000D03*
X124165000Y-140065000D03*
D63*
X124000000Y-129400000D03*
X132200000Y-124100000D03*
X119389099Y-106549149D03*
X114300000Y-131000000D03*
X135100000Y-127500000D03*
X118800000Y-79300000D03*
X106400000Y-136800000D03*
X107750000Y-69500000D03*
X109750000Y-123750000D03*
X111750000Y-124750000D03*
X134700000Y-72900000D03*
D64*
X116400000Y-129300000D03*
D63*
X104250000Y-88250000D03*
X107200000Y-136000000D03*
X125100000Y-131900000D03*
X133700000Y-66800000D03*
X114750000Y-122750000D03*
X111031754Y-137531754D03*
X104250000Y-89250000D03*
X104250000Y-117250000D03*
X110750000Y-124750000D03*
X109750000Y-122750000D03*
X106750000Y-68500000D03*
D64*
X115900000Y-134500000D03*
D63*
X123250000Y-99750000D03*
X108750000Y-69500000D03*
X104250000Y-112250000D03*
X104250000Y-118250000D03*
X121500000Y-125800000D03*
X133600000Y-122600000D03*
D64*
X117100000Y-129300000D03*
D63*
X121500000Y-124000000D03*
X104250000Y-91250000D03*
X104250000Y-90250000D03*
X132300000Y-72900000D03*
X114300000Y-93800000D03*
X110750000Y-123750000D03*
X125400000Y-139300000D03*
X114750000Y-124750000D03*
X111750000Y-122750000D03*
X132000000Y-69300000D03*
X122600000Y-83400000D03*
X104250000Y-115250000D03*
X110750000Y-122750000D03*
X133700000Y-69300000D03*
X108750000Y-68500000D03*
X132000000Y-66800000D03*
X131800000Y-139700000D03*
X104250000Y-92250000D03*
D64*
X119400000Y-81700000D03*
D63*
X122400000Y-124900000D03*
X126400000Y-137100000D03*
X132907109Y-123392891D03*
X106750000Y-69500000D03*
X125400000Y-140300000D03*
X116200000Y-141900000D03*
X112100000Y-130500000D03*
X104250000Y-114250000D03*
X121500000Y-124900000D03*
D64*
X117700000Y-104800000D03*
D63*
X122600000Y-84100000D03*
D64*
X118800000Y-83100000D03*
D63*
X109750000Y-124750000D03*
X119400000Y-138200000D03*
X107750000Y-68500000D03*
X104250000Y-113250000D03*
X105750000Y-68500000D03*
X111750000Y-123750000D03*
X114750000Y-123750000D03*
X105750000Y-69500000D03*
X134700000Y-76600000D03*
X122400000Y-125800000D03*
X104250000Y-116250000D03*
X104250000Y-87250000D03*
X122400000Y-124000000D03*
X104250000Y-86250000D03*
D64*
X120900000Y-111200000D03*
D63*
X123894975Y-117794975D03*
X136600000Y-128500000D03*
X126750000Y-95250000D03*
X126750000Y-94500000D03*
X126750000Y-96750000D03*
X116700000Y-82400000D03*
X126750000Y-96000000D03*
D64*
X116600000Y-133900000D03*
D63*
X120625006Y-136615000D03*
X132260000Y-130665000D03*
X123285000Y-141315000D03*
X129585000Y-140565000D03*
X117145000Y-138610000D03*
X115730025Y-135919975D03*
D64*
X118972182Y-129172182D03*
D63*
X127000000Y-103750000D03*
X127000000Y-104750000D03*
X110800000Y-119600000D03*
X127000000Y-101750000D03*
X127000000Y-102750000D03*
X111500000Y-120000000D03*
D64*
X126800000Y-106700000D03*
D63*
X112100000Y-120600000D03*
D64*
X131400000Y-120700000D03*
X130300000Y-120100000D03*
D63*
X115600000Y-56700000D03*
X111500000Y-56050000D03*
X110543424Y-130840733D03*
D64*
X125182568Y-137916600D03*
D63*
X111024428Y-129897101D03*
D64*
X125182568Y-137213400D03*
D63*
X121200000Y-83600000D03*
X121800000Y-108900000D03*
D64*
X118407088Y-130788595D03*
X115889647Y-131825500D03*
D63*
X114150000Y-126374704D03*
D64*
X119850000Y-126098714D03*
X117768890Y-131075000D03*
D63*
X123500000Y-81500000D03*
X126791990Y-81208010D03*
X117100000Y-73800000D03*
D65*
X103600000Y-127000000D02*
X104531150Y-127000000D01*
D66*
X133200000Y-127500000D02*
X135100000Y-127500000D01*
X124000000Y-129400000D02*
X125900000Y-127500000D01*
X125900000Y-127500000D02*
X133200000Y-127500000D01*
D67*
X126325000Y-79700000D02*
X122655000Y-79700000D01*
D68*
X123100000Y-117600000D02*
X123100000Y-121772183D01*
D65*
X107778269Y-126800400D02*
X109677869Y-128700000D01*
X103100000Y-126500000D02*
X103600000Y-127000000D01*
D66*
X133200000Y-127500000D02*
X133200000Y-125100000D01*
D68*
X123100000Y-121772183D02*
X125900000Y-124572183D01*
X124200000Y-108900000D02*
X124200000Y-116500000D01*
D65*
X118705000Y-75750000D02*
X117280000Y-77175000D01*
X105081498Y-77175000D02*
X103100000Y-79156498D01*
X117280000Y-77175000D02*
X105081498Y-77175000D01*
X104531150Y-127000000D02*
X104730750Y-126800400D01*
X109677869Y-128700000D02*
X112300000Y-128700000D01*
D66*
X118800000Y-79300000D02*
X118800000Y-75845000D01*
D68*
X124200000Y-116500000D02*
X123100000Y-117600000D01*
X125900000Y-124572183D02*
X125900000Y-127500000D01*
X119389099Y-106549149D02*
X121849149Y-106549149D01*
D67*
X122655000Y-79700000D02*
X118705000Y-75750000D01*
D66*
X133200000Y-125100000D02*
X132200000Y-124100000D01*
D65*
X103100000Y-79156498D02*
X103100000Y-126500000D01*
X112300000Y-128700000D02*
X114300000Y-130700000D01*
X104730750Y-126800400D02*
X107778269Y-126800400D01*
D68*
X121849149Y-106549149D02*
X124200000Y-108900000D01*
D65*
X114300000Y-130700000D02*
X114300000Y-131000000D01*
D67*
X128750000Y-74150000D02*
X129700000Y-75100000D01*
X116275000Y-141825000D02*
X116200000Y-141900000D01*
X111655000Y-136465000D02*
X111655000Y-137465000D01*
D66*
X111666727Y-142000000D02*
X113300000Y-140366727D01*
D67*
X111031754Y-137531754D02*
X111098508Y-137465000D01*
D66*
X113300000Y-140366727D02*
X113300000Y-139980000D01*
D68*
X125435000Y-136065000D02*
X125485000Y-136015000D01*
X124765000Y-135295000D02*
X125485000Y-136015000D01*
D69*
X112700000Y-130700000D02*
X112300000Y-130700000D01*
D67*
X107200000Y-133759861D02*
X107200000Y-136000000D01*
D69*
X107600000Y-136800000D02*
X106400000Y-136800000D01*
D66*
X111500000Y-142000000D02*
X110500000Y-142000000D01*
D67*
X127450000Y-74753249D02*
X128053249Y-74150000D01*
X111098508Y-137465000D02*
X111655000Y-137465000D01*
D69*
X112185000Y-134715000D02*
X110485000Y-133015000D01*
D67*
X117085000Y-141825000D02*
X116275000Y-141825000D01*
X128053249Y-74150000D02*
X128750000Y-74150000D01*
X108203700Y-132800400D02*
X110270400Y-132800400D01*
X129700000Y-75100000D02*
X129700000Y-75400000D01*
D68*
X124765000Y-136065000D02*
X125435000Y-136065000D01*
D67*
X118145000Y-136945000D02*
X119400000Y-138200000D01*
D68*
X117145000Y-135130000D02*
X114710000Y-135130000D01*
D69*
X112300000Y-130700000D02*
X112100000Y-130500000D01*
D67*
X108159461Y-132800400D02*
X107200000Y-133759861D01*
D68*
X124765000Y-135065000D02*
X124765000Y-135295000D01*
X135950000Y-127850000D02*
X135950000Y-121950000D01*
X135600000Y-121600000D02*
X127700000Y-121600000D01*
X135950000Y-121950000D02*
X135600000Y-121600000D01*
X127700000Y-121600000D02*
X123894975Y-117794975D01*
X136600000Y-128500000D02*
X135950000Y-127850000D01*
D66*
X127750000Y-70875000D02*
X136925000Y-70875000D01*
X127450000Y-71175000D02*
X127450000Y-72862500D01*
X136925000Y-70875000D02*
X137000000Y-70800000D01*
D67*
X130250000Y-72650000D02*
X130250000Y-70875000D01*
D66*
X117925000Y-80900000D02*
X114150000Y-80900000D01*
X114150000Y-80900000D02*
X113400000Y-80150000D01*
D68*
X116700000Y-82400000D02*
X115650000Y-82400000D01*
X115650000Y-82400000D02*
X113400000Y-80150000D01*
X121585000Y-131365000D02*
X121585000Y-131855000D01*
D69*
X114710000Y-136330000D02*
X115320000Y-136330000D01*
D68*
X120740006Y-136730000D02*
X120625006Y-136615000D01*
X123205000Y-140065000D02*
X121245000Y-140065000D01*
D69*
X114710000Y-137930000D02*
X114160259Y-137930000D01*
X114160259Y-137930000D02*
X113300000Y-138790259D01*
D68*
X117341682Y-130715000D02*
X117352254Y-130715000D01*
X120910006Y-136330000D02*
X120625006Y-136615000D01*
X123805000Y-136065000D02*
X123540000Y-136330000D01*
D69*
X117145000Y-139565000D02*
X117145000Y-138610000D01*
D67*
X116600000Y-133900000D02*
X116600000Y-133816105D01*
D68*
X121580000Y-136330000D02*
X120910006Y-136330000D01*
X123205000Y-141235000D02*
X123285000Y-141315000D01*
X117145000Y-133235749D02*
X117324251Y-133415000D01*
X121580000Y-136730000D02*
X120740006Y-136730000D01*
X121580000Y-138730000D02*
X121580000Y-138330000D01*
X121937746Y-138730000D02*
X121580000Y-138730000D01*
D69*
X116680000Y-138610000D02*
X117145000Y-138610000D01*
D68*
X132410000Y-129165000D02*
X132410000Y-130515000D01*
X123205000Y-139997254D02*
X121937746Y-138730000D01*
X123205000Y-140065000D02*
X123205000Y-141235000D01*
X117542254Y-130525000D02*
X117556682Y-130525000D01*
D69*
X116000000Y-137930000D02*
X116680000Y-138610000D01*
D68*
X117352254Y-130715000D02*
X117542254Y-130525000D01*
D69*
X117145000Y-140805000D02*
X117145000Y-139565000D01*
D68*
X120745000Y-133235749D02*
X120745000Y-132695000D01*
X117000000Y-131081682D02*
X117209500Y-130872182D01*
X121245000Y-140065000D02*
X120745000Y-139565000D01*
X130490000Y-138765000D02*
X130490000Y-140500000D01*
X129735000Y-140715000D02*
X129585000Y-140565000D01*
X120565749Y-133415000D02*
X120745000Y-133235749D01*
X117145000Y-131235000D02*
X117145000Y-132695000D01*
X130490000Y-140500000D02*
X130705000Y-140715000D01*
D69*
X113300000Y-138790259D02*
X113300000Y-139020000D01*
D68*
X123540000Y-136330000D02*
X121580000Y-136330000D01*
X117324251Y-133415000D02*
X120565749Y-133415000D01*
X117209500Y-130847182D02*
X117341682Y-130715000D01*
X117145000Y-132695000D02*
X117145000Y-133235749D01*
D69*
X114710000Y-137930000D02*
X116000000Y-137930000D01*
D67*
X116600000Y-133816105D02*
X116976105Y-133440000D01*
D69*
X112750000Y-136330000D02*
X114710000Y-136330000D01*
D68*
X118909500Y-129172182D02*
X118972182Y-129172182D01*
X130705000Y-140715000D02*
X129735000Y-140715000D01*
X117209500Y-130872182D02*
X117209500Y-130847182D01*
D67*
X116976105Y-133440000D02*
X117900000Y-133440000D01*
D68*
X117556682Y-130525000D02*
X118909500Y-129172182D01*
X132410000Y-130515000D02*
X132260000Y-130665000D01*
X121585000Y-131855000D02*
X120745000Y-132695000D01*
D69*
X115320000Y-136330000D02*
X115730025Y-135919975D01*
D68*
X126800000Y-106700000D02*
X126695000Y-106595000D01*
X126695000Y-106595000D02*
X125750000Y-104000000D01*
X123805000Y-135065000D02*
X122940000Y-135930000D01*
D69*
X120362500Y-137542500D02*
X119960000Y-137140000D01*
X116481690Y-137945000D02*
X118204547Y-137945000D01*
X120362500Y-138277953D02*
X120362500Y-137542500D01*
X112615000Y-137465000D02*
X113350000Y-136730000D01*
D68*
X123205000Y-139030183D02*
X122300000Y-138125183D01*
X122300000Y-138125183D02*
X122300000Y-138117452D01*
D69*
X119960000Y-137140000D02*
X119960000Y-136165000D01*
D68*
X121580000Y-137930000D02*
X120750000Y-137930000D01*
X122940000Y-135930000D02*
X121580000Y-135930000D01*
D69*
X118204547Y-137945000D02*
X119124547Y-138865000D01*
X119775453Y-138865000D02*
X120362500Y-138277953D01*
X114710000Y-136730000D02*
X115266690Y-136730000D01*
X115266690Y-136730000D02*
X116481690Y-137945000D01*
D68*
X122112548Y-137930000D02*
X121580000Y-137930000D01*
X122300000Y-138117452D02*
X122112548Y-137930000D01*
D69*
X119960000Y-136165000D02*
X120195000Y-135930000D01*
D68*
X120750000Y-137930000D02*
X120362500Y-137542500D01*
D69*
X119124547Y-138865000D02*
X119775453Y-138865000D01*
X120195000Y-135930000D02*
X121580000Y-135930000D01*
X113350000Y-136730000D02*
X114710000Y-136730000D01*
D68*
X130300000Y-120100000D02*
X130800000Y-120100000D01*
X130800000Y-120100000D02*
X131400000Y-120700000D01*
D67*
X115600000Y-56700000D02*
X117707500Y-56700000D01*
X122100000Y-58565000D02*
X122100000Y-56007500D01*
X122100000Y-56007500D02*
X120250000Y-54157500D01*
X117707500Y-56700000D02*
X120250000Y-54157500D01*
X112662500Y-52245000D02*
X110750000Y-54157500D01*
X110750000Y-55300000D02*
X111500000Y-56050000D01*
X110750000Y-54157500D02*
X110750000Y-55300000D01*
X131405000Y-53555000D02*
X130095000Y-52245000D01*
X130095000Y-52245000D02*
X112662500Y-52245000D01*
X131405000Y-54725000D02*
X131405000Y-53555000D01*
X110750000Y-54157500D02*
X107775000Y-54157500D01*
X128278249Y-77300000D02*
X126500000Y-75521751D01*
X125400000Y-77300000D02*
X125300000Y-77200000D01*
X126500000Y-77300000D02*
X125400000Y-77300000D01*
X114250000Y-54157500D02*
X116750000Y-54157500D01*
D69*
X112140000Y-139600000D02*
X111740000Y-140000000D01*
X113970000Y-137130000D02*
X112140000Y-138960000D01*
X112140000Y-138960000D02*
X112140000Y-139600000D01*
X114710000Y-137130000D02*
X113970000Y-137130000D01*
X112500000Y-139007954D02*
X112500000Y-140000000D01*
X112500000Y-140000000D02*
X111500000Y-141000000D01*
X114710000Y-137530000D02*
X113977954Y-137530000D01*
X113977954Y-137530000D02*
X112500000Y-139007954D01*
X111726960Y-143565000D02*
X114585000Y-140706960D01*
X114585000Y-140706960D02*
X114585000Y-140612057D01*
X114585000Y-140612057D02*
X115545000Y-139652057D01*
X112585000Y-143102940D02*
X115437940Y-140250000D01*
X112585000Y-143565000D02*
X112585000Y-143102940D01*
X115437940Y-140250000D02*
X115751252Y-140250000D01*
X115751252Y-140250000D02*
X115945000Y-140056252D01*
X115945000Y-140056252D02*
X115945000Y-139565000D01*
X113585000Y-142963960D02*
X116345000Y-140203960D01*
X113585000Y-143565000D02*
X113585000Y-142963960D01*
X116345000Y-140203960D02*
X116345000Y-139565000D01*
D67*
X110533757Y-130850400D02*
X110543424Y-130840733D01*
D70*
X125034169Y-137768201D02*
X125182568Y-137916600D01*
D67*
X108203700Y-130850400D02*
X110533757Y-130850400D01*
D70*
X124491799Y-137768201D02*
X125034169Y-137768201D01*
X124195000Y-138065000D02*
X124491799Y-137768201D01*
X125034169Y-137361799D02*
X125182568Y-137213400D01*
D67*
X111100000Y-132090000D02*
X111268424Y-131921576D01*
D70*
X124195000Y-137065000D02*
X124491799Y-137361799D01*
X124491799Y-137361799D02*
X125034169Y-137361799D01*
D67*
X111268424Y-130141097D02*
X111024428Y-129897101D01*
X108203700Y-131500400D02*
X109128700Y-131500400D01*
X111268424Y-131921576D02*
X111268424Y-130141097D01*
X109718300Y-132090000D02*
X111100000Y-132090000D01*
X109128700Y-131500400D02*
X109718300Y-132090000D01*
X120325000Y-85485000D02*
X120325000Y-84475000D01*
X120325000Y-84475000D02*
X121200000Y-83600000D01*
D68*
X118689099Y-106989099D02*
X118689099Y-105435901D01*
D67*
X121510000Y-108900000D02*
X121800000Y-108900000D01*
D68*
X118689099Y-105435901D02*
X119125000Y-105000000D01*
X121800000Y-108900000D02*
X120600000Y-108900000D01*
D67*
X120350000Y-110060000D02*
X121510000Y-108900000D01*
D68*
X120600000Y-108900000D02*
X118689099Y-106989099D01*
X117945000Y-131717103D02*
X118407088Y-131255015D01*
X118407088Y-131255015D02*
X118407088Y-130788595D01*
X117945000Y-132695000D02*
X117945000Y-131717103D01*
X115889647Y-131825500D02*
X116416249Y-131825500D01*
X116745000Y-132154251D02*
X116745000Y-132695000D01*
X116416249Y-131825500D02*
X116745000Y-132154251D01*
D67*
X114700000Y-69950000D02*
X113650000Y-69950000D01*
X113650000Y-69950000D02*
X113165000Y-70435000D01*
X113165000Y-70435000D02*
X113165000Y-73425000D01*
X110440000Y-127050000D02*
X109194595Y-127050000D01*
X109194595Y-127050000D02*
X108085000Y-125940405D01*
X108085000Y-125940405D02*
X108085000Y-123625000D01*
D69*
X130760000Y-129165000D02*
X129210000Y-129165000D01*
X130490000Y-131565000D02*
X130490000Y-129435000D01*
X128204999Y-130170001D02*
X124829929Y-130170001D01*
X121580000Y-133419930D02*
X121580000Y-133530000D01*
X129210000Y-129165000D02*
X128204999Y-130170001D01*
X124829929Y-130170001D02*
X121580000Y-133419930D01*
D67*
X111460000Y-127050000D02*
X113474704Y-127050000D01*
X113474704Y-127050000D02*
X114150000Y-126374704D01*
D71*
X109901041Y-137598959D02*
X109901041Y-138226041D01*
X111399167Y-135930000D02*
X111000000Y-136329167D01*
X114710000Y-135930000D02*
X111399167Y-135930000D01*
X111000000Y-136329167D02*
X111000000Y-136715685D01*
X110225000Y-137275000D02*
X109901041Y-137598959D01*
X110440685Y-137275000D02*
X110225000Y-137275000D01*
X111000000Y-136715685D02*
X110440685Y-137275000D01*
D68*
X118345000Y-132695000D02*
X118345000Y-131882788D01*
X119850000Y-130377788D02*
X119850000Y-126098714D01*
X118345000Y-131882788D02*
X119850000Y-130377788D01*
X117768890Y-131258364D02*
X117768890Y-131075000D01*
X117545000Y-132695000D02*
X117545000Y-131482254D01*
X117545000Y-131482254D02*
X117768890Y-131258364D01*
D65*
X125800000Y-98800000D02*
X125200000Y-98200000D01*
X125800000Y-100300000D02*
X125800000Y-98800000D01*
D68*
X123175000Y-138065000D02*
X122640000Y-137530000D01*
X122640000Y-137530000D02*
X121580000Y-137530000D01*
X123110000Y-137130000D02*
X121580000Y-137130000D01*
D67*
X129737500Y-74200000D02*
X128400000Y-72862500D01*
X130250000Y-74200000D02*
X129737500Y-74200000D01*
X129825000Y-77186827D02*
X129825000Y-79700000D01*
X128400000Y-75761827D02*
X129825000Y-77186827D01*
X127875000Y-79700000D02*
X129825000Y-79700000D01*
X128400000Y-75137500D02*
X128400000Y-75761827D01*
D69*
X113650000Y-133980000D02*
X112685000Y-133015000D01*
X113650000Y-134953051D02*
X113650000Y-133980000D01*
X114710000Y-135530000D02*
X114226949Y-135530000D01*
X112700000Y-133000000D02*
X112685000Y-133015000D01*
X112700000Y-131660000D02*
X112700000Y-133000000D01*
X114226949Y-135530000D02*
X113650000Y-134953051D01*
X129220000Y-138637244D02*
X125072757Y-134490001D01*
X125072757Y-134490001D02*
X123393381Y-134490000D01*
X122353381Y-135530000D02*
X121580000Y-135530000D01*
X123393381Y-134490000D02*
X122353381Y-135530000D01*
X129785000Y-139586899D02*
X129785000Y-137931690D01*
X126013311Y-134160001D02*
X123256690Y-134160001D01*
X128898101Y-139830000D02*
X129541899Y-139830000D01*
X129785000Y-137931690D02*
X126013311Y-134160001D01*
X123256690Y-134160001D02*
X122286691Y-135130000D01*
X129541899Y-139830000D02*
X129785000Y-139586899D01*
X127950000Y-138881899D02*
X128898101Y-139830000D01*
X122286691Y-135130000D02*
X121580000Y-135130000D01*
X131747756Y-141515000D02*
X132700000Y-140562756D01*
X123485001Y-133464999D02*
X122220000Y-134730000D01*
X126700452Y-133464999D02*
X123485001Y-133464999D01*
X132700000Y-139464547D02*
X126700452Y-133464999D01*
X126680000Y-138881899D02*
X129313101Y-141515000D01*
X122220000Y-134730000D02*
X121580000Y-134730000D01*
X132700000Y-140562756D02*
X132700000Y-139464547D01*
X129313101Y-141515000D02*
X131747756Y-141515000D01*
X122898309Y-133035001D02*
X122605001Y-133328309D01*
X122153310Y-134330000D02*
X121580000Y-134330000D01*
X122605001Y-133878309D02*
X122153310Y-134330000D01*
X126596899Y-133035000D02*
X122898309Y-133035001D01*
X122605001Y-133328309D02*
X122605001Y-133878309D01*
X127950000Y-131681899D02*
X126596899Y-133035000D01*
X122275001Y-133741619D02*
X122086620Y-133930000D01*
X129220000Y-131448101D02*
X128271899Y-130500000D01*
X128271899Y-130500000D02*
X124966620Y-130500000D01*
X122086620Y-133930000D02*
X121580000Y-133930000D01*
X122275001Y-133191619D02*
X122275001Y-133741619D01*
X124966620Y-130500000D02*
X122275001Y-133191619D01*
D67*
X126500000Y-81500000D02*
X126791990Y-81208010D01*
X123500000Y-81500000D02*
X126500000Y-81500000D01*
D69*
X114585000Y-142482244D02*
X116745000Y-140322244D01*
X116745000Y-140322244D02*
X116745000Y-139565000D01*
X114585000Y-143565000D02*
X114585000Y-142482244D01*
X117545000Y-140391690D02*
X117545000Y-139565000D01*
X117407756Y-142385000D02*
X117660000Y-142132756D01*
X117660000Y-140506690D02*
X117545000Y-140391690D01*
X115585000Y-143565000D02*
X116765000Y-142385000D01*
X116765000Y-142385000D02*
X117407756Y-142385000D01*
X117660000Y-142132756D02*
X117660000Y-140506690D01*
X117990000Y-142269446D02*
X117990000Y-140366620D01*
X117435000Y-142715000D02*
X117544447Y-142714999D01*
X117990000Y-140366620D02*
X117945000Y-140321620D01*
X116585000Y-143565000D02*
X117435000Y-142715000D01*
X117544447Y-142714999D02*
X117990000Y-142269446D01*
X117945000Y-140321620D02*
X117945000Y-139565000D01*
X117585000Y-143565000D02*
X117585000Y-143141136D01*
X117585000Y-143141136D02*
X118320000Y-142406136D01*
X118320000Y-142406136D02*
X118320000Y-139590000D01*
X118709951Y-143440049D02*
X118709951Y-139600049D01*
X121575000Y-142366380D02*
X121575000Y-143255000D01*
X119545000Y-139565000D02*
X119545000Y-140336380D01*
X119545000Y-140336380D02*
X121575000Y-142366380D01*
X119945000Y-139565000D02*
X119945000Y-140122942D01*
X119945000Y-140122942D02*
X122885000Y-143062942D01*
X122885000Y-143062942D02*
X122885000Y-143565000D01*
X120345000Y-139565000D02*
X120345000Y-140056252D01*
X123195000Y-142875000D02*
X123885000Y-143565000D01*
X120345000Y-140056252D02*
X123163748Y-142875000D01*
X123163748Y-142875000D02*
X123195000Y-142875000D01*
D65*
X122000000Y-100300000D02*
X122000000Y-98675000D01*
X122000000Y-98675000D02*
X122500000Y-98175000D01*
X119850000Y-100237500D02*
X119800000Y-100287500D01*
X119850000Y-98200000D02*
X119850000Y-100237500D01*
D69*
X109875000Y-136800000D02*
X110000000Y-136675000D01*
D71*
X110485000Y-136190000D02*
X110485000Y-134715000D01*
X110000000Y-136675000D02*
X110485000Y-136190000D01*
D69*
X108560000Y-136800000D02*
X109875000Y-136800000D01*
D68*
X115720000Y-69950000D02*
X115720000Y-72420000D01*
X115720000Y-72420000D02*
X117100000Y-73800000D01*
X133200000Y-128600000D02*
X133200000Y-133480000D01*
X127560000Y-129165000D02*
X128335000Y-128390000D01*
X128335000Y-128390000D02*
X132990000Y-128390000D01*
X132990000Y-128390000D02*
X133200000Y-128600000D01*
G04 #@! TA.AperFunction,Conductor*
G36*
X129093039Y-52890185D02*
G01*
X129138794Y-52942989D01*
X129150000Y-52994500D01*
X129150000Y-56126000D01*
X129130315Y-56193039D01*
X129077511Y-56238794D01*
X129026000Y-56250000D01*
X124700000Y-56250000D01*
X124700000Y-61376000D01*
X124680315Y-61443039D01*
X124627511Y-61488794D01*
X124576000Y-61500000D01*
X119122944Y-61500000D01*
X119055905Y-61480315D01*
X119010150Y-61427511D01*
X118998949Y-61377060D01*
X118951069Y-55775060D01*
X118970179Y-55707855D01*
X119022590Y-55661650D01*
X119075064Y-55650000D01*
X121750000Y-55650000D01*
X121750000Y-52994500D01*
X121769685Y-52927461D01*
X121822489Y-52881706D01*
X121874000Y-52870500D01*
X129026000Y-52870500D01*
X129093039Y-52890185D01*
G37*
G04 #@! TD.AperFunction*
G04 #@! TA.AperFunction,Conductor*
G36*
X117343039Y-99019685D02*
G01*
X117388794Y-99072489D01*
X117400000Y-99124000D01*
X117400000Y-100900000D01*
X118636498Y-100930158D01*
X118703034Y-100951470D01*
X118739009Y-100989022D01*
X118757287Y-101018655D01*
X118757288Y-101018656D01*
X118881344Y-101142712D01*
X119030666Y-101234814D01*
X119197203Y-101289999D01*
X119299991Y-101300500D01*
X120300008Y-101300499D01*
X120300016Y-101300498D01*
X120300019Y-101300498D01*
X120356302Y-101294748D01*
X120402797Y-101289999D01*
X120569334Y-101234814D01*
X120718656Y-101142712D01*
X120806071Y-101055296D01*
X120867390Y-101021814D01*
X120937082Y-101026798D01*
X120981430Y-101055298D01*
X121081344Y-101155212D01*
X121230666Y-101247314D01*
X121397203Y-101302499D01*
X121499991Y-101313000D01*
X122500008Y-101312999D01*
X122500016Y-101312998D01*
X122500019Y-101312998D01*
X122556302Y-101307248D01*
X122602797Y-101302499D01*
X122769334Y-101247314D01*
X122918656Y-101155212D01*
X123037549Y-101036319D01*
X123098872Y-101002834D01*
X123125230Y-101000000D01*
X124674770Y-101000000D01*
X124741809Y-101019685D01*
X124762451Y-101036319D01*
X124881344Y-101155212D01*
X125030666Y-101247314D01*
X125197203Y-101302499D01*
X125299991Y-101313000D01*
X126300008Y-101312999D01*
X126300016Y-101312998D01*
X126300019Y-101312998D01*
X126356302Y-101307248D01*
X126402797Y-101302499D01*
X126569334Y-101247314D01*
X126718656Y-101155212D01*
X126837549Y-101036319D01*
X126898872Y-101002834D01*
X126925230Y-101000000D01*
X127078505Y-101000000D01*
X127145544Y-101019685D01*
X127191299Y-101072489D01*
X127202478Y-101121469D01*
X127294569Y-105633905D01*
X127297418Y-105773470D01*
X127279106Y-105840897D01*
X127227246Y-105887720D01*
X127173444Y-105900000D01*
X123500000Y-105900000D01*
X123500000Y-107051403D01*
X123480315Y-107118442D01*
X123427511Y-107164197D01*
X123358353Y-107174141D01*
X123294797Y-107145116D01*
X123288319Y-107139084D01*
X122336739Y-106187504D01*
X122336737Y-106187501D01*
X122217866Y-106068630D01*
X122217861Y-106068626D01*
X122091163Y-105995478D01*
X122091161Y-105995477D01*
X122080934Y-105989572D01*
X121928206Y-105948648D01*
X121770092Y-105948648D01*
X121762496Y-105948648D01*
X121762480Y-105948649D01*
X120115357Y-105948649D01*
X120048318Y-105928964D01*
X120023208Y-105907622D01*
X119994971Y-105876262D01*
X119994970Y-105876261D01*
X119964473Y-105854104D01*
X119921809Y-105798776D01*
X119915830Y-105729163D01*
X119931822Y-105688690D01*
X120011998Y-105558705D01*
X120011997Y-105558705D01*
X120012003Y-105558697D01*
X120065349Y-105397708D01*
X120075500Y-105298345D01*
X120075499Y-104701656D01*
X120065349Y-104602292D01*
X120012003Y-104441303D01*
X120011999Y-104441297D01*
X120011998Y-104441294D01*
X119922970Y-104296959D01*
X119922967Y-104296955D01*
X119803044Y-104177032D01*
X119803040Y-104177029D01*
X119658705Y-104088001D01*
X119658699Y-104087998D01*
X119658697Y-104087997D01*
X119585328Y-104063685D01*
X119497709Y-104034651D01*
X119398346Y-104024500D01*
X118851662Y-104024500D01*
X118851644Y-104024501D01*
X118752292Y-104034650D01*
X118752289Y-104034651D01*
X118591305Y-104087996D01*
X118591294Y-104088001D01*
X118446959Y-104177029D01*
X118380358Y-104243630D01*
X118319034Y-104277114D01*
X118249343Y-104272129D01*
X118204996Y-104243629D01*
X118170890Y-104209523D01*
X118170884Y-104209518D01*
X118027697Y-104119547D01*
X118027694Y-104119545D01*
X117868056Y-104063685D01*
X117700003Y-104044751D01*
X117699997Y-104044751D01*
X117531943Y-104063685D01*
X117372305Y-104119545D01*
X117372302Y-104119547D01*
X117229115Y-104209518D01*
X117229109Y-104209523D01*
X117109523Y-104329109D01*
X117109518Y-104329115D01*
X117019547Y-104472302D01*
X117019545Y-104472305D01*
X116963685Y-104631943D01*
X116944751Y-104799997D01*
X116944751Y-104800002D01*
X116963685Y-104968056D01*
X117019545Y-105127694D01*
X117019547Y-105127697D01*
X117109518Y-105270884D01*
X117109523Y-105270890D01*
X117229109Y-105390476D01*
X117229115Y-105390481D01*
X117372302Y-105480452D01*
X117372305Y-105480454D01*
X117372309Y-105480455D01*
X117372310Y-105480456D01*
X117444913Y-105505860D01*
X117531943Y-105536314D01*
X117699997Y-105555249D01*
X117700000Y-105555249D01*
X117700003Y-105555249D01*
X117868056Y-105536314D01*
X117923644Y-105516863D01*
X117993423Y-105513302D01*
X118054051Y-105548031D01*
X118086278Y-105610024D01*
X118088599Y-105633905D01*
X118088599Y-106902429D01*
X118088598Y-106902447D01*
X118088598Y-107068153D01*
X118088597Y-107068153D01*
X118115709Y-107169334D01*
X118129522Y-107220884D01*
X118130169Y-107222005D01*
X118130179Y-107222041D01*
X118130188Y-107222037D01*
X118208576Y-107357811D01*
X118208580Y-107357816D01*
X118327448Y-107476684D01*
X118327454Y-107476689D01*
X119648584Y-108797819D01*
X119682069Y-108859142D01*
X119677085Y-108928834D01*
X119635213Y-108984767D01*
X119569749Y-109009184D01*
X119560903Y-109009500D01*
X118249998Y-109009500D01*
X118249981Y-109009501D01*
X118147203Y-109020000D01*
X118147200Y-109020001D01*
X117980668Y-109075185D01*
X117980663Y-109075187D01*
X117831342Y-109167289D01*
X117707289Y-109291342D01*
X117615187Y-109440663D01*
X117615186Y-109440666D01*
X117560001Y-109607203D01*
X117560001Y-109607204D01*
X117560000Y-109607204D01*
X117549500Y-109709983D01*
X117549500Y-110410001D01*
X117549501Y-110410019D01*
X117560000Y-110512796D01*
X117560001Y-110512799D01*
X117615185Y-110679331D01*
X117615186Y-110679334D01*
X117707288Y-110828656D01*
X117831344Y-110952712D01*
X117980666Y-111044814D01*
X118147203Y-111099999D01*
X118249991Y-111110500D01*
X120023853Y-111110499D01*
X120090892Y-111130184D01*
X120136647Y-111182987D01*
X120147073Y-111220615D01*
X120163685Y-111368056D01*
X120219545Y-111527694D01*
X120219547Y-111527697D01*
X120309518Y-111670884D01*
X120309523Y-111670890D01*
X120429109Y-111790476D01*
X120429115Y-111790481D01*
X120572302Y-111880452D01*
X120572305Y-111880454D01*
X120572309Y-111880455D01*
X120572310Y-111880456D01*
X120644913Y-111905860D01*
X120731943Y-111936314D01*
X120899997Y-111955249D01*
X120900000Y-111955249D01*
X120900003Y-111955249D01*
X121068056Y-111936314D01*
X121068059Y-111936313D01*
X121227690Y-111880456D01*
X121227692Y-111880454D01*
X121227694Y-111880454D01*
X121227697Y-111880452D01*
X121370884Y-111790481D01*
X121370885Y-111790480D01*
X121370890Y-111790477D01*
X121490477Y-111670890D01*
X121580452Y-111527697D01*
X121580454Y-111527694D01*
X121580454Y-111527692D01*
X121580456Y-111527690D01*
X121636313Y-111368059D01*
X121636313Y-111368058D01*
X121636314Y-111368056D01*
X121652927Y-111220615D01*
X121679994Y-111156201D01*
X121737589Y-111116646D01*
X121776147Y-111110499D01*
X122450002Y-111110499D01*
X122450008Y-111110499D01*
X122552797Y-111099999D01*
X122719334Y-111044814D01*
X122868656Y-110952712D01*
X122992712Y-110828656D01*
X123084814Y-110679334D01*
X123139999Y-110512797D01*
X123150500Y-110410009D01*
X123150499Y-109709992D01*
X123139999Y-109607203D01*
X123084814Y-109440666D01*
X122992712Y-109291344D01*
X122868656Y-109167288D01*
X122868655Y-109167287D01*
X122755389Y-109097425D01*
X122708664Y-109045477D01*
X122697164Y-108978926D01*
X122705460Y-108900000D01*
X122685674Y-108711744D01*
X122627179Y-108531716D01*
X122612761Y-108506743D01*
X122596289Y-108438847D01*
X122619141Y-108372820D01*
X122674062Y-108329629D01*
X122743615Y-108322987D01*
X122805718Y-108355002D01*
X122807830Y-108357065D01*
X123463681Y-109012916D01*
X123497166Y-109074239D01*
X123500000Y-109100597D01*
X123500000Y-114000021D01*
X123552192Y-116244292D01*
X123534072Y-116311771D01*
X123515907Y-116334856D01*
X122731286Y-117119478D01*
X122619481Y-117231282D01*
X122619480Y-117231284D01*
X122571461Y-117314456D01*
X122540423Y-117368215D01*
X122499499Y-117520943D01*
X122499499Y-117520945D01*
X122499499Y-117689046D01*
X122499500Y-117689059D01*
X122499500Y-121025500D01*
X122479815Y-121092539D01*
X122427011Y-121138294D01*
X122375500Y-121149500D01*
X121099998Y-121149500D01*
X121099981Y-121149501D01*
X120997203Y-121160000D01*
X120997199Y-121160001D01*
X120856384Y-121206663D01*
X120817979Y-121212956D01*
X114212958Y-121244864D01*
X114145824Y-121225503D01*
X114106820Y-121185962D01*
X114057712Y-121106344D01*
X113933656Y-120982288D01*
X113784334Y-120890186D01*
X113617797Y-120835001D01*
X113617795Y-120835000D01*
X113515010Y-120824500D01*
X112814998Y-120824500D01*
X112814980Y-120824501D01*
X112712203Y-120835000D01*
X112712200Y-120835001D01*
X112545668Y-120890185D01*
X112545663Y-120890187D01*
X112396342Y-120982289D01*
X112272287Y-121106344D01*
X112216917Y-121196113D01*
X112164969Y-121242837D01*
X112111978Y-121255014D01*
X109148050Y-121269332D01*
X109080916Y-121249971D01*
X109041912Y-121210430D01*
X108977712Y-121106344D01*
X108853656Y-120982288D01*
X108704334Y-120890186D01*
X108537797Y-120835001D01*
X108537795Y-120835000D01*
X108435010Y-120824500D01*
X107734998Y-120824500D01*
X107734980Y-120824501D01*
X107632203Y-120835000D01*
X107632200Y-120835001D01*
X107465668Y-120890185D01*
X107465663Y-120890187D01*
X107316342Y-120982289D01*
X107192289Y-121106342D01*
X107121737Y-121220726D01*
X107069789Y-121267450D01*
X107016797Y-121279628D01*
X104225099Y-121293115D01*
X104157965Y-121273754D01*
X104111956Y-121221172D01*
X104100500Y-121169116D01*
X104100500Y-119274500D01*
X104120185Y-119207461D01*
X104172989Y-119161706D01*
X104224500Y-119150500D01*
X104344644Y-119150500D01*
X104344646Y-119150500D01*
X104529803Y-119111144D01*
X104702730Y-119034151D01*
X104855871Y-118922888D01*
X104982533Y-118782216D01*
X105077179Y-118618284D01*
X105135674Y-118438256D01*
X105155460Y-118250000D01*
X105135674Y-118061744D01*
X105077179Y-117881716D01*
X105036927Y-117811999D01*
X105020454Y-117744101D01*
X105036927Y-117688001D01*
X105077179Y-117618284D01*
X105135674Y-117438256D01*
X105155460Y-117250000D01*
X105135674Y-117061744D01*
X105077179Y-116881716D01*
X105036927Y-116811999D01*
X105020454Y-116744101D01*
X105036927Y-116688001D01*
X105077179Y-116618284D01*
X105135674Y-116438256D01*
X105155460Y-116250000D01*
X105135674Y-116061744D01*
X105077179Y-115881716D01*
X105036927Y-115811999D01*
X105020454Y-115744101D01*
X105036927Y-115688001D01*
X105077179Y-115618284D01*
X105135674Y-115438256D01*
X105155460Y-115250000D01*
X105135674Y-115061744D01*
X105077179Y-114881716D01*
X105036927Y-114811999D01*
X105020454Y-114744101D01*
X105036927Y-114688001D01*
X105077179Y-114618284D01*
X105135674Y-114438256D01*
X105155460Y-114250000D01*
X105135674Y-114061744D01*
X105077179Y-113881716D01*
X105036927Y-113811999D01*
X105020454Y-113744101D01*
X105036927Y-113688001D01*
X105077179Y-113618284D01*
X105135674Y-113438256D01*
X105155460Y-113250000D01*
X105135674Y-113061744D01*
X105077179Y-112881716D01*
X105036927Y-112811999D01*
X105020454Y-112744101D01*
X105036927Y-112688001D01*
X105077179Y-112618284D01*
X105135674Y-112438256D01*
X105155460Y-112250000D01*
X105135674Y-112061744D01*
X105077179Y-111881716D01*
X104982533Y-111717784D01*
X104855871Y-111577112D01*
X104855870Y-111577111D01*
X104702734Y-111465851D01*
X104702729Y-111465848D01*
X104529807Y-111388857D01*
X104529802Y-111388855D01*
X104384001Y-111357865D01*
X104344646Y-111349500D01*
X104224500Y-111349500D01*
X104157461Y-111329815D01*
X104111706Y-111277011D01*
X104100500Y-111225500D01*
X104100500Y-103982156D01*
X104120185Y-103915117D01*
X104172989Y-103869362D01*
X104220854Y-103858210D01*
X106200000Y-103800000D01*
X106240393Y-99922244D01*
X106248722Y-99122708D01*
X106269104Y-99055878D01*
X106322381Y-99010675D01*
X106372715Y-99000000D01*
X117276000Y-99000000D01*
X117343039Y-99019685D01*
G37*
G04 #@! TD.AperFunction*
G04 #@! TA.AperFunction,Conductor*
G36*
X125643039Y-68119685D02*
G01*
X125688794Y-68172489D01*
X125700000Y-68224000D01*
X125700000Y-71600000D01*
X125900000Y-71800000D01*
X126575500Y-71800000D01*
X126642539Y-71819685D01*
X126688294Y-71872489D01*
X126699500Y-71924000D01*
X126699500Y-72067670D01*
X126694576Y-72102265D01*
X126652402Y-72247426D01*
X126652401Y-72247432D01*
X126649500Y-72284298D01*
X126649500Y-73440701D01*
X126652401Y-73477567D01*
X126652402Y-73477573D01*
X126698254Y-73635393D01*
X126698255Y-73635396D01*
X126744078Y-73712879D01*
X126761261Y-73780603D01*
X126739101Y-73846866D01*
X126684635Y-73890629D01*
X126637346Y-73900000D01*
X125700000Y-73900000D01*
X125700000Y-74548078D01*
X125699618Y-74557803D01*
X125699500Y-74559290D01*
X125699500Y-75715699D01*
X125699618Y-75717193D01*
X125700000Y-75726922D01*
X125700000Y-78558666D01*
X125680315Y-78625705D01*
X125675200Y-78633066D01*
X125381325Y-79024900D01*
X125325354Y-79066721D01*
X125282125Y-79074500D01*
X122965453Y-79074500D01*
X122898414Y-79054815D01*
X122877772Y-79038181D01*
X121136319Y-77296728D01*
X121102834Y-77235405D01*
X121100000Y-77209047D01*
X121100000Y-68224000D01*
X121119685Y-68156961D01*
X121172489Y-68111206D01*
X121224000Y-68100000D01*
X125576000Y-68100000D01*
X125643039Y-68119685D01*
G37*
G04 #@! TD.AperFunction*
G04 #@! TA.AperFunction,Conductor*
G36*
X151193690Y-52169867D02*
G01*
X151239617Y-52222521D01*
X151250987Y-52273408D01*
X151699496Y-108307033D01*
X151699500Y-108308025D01*
X151699500Y-145725754D01*
X151679815Y-145792793D01*
X151627011Y-145838548D01*
X151575428Y-145849754D01*
X135924622Y-145840724D01*
X135857594Y-145821001D01*
X135811870Y-145768170D01*
X135800695Y-145716258D01*
X135842802Y-134599995D01*
X145281697Y-134599995D01*
X145281697Y-134600004D01*
X145301862Y-134869101D01*
X145314420Y-134924119D01*
X145361912Y-135132195D01*
X145460503Y-135383398D01*
X145595431Y-135617102D01*
X145644221Y-135678282D01*
X145763688Y-135828089D01*
X145947880Y-135998993D01*
X145961505Y-136011635D01*
X146184472Y-136163651D01*
X146427605Y-136280738D01*
X146685474Y-136360280D01*
X146685475Y-136360280D01*
X146685478Y-136360281D01*
X146952309Y-136400499D01*
X146952314Y-136400499D01*
X146952317Y-136400500D01*
X146952318Y-136400500D01*
X147222174Y-136400500D01*
X147222175Y-136400500D01*
X147222182Y-136400499D01*
X147489013Y-136360281D01*
X147489014Y-136360280D01*
X147489018Y-136360280D01*
X147746887Y-136280738D01*
X147990021Y-136163651D01*
X148212987Y-136011635D01*
X148366505Y-135869190D01*
X148410803Y-135828089D01*
X148410803Y-135828087D01*
X148410807Y-135828085D01*
X148579061Y-135617102D01*
X148713989Y-135383398D01*
X148812580Y-135132195D01*
X148872629Y-134869103D01*
X148892795Y-134600000D01*
X148872629Y-134330897D01*
X148812580Y-134067805D01*
X148713989Y-133816602D01*
X148579061Y-133582898D01*
X148410807Y-133371915D01*
X148410806Y-133371914D01*
X148410803Y-133371910D01*
X148212987Y-133188365D01*
X148090270Y-133104698D01*
X147990021Y-133036349D01*
X147990015Y-133036346D01*
X147990014Y-133036345D01*
X147990013Y-133036344D01*
X147746889Y-132919263D01*
X147746891Y-132919263D01*
X147489019Y-132839720D01*
X147489013Y-132839718D01*
X147222182Y-132799500D01*
X147222175Y-132799500D01*
X146952317Y-132799500D01*
X146952309Y-132799500D01*
X146685478Y-132839718D01*
X146685472Y-132839720D01*
X146427604Y-132919262D01*
X146184476Y-133036346D01*
X145961504Y-133188365D01*
X145763688Y-133371910D01*
X145595431Y-133582898D01*
X145460504Y-133816599D01*
X145460502Y-133816603D01*
X145361912Y-134067804D01*
X145361910Y-134067811D01*
X145301862Y-134330898D01*
X145281697Y-134599995D01*
X135842802Y-134599995D01*
X135862323Y-129446566D01*
X135882261Y-129379605D01*
X135935238Y-129334050D01*
X136004434Y-129324369D01*
X136044775Y-129337681D01*
X136161365Y-129400000D01*
X136215273Y-129428814D01*
X136403868Y-129486024D01*
X136600000Y-129505341D01*
X136796132Y-129486024D01*
X136984727Y-129428814D01*
X137158538Y-129335910D01*
X137310883Y-129210883D01*
X137435910Y-129058538D01*
X137528814Y-128884727D01*
X137586024Y-128696132D01*
X137605341Y-128500000D01*
X137586024Y-128303868D01*
X137528814Y-128115273D01*
X137528811Y-128115269D01*
X137528811Y-128115266D01*
X137435913Y-127941467D01*
X137435909Y-127941460D01*
X137310883Y-127789116D01*
X137158539Y-127664090D01*
X137158532Y-127664086D01*
X136984733Y-127571188D01*
X136984727Y-127571186D01*
X136796132Y-127513976D01*
X136796130Y-127513975D01*
X136796128Y-127513975D01*
X136762345Y-127510648D01*
X136697558Y-127484487D01*
X136657200Y-127427452D01*
X136650500Y-127387245D01*
X136650500Y-121881007D01*
X136649270Y-121874825D01*
X136649269Y-121874819D01*
X136635221Y-121804194D01*
X136623580Y-121745672D01*
X136601774Y-121693027D01*
X136570777Y-121618192D01*
X136494112Y-121503454D01*
X136046545Y-121055887D01*
X136005875Y-121028713D01*
X135949851Y-120991278D01*
X135905046Y-120937668D01*
X135894743Y-120887709D01*
X135900000Y-119500000D01*
X131200519Y-119500000D01*
X131137506Y-119481497D01*
X131137186Y-119482098D01*
X131134301Y-119480556D01*
X131133480Y-119480315D01*
X131131835Y-119479238D01*
X131131804Y-119479221D01*
X131004332Y-119426421D01*
X131004322Y-119426418D01*
X130868996Y-119399500D01*
X130868994Y-119399500D01*
X130868993Y-119399500D01*
X130823093Y-119399500D01*
X130756054Y-119379815D01*
X130750208Y-119375818D01*
X130727597Y-119359390D01*
X130727593Y-119359388D01*
X130564267Y-119286671D01*
X130564265Y-119286670D01*
X130436594Y-119259533D01*
X130389391Y-119249500D01*
X130210609Y-119249500D01*
X130179954Y-119256015D01*
X130035733Y-119286670D01*
X130035728Y-119286672D01*
X129872408Y-119359387D01*
X129727767Y-119464476D01*
X129723685Y-119468152D01*
X129660693Y-119498380D01*
X129640715Y-119500000D01*
X126642019Y-119500000D01*
X126574980Y-119480315D01*
X126554338Y-119463681D01*
X124933293Y-117842636D01*
X124899808Y-117781313D01*
X124897571Y-117767109D01*
X124880999Y-117598845D01*
X124880999Y-117598843D01*
X124823789Y-117410248D01*
X124823786Y-117410244D01*
X124823786Y-117410241D01*
X124730888Y-117236442D01*
X124730884Y-117236435D01*
X124677474Y-117171356D01*
X124650161Y-117107047D01*
X124661952Y-117038179D01*
X124685643Y-117005013D01*
X124744114Y-116946543D01*
X124820775Y-116831811D01*
X124873580Y-116704328D01*
X124899600Y-116573521D01*
X124900500Y-116568996D01*
X124900500Y-116399995D01*
X145281697Y-116399995D01*
X145281697Y-116400004D01*
X145301862Y-116669101D01*
X145361910Y-116932188D01*
X145361912Y-116932195D01*
X145439293Y-117129358D01*
X145460503Y-117183398D01*
X145595431Y-117417102D01*
X145731326Y-117587509D01*
X145763688Y-117628089D01*
X145943550Y-117794975D01*
X145961505Y-117811635D01*
X146184472Y-117963651D01*
X146427605Y-118080738D01*
X146685474Y-118160280D01*
X146685475Y-118160280D01*
X146685478Y-118160281D01*
X146952309Y-118200499D01*
X146952314Y-118200499D01*
X146952317Y-118200500D01*
X146952318Y-118200500D01*
X147222174Y-118200500D01*
X147222175Y-118200500D01*
X147222182Y-118200499D01*
X147489013Y-118160281D01*
X147489014Y-118160280D01*
X147489018Y-118160280D01*
X147746887Y-118080738D01*
X147990021Y-117963651D01*
X148212987Y-117811635D01*
X148410807Y-117628085D01*
X148579061Y-117417102D01*
X148713989Y-117183398D01*
X148812580Y-116932195D01*
X148872629Y-116669103D01*
X148883997Y-116517407D01*
X148892795Y-116400004D01*
X148892795Y-116399995D01*
X148872629Y-116130898D01*
X148832427Y-115954760D01*
X148812580Y-115867805D01*
X148713989Y-115616602D01*
X148579061Y-115382898D01*
X148410807Y-115171915D01*
X148410806Y-115171914D01*
X148410803Y-115171910D01*
X148212987Y-114988365D01*
X148184172Y-114968719D01*
X147990021Y-114836349D01*
X147990015Y-114836346D01*
X147990014Y-114836345D01*
X147990013Y-114836344D01*
X147746889Y-114719263D01*
X147746891Y-114719263D01*
X147489019Y-114639720D01*
X147489013Y-114639718D01*
X147222182Y-114599500D01*
X147222175Y-114599500D01*
X146952317Y-114599500D01*
X146952309Y-114599500D01*
X146685478Y-114639718D01*
X146685472Y-114639720D01*
X146427604Y-114719262D01*
X146184476Y-114836346D01*
X145961504Y-114988365D01*
X145763688Y-115171910D01*
X145595431Y-115382898D01*
X145460504Y-115616599D01*
X145460502Y-115616603D01*
X145361912Y-115867804D01*
X145361910Y-115867811D01*
X145301862Y-116130898D01*
X145281697Y-116399995D01*
X124900500Y-116399995D01*
X124900500Y-108831004D01*
X124900499Y-108831002D01*
X124873582Y-108695679D01*
X124873580Y-108695675D01*
X124873580Y-108695672D01*
X124871783Y-108691334D01*
X124851707Y-108642866D01*
X124821093Y-108568956D01*
X124820778Y-108568195D01*
X124820771Y-108568182D01*
X124744115Y-108453459D01*
X124721102Y-108430446D01*
X124646542Y-108355886D01*
X123954230Y-107663574D01*
X123920745Y-107602251D01*
X123925729Y-107532559D01*
X123945357Y-107498091D01*
X123997338Y-107433589D01*
X124061287Y-107289036D01*
X124080972Y-107221997D01*
X124084868Y-107208118D01*
X124105500Y-107051403D01*
X124105500Y-106629500D01*
X124125185Y-106562461D01*
X124177989Y-106516706D01*
X124229500Y-106505500D01*
X125827542Y-106505500D01*
X125894581Y-106525185D01*
X125940336Y-106577989D01*
X125950862Y-106642459D01*
X125947426Y-106675156D01*
X125944815Y-106700000D01*
X125963503Y-106877805D01*
X125963504Y-106877807D01*
X126018747Y-107047829D01*
X126018750Y-107047835D01*
X126108141Y-107202665D01*
X126125548Y-107221997D01*
X126227764Y-107335521D01*
X126227767Y-107335523D01*
X126227770Y-107335526D01*
X126372407Y-107440612D01*
X126535733Y-107513329D01*
X126710609Y-107550500D01*
X126710610Y-107550500D01*
X126889389Y-107550500D01*
X126889391Y-107550500D01*
X127064267Y-107513329D01*
X127227593Y-107440612D01*
X127372230Y-107335526D01*
X127491859Y-107202665D01*
X127581250Y-107047835D01*
X127636497Y-106877803D01*
X127655185Y-106700000D01*
X127636497Y-106522197D01*
X127614063Y-106453155D01*
X127612068Y-106383318D01*
X127648148Y-106323485D01*
X127648824Y-106322869D01*
X127684877Y-106290319D01*
X127705807Y-106270498D01*
X127802456Y-106145421D01*
X127863440Y-105999592D01*
X127881752Y-105932165D01*
X127885363Y-105918216D01*
X127902792Y-105761112D01*
X127899943Y-105621547D01*
X127892096Y-105237058D01*
X127906712Y-105176075D01*
X127928814Y-105134727D01*
X127986024Y-104946132D01*
X128005341Y-104750000D01*
X127986024Y-104553868D01*
X127928814Y-104365273D01*
X127898442Y-104308452D01*
X127884201Y-104240051D01*
X127898443Y-104191546D01*
X127928812Y-104134730D01*
X127928814Y-104134727D01*
X127986024Y-103946132D01*
X128005341Y-103750000D01*
X127986024Y-103553868D01*
X127928814Y-103365273D01*
X127898442Y-103308452D01*
X127884201Y-103240051D01*
X127898443Y-103191546D01*
X127928812Y-103134730D01*
X127928814Y-103134727D01*
X127986024Y-102946132D01*
X128005341Y-102750000D01*
X127986024Y-102553868D01*
X127928814Y-102365273D01*
X127898442Y-102308452D01*
X127884201Y-102240051D01*
X127898443Y-102191546D01*
X127928812Y-102134730D01*
X127928814Y-102134727D01*
X127986024Y-101946132D01*
X128005341Y-101750000D01*
X127986024Y-101553868D01*
X127928814Y-101365273D01*
X127835910Y-101191462D01*
X127835908Y-101191459D01*
X127833409Y-101187720D01*
X127812529Y-101121043D01*
X127812520Y-101117245D01*
X127848993Y-98399995D01*
X145281697Y-98399995D01*
X145281697Y-98400004D01*
X145301862Y-98669101D01*
X145361910Y-98932188D01*
X145361912Y-98932195D01*
X145426768Y-99097445D01*
X145460503Y-99183398D01*
X145595431Y-99417102D01*
X145652958Y-99489238D01*
X145763688Y-99628089D01*
X145893356Y-99748402D01*
X145961505Y-99811635D01*
X146184472Y-99963651D01*
X146427605Y-100080738D01*
X146685474Y-100160280D01*
X146685475Y-100160280D01*
X146685478Y-100160281D01*
X146952309Y-100200499D01*
X146952314Y-100200499D01*
X146952317Y-100200500D01*
X146952318Y-100200500D01*
X147222174Y-100200500D01*
X147222175Y-100200500D01*
X147222182Y-100200499D01*
X147489013Y-100160281D01*
X147489014Y-100160280D01*
X147489018Y-100160280D01*
X147746887Y-100080738D01*
X147990021Y-99963651D01*
X148212987Y-99811635D01*
X148410807Y-99628085D01*
X148579061Y-99417102D01*
X148713989Y-99183398D01*
X148812580Y-98932195D01*
X148872629Y-98669103D01*
X148892795Y-98400000D01*
X148872629Y-98130897D01*
X148812580Y-97867805D01*
X148713989Y-97616602D01*
X148579061Y-97382898D01*
X148410807Y-97171915D01*
X148410806Y-97171914D01*
X148410803Y-97171910D01*
X148212987Y-96988365D01*
X147990021Y-96836349D01*
X147990015Y-96836346D01*
X147990014Y-96836345D01*
X147990013Y-96836344D01*
X147746889Y-96719263D01*
X147746891Y-96719263D01*
X147489019Y-96639720D01*
X147489013Y-96639718D01*
X147222182Y-96599500D01*
X147222175Y-96599500D01*
X146952317Y-96599500D01*
X146952309Y-96599500D01*
X146685478Y-96639718D01*
X146685472Y-96639720D01*
X146427604Y-96719262D01*
X146184476Y-96836346D01*
X145961504Y-96988365D01*
X145763688Y-97171910D01*
X145595431Y-97382898D01*
X145460504Y-97616599D01*
X145460502Y-97616603D01*
X145361912Y-97867804D01*
X145361910Y-97867811D01*
X145301862Y-98130898D01*
X145281697Y-98399995D01*
X127848993Y-98399995D01*
X127861080Y-97499494D01*
X127871669Y-97451002D01*
X127888342Y-97413315D01*
X127908027Y-97346276D01*
X127911923Y-97332397D01*
X127932555Y-97175682D01*
X127932555Y-94123682D01*
X127918716Y-93994969D01*
X127907510Y-93943458D01*
X127860489Y-93807601D01*
X127773455Y-93675652D01*
X127773449Y-93675645D01*
X127773447Y-93675642D01*
X127727708Y-93622856D01*
X127708317Y-93601527D01*
X127585240Y-93502343D01*
X127585237Y-93502342D01*
X127440689Y-93438395D01*
X127440684Y-93438393D01*
X127373644Y-93418708D01*
X127359771Y-93414814D01*
X127203062Y-93394182D01*
X127203055Y-93394182D01*
X123906555Y-93394182D01*
X123839516Y-93374497D01*
X123793761Y-93321693D01*
X123782555Y-93270182D01*
X123782555Y-86523690D01*
X123782554Y-86523673D01*
X123781880Y-86517407D01*
X123768716Y-86394969D01*
X123757510Y-86343458D01*
X123710489Y-86207601D01*
X123623455Y-86075652D01*
X123623449Y-86075645D01*
X123623447Y-86075642D01*
X123577708Y-86022856D01*
X123558317Y-86001527D01*
X123558316Y-86001526D01*
X123546192Y-85991756D01*
X123506345Y-85934363D01*
X123500000Y-85895206D01*
X123500000Y-84569694D01*
X123514643Y-84511239D01*
X123528811Y-84484732D01*
X123528814Y-84484727D01*
X123586024Y-84296132D01*
X123605341Y-84100000D01*
X123586024Y-83903868D01*
X123550266Y-83785994D01*
X123549642Y-83716130D01*
X123550244Y-83714079D01*
X123586024Y-83596132D01*
X123605341Y-83400000D01*
X123586024Y-83203868D01*
X123528814Y-83015273D01*
X123523751Y-83005801D01*
X123514640Y-82988754D01*
X123500000Y-82930304D01*
X123500000Y-82617728D01*
X123519685Y-82550689D01*
X123572489Y-82504934D01*
X123611845Y-82494325D01*
X123696132Y-82486024D01*
X123884727Y-82428814D01*
X123948627Y-82394659D01*
X124058532Y-82335913D01*
X124058538Y-82335910D01*
X124158775Y-82253646D01*
X124223084Y-82226334D01*
X124237440Y-82225500D01*
X126571457Y-82225500D01*
X126637909Y-82212280D01*
X126667296Y-82206434D01*
X126703643Y-82204649D01*
X126791990Y-82213351D01*
X126988122Y-82194034D01*
X127176717Y-82136824D01*
X127350528Y-82043920D01*
X127502873Y-81918893D01*
X127627900Y-81766548D01*
X127720804Y-81592737D01*
X127778014Y-81404142D01*
X127797331Y-81208010D01*
X127778014Y-81011878D01*
X127762773Y-80961634D01*
X127754844Y-80935496D01*
X127754220Y-80865629D01*
X127791468Y-80806516D01*
X127854762Y-80776925D01*
X127873504Y-80775500D01*
X128171782Y-80775500D01*
X128171784Y-80775500D01*
X128212100Y-80772766D01*
X128386349Y-80729433D01*
X128419660Y-80712911D01*
X128474755Y-80700000D01*
X129252154Y-80700000D01*
X129293109Y-80706959D01*
X129445737Y-80760366D01*
X129445743Y-80760367D01*
X129445745Y-80760368D01*
X129445746Y-80760368D01*
X129445750Y-80760369D01*
X129536246Y-80770565D01*
X129580040Y-80775499D01*
X129580043Y-80775500D01*
X129580046Y-80775500D01*
X130069957Y-80775500D01*
X130069958Y-80775499D01*
X130137104Y-80767934D01*
X130204249Y-80760369D01*
X130204251Y-80760368D01*
X130204255Y-80760368D01*
X130204258Y-80760366D01*
X130204262Y-80760366D01*
X130356891Y-80706959D01*
X130397846Y-80700000D01*
X130902154Y-80700000D01*
X130943109Y-80706959D01*
X131095737Y-80760366D01*
X131095743Y-80760367D01*
X131095745Y-80760368D01*
X131095746Y-80760368D01*
X131095750Y-80760369D01*
X131186246Y-80770565D01*
X131230040Y-80775499D01*
X131230043Y-80775500D01*
X131230046Y-80775500D01*
X131719957Y-80775500D01*
X131719958Y-80775499D01*
X131787104Y-80767934D01*
X131854249Y-80760369D01*
X131854251Y-80760368D01*
X131854255Y-80760368D01*
X131854258Y-80760366D01*
X131854262Y-80760366D01*
X132006891Y-80706959D01*
X132047846Y-80700000D01*
X135800000Y-80700000D01*
X135792359Y-79549995D01*
X145181697Y-79549995D01*
X145181697Y-79550004D01*
X145201862Y-79819101D01*
X145253115Y-80043653D01*
X145261912Y-80082195D01*
X145360503Y-80333398D01*
X145495431Y-80567102D01*
X145572777Y-80664090D01*
X145663688Y-80778089D01*
X145833334Y-80935496D01*
X145861505Y-80961635D01*
X146084472Y-81113651D01*
X146327605Y-81230738D01*
X146585474Y-81310280D01*
X146585475Y-81310280D01*
X146585478Y-81310281D01*
X146852309Y-81350499D01*
X146852314Y-81350499D01*
X146852317Y-81350500D01*
X146852318Y-81350500D01*
X147122174Y-81350500D01*
X147122175Y-81350500D01*
X147122182Y-81350499D01*
X147389013Y-81310281D01*
X147389014Y-81310280D01*
X147389018Y-81310280D01*
X147646887Y-81230738D01*
X147890021Y-81113651D01*
X148112987Y-80961635D01*
X148280166Y-80806516D01*
X148310803Y-80778089D01*
X148310803Y-80778087D01*
X148310807Y-80778085D01*
X148479061Y-80567102D01*
X148613989Y-80333398D01*
X148712580Y-80082195D01*
X148772629Y-79819103D01*
X148786909Y-79628545D01*
X148792795Y-79550004D01*
X148792795Y-79549995D01*
X148772629Y-79280898D01*
X148763316Y-79240094D01*
X148712580Y-79017805D01*
X148613989Y-78766602D01*
X148479061Y-78532898D01*
X148310807Y-78321915D01*
X148310806Y-78321914D01*
X148310803Y-78321910D01*
X148112987Y-78138365D01*
X148084989Y-78119276D01*
X147890021Y-77986349D01*
X147890015Y-77986346D01*
X147890014Y-77986345D01*
X147890013Y-77986344D01*
X147646889Y-77869263D01*
X147646891Y-77869263D01*
X147389019Y-77789720D01*
X147389013Y-77789718D01*
X147122182Y-77749500D01*
X147122175Y-77749500D01*
X146852317Y-77749500D01*
X146852309Y-77749500D01*
X146585478Y-77789718D01*
X146585472Y-77789720D01*
X146327604Y-77869262D01*
X146084476Y-77986346D01*
X145861504Y-78138365D01*
X145663688Y-78321910D01*
X145495431Y-78532898D01*
X145360504Y-78766599D01*
X145360502Y-78766603D01*
X145261912Y-79017804D01*
X145261910Y-79017811D01*
X145201862Y-79280898D01*
X145181697Y-79549995D01*
X135792359Y-79549995D01*
X135700000Y-65650000D01*
X135699999Y-65650000D01*
X125524602Y-65699395D01*
X125457468Y-65680036D01*
X125411457Y-65627454D01*
X125400000Y-65575396D01*
X125400000Y-61599995D01*
X145181697Y-61599995D01*
X145181697Y-61600004D01*
X145201862Y-61869101D01*
X145252660Y-62091661D01*
X145261912Y-62132195D01*
X145360503Y-62383398D01*
X145495431Y-62617102D01*
X145621861Y-62775639D01*
X145663688Y-62828089D01*
X145850429Y-63001358D01*
X145861505Y-63011635D01*
X146084472Y-63163651D01*
X146327605Y-63280738D01*
X146585474Y-63360280D01*
X146585475Y-63360280D01*
X146585478Y-63360281D01*
X146852309Y-63400499D01*
X146852314Y-63400499D01*
X146852317Y-63400500D01*
X146852318Y-63400500D01*
X147122174Y-63400500D01*
X147122175Y-63400500D01*
X147122182Y-63400499D01*
X147389013Y-63360281D01*
X147389014Y-63360280D01*
X147389018Y-63360280D01*
X147646887Y-63280738D01*
X147890021Y-63163651D01*
X148112987Y-63011635D01*
X148310807Y-62828085D01*
X148479061Y-62617102D01*
X148613989Y-62383398D01*
X148712580Y-62132195D01*
X148772629Y-61869103D01*
X148785895Y-61692081D01*
X148792795Y-61600004D01*
X148792795Y-61599995D01*
X148772629Y-61330898D01*
X148712581Y-61067811D01*
X148712580Y-61067805D01*
X148613989Y-60816602D01*
X148479061Y-60582898D01*
X148310807Y-60371915D01*
X148310806Y-60371914D01*
X148310803Y-60371910D01*
X148112987Y-60188365D01*
X147890021Y-60036349D01*
X147890015Y-60036346D01*
X147890014Y-60036345D01*
X147890013Y-60036344D01*
X147646889Y-59919263D01*
X147646891Y-59919263D01*
X147389019Y-59839720D01*
X147389013Y-59839718D01*
X147122182Y-59799500D01*
X147122175Y-59799500D01*
X146852317Y-59799500D01*
X146852309Y-59799500D01*
X146585478Y-59839718D01*
X146585472Y-59839720D01*
X146327604Y-59919262D01*
X146084476Y-60036346D01*
X145861504Y-60188365D01*
X145663688Y-60371910D01*
X145495431Y-60582898D01*
X145360504Y-60816599D01*
X145360502Y-60816603D01*
X145261912Y-61067804D01*
X145261910Y-61067811D01*
X145201862Y-61330898D01*
X145181697Y-61599995D01*
X125400000Y-61599995D01*
X125400000Y-56979500D01*
X125419685Y-56912461D01*
X125472489Y-56866706D01*
X125524000Y-56855500D01*
X129025991Y-56855500D01*
X129026000Y-56855500D01*
X129154713Y-56841661D01*
X129206224Y-56830455D01*
X129342081Y-56783434D01*
X129474030Y-56696400D01*
X129526834Y-56650645D01*
X129548154Y-56631263D01*
X129647338Y-56508186D01*
X129647338Y-56508185D01*
X129649749Y-56505194D01*
X129707142Y-56465346D01*
X129745122Y-56459008D01*
X136000000Y-56400000D01*
X135903012Y-52326535D01*
X135921095Y-52259049D01*
X135972795Y-52212050D01*
X136026569Y-52199587D01*
X151126590Y-52150401D01*
X151193690Y-52169867D01*
G37*
G04 #@! TD.AperFunction*
G04 #@! TA.AperFunction,Conductor*
G36*
X113470094Y-78195185D02*
G01*
X113515849Y-78247989D01*
X113527055Y-78299500D01*
X113527055Y-86399682D01*
X117806797Y-86399682D01*
X117871893Y-86418143D01*
X117955659Y-86469810D01*
X117955660Y-86469810D01*
X117955666Y-86469814D01*
X118122203Y-86524999D01*
X118224991Y-86535500D01*
X122425008Y-86535499D01*
X122527797Y-86524999D01*
X122694334Y-86469814D01*
X122745498Y-86438256D01*
X122778107Y-86418143D01*
X122843203Y-86399682D01*
X123053055Y-86399682D01*
X123120094Y-86419367D01*
X123165849Y-86472171D01*
X123177055Y-86523682D01*
X123177055Y-93999682D01*
X127203055Y-93999682D01*
X127270094Y-94019367D01*
X127315849Y-94072171D01*
X127327055Y-94123682D01*
X127327055Y-97175682D01*
X127307370Y-97242721D01*
X127254566Y-97288476D01*
X127203055Y-97299682D01*
X126382022Y-97299682D01*
X126316927Y-97281221D01*
X126169334Y-97190186D01*
X126002797Y-97135001D01*
X126002795Y-97135000D01*
X125900010Y-97124500D01*
X124499998Y-97124500D01*
X124499981Y-97124501D01*
X124397203Y-97135000D01*
X124397200Y-97135001D01*
X124230668Y-97190185D01*
X124230663Y-97190187D01*
X124148813Y-97240672D01*
X124083072Y-97281221D01*
X124017978Y-97299682D01*
X123712412Y-97299682D01*
X123645373Y-97279997D01*
X123624731Y-97263363D01*
X123618657Y-97257289D01*
X123618656Y-97257288D01*
X123469334Y-97165186D01*
X123302797Y-97110001D01*
X123302795Y-97110000D01*
X123200010Y-97099500D01*
X121799998Y-97099500D01*
X121799981Y-97099501D01*
X121697203Y-97110000D01*
X121697200Y-97110001D01*
X121530668Y-97165185D01*
X121530663Y-97165187D01*
X121381342Y-97257289D01*
X121375269Y-97263363D01*
X121313946Y-97296848D01*
X121287588Y-97299682D01*
X121032022Y-97299682D01*
X120966927Y-97281221D01*
X120819334Y-97190186D01*
X120652797Y-97135001D01*
X120652795Y-97135000D01*
X120550010Y-97124500D01*
X119149998Y-97124500D01*
X119149981Y-97124501D01*
X119047203Y-97135000D01*
X119047200Y-97135001D01*
X118880668Y-97190185D01*
X118880663Y-97190187D01*
X118798813Y-97240672D01*
X118733072Y-97281221D01*
X118667978Y-97299682D01*
X117527054Y-97299682D01*
X117454675Y-98385373D01*
X117430575Y-98450955D01*
X117374844Y-98493096D01*
X117313305Y-98499863D01*
X117276003Y-98494500D01*
X117276000Y-98494500D01*
X106372715Y-98494500D01*
X106267841Y-98505498D01*
X106267833Y-98505500D01*
X106217517Y-98516171D01*
X106217505Y-98516174D01*
X106117185Y-98548694D01*
X106096530Y-98561667D01*
X106029288Y-98580650D01*
X105962458Y-98560267D01*
X105917257Y-98506988D01*
X105906613Y-98459357D01*
X105827055Y-94799682D01*
X105827056Y-94799782D01*
X105827054Y-94799682D01*
X105872941Y-98700081D01*
X105854047Y-98767348D01*
X105851530Y-98770715D01*
X105851593Y-98770757D01*
X105846721Y-98778167D01*
X105785592Y-98908410D01*
X105785588Y-98908422D01*
X105765670Y-98973729D01*
X105765280Y-98974951D01*
X105765207Y-98975252D01*
X105743249Y-99117440D01*
X105743248Y-99117444D01*
X105734920Y-99916979D01*
X105700961Y-103176974D01*
X105680579Y-103243804D01*
X105627302Y-103289007D01*
X105576968Y-103299682D01*
X104224500Y-103299682D01*
X104157461Y-103279997D01*
X104111706Y-103227193D01*
X104100500Y-103175682D01*
X104100500Y-93800000D01*
X113394540Y-93800000D01*
X113414326Y-93988256D01*
X113414327Y-93988259D01*
X113472818Y-94168277D01*
X113472821Y-94168284D01*
X113567467Y-94332216D01*
X113694129Y-94472888D01*
X113847265Y-94584148D01*
X113847270Y-94584151D01*
X114020192Y-94661142D01*
X114020197Y-94661144D01*
X114205354Y-94700500D01*
X114205355Y-94700500D01*
X114394644Y-94700500D01*
X114394646Y-94700500D01*
X114579803Y-94661144D01*
X114752730Y-94584151D01*
X114905871Y-94472888D01*
X115032533Y-94332216D01*
X115127179Y-94168284D01*
X115185674Y-93988256D01*
X115205460Y-93800000D01*
X115185674Y-93611744D01*
X115127179Y-93431716D01*
X115032533Y-93267784D01*
X114905871Y-93127112D01*
X114883893Y-93111144D01*
X114752734Y-93015851D01*
X114752729Y-93015848D01*
X114579807Y-92938857D01*
X114579802Y-92938855D01*
X114434001Y-92907865D01*
X114394646Y-92899500D01*
X114205354Y-92899500D01*
X114172897Y-92906398D01*
X114020197Y-92938855D01*
X114020192Y-92938857D01*
X113847270Y-93015848D01*
X113847265Y-93015851D01*
X113694129Y-93127111D01*
X113567466Y-93267785D01*
X113472821Y-93431715D01*
X113472818Y-93431722D01*
X113414327Y-93611740D01*
X113414326Y-93611744D01*
X113394540Y-93800000D01*
X104100500Y-93800000D01*
X104100500Y-93274500D01*
X104120185Y-93207461D01*
X104172989Y-93161706D01*
X104224500Y-93150500D01*
X104344644Y-93150500D01*
X104344646Y-93150500D01*
X104529803Y-93111144D01*
X104702730Y-93034151D01*
X104855871Y-92922888D01*
X104982533Y-92782216D01*
X105077179Y-92618284D01*
X105135674Y-92438256D01*
X105155460Y-92250000D01*
X105135674Y-92061744D01*
X105077179Y-91881716D01*
X105036927Y-91811999D01*
X105020454Y-91744101D01*
X105036927Y-91688001D01*
X105077179Y-91618284D01*
X105135674Y-91438256D01*
X105155460Y-91250000D01*
X105135674Y-91061744D01*
X105077179Y-90881716D01*
X105036927Y-90811999D01*
X105020454Y-90744101D01*
X105036927Y-90688001D01*
X105077179Y-90618284D01*
X105135674Y-90438256D01*
X105155460Y-90250000D01*
X105135674Y-90061744D01*
X105077179Y-89881716D01*
X105036927Y-89811999D01*
X105020454Y-89744101D01*
X105036927Y-89688001D01*
X105077179Y-89618284D01*
X105135674Y-89438256D01*
X105155460Y-89250000D01*
X105135674Y-89061744D01*
X105077179Y-88881716D01*
X105036927Y-88811999D01*
X105020454Y-88744101D01*
X105036927Y-88688001D01*
X105077179Y-88618284D01*
X105135674Y-88438256D01*
X105155460Y-88250000D01*
X105135674Y-88061744D01*
X105077179Y-87881716D01*
X105036927Y-87811999D01*
X105020454Y-87744101D01*
X105036927Y-87688001D01*
X105077179Y-87618284D01*
X105135674Y-87438256D01*
X105155460Y-87250000D01*
X105135674Y-87061744D01*
X105077179Y-86881716D01*
X105036927Y-86811999D01*
X105020454Y-86744101D01*
X105036927Y-86688001D01*
X105077179Y-86618284D01*
X105135674Y-86438256D01*
X105155460Y-86250000D01*
X105135674Y-86061744D01*
X105077179Y-85881716D01*
X104982533Y-85717784D01*
X104855871Y-85577112D01*
X104855870Y-85577111D01*
X104702734Y-85465851D01*
X104702729Y-85465848D01*
X104529807Y-85388857D01*
X104529802Y-85388855D01*
X104384001Y-85357865D01*
X104344646Y-85349500D01*
X104224500Y-85349500D01*
X104157461Y-85329815D01*
X104111706Y-85277011D01*
X104100500Y-85225500D01*
X104100500Y-79622280D01*
X104120185Y-79555241D01*
X104136819Y-79534599D01*
X105459600Y-78211819D01*
X105520923Y-78178334D01*
X105547281Y-78175500D01*
X113403055Y-78175500D01*
X113470094Y-78195185D01*
G37*
G04 #@! TD.AperFunction*
G04 #@! TA.AperFunction,Conductor*
G36*
X118407807Y-57919685D02*
G01*
X118453562Y-57972489D01*
X118464763Y-58022940D01*
X118493466Y-61381375D01*
X118505466Y-61486631D01*
X118516663Y-61537063D01*
X118516669Y-61537084D01*
X118550329Y-61637501D01*
X118550330Y-61637503D01*
X118628115Y-61758537D01*
X118628123Y-61758548D01*
X118673867Y-61811340D01*
X118673870Y-61811343D01*
X118673874Y-61811347D01*
X118782608Y-61905567D01*
X118782611Y-61905568D01*
X118782612Y-61905569D01*
X118908203Y-61962926D01*
X118913485Y-61965338D01*
X118980524Y-61985023D01*
X118980528Y-61985024D01*
X119122944Y-62005500D01*
X119122947Y-62005500D01*
X124575990Y-62005500D01*
X124576000Y-62005500D01*
X124657245Y-61996765D01*
X124726004Y-62009170D01*
X124777142Y-62056780D01*
X124794500Y-62120054D01*
X124794500Y-65575402D01*
X124808651Y-65705541D01*
X124820108Y-65757597D01*
X124868104Y-65894660D01*
X124868106Y-65894663D01*
X124955779Y-66026187D01*
X124955782Y-66026190D01*
X125001773Y-66078750D01*
X125021285Y-66100005D01*
X125103336Y-66165471D01*
X125143463Y-66222669D01*
X125150000Y-66262399D01*
X125150000Y-67470500D01*
X125130315Y-67537539D01*
X125077511Y-67583294D01*
X125026000Y-67594500D01*
X121224000Y-67594500D01*
X121223991Y-67594500D01*
X121223990Y-67594501D01*
X121116549Y-67606052D01*
X121116537Y-67606054D01*
X121065027Y-67617260D01*
X120962502Y-67651383D01*
X120962496Y-67651386D01*
X120871285Y-67710005D01*
X120804245Y-67729690D01*
X120803666Y-67729689D01*
X114573421Y-67700576D01*
X114506474Y-67680578D01*
X114460966Y-67627561D01*
X114450000Y-67576577D01*
X114450000Y-64000000D01*
X112979786Y-64000000D01*
X112956240Y-63997744D01*
X112721243Y-63952295D01*
X112668652Y-63949501D01*
X112668629Y-63949500D01*
X112668622Y-63949500D01*
X112074000Y-63949500D01*
X112006961Y-63929815D01*
X111961206Y-63877011D01*
X111950000Y-63825500D01*
X111950000Y-58024000D01*
X111969685Y-57956961D01*
X112022489Y-57911206D01*
X112074000Y-57900000D01*
X118340768Y-57900000D01*
X118407807Y-57919685D01*
G37*
G04 #@! TD.AperFunction*
G04 #@! TA.AperFunction,Conductor*
G36*
X102805703Y-127762491D02*
G01*
X102812181Y-127768523D01*
X102883072Y-127839414D01*
X103023212Y-127941232D01*
X103177555Y-128019873D01*
X103342299Y-128073402D01*
X103513389Y-128100500D01*
X103686611Y-128100500D01*
X103998700Y-128100500D01*
X104065739Y-128120185D01*
X104111494Y-128172989D01*
X104122700Y-128224500D01*
X104122700Y-129200407D01*
X104143349Y-129357243D01*
X104143350Y-129357247D01*
X104172805Y-129428359D01*
X104180274Y-129497829D01*
X104172806Y-129523262D01*
X104143656Y-129593638D01*
X104143655Y-129593639D01*
X104128201Y-129711029D01*
X104128200Y-129711045D01*
X104128200Y-131289763D01*
X104143654Y-131407158D01*
X104143656Y-131407164D01*
X104162620Y-131452948D01*
X104170089Y-131522418D01*
X104162621Y-131547851D01*
X104143656Y-131593637D01*
X104143655Y-131593639D01*
X104128201Y-131711029D01*
X104128200Y-131711045D01*
X104128200Y-133289763D01*
X104143654Y-133407155D01*
X104143654Y-133407156D01*
X104143655Y-133407160D01*
X104143656Y-133407162D01*
X104154951Y-133434431D01*
X104170306Y-133471501D01*
X104177774Y-133540970D01*
X104170306Y-133566403D01*
X104138349Y-133643556D01*
X104117700Y-133800392D01*
X104117700Y-133805407D01*
X104121639Y-133835319D01*
X104122700Y-133851505D01*
X104122700Y-135000402D01*
X104123148Y-135023712D01*
X104124147Y-135049683D01*
X104125482Y-135072845D01*
X104127487Y-135098905D01*
X104129692Y-135121849D01*
X104132694Y-135147870D01*
X104139603Y-135192845D01*
X104144603Y-135218840D01*
X104150425Y-135245791D01*
X104150433Y-135245824D01*
X104155823Y-135268283D01*
X104156449Y-135270889D01*
X104159358Y-135282314D01*
X104160537Y-135286944D01*
X104167537Y-135312944D01*
X104167544Y-135312965D01*
X104185278Y-135368160D01*
X104185292Y-135368202D01*
X104194270Y-135392142D01*
X104202317Y-135412483D01*
X104212311Y-135436470D01*
X104220806Y-135455892D01*
X104231808Y-135479895D01*
X104255136Y-135525582D01*
X104268145Y-135548599D01*
X104284439Y-135575745D01*
X104312442Y-135619749D01*
X104341666Y-135661659D01*
X104357650Y-135682640D01*
X104357668Y-135682662D01*
X104377965Y-135707875D01*
X104377975Y-135707886D01*
X104377976Y-135707888D01*
X104394970Y-135727881D01*
X104416775Y-135752176D01*
X104434773Y-135771174D01*
X104457925Y-135794326D01*
X104476923Y-135812324D01*
X104494035Y-135827682D01*
X104501225Y-135834135D01*
X104521225Y-135851135D01*
X104543562Y-135869117D01*
X104546459Y-135871449D01*
X104560227Y-135881938D01*
X104567438Y-135887432D01*
X104585263Y-135899861D01*
X104609350Y-135916657D01*
X104653354Y-135944660D01*
X104680500Y-135960954D01*
X104693652Y-135968387D01*
X104703513Y-135973961D01*
X104749207Y-135997293D01*
X104773207Y-136008293D01*
X104792629Y-136016788D01*
X104816596Y-136026774D01*
X104816607Y-136026778D01*
X104816623Y-136026785D01*
X104836919Y-136034815D01*
X104844287Y-136037578D01*
X104860897Y-136043807D01*
X104860903Y-136043809D01*
X104860919Y-136043815D01*
X104916156Y-136061563D01*
X104942156Y-136068563D01*
X104958276Y-136072667D01*
X104983276Y-136078667D01*
X105010258Y-136084496D01*
X105015458Y-136085496D01*
X105036254Y-136089496D01*
X105081229Y-136096405D01*
X105081238Y-136096406D01*
X105107238Y-136099406D01*
X105130222Y-136101615D01*
X105156222Y-136103615D01*
X105156245Y-136103616D01*
X105156254Y-136103617D01*
X105163417Y-136104029D01*
X105179410Y-136104952D01*
X105205410Y-136105952D01*
X105227193Y-136106371D01*
X105228698Y-136106400D01*
X105228700Y-136106400D01*
X105778691Y-136106400D01*
X105778700Y-136106400D01*
X105794227Y-136106112D01*
X105801133Y-136105985D01*
X105803903Y-136105882D01*
X105828129Y-136104985D01*
X105852178Y-136103615D01*
X105878178Y-136101615D01*
X105901162Y-136099406D01*
X105927162Y-136096406D01*
X105927164Y-136096405D01*
X105927170Y-136096405D01*
X105972145Y-136089496D01*
X105987742Y-136086496D01*
X105998142Y-136084496D01*
X106012018Y-136081498D01*
X106025112Y-136078670D01*
X106035838Y-136076095D01*
X106050124Y-136072667D01*
X106050132Y-136072664D01*
X106050140Y-136072663D01*
X106072065Y-136066964D01*
X106072062Y-136066964D01*
X106072096Y-136066956D01*
X106097096Y-136059956D01*
X106138964Y-136046578D01*
X106163964Y-136037578D01*
X106191777Y-136026785D01*
X106215777Y-136016785D01*
X106235193Y-136008293D01*
X106259193Y-135997293D01*
X106304887Y-135973961D01*
X106327887Y-135960961D01*
X106337990Y-135955121D01*
X106359990Y-135942121D01*
X106403930Y-135913522D01*
X106424930Y-135898522D01*
X106439962Y-135887432D01*
X106460962Y-135871432D01*
X106486175Y-135851135D01*
X106506175Y-135834135D01*
X106530473Y-135812327D01*
X106549473Y-135794327D01*
X106572627Y-135771173D01*
X106590627Y-135752173D01*
X106612435Y-135727875D01*
X106629435Y-135707875D01*
X106649732Y-135682662D01*
X106665732Y-135661662D01*
X106676822Y-135646630D01*
X106691822Y-135625630D01*
X106720421Y-135581690D01*
X106733421Y-135559690D01*
X106739261Y-135549587D01*
X106752261Y-135526587D01*
X106775593Y-135480893D01*
X106786593Y-135456893D01*
X106795085Y-135437477D01*
X106805085Y-135413477D01*
X106815878Y-135385664D01*
X106824878Y-135360664D01*
X106838256Y-135318796D01*
X106845256Y-135293796D01*
X106849018Y-135279322D01*
X106850963Y-135271840D01*
X106852124Y-135267005D01*
X106856967Y-135246824D01*
X106857191Y-135245791D01*
X106862796Y-135219840D01*
X106862989Y-135218840D01*
X106866439Y-135200900D01*
X106867796Y-135193845D01*
X106874705Y-135148870D01*
X106877707Y-135122849D01*
X106877986Y-135119946D01*
X106879915Y-135099878D01*
X106881915Y-135073878D01*
X106883216Y-135051621D01*
X106884216Y-135026621D01*
X106884700Y-135002400D01*
X106884699Y-135002399D01*
X106884740Y-135000396D01*
X106884700Y-134998950D01*
X106884700Y-133800406D01*
X106884699Y-133800392D01*
X106867455Y-133669410D01*
X106864051Y-133643556D01*
X106834592Y-133572437D01*
X106827124Y-133502973D01*
X106834591Y-133477540D01*
X106863744Y-133407162D01*
X106879200Y-133289761D01*
X106879199Y-132855673D01*
X106898883Y-132788637D01*
X106951687Y-132742882D01*
X107020846Y-132732938D01*
X107084402Y-132761963D01*
X107095864Y-132774128D01*
X107100413Y-132778677D01*
X107100415Y-132778679D01*
X107100418Y-132778682D01*
X107225859Y-132874936D01*
X107371938Y-132935444D01*
X107371943Y-132935444D01*
X107379788Y-132937547D01*
X107379323Y-132939281D01*
X107433998Y-132963468D01*
X107472469Y-133021793D01*
X107473300Y-133091657D01*
X107457018Y-133127031D01*
X107383533Y-133237008D01*
X107383531Y-133237012D01*
X107313768Y-133405437D01*
X107313765Y-133405447D01*
X107278200Y-133584243D01*
X107278200Y-133584246D01*
X107278200Y-134416554D01*
X107278200Y-134416556D01*
X107278199Y-134416556D01*
X107313765Y-134595352D01*
X107313768Y-134595362D01*
X107383531Y-134763787D01*
X107383533Y-134763791D01*
X107484813Y-134915367D01*
X107484819Y-134915375D01*
X107613724Y-135044280D01*
X107613732Y-135044286D01*
X107765308Y-135145566D01*
X107765312Y-135145568D01*
X107918672Y-135209091D01*
X107933742Y-135215333D01*
X107933746Y-135215333D01*
X107933747Y-135215334D01*
X108112543Y-135250900D01*
X108112546Y-135250900D01*
X108294856Y-135250900D01*
X108456027Y-135218840D01*
X108473658Y-135215333D01*
X108585945Y-135168822D01*
X108642087Y-135145568D01*
X108642091Y-135145566D01*
X108750926Y-135072845D01*
X108793672Y-135044283D01*
X108922583Y-134915372D01*
X108957398Y-134863266D01*
X109011008Y-134818462D01*
X109080333Y-134809753D01*
X109143361Y-134839907D01*
X109180081Y-134899349D01*
X109184500Y-134932157D01*
X109184500Y-135354363D01*
X109199953Y-135471753D01*
X109199956Y-135471762D01*
X109260464Y-135617841D01*
X109282994Y-135647204D01*
X109308187Y-135712374D01*
X109294148Y-135780818D01*
X109250591Y-135827682D01*
X109222741Y-135845181D01*
X109143170Y-135924752D01*
X109081846Y-135958236D01*
X109016485Y-135954776D01*
X108850762Y-135899861D01*
X108749344Y-135889500D01*
X108370664Y-135889500D01*
X108370646Y-135889501D01*
X108269239Y-135899860D01*
X108269236Y-135899861D01*
X108104923Y-135954309D01*
X108104912Y-135954314D01*
X107957592Y-136045183D01*
X107957588Y-136045186D01*
X107835186Y-136167588D01*
X107835183Y-136167592D01*
X107744314Y-136314912D01*
X107744309Y-136314923D01*
X107689861Y-136479237D01*
X107679500Y-136580649D01*
X107679500Y-137019335D01*
X107679501Y-137019353D01*
X107689860Y-137120760D01*
X107689861Y-137120763D01*
X107744309Y-137285076D01*
X107744314Y-137285087D01*
X107835183Y-137432407D01*
X107835186Y-137432411D01*
X107957588Y-137554813D01*
X107957592Y-137554816D01*
X108104912Y-137645685D01*
X108104915Y-137645686D01*
X108104921Y-137645690D01*
X108269239Y-137700139D01*
X108370657Y-137710500D01*
X108749342Y-137710499D01*
X108837978Y-137701444D01*
X108906668Y-137714213D01*
X108957553Y-137762094D01*
X108974474Y-137829883D01*
X108967620Y-137865755D01*
X108939633Y-137945739D01*
X108939630Y-137945750D01*
X108924500Y-138080039D01*
X108924500Y-138569960D01*
X108939630Y-138704249D01*
X108939631Y-138704254D01*
X108999211Y-138874523D01*
X109075984Y-138996705D01*
X109095184Y-139027262D01*
X109222738Y-139154816D01*
X109375478Y-139250789D01*
X109438465Y-139272829D01*
X109545745Y-139310368D01*
X109545750Y-139310369D01*
X109636246Y-139320565D01*
X109680040Y-139325499D01*
X109680043Y-139325500D01*
X109680046Y-139325500D01*
X110319950Y-139325500D01*
X110319954Y-139325500D01*
X110336614Y-139323622D01*
X110405433Y-139335674D01*
X110456814Y-139383020D01*
X110474500Y-139446836D01*
X110474500Y-139464361D01*
X110489954Y-139581755D01*
X110489955Y-139581760D01*
X110510654Y-139631732D01*
X110518123Y-139701202D01*
X110514754Y-139715178D01*
X110489337Y-139798967D01*
X110469538Y-140000000D01*
X110489337Y-140201031D01*
X110499864Y-140235733D01*
X110547945Y-140394236D01*
X110547978Y-140394343D01*
X110573209Y-140441548D01*
X110587450Y-140509951D01*
X110573209Y-140558452D01*
X110547978Y-140605656D01*
X110489337Y-140798968D01*
X110469538Y-141000000D01*
X110489337Y-141201031D01*
X110547978Y-141394345D01*
X110643198Y-141572488D01*
X110643203Y-141572495D01*
X110771352Y-141728647D01*
X110880016Y-141817824D01*
X110927506Y-141856798D01*
X110927509Y-141856799D01*
X110927511Y-141856801D01*
X111105654Y-141952021D01*
X111105656Y-141952021D01*
X111105659Y-141952023D01*
X111298967Y-142010662D01*
X111500000Y-142030462D01*
X111701033Y-142010662D01*
X111894341Y-141952023D01*
X112072494Y-141856798D01*
X112228647Y-141728647D01*
X112356798Y-141572494D01*
X112413933Y-141465602D01*
X112452021Y-141394345D01*
X112452021Y-141394344D01*
X112452023Y-141394341D01*
X112510662Y-141201033D01*
X112530462Y-141000000D01*
X112528203Y-140977067D01*
X112541221Y-140908423D01*
X112563922Y-140877236D01*
X113016928Y-140424231D01*
X113089758Y-140315232D01*
X113139925Y-140194119D01*
X113158684Y-140099812D01*
X113165500Y-140065548D01*
X113165500Y-140024499D01*
X113185185Y-139957460D01*
X113237989Y-139911705D01*
X113289500Y-139900499D01*
X113519336Y-139900499D01*
X113519342Y-139900499D01*
X113620761Y-139890139D01*
X113785079Y-139835690D01*
X113932411Y-139744814D01*
X114054814Y-139622411D01*
X114136915Y-139489304D01*
X114188861Y-139442583D01*
X114244897Y-139430999D01*
X114244897Y-139430500D01*
X114247312Y-139430500D01*
X114247317Y-139430499D01*
X114247321Y-139430499D01*
X114247332Y-139430500D01*
X114526035Y-139430500D01*
X114593074Y-139450185D01*
X114638829Y-139502989D01*
X114648773Y-139572147D01*
X114619748Y-139635703D01*
X114613716Y-139642181D01*
X114068076Y-140187819D01*
X114068075Y-140187820D01*
X113995239Y-140296829D01*
X113963147Y-140374304D01*
X113936268Y-140414531D01*
X111812617Y-142538181D01*
X111751294Y-142571666D01*
X111724936Y-142574500D01*
X111135636Y-142574500D01*
X111018246Y-142589953D01*
X111018237Y-142589956D01*
X110872160Y-142650463D01*
X110746718Y-142746718D01*
X110650463Y-142872160D01*
X110589956Y-143018237D01*
X110589955Y-143018239D01*
X110574500Y-143135638D01*
X110574500Y-144064363D01*
X110589953Y-144181753D01*
X110589956Y-144181762D01*
X110635966Y-144292841D01*
X110650464Y-144327841D01*
X110746718Y-144453282D01*
X110872159Y-144549536D01*
X111018238Y-144610044D01*
X111135639Y-144625500D01*
X112064360Y-144625499D01*
X112064363Y-144625499D01*
X112181753Y-144610046D01*
X112181756Y-144610044D01*
X112181762Y-144610044D01*
X112231733Y-144589344D01*
X112301201Y-144581876D01*
X112315181Y-144585246D01*
X112383742Y-144606043D01*
X112396936Y-144610046D01*
X112398964Y-144610661D01*
X112398966Y-144610662D01*
X112418766Y-144612612D01*
X112600000Y-144630462D01*
X112801033Y-144610662D01*
X112994341Y-144552023D01*
X113041547Y-144526790D01*
X113109947Y-144512548D01*
X113158451Y-144526789D01*
X113205659Y-144552023D01*
X113398967Y-144610662D01*
X113600000Y-144630462D01*
X113801033Y-144610662D01*
X113994341Y-144552023D01*
X114041547Y-144526790D01*
X114109947Y-144512548D01*
X114158451Y-144526789D01*
X114205659Y-144552023D01*
X114398967Y-144610662D01*
X114600000Y-144630462D01*
X114801033Y-144610662D01*
X114994341Y-144552023D01*
X115041547Y-144526790D01*
X115109947Y-144512548D01*
X115158451Y-144526789D01*
X115205659Y-144552023D01*
X115398967Y-144610662D01*
X115600000Y-144630462D01*
X115801033Y-144610662D01*
X115994341Y-144552023D01*
X116041547Y-144526790D01*
X116109947Y-144512548D01*
X116158451Y-144526789D01*
X116205659Y-144552023D01*
X116398967Y-144610662D01*
X116600000Y-144630462D01*
X116801033Y-144610662D01*
X116994341Y-144552023D01*
X117041547Y-144526790D01*
X117109947Y-144512548D01*
X117158451Y-144526789D01*
X117205659Y-144552023D01*
X117398967Y-144610662D01*
X117600000Y-144630462D01*
X117801033Y-144610662D01*
X117994341Y-144552023D01*
X118041547Y-144526790D01*
X118109947Y-144512548D01*
X118158451Y-144526789D01*
X118205659Y-144552023D01*
X118398967Y-144610662D01*
X118600000Y-144630462D01*
X118801033Y-144610662D01*
X118994341Y-144552023D01*
X119003971Y-144546876D01*
X119107027Y-144491791D01*
X119172494Y-144456798D01*
X119328647Y-144328647D01*
X119456798Y-144172494D01*
X119552023Y-143994341D01*
X119610662Y-143801033D01*
X119630462Y-143600000D01*
X119610662Y-143398967D01*
X119552023Y-143205659D01*
X119552021Y-143205656D01*
X119552021Y-143205654D01*
X119456801Y-143027511D01*
X119456797Y-143027504D01*
X119403598Y-142962681D01*
X119376285Y-142898371D01*
X119375451Y-142884016D01*
X119375451Y-141407352D01*
X119395136Y-141340313D01*
X119447940Y-141294558D01*
X119517098Y-141284614D01*
X119580654Y-141313639D01*
X119587132Y-141319671D01*
X120873181Y-142605720D01*
X120906666Y-142667043D01*
X120909500Y-142693401D01*
X120909500Y-142875176D01*
X120900061Y-142922628D01*
X120874957Y-142983234D01*
X120874955Y-142983239D01*
X120859500Y-143100638D01*
X120859500Y-144029363D01*
X120874953Y-144146753D01*
X120874956Y-144146762D01*
X120935464Y-144292841D01*
X121031718Y-144418282D01*
X121157159Y-144514536D01*
X121303238Y-144575044D01*
X121420639Y-144590500D01*
X122349360Y-144590499D01*
X122349363Y-144590499D01*
X122466753Y-144575046D01*
X122466756Y-144575044D01*
X122466762Y-144575044D01*
X122516733Y-144554344D01*
X122586201Y-144546876D01*
X122600181Y-144550246D01*
X122668742Y-144571043D01*
X122681936Y-144575046D01*
X122683964Y-144575661D01*
X122683966Y-144575662D01*
X122703766Y-144577612D01*
X122885000Y-144595462D01*
X123086033Y-144575662D01*
X123279341Y-144517023D01*
X123326547Y-144491790D01*
X123394947Y-144477548D01*
X123443451Y-144491789D01*
X123490659Y-144517023D01*
X123683967Y-144575662D01*
X123885000Y-144595462D01*
X124086033Y-144575662D01*
X124279341Y-144517023D01*
X124457494Y-144421798D01*
X124613647Y-144293647D01*
X124741798Y-144137494D01*
X124837023Y-143959341D01*
X124895662Y-143766033D01*
X124915462Y-143565000D01*
X124895662Y-143363967D01*
X124837023Y-143170659D01*
X124837021Y-143170656D01*
X124837021Y-143170654D01*
X124741801Y-142992511D01*
X124741799Y-142992509D01*
X124741798Y-142992506D01*
X124652763Y-142884016D01*
X124613647Y-142836352D01*
X124457495Y-142708203D01*
X124457488Y-142708198D01*
X124279345Y-142612978D01*
X124086031Y-142554337D01*
X123906962Y-142536701D01*
X123885000Y-142534538D01*
X123884999Y-142534538D01*
X123884997Y-142534538D01*
X123862066Y-142536796D01*
X123793421Y-142523776D01*
X123762234Y-142501074D01*
X123680586Y-142419426D01*
X123647101Y-142358103D01*
X123652085Y-142288411D01*
X123693957Y-142232478D01*
X123709803Y-142222392D01*
X123843538Y-142150910D01*
X123995883Y-142025883D01*
X124120910Y-141873538D01*
X124213814Y-141699727D01*
X124271024Y-141511132D01*
X124290341Y-141315000D01*
X124271024Y-141118868D01*
X124213814Y-140930273D01*
X124213811Y-140930269D01*
X124213811Y-140930266D01*
X124120913Y-140756467D01*
X124120909Y-140756460D01*
X124044142Y-140662920D01*
X124016829Y-140598610D01*
X124022288Y-140545254D01*
X124075139Y-140385761D01*
X124085500Y-140284343D01*
X124085499Y-139845658D01*
X124080729Y-139798967D01*
X124075139Y-139744239D01*
X124075138Y-139744236D01*
X124073803Y-139740206D01*
X124028669Y-139604003D01*
X124026268Y-139534176D01*
X124028670Y-139525996D01*
X124036294Y-139502989D01*
X124075139Y-139385761D01*
X124085500Y-139284343D01*
X124085499Y-139109498D01*
X124105183Y-139042460D01*
X124157987Y-138996705D01*
X124209499Y-138985499D01*
X124379004Y-138985499D01*
X124379010Y-138985499D01*
X124479744Y-138975209D01*
X124642952Y-138921127D01*
X124789289Y-138830865D01*
X124847540Y-138772613D01*
X124908860Y-138739129D01*
X124961000Y-138739005D01*
X125093177Y-138767100D01*
X125093178Y-138767100D01*
X125271957Y-138767100D01*
X125271959Y-138767100D01*
X125446835Y-138729929D01*
X125605067Y-138659479D01*
X125674315Y-138650196D01*
X125737591Y-138679824D01*
X125774804Y-138738959D01*
X125779500Y-138772760D01*
X125779500Y-139465001D01*
X125779501Y-139465019D01*
X125790000Y-139567796D01*
X125790001Y-139567799D01*
X125845185Y-139734331D01*
X125845187Y-139734336D01*
X125851295Y-139744239D01*
X125937288Y-139883656D01*
X126061344Y-140007712D01*
X126210666Y-140099814D01*
X126377203Y-140154999D01*
X126479991Y-140165500D01*
X126880008Y-140165499D01*
X126950622Y-140158285D01*
X127019312Y-140171054D01*
X127050903Y-140193962D01*
X128888868Y-142031927D01*
X128997862Y-142104754D01*
X128997868Y-142104758D01*
X129033341Y-142119451D01*
X129118982Y-142154925D01*
X129226218Y-142176255D01*
X129226220Y-142176256D01*
X129247554Y-142180500D01*
X131813305Y-142180500D01*
X131899800Y-142163294D01*
X131941875Y-142154925D01*
X132062988Y-142104758D01*
X132171988Y-142031928D01*
X133216927Y-140986988D01*
X133219466Y-140983189D01*
X133254823Y-140930273D01*
X133289758Y-140877989D01*
X133312981Y-140821923D01*
X133339925Y-140756875D01*
X133365500Y-140628302D01*
X133365500Y-139399001D01*
X133364879Y-139395881D01*
X133361256Y-139377668D01*
X133339925Y-139270428D01*
X133300716Y-139175769D01*
X133292037Y-139154815D01*
X133289761Y-139149320D01*
X133289754Y-139149307D01*
X133231066Y-139061475D01*
X133231065Y-139061474D01*
X133218361Y-139042460D01*
X133216928Y-139040316D01*
X133124231Y-138947619D01*
X130342521Y-136165909D01*
X127462516Y-133285903D01*
X127429031Y-133224580D01*
X127434015Y-133154888D01*
X127462516Y-133110541D01*
X127492318Y-133080739D01*
X127579095Y-132993962D01*
X127640417Y-132960478D01*
X127679377Y-132958286D01*
X127749991Y-132965500D01*
X128150008Y-132965499D01*
X128150016Y-132965498D01*
X128150019Y-132965498D01*
X128220619Y-132958286D01*
X128252797Y-132954999D01*
X128419334Y-132899814D01*
X128519905Y-132837781D01*
X128587296Y-132819342D01*
X128650094Y-132837781D01*
X128750666Y-132899814D01*
X128917203Y-132954999D01*
X129019991Y-132965500D01*
X129420008Y-132965499D01*
X129420016Y-132965498D01*
X129420019Y-132965498D01*
X129490619Y-132958286D01*
X129522797Y-132954999D01*
X129689334Y-132899814D01*
X129789905Y-132837781D01*
X129857296Y-132819342D01*
X129920094Y-132837781D01*
X130020666Y-132899814D01*
X130187203Y-132954999D01*
X130289991Y-132965500D01*
X130690008Y-132965499D01*
X130690016Y-132965498D01*
X130690019Y-132965498D01*
X130760619Y-132958286D01*
X130792797Y-132954999D01*
X130959334Y-132899814D01*
X131108656Y-132807712D01*
X131232712Y-132683656D01*
X131324814Y-132534334D01*
X131379999Y-132367797D01*
X131390500Y-132265009D01*
X131390499Y-131507883D01*
X131410183Y-131440846D01*
X131462987Y-131395091D01*
X131532146Y-131385147D01*
X131593164Y-131412032D01*
X131701460Y-131500909D01*
X131701467Y-131500913D01*
X131875266Y-131593811D01*
X131875269Y-131593811D01*
X131875273Y-131593814D01*
X132063868Y-131651024D01*
X132260000Y-131670341D01*
X132363347Y-131660162D01*
X132431992Y-131673181D01*
X132482702Y-131721246D01*
X132499500Y-131783565D01*
X132499500Y-132574680D01*
X132479815Y-132641719D01*
X132459039Y-132666317D01*
X132383235Y-132735421D01*
X132260327Y-132898178D01*
X132169422Y-133080739D01*
X132169417Y-133080752D01*
X132113602Y-133276917D01*
X132094785Y-133479999D01*
X132094785Y-133480000D01*
X132113602Y-133683082D01*
X132169417Y-133879247D01*
X132169422Y-133879260D01*
X132260327Y-134061821D01*
X132383237Y-134224581D01*
X132533958Y-134361980D01*
X132533960Y-134361982D01*
X132622098Y-134416554D01*
X132707363Y-134469348D01*
X132897544Y-134543024D01*
X133098024Y-134580500D01*
X133098026Y-134580500D01*
X133301974Y-134580500D01*
X133301976Y-134580500D01*
X133502456Y-134543024D01*
X133692637Y-134469348D01*
X133866041Y-134361981D01*
X134016764Y-134224579D01*
X134139673Y-134061821D01*
X134230582Y-133879250D01*
X134286397Y-133683083D01*
X134305215Y-133480000D01*
X134304427Y-133471501D01*
X134286397Y-133276917D01*
X134233685Y-133091657D01*
X134230582Y-133080750D01*
X134139673Y-132898179D01*
X134016764Y-132735421D01*
X133940961Y-132666317D01*
X133904680Y-132606605D01*
X133900500Y-132574680D01*
X133900500Y-128531006D01*
X133894072Y-128498694D01*
X133900298Y-128429102D01*
X133943160Y-128373924D01*
X134009049Y-128350678D01*
X134015689Y-128350500D01*
X134537698Y-128350500D01*
X134596150Y-128365141D01*
X134715273Y-128428814D01*
X134903868Y-128486024D01*
X135100000Y-128505341D01*
X135296132Y-128486024D01*
X135440072Y-128442359D01*
X135509939Y-128441736D01*
X135569052Y-128478984D01*
X135598643Y-128542278D01*
X135599471Y-128548865D01*
X135613976Y-128696133D01*
X135620094Y-128716302D01*
X135620717Y-128786169D01*
X135583468Y-128845282D01*
X135569321Y-128856061D01*
X135540456Y-128874945D01*
X135540449Y-128874950D01*
X135487478Y-128920500D01*
X135466085Y-128939800D01*
X135366436Y-129062501D01*
X135366431Y-129062508D01*
X135301941Y-129206808D01*
X135301938Y-129206815D01*
X135282007Y-129273751D01*
X135278054Y-129287630D01*
X135278053Y-129287633D01*
X135256827Y-129444270D01*
X135256826Y-129444281D01*
X135237371Y-134580500D01*
X135237306Y-134597701D01*
X135237297Y-134599999D01*
X135236388Y-134839907D01*
X135195188Y-145716702D01*
X135175250Y-145783666D01*
X135122273Y-145829221D01*
X135071117Y-145840232D01*
X102724428Y-145821571D01*
X102657400Y-145801848D01*
X102611676Y-145749017D01*
X102600500Y-145697571D01*
X102600500Y-127856204D01*
X102620185Y-127789165D01*
X102672989Y-127743410D01*
X102742147Y-127733466D01*
X102805703Y-127762491D01*
G37*
G04 #@! TD.AperFunction*
G04 #@! TA.AperFunction,Conductor*
G36*
X131595700Y-139301853D02*
G01*
X131602180Y-139307886D01*
X131998181Y-139703887D01*
X132031666Y-139765210D01*
X132034500Y-139791568D01*
X132034500Y-140235733D01*
X132014815Y-140302772D01*
X131998181Y-140323414D01*
X131792304Y-140529291D01*
X131730981Y-140562776D01*
X131661289Y-140557792D01*
X131605356Y-140515920D01*
X131581265Y-140454211D01*
X131575139Y-140394239D01*
X131520690Y-140229921D01*
X131520686Y-140229915D01*
X131520685Y-140229912D01*
X131429816Y-140082592D01*
X131429813Y-140082588D01*
X131302304Y-139955079D01*
X131304360Y-139953022D01*
X131271636Y-139906768D01*
X131268526Y-139836967D01*
X131283398Y-139801478D01*
X131324814Y-139734334D01*
X131379999Y-139567797D01*
X131390500Y-139465009D01*
X131390499Y-139395566D01*
X131410183Y-139328529D01*
X131462986Y-139282773D01*
X131532144Y-139272829D01*
X131595700Y-139301853D01*
G37*
G04 #@! TD.AperFunction*
G04 #@! TA.AperFunction,Conductor*
G36*
X120502539Y-134135185D02*
G01*
X120548294Y-134187989D01*
X120559500Y-134239500D01*
X120559500Y-134472675D01*
X120562765Y-134514156D01*
X120562246Y-134514196D01*
X120562246Y-134545803D01*
X120562765Y-134545844D01*
X120559500Y-134587324D01*
X120559500Y-134872675D01*
X120562765Y-134914156D01*
X120562246Y-134914196D01*
X120562246Y-134945803D01*
X120562765Y-134945844D01*
X120559500Y-134987324D01*
X120559500Y-135140500D01*
X120539815Y-135207539D01*
X120487011Y-135253294D01*
X120435500Y-135264500D01*
X120260547Y-135264500D01*
X120129453Y-135264500D01*
X120110436Y-135268283D01*
X120110434Y-135268283D01*
X120000888Y-135290073D01*
X120000880Y-135290075D01*
X119918692Y-135324119D01*
X119879766Y-135340242D01*
X119849211Y-135360659D01*
X119817163Y-135382073D01*
X119771660Y-135412477D01*
X119771066Y-135412873D01*
X119770769Y-135413072D01*
X119443074Y-135740765D01*
X119370241Y-135849769D01*
X119320075Y-135970880D01*
X119320073Y-135970888D01*
X119294634Y-136098780D01*
X119294502Y-136099426D01*
X119294500Y-136099453D01*
X119294500Y-136099454D01*
X119294500Y-137074453D01*
X119294500Y-137205547D01*
X119294500Y-137205549D01*
X119294499Y-137205549D01*
X119320073Y-137334113D01*
X119320075Y-137334119D01*
X119361132Y-137433240D01*
X119370242Y-137455232D01*
X119436781Y-137554816D01*
X119443075Y-137564236D01*
X119443076Y-137564237D01*
X119660681Y-137781841D01*
X119694166Y-137843164D01*
X119697000Y-137869522D01*
X119697000Y-137950931D01*
X119677315Y-138017970D01*
X119660685Y-138038607D01*
X119537681Y-138161612D01*
X119537680Y-138161613D01*
X119476357Y-138195097D01*
X119406665Y-138190113D01*
X119362318Y-138161612D01*
X118628784Y-137428076D01*
X118628783Y-137428075D01*
X118574421Y-137391752D01*
X118519779Y-137355242D01*
X118482419Y-137339767D01*
X118398666Y-137305075D01*
X118398660Y-137305073D01*
X118270096Y-137279500D01*
X118270094Y-137279500D01*
X118270093Y-137279500D01*
X116808711Y-137279500D01*
X116741672Y-137259815D01*
X116721030Y-137243181D01*
X116355189Y-136877340D01*
X116321704Y-136816017D01*
X116326688Y-136746325D01*
X116364204Y-136693807D01*
X116440908Y-136630858D01*
X116565935Y-136478513D01*
X116615556Y-136385678D01*
X116658836Y-136304708D01*
X116658836Y-136304707D01*
X116658839Y-136304702D01*
X116716049Y-136116107D01*
X116735366Y-135919975D01*
X116716049Y-135723843D01*
X116658839Y-135535248D01*
X116658836Y-135535244D01*
X116658836Y-135535241D01*
X116565938Y-135361442D01*
X116565934Y-135361435D01*
X116440908Y-135209091D01*
X116288564Y-135084065D01*
X116288557Y-135084061D01*
X116114758Y-134991163D01*
X116114752Y-134991161D01*
X115926157Y-134933951D01*
X115926154Y-134933950D01*
X115842345Y-134925696D01*
X115777558Y-134899535D01*
X115737200Y-134842500D01*
X115730500Y-134802293D01*
X115730500Y-134587339D01*
X115730499Y-134587324D01*
X115727235Y-134545843D01*
X115727753Y-134545802D01*
X115727752Y-134507730D01*
X115728797Y-134502006D01*
X115760202Y-134439592D01*
X115820365Y-134404064D01*
X115890184Y-134406703D01*
X115942931Y-134441304D01*
X116027764Y-134535521D01*
X116027767Y-134535523D01*
X116027770Y-134535526D01*
X116172407Y-134640612D01*
X116335733Y-134713329D01*
X116510609Y-134750500D01*
X116510610Y-134750500D01*
X116689389Y-134750500D01*
X116689391Y-134750500D01*
X116864267Y-134713329D01*
X117027593Y-134640612D01*
X117172230Y-134535526D01*
X117291859Y-134402665D01*
X117381250Y-134247835D01*
X117381251Y-134247829D01*
X117383891Y-134241903D01*
X117385900Y-134242797D01*
X117419584Y-134193519D01*
X117483938Y-134166311D01*
X117498093Y-134165500D01*
X117971457Y-134165500D01*
X118065751Y-134146742D01*
X118111620Y-134137619D01*
X118130014Y-134130000D01*
X118142233Y-134124939D01*
X118189685Y-134115500D01*
X120435500Y-134115500D01*
X120502539Y-134135185D01*
G37*
G04 #@! TD.AperFunction*
G04 #@! TA.AperFunction,Conductor*
G36*
X111698578Y-137096009D02*
G01*
X111735299Y-137155451D01*
X111739076Y-137200862D01*
X111734500Y-137245647D01*
X111734500Y-137684335D01*
X111734501Y-137684353D01*
X111744860Y-137785760D01*
X111744863Y-137785770D01*
X111753388Y-137811498D01*
X111755789Y-137881326D01*
X111720057Y-137941367D01*
X111657536Y-137972559D01*
X111635682Y-137974500D01*
X111158412Y-137974500D01*
X111091373Y-137954815D01*
X111045618Y-137902011D01*
X111041375Y-137891468D01*
X111000789Y-137775478D01*
X111000788Y-137775476D01*
X110999132Y-137772840D01*
X110998581Y-137770892D01*
X110997769Y-137769205D01*
X110998064Y-137769062D01*
X110980131Y-137705603D01*
X111000498Y-137638768D01*
X111016444Y-137619186D01*
X111243879Y-137391752D01*
X111505277Y-137130354D01*
X111512615Y-137119370D01*
X111566225Y-137074565D01*
X111635550Y-137065856D01*
X111698578Y-137096009D01*
G37*
G04 #@! TD.AperFunction*
G04 #@! TA.AperFunction,Conductor*
G36*
X124892305Y-135250709D02*
G01*
X126794415Y-137152819D01*
X126827900Y-137214142D01*
X126822916Y-137283834D01*
X126781044Y-137339767D01*
X126715580Y-137364184D01*
X126706735Y-137364500D01*
X126479999Y-137364500D01*
X126479980Y-137364501D01*
X126377203Y-137375000D01*
X126377200Y-137375001D01*
X126210668Y-137430185D01*
X126204118Y-137433240D01*
X126202824Y-137430466D01*
X126148610Y-137445209D01*
X126081980Y-137424182D01*
X126037295Y-137370469D01*
X126027780Y-137308277D01*
X126037753Y-137213400D01*
X126019065Y-137035597D01*
X125967644Y-136877340D01*
X125963820Y-136865570D01*
X125963817Y-136865564D01*
X125914275Y-136779754D01*
X125874427Y-136710735D01*
X125827571Y-136658696D01*
X125754803Y-136577878D01*
X125754800Y-136577876D01*
X125754799Y-136577875D01*
X125754798Y-136577874D01*
X125610161Y-136472788D01*
X125446835Y-136400071D01*
X125446833Y-136400070D01*
X125319162Y-136372933D01*
X125271959Y-136362900D01*
X125093177Y-136362900D01*
X125093175Y-136362900D01*
X124961000Y-136390994D01*
X124891333Y-136385678D01*
X124847539Y-136357385D01*
X124789288Y-136299134D01*
X124744401Y-136271447D01*
X124697677Y-136219498D01*
X124685499Y-136165909D01*
X124685499Y-135845664D01*
X124685498Y-135845647D01*
X124675139Y-135744239D01*
X124675138Y-135744236D01*
X124668381Y-135723845D01*
X124628669Y-135604003D01*
X124626268Y-135534176D01*
X124628670Y-135525996D01*
X124643615Y-135480895D01*
X124675139Y-135385761D01*
X124681266Y-135325788D01*
X124707662Y-135261096D01*
X124764843Y-135220944D01*
X124834654Y-135218081D01*
X124892305Y-135250709D01*
G37*
G04 #@! TD.AperFunction*
G04 #@! TA.AperFunction,Conductor*
G36*
X147185996Y-133406384D02*
G01*
X147344712Y-133430307D01*
X147362778Y-133434430D01*
X147516172Y-133481746D01*
X147533419Y-133488515D01*
X147678043Y-133558161D01*
X147694084Y-133567422D01*
X147727880Y-133590464D01*
X147752632Y-133607340D01*
X147752643Y-133607347D01*
X147826724Y-133657855D01*
X147841212Y-133669409D01*
X147958886Y-133778592D01*
X147971493Y-133792179D01*
X148071577Y-133917681D01*
X148082017Y-133932993D01*
X148162276Y-134072007D01*
X148170317Y-134088704D01*
X148186525Y-134130000D01*
X148227806Y-134235183D01*
X148228961Y-134238124D01*
X148234424Y-134255835D01*
X148270144Y-134412336D01*
X148272906Y-134430661D01*
X148284902Y-134590732D01*
X148284902Y-134609266D01*
X148272906Y-134769337D01*
X148270144Y-134787662D01*
X148234424Y-134944163D01*
X148228961Y-134961874D01*
X148170317Y-135111294D01*
X148162276Y-135127991D01*
X148082017Y-135267005D01*
X148071577Y-135282318D01*
X147971495Y-135407816D01*
X147958907Y-135421385D01*
X147952985Y-135426882D01*
X147952967Y-135426899D01*
X147841216Y-135530588D01*
X147826726Y-135542143D01*
X147694099Y-135632566D01*
X147678049Y-135641832D01*
X147533421Y-135711481D01*
X147516170Y-135718252D01*
X147362782Y-135765567D01*
X147344713Y-135769691D01*
X147185988Y-135793615D01*
X147167509Y-135795000D01*
X147006982Y-135795000D01*
X146988502Y-135793615D01*
X146829778Y-135769691D01*
X146811710Y-135765567D01*
X146689515Y-135727875D01*
X146658313Y-135718250D01*
X146641066Y-135711481D01*
X146496446Y-135641835D01*
X146480401Y-135632572D01*
X146347758Y-135542138D01*
X146333267Y-135530582D01*
X146328961Y-135526587D01*
X146269874Y-135471762D01*
X146215607Y-135421409D01*
X146203002Y-135407824D01*
X146160365Y-135354360D01*
X146119266Y-135302823D01*
X146119256Y-135302809D01*
X146102911Y-135282314D01*
X146092470Y-135267000D01*
X146089061Y-135261096D01*
X146012214Y-135127991D01*
X146004174Y-135111296D01*
X145977873Y-135044283D01*
X145945524Y-134961863D01*
X145940066Y-134944167D01*
X145904739Y-134789383D01*
X145904738Y-134789377D01*
X145904350Y-134787680D01*
X145904140Y-134786285D01*
X145904096Y-134786071D01*
X145904089Y-134786033D01*
X145904101Y-134786030D01*
X145901582Y-134769334D01*
X145889588Y-134609260D01*
X145889588Y-134590733D01*
X145889588Y-134590732D01*
X145901582Y-134430659D01*
X145904342Y-134412346D01*
X145940067Y-134255829D01*
X145945528Y-134238127D01*
X145945529Y-134238124D01*
X146004174Y-134088699D01*
X146012207Y-134072018D01*
X146092477Y-133932986D01*
X146102912Y-133917681D01*
X146203007Y-133792167D01*
X146215594Y-133778600D01*
X146333284Y-133669401D01*
X146347751Y-133657863D01*
X146480406Y-133567421D01*
X146496438Y-133558166D01*
X146641076Y-133488512D01*
X146658302Y-133481751D01*
X146811727Y-133434425D01*
X146829771Y-133430307D01*
X146961027Y-133410524D01*
X146988495Y-133406385D01*
X147006975Y-133405000D01*
X147167516Y-133405000D01*
X147185996Y-133406384D01*
G37*
G04 #@! TD.AperFunction*
G04 #@! TA.AperFunction,Conductor*
G36*
X111945639Y-134215500D02*
G01*
X112860500Y-134215499D01*
X112927539Y-134235183D01*
X112973294Y-134287987D01*
X112984500Y-134339499D01*
X112984500Y-135018602D01*
X113006919Y-135131309D01*
X113000692Y-135200900D01*
X112957829Y-135256078D01*
X112891939Y-135279322D01*
X112885302Y-135279500D01*
X111909500Y-135279500D01*
X111842461Y-135259815D01*
X111796706Y-135207011D01*
X111785500Y-135155500D01*
X111785499Y-134335812D01*
X111805183Y-134268773D01*
X111857987Y-134223018D01*
X111925685Y-134212873D01*
X111945639Y-134215500D01*
G37*
G04 #@! TD.AperFunction*
G04 #@! TA.AperFunction,Conductor*
G36*
X109435566Y-132758162D02*
G01*
X109506680Y-132787619D01*
X109506684Y-132787619D01*
X109506685Y-132787620D01*
X109646842Y-132815500D01*
X109646845Y-132815500D01*
X111171457Y-132815500D01*
X111236308Y-132802600D01*
X111305900Y-132808827D01*
X111361077Y-132851690D01*
X111384322Y-132917579D01*
X111384500Y-132924217D01*
X111384500Y-133394187D01*
X111364815Y-133461226D01*
X111312011Y-133506981D01*
X111244319Y-133517127D01*
X111228535Y-133515049D01*
X111224361Y-133514500D01*
X111224360Y-133514500D01*
X109745636Y-133514500D01*
X109628246Y-133529953D01*
X109628237Y-133529956D01*
X109482160Y-133590463D01*
X109450798Y-133614527D01*
X109356718Y-133686718D01*
X109356716Y-133686719D01*
X109356715Y-133686721D01*
X109351574Y-133693421D01*
X109295146Y-133734623D01*
X109225400Y-133738776D01*
X109164480Y-133704563D01*
X109131728Y-133642845D01*
X109129200Y-133617933D01*
X109129200Y-133584243D01*
X109093634Y-133405447D01*
X109093633Y-133405446D01*
X109093633Y-133405442D01*
X109088971Y-133394187D01*
X109023868Y-133237012D01*
X109023866Y-133237008D01*
X108950382Y-133127031D01*
X108929504Y-133060354D01*
X108947989Y-132992974D01*
X108999968Y-132946284D01*
X109027738Y-132938042D01*
X109027606Y-132937549D01*
X109035454Y-132935444D01*
X109035462Y-132935444D01*
X109181541Y-132874936D01*
X109306982Y-132778682D01*
X109306983Y-132778680D01*
X109312628Y-132774349D01*
X109377797Y-132749154D01*
X109435566Y-132758162D01*
G37*
G04 #@! TD.AperFunction*
G04 #@! TA.AperFunction,Conductor*
G36*
X126992539Y-131185185D02*
G01*
X127038294Y-131237989D01*
X127049500Y-131289500D01*
X127049500Y-131589877D01*
X127029815Y-131656916D01*
X127013181Y-131677558D01*
X126357558Y-132333181D01*
X126296235Y-132366666D01*
X126269877Y-132369500D01*
X124337641Y-132369500D01*
X124270602Y-132349815D01*
X124224847Y-132297011D01*
X124214903Y-132227853D01*
X124243928Y-132164297D01*
X124249960Y-132157819D01*
X124668020Y-131739760D01*
X125205961Y-131201819D01*
X125267284Y-131168334D01*
X125293642Y-131165500D01*
X126925500Y-131165500D01*
X126992539Y-131185185D01*
G37*
G04 #@! TD.AperFunction*
G04 #@! TA.AperFunction,Conductor*
G36*
X113507380Y-121436290D02*
G01*
X113512939Y-121438132D01*
X113539029Y-121450297D01*
X113543217Y-121452880D01*
X113565797Y-121470735D01*
X113569263Y-121474201D01*
X113587118Y-121496781D01*
X113591469Y-121503835D01*
X113675738Y-121611165D01*
X113675750Y-121611178D01*
X113714747Y-121650713D01*
X113714753Y-121650718D01*
X113833178Y-121744043D01*
X113833181Y-121744044D01*
X113978033Y-121807289D01*
X113978040Y-121807292D01*
X114016727Y-121818449D01*
X114045169Y-121826652D01*
X114054695Y-121829276D01*
X114059070Y-121830482D01*
X114215883Y-121850357D01*
X120820904Y-121818449D01*
X120915890Y-121810487D01*
X120954295Y-121804194D01*
X120954297Y-121804193D01*
X120954300Y-121804193D01*
X120977036Y-121798599D01*
X121046844Y-121781428D01*
X121107599Y-121761294D01*
X121146604Y-121755000D01*
X122280594Y-121755000D01*
X122347633Y-121774685D01*
X122393388Y-121827489D01*
X122402211Y-121854808D01*
X122426418Y-121976505D01*
X122426421Y-121976515D01*
X122479222Y-122103990D01*
X122555887Y-122218728D01*
X122555888Y-122218729D01*
X125163181Y-124826021D01*
X125196666Y-124887344D01*
X125199500Y-124913702D01*
X125199500Y-126946348D01*
X125179815Y-127013387D01*
X125163181Y-127034029D01*
X123796212Y-128400997D01*
X123744527Y-128431976D01*
X123615271Y-128471186D01*
X123441467Y-128564086D01*
X123441460Y-128564090D01*
X123289116Y-128689116D01*
X123164090Y-128841460D01*
X123164086Y-128841467D01*
X123071188Y-129015266D01*
X123013975Y-129203870D01*
X122994659Y-129400000D01*
X123013975Y-129596129D01*
X123071188Y-129784733D01*
X123164086Y-129958532D01*
X123164090Y-129958539D01*
X123289116Y-130110883D01*
X123395131Y-130197887D01*
X123441462Y-130235910D01*
X123542558Y-130289947D01*
X123592400Y-130338908D01*
X123607861Y-130407045D01*
X123584030Y-130472725D01*
X123571784Y-130486985D01*
X122677180Y-131381589D01*
X122615857Y-131415074D01*
X122546165Y-131410090D01*
X122490232Y-131368218D01*
X122465815Y-131302754D01*
X122465499Y-131293908D01*
X122465499Y-131145664D01*
X122465498Y-131145646D01*
X122455139Y-131044239D01*
X122455138Y-131044236D01*
X122444513Y-131012171D01*
X122400690Y-130879921D01*
X122400686Y-130879915D01*
X122400685Y-130879912D01*
X122309816Y-130732592D01*
X122309813Y-130732588D01*
X122187411Y-130610186D01*
X122187407Y-130610183D01*
X122040087Y-130519314D01*
X122040081Y-130519311D01*
X122040079Y-130519310D01*
X121959449Y-130492592D01*
X121875762Y-130464861D01*
X121774344Y-130454500D01*
X121395664Y-130454500D01*
X121395646Y-130454501D01*
X121294239Y-130464860D01*
X121294236Y-130464861D01*
X121129923Y-130519309D01*
X121129912Y-130519314D01*
X120982592Y-130610183D01*
X120982588Y-130610186D01*
X120860186Y-130732588D01*
X120860183Y-130732592D01*
X120769314Y-130879912D01*
X120769309Y-130879923D01*
X120714861Y-131044237D01*
X120704500Y-131145649D01*
X120704500Y-131553479D01*
X120684815Y-131620518D01*
X120632011Y-131666273D01*
X120596684Y-131676418D01*
X120561186Y-131681091D01*
X120528818Y-131681091D01*
X120478751Y-131674500D01*
X120211257Y-131674500D01*
X120188029Y-131677558D01*
X120161182Y-131681091D01*
X120128818Y-131681091D01*
X120078751Y-131674500D01*
X119843305Y-131674500D01*
X119776266Y-131654815D01*
X119730511Y-131602011D01*
X119720567Y-131532853D01*
X119749592Y-131469297D01*
X119755610Y-131462833D01*
X120394113Y-130824331D01*
X120408241Y-130803188D01*
X120470775Y-130709599D01*
X120499636Y-130639923D01*
X120510280Y-130614226D01*
X120514981Y-130602874D01*
X120523580Y-130582117D01*
X120536073Y-130519310D01*
X120542503Y-130486985D01*
X120550500Y-130446783D01*
X120550500Y-126619637D01*
X120567113Y-126557637D01*
X120631250Y-126446549D01*
X120686497Y-126276517D01*
X120705185Y-126098714D01*
X120686497Y-125920911D01*
X120652463Y-125816166D01*
X120631252Y-125750884D01*
X120631249Y-125750878D01*
X120541859Y-125596049D01*
X120490303Y-125538790D01*
X120422235Y-125463192D01*
X120422232Y-125463190D01*
X120422231Y-125463189D01*
X120422230Y-125463188D01*
X120277593Y-125358102D01*
X120114267Y-125285385D01*
X120114265Y-125285384D01*
X119986594Y-125258247D01*
X119939391Y-125248214D01*
X119760609Y-125248214D01*
X119729954Y-125254729D01*
X119585733Y-125285384D01*
X119585728Y-125285386D01*
X119422408Y-125358101D01*
X119277768Y-125463189D01*
X119158140Y-125596050D01*
X119068750Y-125750878D01*
X119068747Y-125750884D01*
X119013504Y-125920906D01*
X119013503Y-125920908D01*
X118994815Y-126098714D01*
X119013503Y-126276519D01*
X119013504Y-126276521D01*
X119068747Y-126446543D01*
X119068750Y-126446549D01*
X119114332Y-126525500D01*
X119132887Y-126557637D01*
X119149500Y-126619637D01*
X119149500Y-128197682D01*
X119129815Y-128264721D01*
X119077011Y-128310476D01*
X119025500Y-128321682D01*
X118882791Y-128321682D01*
X118852136Y-128328197D01*
X118707915Y-128358852D01*
X118707910Y-128358854D01*
X118544590Y-128431569D01*
X118399950Y-128536657D01*
X118280322Y-128669518D01*
X118190932Y-128824346D01*
X118190930Y-128824350D01*
X118163673Y-128908238D01*
X118133423Y-128957600D01*
X117147828Y-129943195D01*
X117129042Y-129958613D01*
X117095712Y-129980885D01*
X117095709Y-129980887D01*
X116935633Y-130140962D01*
X116916848Y-130156379D01*
X116895142Y-130170883D01*
X116895134Y-130170890D01*
X116887839Y-130178185D01*
X116826515Y-130211667D01*
X116800167Y-130214500D01*
X116780668Y-130214500D01*
X116780646Y-130214501D01*
X116679239Y-130224860D01*
X116679236Y-130224861D01*
X116514923Y-130279309D01*
X116514912Y-130279314D01*
X116367592Y-130370183D01*
X116367588Y-130370186D01*
X116245186Y-130492588D01*
X116245183Y-130492592D01*
X116154314Y-130639912D01*
X116154309Y-130639923D01*
X116099861Y-130804237D01*
X116093796Y-130863603D01*
X116067400Y-130928295D01*
X116010219Y-130968446D01*
X115970438Y-130975000D01*
X115800256Y-130975000D01*
X115769601Y-130981515D01*
X115625380Y-131012170D01*
X115625379Y-131012170D01*
X115574935Y-131034630D01*
X115505685Y-131043914D01*
X115442408Y-131014285D01*
X115405195Y-130955150D01*
X115400500Y-130921350D01*
X115400500Y-130613389D01*
X115393282Y-130567819D01*
X115373402Y-130442299D01*
X115319873Y-130277555D01*
X115241232Y-130123212D01*
X115139414Y-129983072D01*
X115016928Y-129860586D01*
X113143523Y-127987181D01*
X113110038Y-127925858D01*
X113115022Y-127856166D01*
X113156894Y-127800233D01*
X113222358Y-127775816D01*
X113231204Y-127775500D01*
X113546161Y-127775500D01*
X113640455Y-127756742D01*
X113686324Y-127747619D01*
X113818357Y-127692929D01*
X113825940Y-127687861D01*
X113825950Y-127687858D01*
X113825949Y-127687856D01*
X113937184Y-127613532D01*
X114141556Y-127409157D01*
X114202877Y-127375674D01*
X114217076Y-127373438D01*
X114346132Y-127360728D01*
X114534727Y-127303518D01*
X114708538Y-127210614D01*
X114860883Y-127085587D01*
X114985910Y-126933242D01*
X115078814Y-126759431D01*
X115136024Y-126570836D01*
X115155341Y-126374704D01*
X115136024Y-126178572D01*
X115078814Y-125989977D01*
X115078811Y-125989973D01*
X115078811Y-125989970D01*
X114985913Y-125816171D01*
X114985909Y-125816164D01*
X114860883Y-125663820D01*
X114708539Y-125538794D01*
X114708532Y-125538790D01*
X114534733Y-125445892D01*
X114534727Y-125445890D01*
X114346132Y-125388680D01*
X114346129Y-125388679D01*
X114150000Y-125369363D01*
X113953870Y-125388679D01*
X113765266Y-125445892D01*
X113591467Y-125538790D01*
X113591460Y-125538794D01*
X113439116Y-125663820D01*
X113314090Y-125816164D01*
X113314086Y-125816171D01*
X113221188Y-125989970D01*
X113163975Y-126178574D01*
X113160619Y-126212655D01*
X113134458Y-126277442D01*
X113077423Y-126317800D01*
X113037216Y-126324500D01*
X112146016Y-126324500D01*
X112078977Y-126304815D01*
X112058335Y-126288181D01*
X112054289Y-126284135D01*
X112054285Y-126284132D01*
X111907955Y-126193874D01*
X111907953Y-126193873D01*
X111826348Y-126166832D01*
X111744744Y-126139791D01*
X111744742Y-126139790D01*
X111644012Y-126129500D01*
X111275996Y-126129500D01*
X111275978Y-126129501D01*
X111175256Y-126139790D01*
X111012048Y-126193873D01*
X111005500Y-126196927D01*
X111004547Y-126194883D01*
X110947679Y-126210431D01*
X110895365Y-126195070D01*
X110894500Y-126196927D01*
X110887954Y-126193874D01*
X110887952Y-126193873D01*
X110724744Y-126139791D01*
X110724742Y-126139790D01*
X110624012Y-126129500D01*
X110255996Y-126129500D01*
X110255978Y-126129501D01*
X110155256Y-126139790D01*
X110155253Y-126139791D01*
X109992047Y-126193873D01*
X109992044Y-126193874D01*
X109845714Y-126284132D01*
X109845710Y-126284135D01*
X109841665Y-126288181D01*
X109780342Y-126321666D01*
X109753984Y-126324500D01*
X109546469Y-126324500D01*
X109479430Y-126304815D01*
X109458788Y-126288181D01*
X109228168Y-126057561D01*
X109194683Y-125996238D01*
X109195514Y-125939954D01*
X109232682Y-125790499D01*
X109232681Y-125790499D01*
X109232683Y-125790495D01*
X109235500Y-125748954D01*
X109235500Y-121997818D01*
X109255185Y-121930779D01*
X109307989Y-121885024D01*
X109358896Y-121873819D01*
X112114903Y-121860507D01*
X112247584Y-121845134D01*
X112300575Y-121832957D01*
X112439572Y-121782488D01*
X112530567Y-121720019D01*
X112569882Y-121693031D01*
X112569884Y-121693028D01*
X112569887Y-121693027D01*
X112621835Y-121646303D01*
X112632438Y-121636537D01*
X112732269Y-121513985D01*
X112742877Y-121496784D01*
X112760732Y-121474203D01*
X112764203Y-121470732D01*
X112786779Y-121452881D01*
X112790973Y-121450294D01*
X112817061Y-121438130D01*
X112822614Y-121436290D01*
X112861608Y-121430000D01*
X113468387Y-121430000D01*
X113507380Y-121436290D01*
G37*
G04 #@! TD.AperFunction*
G04 #@! TA.AperFunction,Conductor*
G36*
X112199127Y-130155915D02*
G01*
X112205605Y-130161947D01*
X112611477Y-130567819D01*
X112644962Y-130629142D01*
X112639978Y-130698834D01*
X112598106Y-130754767D01*
X112532642Y-130779184D01*
X112523799Y-130779500D01*
X112480666Y-130779500D01*
X112480646Y-130779501D01*
X112379239Y-130789860D01*
X112379236Y-130789861D01*
X112214923Y-130844309D01*
X112214914Y-130844314D01*
X112183020Y-130863986D01*
X112115627Y-130882426D01*
X112048964Y-130861503D01*
X112004195Y-130807860D01*
X111993924Y-130758447D01*
X111993924Y-130249628D01*
X112013609Y-130182589D01*
X112066413Y-130136834D01*
X112135571Y-130126890D01*
X112199127Y-130155915D01*
G37*
G04 #@! TD.AperFunction*
G04 #@! TA.AperFunction,Conductor*
G36*
X124950776Y-119858158D02*
G01*
X124996509Y-119887166D01*
X127253453Y-122144111D01*
X127253454Y-122144112D01*
X127368192Y-122220777D01*
X127495667Y-122273578D01*
X127495672Y-122273580D01*
X127495676Y-122273580D01*
X127495677Y-122273581D01*
X127631003Y-122300500D01*
X127631006Y-122300500D01*
X127631007Y-122300500D01*
X135125500Y-122300500D01*
X135192539Y-122320185D01*
X135238294Y-122372989D01*
X135249500Y-122424500D01*
X135249500Y-126372570D01*
X135229815Y-126439609D01*
X135177011Y-126485364D01*
X135113350Y-126495973D01*
X135100004Y-126494659D01*
X135100000Y-126494659D01*
X134903870Y-126513975D01*
X134715269Y-126571187D01*
X134628090Y-126617786D01*
X134596150Y-126634858D01*
X134537698Y-126649500D01*
X134174500Y-126649500D01*
X134107461Y-126629815D01*
X134061706Y-126577011D01*
X134050500Y-126525500D01*
X134050500Y-125016232D01*
X134050499Y-125016228D01*
X134030105Y-124913702D01*
X134017816Y-124851918D01*
X133986581Y-124776511D01*
X133953704Y-124697138D01*
X133927912Y-124658538D01*
X133860630Y-124557842D01*
X133860624Y-124557834D01*
X133199002Y-123896213D01*
X133168023Y-123844529D01*
X133128814Y-123715273D01*
X133128812Y-123715270D01*
X133128812Y-123715268D01*
X133035913Y-123541467D01*
X133035909Y-123541460D01*
X132910883Y-123389116D01*
X132758539Y-123264090D01*
X132758532Y-123264086D01*
X132584733Y-123171188D01*
X132584727Y-123171186D01*
X132396132Y-123113976D01*
X132396129Y-123113975D01*
X132200000Y-123094659D01*
X132003870Y-123113975D01*
X131815266Y-123171188D01*
X131641467Y-123264086D01*
X131641460Y-123264090D01*
X131489116Y-123389116D01*
X131364090Y-123541460D01*
X131364086Y-123541467D01*
X131271188Y-123715266D01*
X131213975Y-123903870D01*
X131194659Y-124100000D01*
X131213975Y-124296129D01*
X131271188Y-124484733D01*
X131364086Y-124658532D01*
X131364090Y-124658539D01*
X131489116Y-124810883D01*
X131641460Y-124935909D01*
X131641467Y-124935913D01*
X131815268Y-125028812D01*
X131815270Y-125028812D01*
X131815273Y-125028814D01*
X131944529Y-125068023D01*
X131996213Y-125099002D01*
X132313181Y-125415970D01*
X132346666Y-125477293D01*
X132349500Y-125503651D01*
X132349500Y-126525500D01*
X132329815Y-126592539D01*
X132277011Y-126638294D01*
X132225500Y-126649500D01*
X126724500Y-126649500D01*
X126657461Y-126629815D01*
X126611706Y-126577011D01*
X126600500Y-126525500D01*
X126600500Y-124503185D01*
X126596829Y-124484737D01*
X126596828Y-124484733D01*
X126596827Y-124484727D01*
X126573580Y-124367855D01*
X126573578Y-124367850D01*
X126520777Y-124240375D01*
X126444112Y-124125637D01*
X123836819Y-121518344D01*
X123803334Y-121457021D01*
X123800500Y-121430663D01*
X123800500Y-120229500D01*
X123820185Y-120162461D01*
X123872989Y-120116706D01*
X123924500Y-120105500D01*
X124309991Y-120105500D01*
X124313033Y-120105445D01*
X124331597Y-120105114D01*
X124340443Y-120104798D01*
X124376385Y-120102442D01*
X124530429Y-120067007D01*
X124595893Y-120042590D01*
X124622639Y-120031882D01*
X124758580Y-119951227D01*
X124820113Y-119888213D01*
X124881030Y-119854003D01*
X124950776Y-119858158D01*
G37*
G04 #@! TD.AperFunction*
G04 #@! TA.AperFunction,Conductor*
G36*
X104405703Y-117875885D02*
G01*
X104443477Y-117934663D01*
X104445004Y-117940363D01*
X104448484Y-117954708D01*
X104452059Y-117968715D01*
X104452059Y-117968716D01*
X104512547Y-118114747D01*
X104512553Y-118114757D01*
X104514469Y-118118077D01*
X104525006Y-118141747D01*
X104536114Y-118175932D01*
X104541505Y-118201291D01*
X104545262Y-118237038D01*
X104545262Y-118262959D01*
X104541505Y-118298710D01*
X104536115Y-118324068D01*
X104525010Y-118358246D01*
X104514465Y-118381929D01*
X104496487Y-118413067D01*
X104481252Y-118434037D01*
X104457200Y-118460750D01*
X104437933Y-118478098D01*
X104408859Y-118499221D01*
X104386410Y-118512182D01*
X104374935Y-118517291D01*
X104305685Y-118526575D01*
X104242409Y-118496947D01*
X104205196Y-118437812D01*
X104200500Y-118404011D01*
X104200500Y-117969598D01*
X104220185Y-117902559D01*
X104272989Y-117856804D01*
X104342147Y-117846860D01*
X104405703Y-117875885D01*
G37*
G04 #@! TD.AperFunction*
G04 #@! TA.AperFunction,Conductor*
G36*
X104405703Y-116875885D02*
G01*
X104443477Y-116934663D01*
X104445004Y-116940363D01*
X104448484Y-116954708D01*
X104452059Y-116968715D01*
X104452059Y-116968716D01*
X104512547Y-117114747D01*
X104512553Y-117114757D01*
X104514469Y-117118077D01*
X104525006Y-117141747D01*
X104536114Y-117175932D01*
X104541505Y-117201291D01*
X104545262Y-117237038D01*
X104545262Y-117262960D01*
X104541505Y-117298707D01*
X104536115Y-117324064D01*
X104525007Y-117358251D01*
X104514469Y-117381922D01*
X104512559Y-117385230D01*
X104512550Y-117385248D01*
X104455961Y-117517392D01*
X104455952Y-117517419D01*
X104443476Y-117559906D01*
X104405701Y-117618684D01*
X104342145Y-117647707D01*
X104272986Y-117637762D01*
X104220183Y-117592006D01*
X104200500Y-117524969D01*
X104200500Y-116969598D01*
X104220185Y-116902559D01*
X104272989Y-116856804D01*
X104342147Y-116846860D01*
X104405703Y-116875885D01*
G37*
G04 #@! TD.AperFunction*
G04 #@! TA.AperFunction,Conductor*
G36*
X147185996Y-115206384D02*
G01*
X147344712Y-115230307D01*
X147362778Y-115234430D01*
X147516172Y-115281746D01*
X147533419Y-115288515D01*
X147678047Y-115358163D01*
X147694090Y-115367424D01*
X147826727Y-115457855D01*
X147841208Y-115469404D01*
X147958890Y-115578595D01*
X147971493Y-115592179D01*
X148071577Y-115717681D01*
X148082017Y-115732993D01*
X148162275Y-115872004D01*
X148170316Y-115888701D01*
X148228961Y-116038124D01*
X148234424Y-116055833D01*
X148242108Y-116089497D01*
X148242108Y-116089499D01*
X148270144Y-116212334D01*
X148272906Y-116230659D01*
X148284491Y-116385248D01*
X148284903Y-116390733D01*
X148284903Y-116409267D01*
X148280190Y-116472157D01*
X148280190Y-116472158D01*
X148272906Y-116569338D01*
X148270144Y-116587662D01*
X148234424Y-116744163D01*
X148228961Y-116761874D01*
X148170317Y-116911294D01*
X148162276Y-116927991D01*
X148082017Y-117067005D01*
X148071577Y-117082317D01*
X147971493Y-117207819D01*
X147958887Y-117221406D01*
X147841219Y-117330585D01*
X147826730Y-117342139D01*
X147694097Y-117432567D01*
X147678046Y-117441834D01*
X147533421Y-117511481D01*
X147516170Y-117518252D01*
X147362782Y-117565567D01*
X147344713Y-117569691D01*
X147185988Y-117593615D01*
X147167509Y-117595000D01*
X147006982Y-117595000D01*
X146988502Y-117593615D01*
X146829778Y-117569691D01*
X146811710Y-117565567D01*
X146680094Y-117524969D01*
X146658313Y-117518250D01*
X146641066Y-117511481D01*
X146496446Y-117441835D01*
X146480400Y-117432571D01*
X146347763Y-117342140D01*
X146333274Y-117330586D01*
X146215607Y-117221409D01*
X146203001Y-117207823D01*
X146102913Y-117082317D01*
X146092473Y-117067004D01*
X146012214Y-116927990D01*
X146004175Y-116911298D01*
X146002934Y-116908136D01*
X145945525Y-116761864D01*
X145940064Y-116744158D01*
X145904343Y-116587653D01*
X145901582Y-116569331D01*
X145897692Y-116517419D01*
X145889588Y-116409260D01*
X145889588Y-116390734D01*
X145889999Y-116385246D01*
X145901582Y-116230659D01*
X145904342Y-116212346D01*
X145940067Y-116055829D01*
X145945528Y-116038127D01*
X145972770Y-115968716D01*
X146004174Y-115888699D01*
X146012207Y-115872018D01*
X146092477Y-115732986D01*
X146102912Y-115717681D01*
X146203007Y-115592167D01*
X146215594Y-115578600D01*
X146333284Y-115469401D01*
X146347751Y-115457863D01*
X146480406Y-115367421D01*
X146496438Y-115358166D01*
X146641076Y-115288512D01*
X146658302Y-115281751D01*
X146811727Y-115234425D01*
X146829771Y-115230307D01*
X146961027Y-115210524D01*
X146988495Y-115206385D01*
X147006975Y-115205000D01*
X147167516Y-115205000D01*
X147185996Y-115206384D01*
G37*
G04 #@! TD.AperFunction*
G04 #@! TA.AperFunction,Conductor*
G36*
X104405703Y-115875885D02*
G01*
X104443477Y-115934663D01*
X104445004Y-115940363D01*
X104448484Y-115954708D01*
X104452059Y-115968715D01*
X104452059Y-115968716D01*
X104512547Y-116114747D01*
X104512553Y-116114757D01*
X104514469Y-116118077D01*
X104525006Y-116141747D01*
X104536114Y-116175932D01*
X104541505Y-116201291D01*
X104545262Y-116237038D01*
X104545262Y-116262960D01*
X104541505Y-116298707D01*
X104536115Y-116324064D01*
X104525007Y-116358251D01*
X104514469Y-116381922D01*
X104512559Y-116385230D01*
X104512550Y-116385248D01*
X104455961Y-116517392D01*
X104455952Y-116517419D01*
X104443476Y-116559906D01*
X104405701Y-116618684D01*
X104342145Y-116647707D01*
X104272986Y-116637762D01*
X104220183Y-116592006D01*
X104200500Y-116524969D01*
X104200500Y-115969598D01*
X104220185Y-115902559D01*
X104272989Y-115856804D01*
X104342147Y-115846860D01*
X104405703Y-115875885D01*
G37*
G04 #@! TD.AperFunction*
G04 #@! TA.AperFunction,Conductor*
G36*
X104405703Y-114875885D02*
G01*
X104443477Y-114934663D01*
X104445004Y-114940363D01*
X104448484Y-114954708D01*
X104452059Y-114968715D01*
X104452059Y-114968716D01*
X104512547Y-115114747D01*
X104512553Y-115114757D01*
X104514469Y-115118077D01*
X104525006Y-115141747D01*
X104536114Y-115175932D01*
X104541505Y-115201291D01*
X104545262Y-115237038D01*
X104545262Y-115262960D01*
X104541505Y-115298707D01*
X104536115Y-115324064D01*
X104525007Y-115358251D01*
X104514469Y-115381922D01*
X104512559Y-115385230D01*
X104512550Y-115385248D01*
X104455961Y-115517392D01*
X104455952Y-115517419D01*
X104443476Y-115559906D01*
X104405701Y-115618684D01*
X104342145Y-115647707D01*
X104272986Y-115637762D01*
X104220183Y-115592006D01*
X104200500Y-115524969D01*
X104200500Y-114969598D01*
X104220185Y-114902559D01*
X104272989Y-114856804D01*
X104342147Y-114846860D01*
X104405703Y-114875885D01*
G37*
G04 #@! TD.AperFunction*
G04 #@! TA.AperFunction,Conductor*
G36*
X104405703Y-113875885D02*
G01*
X104443477Y-113934663D01*
X104445004Y-113940363D01*
X104448484Y-113954708D01*
X104452059Y-113968715D01*
X104452059Y-113968716D01*
X104512547Y-114114747D01*
X104512553Y-114114757D01*
X104514469Y-114118077D01*
X104525006Y-114141747D01*
X104536114Y-114175932D01*
X104541505Y-114201291D01*
X104545262Y-114237038D01*
X104545262Y-114262960D01*
X104541505Y-114298707D01*
X104536115Y-114324064D01*
X104525007Y-114358251D01*
X104514469Y-114381922D01*
X104512559Y-114385230D01*
X104512550Y-114385248D01*
X104455961Y-114517392D01*
X104455952Y-114517419D01*
X104443476Y-114559906D01*
X104405701Y-114618684D01*
X104342145Y-114647707D01*
X104272986Y-114637762D01*
X104220183Y-114592006D01*
X104200500Y-114524969D01*
X104200500Y-113969598D01*
X104220185Y-113902559D01*
X104272989Y-113856804D01*
X104342147Y-113846860D01*
X104405703Y-113875885D01*
G37*
G04 #@! TD.AperFunction*
G04 #@! TA.AperFunction,Conductor*
G36*
X104405703Y-112875885D02*
G01*
X104443477Y-112934663D01*
X104445004Y-112940363D01*
X104448484Y-112954708D01*
X104452059Y-112968715D01*
X104452059Y-112968716D01*
X104512547Y-113114747D01*
X104512553Y-113114757D01*
X104514469Y-113118077D01*
X104525006Y-113141747D01*
X104536114Y-113175932D01*
X104541505Y-113201291D01*
X104545262Y-113237038D01*
X104545262Y-113262960D01*
X104541505Y-113298707D01*
X104536115Y-113324064D01*
X104525007Y-113358251D01*
X104514469Y-113381922D01*
X104512559Y-113385230D01*
X104512550Y-113385248D01*
X104455961Y-113517392D01*
X104455952Y-113517419D01*
X104443476Y-113559906D01*
X104405701Y-113618684D01*
X104342145Y-113647707D01*
X104272986Y-113637762D01*
X104220183Y-113592006D01*
X104200500Y-113524969D01*
X104200500Y-112969598D01*
X104220185Y-112902559D01*
X104272989Y-112856804D01*
X104342147Y-112846860D01*
X104405703Y-112875885D01*
G37*
G04 #@! TD.AperFunction*
G04 #@! TA.AperFunction,Conductor*
G36*
X104374936Y-111982706D02*
G01*
X104386415Y-111987817D01*
X104408850Y-112000772D01*
X104424526Y-112012160D01*
X104437934Y-112021902D01*
X104457197Y-112039245D01*
X104481252Y-112065961D01*
X104496487Y-112086931D01*
X104514465Y-112118069D01*
X104525010Y-112141752D01*
X104536115Y-112175930D01*
X104541505Y-112201288D01*
X104545262Y-112237039D01*
X104545262Y-112262960D01*
X104541505Y-112298707D01*
X104536115Y-112324064D01*
X104525007Y-112358251D01*
X104514469Y-112381922D01*
X104512559Y-112385230D01*
X104512550Y-112385248D01*
X104455961Y-112517392D01*
X104455952Y-112517419D01*
X104443476Y-112559906D01*
X104405701Y-112618684D01*
X104342145Y-112647707D01*
X104272986Y-112637762D01*
X104220183Y-112592006D01*
X104200500Y-112524969D01*
X104200500Y-112095985D01*
X104220185Y-112028946D01*
X104272989Y-111983191D01*
X104342147Y-111973247D01*
X104374936Y-111982706D01*
G37*
G04 #@! TD.AperFunction*
G04 #@! TA.AperFunction,Conductor*
G36*
X123882433Y-99079898D02*
G01*
X123935790Y-99118408D01*
X123945060Y-99129940D01*
X124089247Y-99245842D01*
X124254979Y-99328037D01*
X124434501Y-99372682D01*
X124434502Y-99372682D01*
X124434505Y-99372683D01*
X124476046Y-99375500D01*
X124532157Y-99375500D01*
X124599196Y-99395185D01*
X124644951Y-99447989D01*
X124654895Y-99517147D01*
X124631743Y-99570427D01*
X124632776Y-99571087D01*
X124629155Y-99576750D01*
X124546964Y-99742476D01*
X124546963Y-99742478D01*
X124502317Y-99922000D01*
X124499500Y-99963548D01*
X124499500Y-100270500D01*
X124479815Y-100337539D01*
X124427011Y-100383294D01*
X124375500Y-100394500D01*
X123424500Y-100394500D01*
X123357461Y-100374815D01*
X123311706Y-100322011D01*
X123300500Y-100270500D01*
X123300500Y-99963548D01*
X123299652Y-99951046D01*
X123297683Y-99922005D01*
X123294574Y-99909505D01*
X123286756Y-99878066D01*
X123253037Y-99742479D01*
X123179208Y-99593615D01*
X123170844Y-99576750D01*
X123170843Y-99576748D01*
X123150086Y-99550925D01*
X123123428Y-99486341D01*
X123135919Y-99417597D01*
X123183593Y-99366519D01*
X123238342Y-99349524D01*
X123265495Y-99347683D01*
X123445021Y-99303037D01*
X123610753Y-99220842D01*
X123754940Y-99104940D01*
X123754939Y-99104940D01*
X123760180Y-99100728D01*
X123761821Y-99102770D01*
X123812739Y-99074941D01*
X123882433Y-99079898D01*
G37*
G04 #@! TD.AperFunction*
G04 #@! TA.AperFunction,Conductor*
G36*
X147185996Y-97206384D02*
G01*
X147344712Y-97230307D01*
X147362778Y-97234430D01*
X147516172Y-97281746D01*
X147533415Y-97288512D01*
X147678047Y-97358163D01*
X147694093Y-97367428D01*
X147826723Y-97457853D01*
X147841213Y-97469408D01*
X147958885Y-97578591D01*
X147958887Y-97578592D01*
X147971493Y-97592179D01*
X148071577Y-97717681D01*
X148082017Y-97732993D01*
X148162276Y-97872007D01*
X148170317Y-97888704D01*
X148181182Y-97916388D01*
X148226104Y-98030846D01*
X148228961Y-98038124D01*
X148234424Y-98055835D01*
X148270144Y-98212336D01*
X148272906Y-98230661D01*
X148284902Y-98390732D01*
X148284902Y-98409266D01*
X148272906Y-98569337D01*
X148270144Y-98587662D01*
X148234424Y-98744163D01*
X148228961Y-98761874D01*
X148170317Y-98911294D01*
X148162276Y-98927991D01*
X148082017Y-99067005D01*
X148071577Y-99082317D01*
X147971493Y-99207819D01*
X147958887Y-99221406D01*
X147841219Y-99330585D01*
X147826730Y-99342139D01*
X147694097Y-99432567D01*
X147678046Y-99441834D01*
X147533421Y-99511481D01*
X147516170Y-99518252D01*
X147362782Y-99565567D01*
X147344713Y-99569691D01*
X147185988Y-99593615D01*
X147167509Y-99595000D01*
X147006982Y-99595000D01*
X146988502Y-99593615D01*
X146829778Y-99569691D01*
X146811710Y-99565567D01*
X146714955Y-99535722D01*
X146658313Y-99518250D01*
X146641066Y-99511481D01*
X146531428Y-99458682D01*
X146496447Y-99441836D01*
X146480398Y-99432570D01*
X146347762Y-99342141D01*
X146333272Y-99330586D01*
X146305201Y-99304540D01*
X146305201Y-99304539D01*
X146215607Y-99221408D01*
X146203001Y-99207823D01*
X146124193Y-99109001D01*
X146124187Y-99108994D01*
X146102910Y-99082315D01*
X146092476Y-99067011D01*
X146012212Y-98927987D01*
X146004174Y-98911294D01*
X145990410Y-98876225D01*
X145945528Y-98761870D01*
X145940065Y-98744160D01*
X145920811Y-98659805D01*
X145904343Y-98587655D01*
X145901582Y-98569331D01*
X145899556Y-98542299D01*
X145889588Y-98409260D01*
X145889588Y-98390734D01*
X145901582Y-98230666D01*
X145904342Y-98212346D01*
X145940067Y-98055829D01*
X145945528Y-98038127D01*
X145952276Y-98020934D01*
X146004174Y-97888699D01*
X146012207Y-97872018D01*
X146092477Y-97732986D01*
X146102912Y-97717681D01*
X146203007Y-97592167D01*
X146215594Y-97578600D01*
X146333284Y-97469401D01*
X146347751Y-97457863D01*
X146480406Y-97367421D01*
X146496438Y-97358166D01*
X146641076Y-97288512D01*
X146658302Y-97281751D01*
X146811727Y-97234425D01*
X146829771Y-97230307D01*
X146961027Y-97210524D01*
X146988495Y-97206385D01*
X147006975Y-97205000D01*
X147167516Y-97205000D01*
X147185996Y-97206384D01*
G37*
G04 #@! TD.AperFunction*
G04 #@! TA.AperFunction,Conductor*
G36*
X114343751Y-93507709D02*
G01*
X114370610Y-93513417D01*
X114378915Y-93515182D01*
X114403564Y-93523190D01*
X114436409Y-93537814D01*
X114458850Y-93550770D01*
X114473395Y-93561338D01*
X114487938Y-93571905D01*
X114507197Y-93589245D01*
X114531255Y-93615965D01*
X114546487Y-93636931D01*
X114564465Y-93668069D01*
X114575010Y-93691752D01*
X114586115Y-93725930D01*
X114591505Y-93751288D01*
X114595262Y-93787039D01*
X114595262Y-93812959D01*
X114591505Y-93848710D01*
X114586115Y-93874068D01*
X114575010Y-93908246D01*
X114564465Y-93931929D01*
X114546487Y-93963067D01*
X114531252Y-93984037D01*
X114507200Y-94010750D01*
X114487933Y-94028098D01*
X114458859Y-94049221D01*
X114436410Y-94062182D01*
X114403564Y-94076806D01*
X114378911Y-94084816D01*
X114343750Y-94092290D01*
X114317970Y-94095000D01*
X114282030Y-94095000D01*
X114256248Y-94092290D01*
X114221087Y-94084816D01*
X114221078Y-94084814D01*
X114196429Y-94076805D01*
X114163592Y-94062185D01*
X114141145Y-94049224D01*
X114112058Y-94028090D01*
X114092799Y-94010750D01*
X114068743Y-93984033D01*
X114053510Y-93963066D01*
X114035531Y-93931926D01*
X114024992Y-93908256D01*
X114013880Y-93874059D01*
X114008494Y-93848715D01*
X114004736Y-93812958D01*
X114004736Y-93787040D01*
X114004736Y-93787039D01*
X114008494Y-93751281D01*
X114013881Y-93725937D01*
X114024993Y-93691736D01*
X114035528Y-93668074D01*
X114053510Y-93636928D01*
X114068739Y-93615968D01*
X114092805Y-93589241D01*
X114112060Y-93571905D01*
X114141150Y-93550769D01*
X114163583Y-93537816D01*
X114196431Y-93523191D01*
X114221082Y-93515182D01*
X114235097Y-93512203D01*
X114256246Y-93507709D01*
X114282024Y-93505000D01*
X114317974Y-93505000D01*
X114343751Y-93507709D01*
G37*
G04 #@! TD.AperFunction*
G04 #@! TA.AperFunction,Conductor*
G36*
X104405703Y-91875885D02*
G01*
X104443477Y-91934663D01*
X104445004Y-91940363D01*
X104448484Y-91954708D01*
X104452059Y-91968715D01*
X104452059Y-91968716D01*
X104512547Y-92114747D01*
X104512553Y-92114757D01*
X104514469Y-92118077D01*
X104525006Y-92141747D01*
X104536114Y-92175932D01*
X104541505Y-92201291D01*
X104545262Y-92237038D01*
X104545262Y-92262959D01*
X104541505Y-92298710D01*
X104536115Y-92324068D01*
X104525010Y-92358246D01*
X104514465Y-92381929D01*
X104496487Y-92413067D01*
X104481252Y-92434037D01*
X104457200Y-92460750D01*
X104437933Y-92478098D01*
X104408859Y-92499221D01*
X104386410Y-92512182D01*
X104374935Y-92517291D01*
X104305685Y-92526575D01*
X104242409Y-92496947D01*
X104205196Y-92437812D01*
X104200500Y-92404011D01*
X104200500Y-91969598D01*
X104220185Y-91902559D01*
X104272989Y-91856804D01*
X104342147Y-91846860D01*
X104405703Y-91875885D01*
G37*
G04 #@! TD.AperFunction*
G04 #@! TA.AperFunction,Conductor*
G36*
X104405703Y-90875885D02*
G01*
X104443477Y-90934663D01*
X104445004Y-90940363D01*
X104448484Y-90954708D01*
X104452059Y-90968715D01*
X104452059Y-90968716D01*
X104512547Y-91114747D01*
X104512553Y-91114757D01*
X104514469Y-91118077D01*
X104525006Y-91141747D01*
X104536114Y-91175932D01*
X104541505Y-91201291D01*
X104545262Y-91237038D01*
X104545262Y-91262960D01*
X104541505Y-91298707D01*
X104536115Y-91324064D01*
X104525007Y-91358251D01*
X104514469Y-91381922D01*
X104512559Y-91385230D01*
X104512550Y-91385248D01*
X104455961Y-91517392D01*
X104455952Y-91517419D01*
X104443476Y-91559906D01*
X104405701Y-91618684D01*
X104342145Y-91647707D01*
X104272986Y-91637762D01*
X104220183Y-91592006D01*
X104200500Y-91524969D01*
X104200500Y-90969598D01*
X104220185Y-90902559D01*
X104272989Y-90856804D01*
X104342147Y-90846860D01*
X104405703Y-90875885D01*
G37*
G04 #@! TD.AperFunction*
G04 #@! TA.AperFunction,Conductor*
G36*
X104405703Y-89875885D02*
G01*
X104443477Y-89934663D01*
X104445004Y-89940363D01*
X104448484Y-89954708D01*
X104452059Y-89968715D01*
X104452059Y-89968716D01*
X104512547Y-90114747D01*
X104512553Y-90114757D01*
X104514469Y-90118077D01*
X104525006Y-90141747D01*
X104536114Y-90175932D01*
X104541505Y-90201291D01*
X104545262Y-90237038D01*
X104545262Y-90262960D01*
X104541505Y-90298707D01*
X104536115Y-90324064D01*
X104525007Y-90358251D01*
X104514469Y-90381922D01*
X104512559Y-90385230D01*
X104512550Y-90385248D01*
X104455961Y-90517392D01*
X104455952Y-90517419D01*
X104443476Y-90559906D01*
X104405701Y-90618684D01*
X104342145Y-90647707D01*
X104272986Y-90637762D01*
X104220183Y-90592006D01*
X104200500Y-90524969D01*
X104200500Y-89969598D01*
X104220185Y-89902559D01*
X104272989Y-89856804D01*
X104342147Y-89846860D01*
X104405703Y-89875885D01*
G37*
G04 #@! TD.AperFunction*
G04 #@! TA.AperFunction,Conductor*
G36*
X104405703Y-88875885D02*
G01*
X104443477Y-88934663D01*
X104445004Y-88940363D01*
X104448484Y-88954708D01*
X104452059Y-88968715D01*
X104452059Y-88968716D01*
X104512547Y-89114747D01*
X104512553Y-89114757D01*
X104514469Y-89118077D01*
X104525006Y-89141747D01*
X104536114Y-89175932D01*
X104541505Y-89201291D01*
X104545262Y-89237038D01*
X104545262Y-89262960D01*
X104541505Y-89298707D01*
X104536115Y-89324064D01*
X104525007Y-89358251D01*
X104514469Y-89381922D01*
X104512559Y-89385230D01*
X104512550Y-89385248D01*
X104455961Y-89517392D01*
X104455952Y-89517419D01*
X104443476Y-89559906D01*
X104405701Y-89618684D01*
X104342145Y-89647707D01*
X104272986Y-89637762D01*
X104220183Y-89592006D01*
X104200500Y-89524969D01*
X104200500Y-88969598D01*
X104220185Y-88902559D01*
X104272989Y-88856804D01*
X104342147Y-88846860D01*
X104405703Y-88875885D01*
G37*
G04 #@! TD.AperFunction*
G04 #@! TA.AperFunction,Conductor*
G36*
X104405703Y-87875885D02*
G01*
X104443477Y-87934663D01*
X104445004Y-87940363D01*
X104448484Y-87954708D01*
X104452059Y-87968715D01*
X104452059Y-87968716D01*
X104512547Y-88114747D01*
X104512553Y-88114757D01*
X104514469Y-88118077D01*
X104525006Y-88141747D01*
X104536114Y-88175932D01*
X104541505Y-88201291D01*
X104545262Y-88237038D01*
X104545262Y-88262960D01*
X104541505Y-88298707D01*
X104536115Y-88324064D01*
X104525007Y-88358251D01*
X104514469Y-88381922D01*
X104512559Y-88385230D01*
X104512550Y-88385248D01*
X104455961Y-88517392D01*
X104455952Y-88517419D01*
X104443476Y-88559906D01*
X104405701Y-88618684D01*
X104342145Y-88647707D01*
X104272986Y-88637762D01*
X104220183Y-88592006D01*
X104200500Y-88524969D01*
X104200500Y-87969598D01*
X104220185Y-87902559D01*
X104272989Y-87856804D01*
X104342147Y-87846860D01*
X104405703Y-87875885D01*
G37*
G04 #@! TD.AperFunction*
G04 #@! TA.AperFunction,Conductor*
G36*
X104405703Y-86875885D02*
G01*
X104443477Y-86934663D01*
X104445004Y-86940363D01*
X104448484Y-86954708D01*
X104452059Y-86968715D01*
X104452059Y-86968716D01*
X104512547Y-87114747D01*
X104512553Y-87114757D01*
X104514469Y-87118077D01*
X104525006Y-87141747D01*
X104536114Y-87175932D01*
X104541505Y-87201291D01*
X104545262Y-87237038D01*
X104545262Y-87262960D01*
X104541505Y-87298707D01*
X104536115Y-87324064D01*
X104525007Y-87358251D01*
X104514469Y-87381922D01*
X104512559Y-87385230D01*
X104512550Y-87385248D01*
X104455961Y-87517392D01*
X104455952Y-87517419D01*
X104443476Y-87559906D01*
X104405701Y-87618684D01*
X104342145Y-87647707D01*
X104272986Y-87637762D01*
X104220183Y-87592006D01*
X104200500Y-87524969D01*
X104200500Y-86969598D01*
X104220185Y-86902559D01*
X104272989Y-86856804D01*
X104342147Y-86846860D01*
X104405703Y-86875885D01*
G37*
G04 #@! TD.AperFunction*
G04 #@! TA.AperFunction,Conductor*
G36*
X104374936Y-85982706D02*
G01*
X104386415Y-85987817D01*
X104408850Y-86000772D01*
X104424526Y-86012160D01*
X104437934Y-86021902D01*
X104457197Y-86039245D01*
X104481252Y-86065961D01*
X104496487Y-86086931D01*
X104514465Y-86118069D01*
X104525010Y-86141752D01*
X104536115Y-86175930D01*
X104541505Y-86201288D01*
X104545262Y-86237039D01*
X104545262Y-86262960D01*
X104541505Y-86298707D01*
X104536115Y-86324064D01*
X104525007Y-86358251D01*
X104514469Y-86381922D01*
X104512559Y-86385230D01*
X104512550Y-86385248D01*
X104455961Y-86517392D01*
X104455952Y-86517419D01*
X104443476Y-86559906D01*
X104405701Y-86618684D01*
X104342145Y-86647707D01*
X104272986Y-86637762D01*
X104220183Y-86592006D01*
X104200500Y-86524969D01*
X104200500Y-86095985D01*
X104220185Y-86028946D01*
X104272989Y-85983191D01*
X104342147Y-85973247D01*
X104374936Y-85982706D01*
G37*
G04 #@! TD.AperFunction*
G04 #@! TA.AperFunction,Conductor*
G36*
X120225701Y-78297160D02*
G01*
X120232180Y-78303192D01*
X122192515Y-80263528D01*
X122192522Y-80263534D01*
X122311344Y-80342928D01*
X122347297Y-80357820D01*
X122443380Y-80397619D01*
X122443384Y-80397619D01*
X122443385Y-80397620D01*
X122583542Y-80425500D01*
X122583545Y-80425500D01*
X122726456Y-80425500D01*
X122892796Y-80425500D01*
X122959835Y-80445185D01*
X123005590Y-80497989D01*
X123015534Y-80567147D01*
X122986509Y-80630703D01*
X122951248Y-80658859D01*
X122941463Y-80664088D01*
X122941460Y-80664090D01*
X122789116Y-80789116D01*
X122664090Y-80941460D01*
X122664086Y-80941467D01*
X122571188Y-81115266D01*
X122513975Y-81303870D01*
X122494659Y-81500000D01*
X122513975Y-81696129D01*
X122571188Y-81884733D01*
X122664086Y-82058532D01*
X122664090Y-82058539D01*
X122789116Y-82210883D01*
X122886271Y-82290616D01*
X122925605Y-82348362D01*
X122927476Y-82418206D01*
X122926583Y-82421403D01*
X122919033Y-82447115D01*
X122915132Y-82461010D01*
X122915132Y-82461013D01*
X122894500Y-82617720D01*
X122894500Y-82617728D01*
X122894500Y-82930304D01*
X122904396Y-83010548D01*
X122912644Y-83077424D01*
X122927282Y-83135863D01*
X122927284Y-83135871D01*
X122950771Y-83196761D01*
X122953740Y-83205391D01*
X122985740Y-83310881D01*
X122990482Y-83334722D01*
X122995714Y-83387846D01*
X122995714Y-83412155D01*
X122990482Y-83465274D01*
X122985740Y-83489114D01*
X122970784Y-83538416D01*
X122969285Y-83543441D01*
X122968644Y-83545624D01*
X122963400Y-83564636D01*
X122963398Y-83564644D01*
X122944166Y-83721529D01*
X122944166Y-83721540D01*
X122944790Y-83791415D01*
X122945089Y-83805806D01*
X122945089Y-83805807D01*
X122945090Y-83805812D01*
X122970840Y-83961767D01*
X122970841Y-83961771D01*
X122970842Y-83961775D01*
X122985740Y-84010884D01*
X122990483Y-84034728D01*
X122995714Y-84087846D01*
X122995714Y-84112153D01*
X122990482Y-84165276D01*
X122985740Y-84189117D01*
X122953741Y-84294603D01*
X122950771Y-84303235D01*
X122929140Y-84359311D01*
X122886647Y-84414774D01*
X122820914Y-84438459D01*
X122758357Y-84425773D01*
X122670021Y-84381963D01*
X122670019Y-84381962D01*
X122670018Y-84381962D01*
X122490497Y-84337317D01*
X122490501Y-84337317D01*
X122459339Y-84335204D01*
X122448954Y-84334500D01*
X122448952Y-84334500D01*
X122148738Y-84334500D01*
X122081699Y-84314815D01*
X122035944Y-84262011D01*
X122026000Y-84192853D01*
X122039380Y-84152047D01*
X122128811Y-83984732D01*
X122128814Y-83984727D01*
X122186024Y-83796132D01*
X122205341Y-83600000D01*
X122186024Y-83403868D01*
X122128814Y-83215273D01*
X122128811Y-83215269D01*
X122128811Y-83215266D01*
X122035913Y-83041467D01*
X122035909Y-83041460D01*
X121910883Y-82889116D01*
X121758539Y-82764090D01*
X121758532Y-82764086D01*
X121584733Y-82671188D01*
X121584727Y-82671186D01*
X121396132Y-82613976D01*
X121396129Y-82613975D01*
X121200000Y-82594659D01*
X121003870Y-82613975D01*
X120815266Y-82671188D01*
X120641467Y-82764086D01*
X120641460Y-82764090D01*
X120489116Y-82889116D01*
X120364090Y-83041460D01*
X120364086Y-83041467D01*
X120271188Y-83215266D01*
X120213975Y-83403871D01*
X120201265Y-83532917D01*
X120175104Y-83597704D01*
X120165543Y-83608443D01*
X119761468Y-84012519D01*
X119758765Y-84016565D01*
X119754751Y-84022573D01*
X119725639Y-84066142D01*
X119682070Y-84131347D01*
X119629629Y-84257953D01*
X119585788Y-84312356D01*
X119519494Y-84334421D01*
X119515068Y-84334500D01*
X118201046Y-84334500D01*
X118189177Y-84335304D01*
X118159500Y-84337317D01*
X117979978Y-84381963D01*
X117979976Y-84381964D01*
X117814249Y-84464156D01*
X117670059Y-84580059D01*
X117554156Y-84724249D01*
X117471964Y-84889976D01*
X117471963Y-84889978D01*
X117427317Y-85069500D01*
X117424500Y-85111048D01*
X117424500Y-85670182D01*
X117404815Y-85737221D01*
X117352011Y-85782976D01*
X117300500Y-85794182D01*
X116749500Y-85794182D01*
X116682461Y-85774497D01*
X116636706Y-85721693D01*
X116625500Y-85670182D01*
X116625500Y-83525065D01*
X116645185Y-83458026D01*
X116697989Y-83412271D01*
X116737342Y-83401663D01*
X116896132Y-83386024D01*
X117084727Y-83328814D01*
X117096413Y-83322568D01*
X117258532Y-83235913D01*
X117258538Y-83235910D01*
X117410883Y-83110883D01*
X117535910Y-82958538D01*
X117628814Y-82784727D01*
X117686024Y-82596132D01*
X117694276Y-82512345D01*
X117720437Y-82447559D01*
X117777471Y-82407200D01*
X117817679Y-82400500D01*
X118323952Y-82400500D01*
X118323954Y-82400500D01*
X118365495Y-82397683D01*
X118545021Y-82353037D01*
X118710753Y-82270842D01*
X118854940Y-82154940D01*
X118970842Y-82010753D01*
X119053037Y-81845021D01*
X119097683Y-81665495D01*
X119100500Y-81623954D01*
X119100500Y-80346328D01*
X119120185Y-80279289D01*
X119172989Y-80233534D01*
X119179131Y-80231212D01*
X119179103Y-80231144D01*
X119184723Y-80228815D01*
X119184727Y-80228814D01*
X119358538Y-80135910D01*
X119510883Y-80010883D01*
X119635910Y-79858538D01*
X119728814Y-79684727D01*
X119786024Y-79496132D01*
X119805341Y-79300000D01*
X119786024Y-79103868D01*
X119779486Y-79082314D01*
X119778862Y-79012447D01*
X119816110Y-78953334D01*
X119822651Y-78947948D01*
X119848282Y-78928282D01*
X119944536Y-78802841D01*
X120005044Y-78656762D01*
X120020500Y-78539361D01*
X120020499Y-78390871D01*
X120040183Y-78323834D01*
X120092987Y-78278079D01*
X120162145Y-78268135D01*
X120225701Y-78297160D01*
G37*
G04 #@! TD.AperFunction*
G04 #@! TA.AperFunction,Conductor*
G36*
X147085996Y-78356384D02*
G01*
X147244712Y-78380307D01*
X147262778Y-78384430D01*
X147416172Y-78431746D01*
X147433419Y-78438515D01*
X147578047Y-78508163D01*
X147594090Y-78517424D01*
X147726727Y-78607855D01*
X147741208Y-78619404D01*
X147858890Y-78728595D01*
X147871493Y-78742179D01*
X147971577Y-78867681D01*
X147982017Y-78882993D01*
X148062275Y-79022005D01*
X148070316Y-79038702D01*
X148128963Y-79188128D01*
X148134426Y-79205839D01*
X148170144Y-79362335D01*
X148172906Y-79380660D01*
X148184902Y-79540730D01*
X148184902Y-79559262D01*
X148182928Y-79585607D01*
X148182927Y-79585628D01*
X148172906Y-79719336D01*
X148170144Y-79737661D01*
X148134424Y-79894163D01*
X148128961Y-79911874D01*
X148070317Y-80061294D01*
X148062276Y-80077991D01*
X147982017Y-80217005D01*
X147971577Y-80232318D01*
X147871492Y-80357821D01*
X147858886Y-80371407D01*
X147741219Y-80480585D01*
X147726730Y-80492139D01*
X147594097Y-80582567D01*
X147578046Y-80591834D01*
X147433421Y-80661481D01*
X147416170Y-80668252D01*
X147262782Y-80715567D01*
X147244713Y-80719691D01*
X147085988Y-80743615D01*
X147067509Y-80745000D01*
X146906982Y-80745000D01*
X146888502Y-80743615D01*
X146729778Y-80719691D01*
X146711710Y-80715567D01*
X146599708Y-80681019D01*
X146558313Y-80668250D01*
X146541066Y-80661481D01*
X146396446Y-80591835D01*
X146380400Y-80582571D01*
X146247763Y-80492140D01*
X146233275Y-80480587D01*
X146143856Y-80397620D01*
X146115601Y-80371403D01*
X146102998Y-80357820D01*
X146044008Y-80283848D01*
X146044008Y-80283849D01*
X146002908Y-80232312D01*
X145992479Y-80217017D01*
X145912212Y-80077988D01*
X145904174Y-80061296D01*
X145899544Y-80049500D01*
X145845527Y-79911870D01*
X145840066Y-79894164D01*
X145831935Y-79858538D01*
X145804343Y-79737651D01*
X145801582Y-79719330D01*
X145798989Y-79684727D01*
X145789588Y-79559260D01*
X145789588Y-79540733D01*
X145801582Y-79380659D01*
X145804342Y-79362346D01*
X145840067Y-79205829D01*
X145845528Y-79188127D01*
X145904174Y-79038699D01*
X145912207Y-79022018D01*
X145992477Y-78882986D01*
X146002912Y-78867681D01*
X146103007Y-78742167D01*
X146115594Y-78728600D01*
X146233284Y-78619401D01*
X146247751Y-78607863D01*
X146380406Y-78517421D01*
X146396438Y-78508166D01*
X146541076Y-78438512D01*
X146558302Y-78431751D01*
X146711727Y-78384425D01*
X146729771Y-78380307D01*
X146861027Y-78360524D01*
X146888495Y-78356385D01*
X146906975Y-78355000D01*
X147067516Y-78355000D01*
X147085996Y-78356384D01*
G37*
G04 #@! TD.AperFunction*
G04 #@! TA.AperFunction,Conductor*
G36*
X135078714Y-71745185D02*
G01*
X135124469Y-71797989D01*
X135135672Y-71848676D01*
X135182413Y-78882991D01*
X135184440Y-79188128D01*
X135186845Y-79549995D01*
X135186872Y-79554019D01*
X135186872Y-79554027D01*
X135187067Y-79583297D01*
X135187740Y-79684733D01*
X135189634Y-79969676D01*
X135170396Y-80036845D01*
X135117897Y-80082950D01*
X135065637Y-80094500D01*
X132047840Y-80094500D01*
X131946418Y-80103055D01*
X131905468Y-80110013D01*
X131905463Y-80110014D01*
X131905459Y-80110014D01*
X131905459Y-80110015D01*
X131895708Y-80112530D01*
X131806903Y-80135438D01*
X131806892Y-80135441D01*
X131731851Y-80161699D01*
X131704787Y-80167877D01*
X131692868Y-80169220D01*
X131678984Y-80170000D01*
X131271012Y-80170000D01*
X131257128Y-80169220D01*
X131254037Y-80168872D01*
X131254038Y-80168872D01*
X131245207Y-80167876D01*
X131218145Y-80161699D01*
X131143085Y-80135435D01*
X131143079Y-80135433D01*
X131044558Y-80110019D01*
X131044547Y-80110016D01*
X131044541Y-80110015D01*
X131044536Y-80110014D01*
X131044531Y-80110013D01*
X131003581Y-80103055D01*
X130939077Y-80097614D01*
X130873929Y-80072364D01*
X130832775Y-80015901D01*
X130825500Y-79974053D01*
X130825500Y-79380043D01*
X130825499Y-79380039D01*
X130810369Y-79245750D01*
X130810368Y-79245745D01*
X130790207Y-79188128D01*
X130750789Y-79075478D01*
X130722248Y-79030056D01*
X130658300Y-78928283D01*
X130654816Y-78922738D01*
X130586819Y-78854741D01*
X130553334Y-78793418D01*
X130550500Y-78767060D01*
X130550500Y-77115369D01*
X130522620Y-76975212D01*
X130522619Y-76975211D01*
X130522619Y-76975207D01*
X130467929Y-76843174D01*
X130467927Y-76843171D01*
X130450782Y-76817511D01*
X130388533Y-76724348D01*
X130388527Y-76724341D01*
X129336818Y-75672632D01*
X129303333Y-75611309D01*
X129300499Y-75584951D01*
X129300499Y-75180623D01*
X129320184Y-75113584D01*
X129372988Y-75067829D01*
X129442146Y-75057885D01*
X129502183Y-75083974D01*
X129552790Y-75124653D01*
X129713651Y-75204433D01*
X129887900Y-75247766D01*
X129928216Y-75250500D01*
X129928218Y-75250500D01*
X130571782Y-75250500D01*
X130571784Y-75250500D01*
X130612100Y-75247766D01*
X130786349Y-75204433D01*
X130947210Y-75124653D01*
X131087159Y-75012159D01*
X131199653Y-74872210D01*
X131279433Y-74711349D01*
X131322766Y-74537100D01*
X131325500Y-74496784D01*
X131325500Y-73903216D01*
X131322766Y-73862900D01*
X131279433Y-73688651D01*
X131199653Y-73527790D01*
X131179474Y-73502686D01*
X131152815Y-73438105D01*
X131165305Y-73369360D01*
X131179475Y-73347312D01*
X131199653Y-73322210D01*
X131279433Y-73161349D01*
X131322766Y-72987100D01*
X131325500Y-72946784D01*
X131325500Y-72353216D01*
X131322766Y-72312900D01*
X131279433Y-72138651D01*
X131275065Y-72129843D01*
X131263883Y-72107296D01*
X131251731Y-72038491D01*
X131278708Y-71974039D01*
X131319877Y-71941114D01*
X131360753Y-71920842D01*
X131504940Y-71804940D01*
X131531570Y-71771810D01*
X131588911Y-71731894D01*
X131628215Y-71725500D01*
X135011675Y-71725500D01*
X135078714Y-71745185D01*
G37*
G04 #@! TD.AperFunction*
G04 #@! TA.AperFunction,Conductor*
G36*
X111501209Y-52081035D02*
G01*
X111568229Y-52100784D01*
X111613933Y-52153632D01*
X111623810Y-52222800D01*
X111594724Y-52286328D01*
X111588770Y-52292716D01*
X111210807Y-52670681D01*
X111149484Y-52704166D01*
X111123126Y-52707000D01*
X110276046Y-52707000D01*
X110264177Y-52707804D01*
X110234500Y-52709817D01*
X110054978Y-52754463D01*
X110054976Y-52754464D01*
X109889249Y-52836656D01*
X109745059Y-52952559D01*
X109629156Y-53096749D01*
X109546964Y-53262476D01*
X109546961Y-53262484D01*
X109528199Y-53337927D01*
X109492917Y-53398234D01*
X109430631Y-53429892D01*
X109407865Y-53432000D01*
X108636525Y-53432000D01*
X108569486Y-53412315D01*
X108525437Y-53363094D01*
X108449655Y-53210293D01*
X108449653Y-53210290D01*
X108337159Y-53070341D01*
X108337158Y-53070340D01*
X108197209Y-52957846D01*
X108036350Y-52878067D01*
X107862102Y-52834734D01*
X107862103Y-52834734D01*
X107837910Y-52833093D01*
X107821784Y-52832000D01*
X107178216Y-52832000D01*
X107162089Y-52833093D01*
X107137897Y-52834734D01*
X106963649Y-52878067D01*
X106802790Y-52957846D01*
X106662841Y-53070340D01*
X106662840Y-53070341D01*
X106550346Y-53210290D01*
X106470567Y-53371149D01*
X106427234Y-53545397D01*
X106424500Y-53585718D01*
X106424500Y-54179281D01*
X106427234Y-54219602D01*
X106470567Y-54393850D01*
X106550346Y-54554709D01*
X106550347Y-54554710D01*
X106662841Y-54694659D01*
X106802790Y-54807153D01*
X106963651Y-54886933D01*
X107137900Y-54930266D01*
X107178216Y-54933000D01*
X107178218Y-54933000D01*
X107821782Y-54933000D01*
X107821784Y-54933000D01*
X107862100Y-54930266D01*
X108036349Y-54886933D01*
X108036351Y-54886931D01*
X108037424Y-54886665D01*
X108067350Y-54883000D01*
X109407865Y-54883000D01*
X109474904Y-54902685D01*
X109520659Y-54955489D01*
X109528199Y-54977073D01*
X109546961Y-55052515D01*
X109546964Y-55052523D01*
X109629156Y-55218250D01*
X109745059Y-55362440D01*
X109827173Y-55428445D01*
X109889247Y-55478342D01*
X109889248Y-55478342D01*
X109889249Y-55478343D01*
X110035541Y-55550897D01*
X110086854Y-55598318D01*
X110095007Y-55614531D01*
X110107068Y-55643648D01*
X110107070Y-55643651D01*
X110107071Y-55643653D01*
X110127724Y-55674562D01*
X110186469Y-55762482D01*
X110186470Y-55762483D01*
X110465543Y-56041555D01*
X110499028Y-56102878D01*
X110501265Y-56117081D01*
X110513975Y-56246129D01*
X110571188Y-56434733D01*
X110664086Y-56608532D01*
X110664090Y-56608539D01*
X110789116Y-56760883D01*
X110941460Y-56885909D01*
X110941467Y-56885913D01*
X111115266Y-56978811D01*
X111115269Y-56978811D01*
X111115273Y-56978814D01*
X111303868Y-57036024D01*
X111500000Y-57055341D01*
X111696132Y-57036024D01*
X111884727Y-56978814D01*
X112058538Y-56885910D01*
X112210883Y-56760883D01*
X112335910Y-56608538D01*
X112428814Y-56434727D01*
X112486024Y-56246132D01*
X112505341Y-56050000D01*
X112486024Y-55853868D01*
X112428814Y-55665273D01*
X112428811Y-55665269D01*
X112428811Y-55665266D01*
X112335913Y-55491467D01*
X112335909Y-55491460D01*
X112210883Y-55339116D01*
X112058539Y-55214090D01*
X112058536Y-55214088D01*
X112015145Y-55190896D01*
X111965300Y-55141934D01*
X111949839Y-55073796D01*
X111953262Y-55051615D01*
X111977168Y-54955489D01*
X111997681Y-54873005D01*
X111997682Y-54873001D01*
X111997682Y-54872998D01*
X111997683Y-54872995D01*
X112000500Y-54831454D01*
X112000500Y-53984374D01*
X112020185Y-53917335D01*
X112036819Y-53896693D01*
X112456802Y-53476710D01*
X112882029Y-53051482D01*
X112943350Y-53017999D01*
X113013041Y-53022983D01*
X113068975Y-53064855D01*
X113093392Y-53130319D01*
X113080797Y-53194258D01*
X113046963Y-53262479D01*
X113002317Y-53442000D01*
X112999500Y-53483548D01*
X112999500Y-54831451D01*
X113002317Y-54872999D01*
X113046963Y-55052521D01*
X113046964Y-55052523D01*
X113129156Y-55218250D01*
X113245059Y-55362440D01*
X113327173Y-55428445D01*
X113389247Y-55478342D01*
X113554979Y-55560537D01*
X113734501Y-55605182D01*
X113734502Y-55605182D01*
X113734505Y-55605183D01*
X113776046Y-55608000D01*
X113776048Y-55608000D01*
X114723952Y-55608000D01*
X114723954Y-55608000D01*
X114765495Y-55605183D01*
X114945021Y-55560537D01*
X115110753Y-55478342D01*
X115254940Y-55362440D01*
X115370842Y-55218253D01*
X115388912Y-55181817D01*
X115436332Y-55130506D01*
X115503966Y-55112975D01*
X115570342Y-55134794D01*
X115611087Y-55181817D01*
X115619990Y-55199768D01*
X115629157Y-55218252D01*
X115745059Y-55362440D01*
X115889247Y-55478342D01*
X115922991Y-55495077D01*
X115974305Y-55542498D01*
X115991835Y-55610133D01*
X115970016Y-55676508D01*
X115915775Y-55720550D01*
X115846334Y-55728277D01*
X115831903Y-55724827D01*
X115796130Y-55713975D01*
X115600000Y-55694659D01*
X115403870Y-55713975D01*
X115215266Y-55771188D01*
X115041467Y-55864086D01*
X115041460Y-55864090D01*
X114889116Y-55989116D01*
X114764090Y-56141460D01*
X114764086Y-56141467D01*
X114671188Y-56315266D01*
X114613975Y-56503870D01*
X114594659Y-56700000D01*
X114613975Y-56896129D01*
X114613976Y-56896132D01*
X114671186Y-57084727D01*
X114671187Y-57084728D01*
X114685789Y-57112047D01*
X114700030Y-57180450D01*
X114675030Y-57245694D01*
X114618724Y-57287064D01*
X114576430Y-57294500D01*
X112073991Y-57294500D01*
X111945284Y-57308339D01*
X111893780Y-57319543D01*
X111757918Y-57366566D01*
X111625973Y-57453598D01*
X111625960Y-57453607D01*
X111573174Y-57499346D01*
X111551845Y-57518737D01*
X111551845Y-57518738D01*
X111452661Y-57641814D01*
X111452660Y-57641817D01*
X111388713Y-57786365D01*
X111388711Y-57786370D01*
X111369026Y-57853410D01*
X111365132Y-57867282D01*
X111365132Y-57867285D01*
X111344500Y-58023992D01*
X111344500Y-63725500D01*
X111324815Y-63792539D01*
X111272011Y-63838294D01*
X111220500Y-63849500D01*
X110743541Y-63849500D01*
X110641867Y-63855812D01*
X110641863Y-63855813D01*
X110517416Y-63881906D01*
X110402543Y-63905993D01*
X110402539Y-63905994D01*
X110402531Y-63905996D01*
X110174745Y-63994880D01*
X110174741Y-63994882D01*
X109964688Y-64120047D01*
X109778088Y-64278088D01*
X109620047Y-64464688D01*
X109494882Y-64674741D01*
X109494880Y-64674745D01*
X109405996Y-64902531D01*
X109405994Y-64902539D01*
X109405993Y-64902543D01*
X109381906Y-65017416D01*
X109355813Y-65141863D01*
X109355812Y-65141867D01*
X109349500Y-65243541D01*
X109349500Y-67156458D01*
X109355812Y-67258132D01*
X109355813Y-67258134D01*
X109405993Y-67497457D01*
X109405994Y-67497461D01*
X109405996Y-67497468D01*
X109494880Y-67725254D01*
X109494882Y-67725258D01*
X109606761Y-67913015D01*
X109620051Y-67935317D01*
X109778088Y-68121912D01*
X109964683Y-68279949D01*
X110174744Y-68405119D01*
X110257608Y-68437452D01*
X110402531Y-68494003D01*
X110402534Y-68494003D01*
X110402543Y-68494007D01*
X110641866Y-68544187D01*
X110743548Y-68550500D01*
X110743559Y-68550500D01*
X112656441Y-68550500D01*
X112656452Y-68550500D01*
X112758134Y-68544187D01*
X112997457Y-68494007D01*
X112997466Y-68494003D01*
X112997468Y-68494003D01*
X113091856Y-68457172D01*
X113225256Y-68405119D01*
X113435317Y-68279949D01*
X113621912Y-68121912D01*
X113765617Y-67952237D01*
X113823964Y-67913804D01*
X113893829Y-67913015D01*
X113953030Y-67950124D01*
X113964067Y-67964587D01*
X114001509Y-68021932D01*
X114001518Y-68021944D01*
X114047014Y-68074947D01*
X114065328Y-68095284D01*
X114066304Y-68096367D01*
X114097702Y-68121912D01*
X114188914Y-68196123D01*
X114188915Y-68196123D01*
X114188916Y-68196124D01*
X114333170Y-68260747D01*
X114400117Y-68280745D01*
X114413975Y-68284705D01*
X114413980Y-68284705D01*
X114413986Y-68284707D01*
X114495992Y-68295892D01*
X114570592Y-68306069D01*
X120371079Y-68333173D01*
X120438026Y-68353171D01*
X120483534Y-68406188D01*
X120494500Y-68457172D01*
X120494500Y-76214126D01*
X120474815Y-76281165D01*
X120422011Y-76326920D01*
X120352853Y-76336864D01*
X120289297Y-76307839D01*
X120282819Y-76301807D01*
X120056818Y-76075806D01*
X120023333Y-76014483D01*
X120020499Y-75988125D01*
X120020499Y-72960636D01*
X120005046Y-72843246D01*
X120005044Y-72843241D01*
X120005044Y-72843238D01*
X119944536Y-72697159D01*
X119848282Y-72571718D01*
X119722841Y-72475464D01*
X119576762Y-72414956D01*
X119576760Y-72414955D01*
X119459370Y-72399501D01*
X119459367Y-72399500D01*
X119459361Y-72399500D01*
X119459354Y-72399500D01*
X117950636Y-72399500D01*
X117833246Y-72414953D01*
X117833237Y-72414956D01*
X117687160Y-72475463D01*
X117561718Y-72571718D01*
X117465464Y-72697159D01*
X117446585Y-72742737D01*
X117402743Y-72797140D01*
X117336449Y-72819204D01*
X117302189Y-72814747D01*
X117302107Y-72815164D01*
X117296136Y-72813976D01*
X117127865Y-72797403D01*
X117063078Y-72771242D01*
X117052338Y-72761681D01*
X116456819Y-72166162D01*
X116423334Y-72104839D01*
X116420500Y-72078481D01*
X116420500Y-70654365D01*
X116438962Y-70589268D01*
X116526125Y-70447955D01*
X116526126Y-70447953D01*
X116526127Y-70447952D01*
X116580209Y-70284744D01*
X116590500Y-70184011D01*
X116590499Y-69715990D01*
X116580209Y-69615256D01*
X116526127Y-69452048D01*
X116435865Y-69305711D01*
X116314289Y-69184135D01*
X116314285Y-69184132D01*
X116167955Y-69093874D01*
X116167953Y-69093873D01*
X116086348Y-69066832D01*
X116004744Y-69039791D01*
X116004742Y-69039790D01*
X115904012Y-69029500D01*
X115535996Y-69029500D01*
X115535978Y-69029501D01*
X115435256Y-69039790D01*
X115272048Y-69093873D01*
X115265500Y-69096927D01*
X115264547Y-69094883D01*
X115207679Y-69110431D01*
X115155365Y-69095070D01*
X115154500Y-69096927D01*
X115147954Y-69093874D01*
X115147952Y-69093873D01*
X114984744Y-69039791D01*
X114984742Y-69039790D01*
X114884012Y-69029500D01*
X114515996Y-69029500D01*
X114515978Y-69029501D01*
X114415256Y-69039790D01*
X114415253Y-69039791D01*
X114252047Y-69093873D01*
X114252044Y-69093874D01*
X114105714Y-69184132D01*
X114105710Y-69184135D01*
X114101665Y-69188181D01*
X114040342Y-69221666D01*
X114013984Y-69224500D01*
X113578543Y-69224500D01*
X113438385Y-69252379D01*
X113438379Y-69252381D01*
X113306344Y-69307071D01*
X113187522Y-69386465D01*
X113187515Y-69386471D01*
X112601469Y-69972517D01*
X112566736Y-70024500D01*
X112552173Y-70046296D01*
X112537122Y-70068821D01*
X112522071Y-70091346D01*
X112522069Y-70091349D01*
X112467381Y-70223379D01*
X112467379Y-70223385D01*
X112439500Y-70363542D01*
X112439500Y-70566400D01*
X112419815Y-70633439D01*
X112393188Y-70663047D01*
X112260060Y-70770059D01*
X112144156Y-70914249D01*
X112061964Y-71079976D01*
X112061963Y-71079978D01*
X112017317Y-71259500D01*
X112014500Y-71301048D01*
X112014500Y-75548951D01*
X112017317Y-75590499D01*
X112061962Y-75770018D01*
X112061963Y-75770021D01*
X112124148Y-75895406D01*
X112136299Y-75964211D01*
X112109322Y-76028663D01*
X112051782Y-76068299D01*
X112013059Y-76074500D01*
X105110084Y-76074500D01*
X105043045Y-76054815D01*
X105006154Y-76013255D01*
X105004441Y-76014386D01*
X104999966Y-76007601D01*
X104912932Y-75875652D01*
X104912926Y-75875645D01*
X104912924Y-75875642D01*
X104867185Y-75822856D01*
X104847794Y-75801527D01*
X104724717Y-75702343D01*
X104724714Y-75702342D01*
X104580166Y-75638395D01*
X104580161Y-75638393D01*
X104513121Y-75618708D01*
X104499248Y-75614814D01*
X104342539Y-75594182D01*
X104342532Y-75594182D01*
X102724500Y-75594182D01*
X102657461Y-75574497D01*
X102611706Y-75521693D01*
X102600500Y-75470182D01*
X102600500Y-52196592D01*
X102620185Y-52129553D01*
X102672989Y-52083798D01*
X102724617Y-52072592D01*
X111501209Y-52081035D01*
G37*
G04 #@! TD.AperFunction*
G04 #@! TA.AperFunction,Conductor*
G36*
X135041885Y-66278386D02*
G01*
X135087896Y-66330968D01*
X135099350Y-66382202D01*
X135108261Y-67723174D01*
X135122317Y-69838664D01*
X135122723Y-69899676D01*
X135103485Y-69966845D01*
X135050986Y-70012950D01*
X134998726Y-70024500D01*
X131628215Y-70024500D01*
X131561176Y-70004815D01*
X131531571Y-69978191D01*
X131504940Y-69945060D01*
X131504936Y-69945057D01*
X131504937Y-69945057D01*
X131420082Y-69876848D01*
X131360753Y-69829158D01*
X131360751Y-69829157D01*
X131360750Y-69829156D01*
X131195023Y-69746964D01*
X131195021Y-69746963D01*
X131015497Y-69702317D01*
X131015501Y-69702317D01*
X130984339Y-69700204D01*
X130973954Y-69699500D01*
X129526046Y-69699500D01*
X129514177Y-69700304D01*
X129484500Y-69702317D01*
X129304978Y-69746963D01*
X129304976Y-69746964D01*
X129139252Y-69829154D01*
X129077687Y-69878642D01*
X129013103Y-69905300D01*
X128944359Y-69892809D01*
X128922313Y-69878642D01*
X128860753Y-69829158D01*
X128860750Y-69829156D01*
X128860747Y-69829154D01*
X128695023Y-69746964D01*
X128695021Y-69746963D01*
X128515497Y-69702317D01*
X128515501Y-69702317D01*
X128484339Y-69700204D01*
X128473954Y-69699500D01*
X127026046Y-69699500D01*
X127014177Y-69700304D01*
X126984500Y-69702317D01*
X126804978Y-69746963D01*
X126804976Y-69746964D01*
X126639249Y-69829156D01*
X126507188Y-69935311D01*
X126442604Y-69961970D01*
X126373859Y-69949480D01*
X126322781Y-69901807D01*
X126305500Y-69838664D01*
X126305500Y-68224008D01*
X126305499Y-68223991D01*
X126302503Y-68196123D01*
X126291661Y-68095287D01*
X126280455Y-68043776D01*
X126233434Y-67907919D01*
X126146400Y-67775970D01*
X126146394Y-67775963D01*
X126146392Y-67775960D01*
X126100653Y-67723174D01*
X126081262Y-67701845D01*
X126051613Y-67677952D01*
X125958186Y-67602662D01*
X125958184Y-67602661D01*
X125829333Y-67545658D01*
X125775989Y-67500534D01*
X125755509Y-67433733D01*
X125755500Y-67432259D01*
X125755500Y-66427180D01*
X125775185Y-66360141D01*
X125827989Y-66314386D01*
X125878893Y-66303182D01*
X134974753Y-66259027D01*
X135041885Y-66278386D01*
G37*
G04 #@! TD.AperFunction*
G04 #@! TA.AperFunction,Conductor*
G36*
X147085996Y-60406384D02*
G01*
X147244712Y-60430307D01*
X147262778Y-60434430D01*
X147416172Y-60481746D01*
X147433415Y-60488512D01*
X147578047Y-60558163D01*
X147594093Y-60567428D01*
X147726723Y-60657853D01*
X147741213Y-60669408D01*
X147858885Y-60778591D01*
X147858887Y-60778592D01*
X147871493Y-60792179D01*
X147971577Y-60917681D01*
X147982017Y-60932993D01*
X148062275Y-61072004D01*
X148070316Y-61088702D01*
X148128960Y-61238124D01*
X148134423Y-61255833D01*
X148170145Y-61412339D01*
X148172907Y-61430665D01*
X148178905Y-61510698D01*
X148184903Y-61590734D01*
X148184903Y-61609265D01*
X148182088Y-61646831D01*
X148182088Y-61646833D01*
X148172906Y-61769337D01*
X148170144Y-61787661D01*
X148134424Y-61944163D01*
X148128961Y-61961874D01*
X148070317Y-62111294D01*
X148062276Y-62127991D01*
X147982017Y-62267005D01*
X147971577Y-62282317D01*
X147871493Y-62407819D01*
X147858887Y-62421406D01*
X147741219Y-62530585D01*
X147726730Y-62542139D01*
X147594097Y-62632567D01*
X147578046Y-62641834D01*
X147433421Y-62711481D01*
X147416170Y-62718252D01*
X147262782Y-62765567D01*
X147244713Y-62769691D01*
X147085988Y-62793615D01*
X147067509Y-62795000D01*
X146906982Y-62795000D01*
X146888502Y-62793615D01*
X146729778Y-62769691D01*
X146711710Y-62765567D01*
X146614955Y-62735722D01*
X146558313Y-62718250D01*
X146541066Y-62711481D01*
X146396443Y-62641834D01*
X146380396Y-62632569D01*
X146247762Y-62542140D01*
X146233273Y-62530586D01*
X146115604Y-62421406D01*
X146103002Y-62407825D01*
X146102997Y-62407819D01*
X146097830Y-62401339D01*
X146097818Y-62401323D01*
X146002911Y-62282314D01*
X145992471Y-62267001D01*
X145912215Y-62127993D01*
X145904174Y-62111296D01*
X145845528Y-61961871D01*
X145840065Y-61944161D01*
X145804343Y-61787653D01*
X145801582Y-61769331D01*
X145789588Y-61609264D01*
X145789588Y-61590734D01*
X145801582Y-61430666D01*
X145801583Y-61430665D01*
X145801582Y-61430659D01*
X145804344Y-61412339D01*
X145840067Y-61255829D01*
X145845528Y-61238127D01*
X145904172Y-61088705D01*
X145904174Y-61088702D01*
X145904174Y-61088699D01*
X145912207Y-61072018D01*
X145992477Y-60932986D01*
X146002912Y-60917681D01*
X146103007Y-60792167D01*
X146115594Y-60778600D01*
X146233284Y-60669401D01*
X146247751Y-60657863D01*
X146380406Y-60567421D01*
X146396438Y-60558166D01*
X146541076Y-60488512D01*
X146558302Y-60481751D01*
X146711727Y-60434425D01*
X146729771Y-60430307D01*
X146861027Y-60410524D01*
X146888495Y-60406385D01*
X146906975Y-60405000D01*
X147067516Y-60405000D01*
X147085996Y-60406384D01*
G37*
G04 #@! TD.AperFunction*
M02*
