G04 #@! TF.GenerationSoftware,KiCad,Pcbnew,8.0.5*
G04 #@! TF.CreationDate,2024-12-11T09:51:45-08:00*
G04 #@! TF.ProjectId,OpenPEMF_Final,4f70656e-5045-44d4-965f-46696e616c2e,rev?*
G04 #@! TF.SameCoordinates,Original*
G04 #@! TF.FileFunction,Soldermask,Bot*
G04 #@! TF.FilePolarity,Negative*
%FSLAX46Y46*%
G04 Gerber Fmt 4.6, Leading zero omitted, Abs format (unit mm)*
G04 Created by KiCad (PCBNEW 8.0.5) date 2024-12-11 09:51:45*
%MOMM*%
%LPD*%
G01*
G04 APERTURE LIST*
G04 Aperture macros list*
%AMRoundRect*
0 Rectangle with rounded corners*
0 $1 Rounding radius*
0 $2 $3 $4 $5 $6 $7 $8 $9 X,Y pos of 4 corners*
0 Add a 4 corners polygon primitive as box body*
4,1,4,$2,$3,$4,$5,$6,$7,$8,$9,$2,$3,0*
0 Add four circle primitives for the rounded corners*
1,1,$1+$1,$2,$3*
1,1,$1+$1,$4,$5*
1,1,$1+$1,$6,$7*
1,1,$1+$1,$8,$9*
0 Add four rect primitives between the rounded corners*
20,1,$1+$1,$2,$3,$4,$5,0*
20,1,$1+$1,$4,$5,$6,$7,0*
20,1,$1+$1,$6,$7,$8,$9,0*
20,1,$1+$1,$8,$9,$2,$3,0*%
G04 Aperture macros list end*
%ADD10R,2.400000X2.400000*%
%ADD11C,2.400000*%
%ADD12R,0.850000X0.850000*%
%ADD13O,0.850000X0.850000*%
%ADD14R,1.000000X1.000000*%
%ADD15O,1.000000X1.000000*%
%ADD16O,0.650000X1.300000*%
%ADD17O,1.550000X0.775000*%
%ADD18R,3.500000X3.500000*%
%ADD19RoundRect,0.750000X-0.750000X-1.000000X0.750000X-1.000000X0.750000X1.000000X-0.750000X1.000000X0*%
%ADD20RoundRect,0.875000X-0.875000X-0.875000X0.875000X-0.875000X0.875000X0.875000X-0.875000X0.875000X0*%
%ADD21R,2.600000X2.600000*%
%ADD22C,2.600000*%
%ADD23RoundRect,0.140000X0.140000X0.170000X-0.140000X0.170000X-0.140000X-0.170000X0.140000X-0.170000X0*%
%ADD24RoundRect,0.250000X0.650000X-0.325000X0.650000X0.325000X-0.650000X0.325000X-0.650000X-0.325000X0*%
%ADD25RoundRect,0.250000X0.325000X0.650000X-0.325000X0.650000X-0.325000X-0.650000X0.325000X-0.650000X0*%
%ADD26RoundRect,0.200000X0.200000X0.275000X-0.200000X0.275000X-0.200000X-0.275000X0.200000X-0.275000X0*%
%ADD27RoundRect,0.225000X0.250000X-0.225000X0.250000X0.225000X-0.250000X0.225000X-0.250000X-0.225000X0*%
%ADD28RoundRect,0.250000X-0.325000X-0.650000X0.325000X-0.650000X0.325000X0.650000X-0.325000X0.650000X0*%
%ADD29RoundRect,0.225000X0.225000X0.375000X-0.225000X0.375000X-0.225000X-0.375000X0.225000X-0.375000X0*%
%ADD30RoundRect,0.250000X-0.650000X0.325000X-0.650000X-0.325000X0.650000X-0.325000X0.650000X0.325000X0*%
%ADD31RoundRect,0.317500X-0.317500X0.382500X-0.317500X-0.382500X0.317500X-0.382500X0.317500X0.382500X0*%
%ADD32R,4.720000X4.800000*%
%ADD33RoundRect,0.250000X-0.600000X0.400000X-0.600000X-0.400000X0.600000X-0.400000X0.600000X0.400000X0*%
%ADD34RoundRect,0.135000X-0.185000X0.135000X-0.185000X-0.135000X0.185000X-0.135000X0.185000X0.135000X0*%
%ADD35RoundRect,0.317500X0.382500X0.317500X-0.382500X0.317500X-0.382500X-0.317500X0.382500X-0.317500X0*%
%ADD36R,4.800000X4.720000*%
%ADD37RoundRect,0.250000X0.600000X-0.400000X0.600000X0.400000X-0.600000X0.400000X-0.600000X-0.400000X0*%
%ADD38RoundRect,0.225000X-0.375000X0.225000X-0.375000X-0.225000X0.375000X-0.225000X0.375000X0.225000X0*%
%ADD39RoundRect,0.140000X0.170000X-0.140000X0.170000X0.140000X-0.170000X0.140000X-0.170000X-0.140000X0*%
%ADD40RoundRect,0.140000X-0.170000X0.140000X-0.170000X-0.140000X0.170000X-0.140000X0.170000X0.140000X0*%
%ADD41RoundRect,0.200000X-0.200000X-0.275000X0.200000X-0.275000X0.200000X0.275000X-0.200000X0.275000X0*%
%ADD42R,1.219200X0.558800*%
%ADD43R,0.558800X1.219200*%
%ADD44RoundRect,0.150000X0.825000X0.150000X-0.825000X0.150000X-0.825000X-0.150000X0.825000X-0.150000X0*%
%ADD45RoundRect,0.150000X-0.150000X0.825000X-0.150000X-0.825000X0.150000X-0.825000X0.150000X0.825000X0*%
%ADD46RoundRect,0.225000X0.375000X-0.225000X0.375000X0.225000X-0.375000X0.225000X-0.375000X-0.225000X0*%
%ADD47R,1.500000X2.000000*%
%ADD48R,3.800000X2.000000*%
%ADD49RoundRect,0.135000X-0.135000X-0.185000X0.135000X-0.185000X0.135000X0.185000X-0.135000X0.185000X0*%
%ADD50RoundRect,0.317500X-0.382500X-0.317500X0.382500X-0.317500X0.382500X0.317500X-0.382500X0.317500X0*%
%ADD51RoundRect,0.135000X0.135000X0.185000X-0.135000X0.185000X-0.135000X-0.185000X0.135000X-0.185000X0*%
%ADD52RoundRect,0.250000X0.650000X-1.000000X0.650000X1.000000X-0.650000X1.000000X-0.650000X-1.000000X0*%
%ADD53RoundRect,0.200000X0.275000X-0.200000X0.275000X0.200000X-0.275000X0.200000X-0.275000X-0.200000X0*%
G04 APERTURE END LIST*
D10*
X139487246Y-79550000D03*
D11*
X146987246Y-79550000D03*
D12*
X121885000Y-143565000D03*
D13*
X122885000Y-143565000D03*
X123885000Y-143565000D03*
D12*
X111600000Y-143600000D03*
D13*
X112600000Y-143600000D03*
X113600000Y-143600000D03*
X114600000Y-143600000D03*
X115600000Y-143600000D03*
X116600000Y-143600000D03*
X117600000Y-143600000D03*
X118600000Y-143600000D03*
D12*
X111500000Y-139000000D03*
D13*
X111500000Y-140000000D03*
X111500000Y-141000000D03*
X111500000Y-142000000D03*
D10*
X139587246Y-116400000D03*
D11*
X147087246Y-116400000D03*
D10*
X139487246Y-61600000D03*
D11*
X146987246Y-61600000D03*
D14*
X133200000Y-134750000D03*
D15*
X133200000Y-133480000D03*
D16*
X108203700Y-129000400D03*
X108203700Y-134000400D03*
D17*
X105503700Y-128000400D03*
X105503700Y-135000400D03*
D18*
X114700000Y-61600000D03*
D19*
X108600000Y-61600000D03*
D20*
X111700000Y-66200000D03*
D10*
X139587246Y-98400000D03*
D11*
X147087246Y-98400000D03*
D10*
X139587246Y-134600000D03*
D11*
X147087246Y-134600000D03*
D21*
X111495000Y-96255000D03*
D22*
X111495000Y-101335000D03*
D12*
X129000000Y-143600000D03*
D13*
X130000000Y-143600000D03*
X131000000Y-143600000D03*
D23*
X116580000Y-102300000D03*
X115620000Y-102300000D03*
D24*
X119600000Y-80350000D03*
X119600000Y-77400000D03*
D25*
X114275000Y-58300000D03*
X111325000Y-58300000D03*
D26*
X123075000Y-114000000D03*
X121425000Y-114000000D03*
D27*
X117900000Y-83875000D03*
X117900000Y-82325000D03*
D28*
X138175000Y-123600000D03*
X141125000Y-123600000D03*
D29*
X143650000Y-127150000D03*
X140350000Y-127150000D03*
D30*
X135300000Y-117875000D03*
X135300000Y-120825000D03*
D31*
X130695000Y-102160000D03*
X130695000Y-104240000D03*
D32*
X134500000Y-103200000D03*
D33*
X132750000Y-117250000D03*
X132750000Y-120750000D03*
D34*
X134850000Y-80090000D03*
X134850000Y-81110000D03*
D35*
X108640000Y-85895000D03*
X106560000Y-85895000D03*
D36*
X107600000Y-89700000D03*
D37*
X130450000Y-80600000D03*
X130450000Y-77100000D03*
D38*
X130100000Y-109075000D03*
X130100000Y-112375000D03*
D33*
X132750000Y-111800000D03*
X132750000Y-115300000D03*
D39*
X133900000Y-129480000D03*
X133900000Y-128520000D03*
D40*
X123250000Y-97770000D03*
X123250000Y-98730000D03*
D41*
X116675000Y-95000000D03*
X118325000Y-95000000D03*
D25*
X135575000Y-91750000D03*
X132625000Y-91750000D03*
D38*
X127750000Y-77100000D03*
X127750000Y-80400000D03*
D42*
X126740900Y-82665000D03*
X126740900Y-83935000D03*
X119959100Y-83935000D03*
X119959100Y-82665000D03*
D23*
X130880000Y-128150000D03*
X129920000Y-128150000D03*
D33*
X132800000Y-77100000D03*
X132800000Y-80600000D03*
D43*
X124735000Y-112090900D03*
X123465000Y-112090900D03*
X123465000Y-105309100D03*
X124735000Y-105309100D03*
D44*
X135475000Y-122895000D03*
X135475000Y-124165000D03*
X135475000Y-125435000D03*
X135475000Y-126705000D03*
X130525000Y-126705000D03*
X130525000Y-125435000D03*
X130525000Y-124165000D03*
X130525000Y-122895000D03*
D24*
X122000000Y-80350000D03*
X122000000Y-77400000D03*
D45*
X117945000Y-97825000D03*
X119215000Y-97825000D03*
X120485000Y-97825000D03*
X121755000Y-97825000D03*
X121755000Y-102775000D03*
X120485000Y-102775000D03*
X119215000Y-102775000D03*
X117945000Y-102775000D03*
D46*
X125300000Y-80400000D03*
X125300000Y-77100000D03*
D26*
X128325000Y-85400000D03*
X126675000Y-85400000D03*
D25*
X119275000Y-122200000D03*
X116325000Y-122200000D03*
D29*
X138750000Y-129650000D03*
X135450000Y-129650000D03*
D47*
X116850000Y-127725000D03*
X119150000Y-127725000D03*
D48*
X119150000Y-134025000D03*
D47*
X121450000Y-127725000D03*
D41*
X121650000Y-95250000D03*
X123300000Y-95250000D03*
D49*
X137830000Y-125400000D03*
X138850000Y-125400000D03*
D25*
X119275000Y-119700000D03*
X116325000Y-119700000D03*
X119275000Y-124700000D03*
X116325000Y-124700000D03*
D50*
X106560000Y-112005000D03*
X108640000Y-112005000D03*
D36*
X107600000Y-108200000D03*
D23*
X130780000Y-121400000D03*
X129820000Y-121400000D03*
D51*
X130310000Y-119300000D03*
X129290000Y-119300000D03*
D52*
X106400000Y-100800000D03*
X106400000Y-96800000D03*
D24*
X129100000Y-117450000D03*
X129100000Y-114500000D03*
D30*
X126500000Y-72325000D03*
X126500000Y-75275000D03*
D25*
X133175000Y-83250000D03*
X130225000Y-83250000D03*
D53*
X128150000Y-125725000D03*
X128150000Y-124075000D03*
D24*
X124550000Y-128225000D03*
X124550000Y-125275000D03*
D46*
X127650000Y-112384800D03*
X127650000Y-109084800D03*
D53*
X128150000Y-122575000D03*
X128150000Y-120925000D03*
D31*
X130635000Y-95560000D03*
X130635000Y-97640000D03*
D32*
X134440000Y-96600000D03*
D25*
X135625000Y-109050000D03*
X132675000Y-109050000D03*
D40*
X138850000Y-126620000D03*
X138850000Y-127580000D03*
M02*
