M48
; DRILL file {KiCad 8.0.5} date 2024-12-11T09:52:38-0800
; FORMAT={-:-/ absolute / metric / decimal}
; #@! TF.CreationDate,2024-12-11T09:52:38-08:00
; #@! TF.GenerationSoftware,Kicad,Pcbnew,8.0.5
; #@! TF.FileFunction,Plated,1,4,PTH
FMAT,2
METRIC
; #@! TA.AperFunction,Plated,PTH,ViaDrill
T1C0.300
; #@! TA.AperFunction,Plated,PTH,ViaDrill
T2C0.400
; #@! TA.AperFunction,Plated,PTH,ComponentDrill
T3C0.500
; #@! TA.AperFunction,Plated,PTH,ComponentDrill
T4C0.550
; #@! TA.AperFunction,Plated,PTH,ComponentDrill
T5C0.650
; #@! TA.AperFunction,Plated,PTH,ComponentDrill
T6C1.000
; #@! TA.AperFunction,Plated,PTH,ComponentDrill
T7C1.200
; #@! TA.AperFunction,Plated,PTH,ComponentDrill
T8C1.300
%
G90
G05
T1
X115.89Y-131.826
X115.9Y-134.5
X116.4Y-129.3
X116.6Y-133.9
X117.1Y-129.3
X117.7Y-104.8
X117.769Y-131.075
X118.407Y-130.789
X118.8Y-83.1
X118.972Y-129.172
X119.4Y-81.7
X119.85Y-126.099
X120.9Y-111.2
X125.183Y-137.213
X125.183Y-137.917
X126.8Y-106.7
X130.3Y-120.1
X131.4Y-120.7
T2
X104.25Y-86.25
X104.25Y-87.25
X104.25Y-88.25
X104.25Y-89.25
X104.25Y-90.25
X104.25Y-91.25
X104.25Y-92.25
X104.25Y-112.25
X104.25Y-113.25
X104.25Y-114.25
X104.25Y-115.25
X104.25Y-116.25
X104.25Y-117.25
X104.25Y-118.25
X105.75Y-68.5
X105.75Y-69.5
X106.4Y-136.8
X106.75Y-68.5
X106.75Y-69.5
X107.2Y-136.0
X107.75Y-68.5
X107.75Y-69.5
X108.75Y-68.5
X108.75Y-69.5
X109.75Y-122.75
X109.75Y-123.75
X109.75Y-124.75
X110.543Y-130.841
X110.75Y-122.75
X110.75Y-123.75
X110.75Y-124.75
X110.8Y-119.6
X111.024Y-129.897
X111.032Y-137.532
X111.5Y-56.05
X111.5Y-120.0
X111.75Y-122.75
X111.75Y-123.75
X111.75Y-124.75
X112.1Y-120.6
X112.1Y-130.5
X114.15Y-126.375
X114.3Y-93.8
X114.3Y-131.0
X114.75Y-122.75
X114.75Y-123.75
X114.75Y-124.75
X115.6Y-56.7
X115.73Y-135.92
X116.2Y-141.9
X116.7Y-82.4
X117.1Y-73.8
X117.145Y-138.61
X118.8Y-79.3
X119.389Y-106.549
X119.4Y-138.2
X120.625Y-136.615
X121.2Y-83.6
X121.5Y-124.0
X121.5Y-124.9
X121.5Y-125.8
X121.8Y-108.9
X122.4Y-124.0
X122.4Y-124.9
X122.4Y-125.8
X122.6Y-83.4
X122.6Y-84.1
X123.25Y-99.75
X123.285Y-141.315
X123.5Y-81.5
X123.895Y-117.795
X124.0Y-129.4
X125.1Y-131.9
X125.4Y-139.3
X125.4Y-140.3
X126.4Y-137.1
X126.75Y-94.5
X126.75Y-95.25
X126.75Y-96.0
X126.75Y-96.75
X126.792Y-81.208
X127.0Y-101.75
X127.0Y-102.75
X127.0Y-103.75
X127.0Y-104.75
X129.585Y-140.565
X131.8Y-139.7
X132.0Y-66.8
X132.0Y-69.3
X132.2Y-124.1
X132.26Y-130.665
X132.3Y-72.9
X132.907Y-123.393
X133.6Y-122.6
X133.7Y-66.8
X133.7Y-69.3
X134.7Y-72.9
X134.7Y-76.6
X135.1Y-127.5
X136.6Y-128.5
T3
X111.5Y-139.0
X111.5Y-140.0
X111.5Y-141.0
X111.5Y-142.0
X111.6Y-143.6
X112.6Y-143.6
X113.6Y-143.6
X114.6Y-143.6
X115.6Y-143.6
X116.6Y-143.6
X117.6Y-143.6
X118.6Y-143.6
X121.885Y-143.565
X122.885Y-143.565
X123.885Y-143.565
X129.0Y-143.6
X130.0Y-143.6
X131.0Y-143.6
T5
X133.2Y-133.48
X133.2Y-134.75
T7
X139.487Y-61.6
X139.487Y-79.55
X139.587Y-98.4
X139.587Y-116.4
X139.587Y-134.6
X146.987Y-61.6
X146.987Y-79.55
X147.087Y-98.4
X147.087Y-116.4
X147.087Y-134.6
T8
X111.495Y-96.255
X111.495Y-101.335
T3
X105.829Y-128.0G85X105.179Y-128.0
G05
X105.829Y-135.0G85X105.179Y-135.0
G05
T4
X108.204Y-128.85G85X108.204Y-129.15
G05
X108.204Y-133.85G85X108.204Y-134.15
G05
T6
X108.6Y-60.6G85X108.6Y-62.6
G05
X110.7Y-66.2G85X112.7Y-66.2
G05
X114.7Y-60.6G85X114.7Y-62.6
G05
M30
