G04 #@! TF.GenerationSoftware,KiCad,Pcbnew,8.0.5*
G04 #@! TF.CreationDate,2024-12-11T09:51:45-08:00*
G04 #@! TF.ProjectId,OpenPEMF_Final,4f70656e-5045-44d4-965f-46696e616c2e,rev?*
G04 #@! TF.SameCoordinates,Original*
G04 #@! TF.FileFunction,Soldermask,Top*
G04 #@! TF.FilePolarity,Negative*
%FSLAX46Y46*%
G04 Gerber Fmt 4.6, Leading zero omitted, Abs format (unit mm)*
G04 Created by KiCad (PCBNEW 8.0.5) date 2024-12-11 09:51:45*
%MOMM*%
%LPD*%
G01*
G04 APERTURE LIST*
G04 Aperture macros list*
%AMRoundRect*
0 Rectangle with rounded corners*
0 $1 Rounding radius*
0 $2 $3 $4 $5 $6 $7 $8 $9 X,Y pos of 4 corners*
0 Add a 4 corners polygon primitive as box body*
4,1,4,$2,$3,$4,$5,$6,$7,$8,$9,$2,$3,0*
0 Add four circle primitives for the rounded corners*
1,1,$1+$1,$2,$3*
1,1,$1+$1,$4,$5*
1,1,$1+$1,$6,$7*
1,1,$1+$1,$8,$9*
0 Add four rect primitives between the rounded corners*
20,1,$1+$1,$2,$3,$4,$5,0*
20,1,$1+$1,$4,$5,$6,$7,0*
20,1,$1+$1,$6,$7,$8,$9,0*
20,1,$1+$1,$8,$9,$2,$3,0*%
G04 Aperture macros list end*
%ADD10C,0.000100*%
%ADD11RoundRect,0.140000X0.140000X0.170000X-0.140000X0.170000X-0.140000X-0.170000X0.140000X-0.170000X0*%
%ADD12RoundRect,0.150000X-0.150000X0.650000X-0.150000X-0.650000X0.150000X-0.650000X0.150000X0.650000X0*%
%ADD13R,2.400000X2.400000*%
%ADD14C,2.400000*%
%ADD15RoundRect,0.140000X-0.140000X-0.170000X0.140000X-0.170000X0.140000X0.170000X-0.140000X0.170000X0*%
%ADD16RoundRect,0.250000X0.250000X0.475000X-0.250000X0.475000X-0.250000X-0.475000X0.250000X-0.475000X0*%
%ADD17RoundRect,0.225000X-0.225000X-0.250000X0.225000X-0.250000X0.225000X0.250000X-0.225000X0.250000X0*%
%ADD18RoundRect,0.135000X0.135000X0.185000X-0.135000X0.185000X-0.135000X-0.185000X0.135000X-0.185000X0*%
%ADD19RoundRect,0.225000X-0.250000X0.225000X-0.250000X-0.225000X0.250000X-0.225000X0.250000X0.225000X0*%
%ADD20R,0.850000X0.850000*%
%ADD21O,0.850000X0.850000*%
%ADD22RoundRect,0.250000X-0.325000X-0.650000X0.325000X-0.650000X0.325000X0.650000X-0.325000X0.650000X0*%
%ADD23RoundRect,0.250000X0.300000X-2.050000X0.300000X2.050000X-0.300000X2.050000X-0.300000X-2.050000X0*%
%ADD24RoundRect,0.250002X5.149998X-4.449998X5.149998X4.449998X-5.149998X4.449998X-5.149998X-4.449998X0*%
%ADD25RoundRect,0.140000X-0.170000X0.140000X-0.170000X-0.140000X0.170000X-0.140000X0.170000X0.140000X0*%
%ADD26RoundRect,0.200000X-0.200000X-0.275000X0.200000X-0.275000X0.200000X0.275000X-0.200000X0.275000X0*%
%ADD27RoundRect,0.250000X-0.650000X0.325000X-0.650000X-0.325000X0.650000X-0.325000X0.650000X0.325000X0*%
%ADD28RoundRect,0.250000X0.650000X-0.325000X0.650000X0.325000X-0.650000X0.325000X-0.650000X-0.325000X0*%
%ADD29RoundRect,0.250000X0.400000X0.600000X-0.400000X0.600000X-0.400000X-0.600000X0.400000X-0.600000X0*%
%ADD30RoundRect,0.250000X-2.050000X-0.300000X2.050000X-0.300000X2.050000X0.300000X-2.050000X0.300000X0*%
%ADD31RoundRect,0.250002X-4.449998X-5.149998X4.449998X-5.149998X4.449998X5.149998X-4.449998X5.149998X0*%
%ADD32RoundRect,0.006000X-0.094000X0.414000X-0.094000X-0.414000X0.094000X-0.414000X0.094000X0.414000X0*%
%ADD33RoundRect,0.020000X-0.400000X0.080000X-0.400000X-0.080000X0.400000X-0.080000X0.400000X0.080000X0*%
%ADD34R,3.100000X3.100000*%
%ADD35R,1.430000X5.500000*%
%ADD36RoundRect,0.200000X0.275000X-0.200000X0.275000X0.200000X-0.275000X0.200000X-0.275000X-0.200000X0*%
%ADD37R,1.000000X1.000000*%
%ADD38O,1.000000X1.000000*%
%ADD39R,1.350000X0.400000*%
%ADD40O,0.650000X1.300000*%
%ADD41O,1.550000X0.775000*%
%ADD42R,1.550000X1.500000*%
%ADD43RoundRect,0.135000X-0.135000X-0.185000X0.135000X-0.185000X0.135000X0.185000X-0.135000X0.185000X0*%
%ADD44RoundRect,0.250000X-0.300000X2.050000X-0.300000X-2.050000X0.300000X-2.050000X0.300000X2.050000X0*%
%ADD45RoundRect,0.250002X-5.149998X4.449998X-5.149998X-4.449998X5.149998X-4.449998X5.149998X4.449998X0*%
%ADD46RoundRect,0.250000X-0.450000X0.262500X-0.450000X-0.262500X0.450000X-0.262500X0.450000X0.262500X0*%
%ADD47R,3.500000X3.500000*%
%ADD48RoundRect,0.750000X-0.750000X-1.000000X0.750000X-1.000000X0.750000X1.000000X-0.750000X1.000000X0*%
%ADD49RoundRect,0.875000X-0.875000X-0.875000X0.875000X-0.875000X0.875000X0.875000X-0.875000X0.875000X0*%
%ADD50RoundRect,0.140000X0.170000X-0.140000X0.170000X0.140000X-0.170000X0.140000X-0.170000X-0.140000X0*%
%ADD51R,1.400000X1.200000*%
%ADD52RoundRect,0.250000X-0.350000X0.850000X-0.350000X-0.850000X0.350000X-0.850000X0.350000X0.850000X0*%
%ADD53RoundRect,0.249997X-2.650003X2.950003X-2.650003X-2.950003X2.650003X-2.950003X2.650003X2.950003X0*%
%ADD54RoundRect,0.150000X0.150000X-0.512500X0.150000X0.512500X-0.150000X0.512500X-0.150000X-0.512500X0*%
%ADD55R,2.600000X2.600000*%
%ADD56C,2.600000*%
%ADD57RoundRect,0.250000X1.000000X0.650000X-1.000000X0.650000X-1.000000X-0.650000X1.000000X-0.650000X0*%
%ADD58R,3.810000X4.240000*%
G04 APERTURE END LIST*
D10*
X106378700Y-135100400D02*
X106377700Y-135126400D01*
X106375700Y-135152400D01*
X106372700Y-135178400D01*
X106367700Y-135204400D01*
X106361700Y-135229400D01*
X106354700Y-135255400D01*
X106345700Y-135279400D01*
X106335700Y-135303400D01*
X106324700Y-135327400D01*
X106311700Y-135350400D01*
X106297700Y-135372400D01*
X106283700Y-135394400D01*
X106267700Y-135415400D01*
X106250700Y-135435400D01*
X106232700Y-135454400D01*
X106213700Y-135472400D01*
X106193700Y-135489400D01*
X106172700Y-135505400D01*
X106150700Y-135519400D01*
X106128700Y-135533400D01*
X106105700Y-135546400D01*
X106081700Y-135557400D01*
X106057700Y-135567400D01*
X106033700Y-135576400D01*
X106007700Y-135583400D01*
X105982700Y-135589400D01*
X105956700Y-135594400D01*
X105930700Y-135597400D01*
X105904700Y-135599400D01*
X105878700Y-135600400D01*
X105128700Y-135600400D01*
X105102700Y-135599400D01*
X105076700Y-135597400D01*
X105050700Y-135594400D01*
X105024700Y-135589400D01*
X104999700Y-135583400D01*
X104973700Y-135576400D01*
X104949700Y-135567400D01*
X104925700Y-135557400D01*
X104901700Y-135546400D01*
X104878700Y-135533400D01*
X104856700Y-135519400D01*
X104834700Y-135505400D01*
X104813700Y-135489400D01*
X104793700Y-135472400D01*
X104774700Y-135454400D01*
X104756700Y-135435400D01*
X104739700Y-135415400D01*
X104723700Y-135394400D01*
X104709700Y-135372400D01*
X104695700Y-135350400D01*
X104682700Y-135327400D01*
X104671700Y-135303400D01*
X104661700Y-135279400D01*
X104652700Y-135255400D01*
X104645700Y-135229400D01*
X104639700Y-135204400D01*
X104634700Y-135178400D01*
X104631700Y-135152400D01*
X104629700Y-135126400D01*
X104628700Y-135100400D01*
X104628700Y-133700400D01*
X106378700Y-133700400D01*
X106378700Y-135100400D01*
G36*
X106378700Y-135100400D02*
G01*
X106377700Y-135126400D01*
X106375700Y-135152400D01*
X106372700Y-135178400D01*
X106367700Y-135204400D01*
X106361700Y-135229400D01*
X106354700Y-135255400D01*
X106345700Y-135279400D01*
X106335700Y-135303400D01*
X106324700Y-135327400D01*
X106311700Y-135350400D01*
X106297700Y-135372400D01*
X106283700Y-135394400D01*
X106267700Y-135415400D01*
X106250700Y-135435400D01*
X106232700Y-135454400D01*
X106213700Y-135472400D01*
X106193700Y-135489400D01*
X106172700Y-135505400D01*
X106150700Y-135519400D01*
X106128700Y-135533400D01*
X106105700Y-135546400D01*
X106081700Y-135557400D01*
X106057700Y-135567400D01*
X106033700Y-135576400D01*
X106007700Y-135583400D01*
X105982700Y-135589400D01*
X105956700Y-135594400D01*
X105930700Y-135597400D01*
X105904700Y-135599400D01*
X105878700Y-135600400D01*
X105128700Y-135600400D01*
X105102700Y-135599400D01*
X105076700Y-135597400D01*
X105050700Y-135594400D01*
X105024700Y-135589400D01*
X104999700Y-135583400D01*
X104973700Y-135576400D01*
X104949700Y-135567400D01*
X104925700Y-135557400D01*
X104901700Y-135546400D01*
X104878700Y-135533400D01*
X104856700Y-135519400D01*
X104834700Y-135505400D01*
X104813700Y-135489400D01*
X104793700Y-135472400D01*
X104774700Y-135454400D01*
X104756700Y-135435400D01*
X104739700Y-135415400D01*
X104723700Y-135394400D01*
X104709700Y-135372400D01*
X104695700Y-135350400D01*
X104682700Y-135327400D01*
X104671700Y-135303400D01*
X104661700Y-135279400D01*
X104652700Y-135255400D01*
X104645700Y-135229400D01*
X104639700Y-135204400D01*
X104634700Y-135178400D01*
X104631700Y-135152400D01*
X104629700Y-135126400D01*
X104628700Y-135100400D01*
X104628700Y-133700400D01*
X106378700Y-133700400D01*
X106378700Y-135100400D01*
G37*
X105904700Y-127401400D02*
X105930700Y-127403400D01*
X105956700Y-127406400D01*
X105982700Y-127411400D01*
X106007700Y-127417400D01*
X106033700Y-127424400D01*
X106057700Y-127433400D01*
X106081700Y-127443400D01*
X106105700Y-127454400D01*
X106128700Y-127467400D01*
X106150700Y-127481400D01*
X106172700Y-127495400D01*
X106193700Y-127511400D01*
X106213700Y-127528400D01*
X106232700Y-127546400D01*
X106250700Y-127565400D01*
X106267700Y-127585400D01*
X106283700Y-127606400D01*
X106297700Y-127628400D01*
X106311700Y-127650400D01*
X106324700Y-127673400D01*
X106335700Y-127697400D01*
X106345700Y-127721400D01*
X106354700Y-127745400D01*
X106361700Y-127771400D01*
X106367700Y-127796400D01*
X106372700Y-127822400D01*
X106375700Y-127848400D01*
X106377700Y-127874400D01*
X106378700Y-127900400D01*
X106378700Y-129300400D01*
X104628700Y-129300400D01*
X104628700Y-127900400D01*
X104629700Y-127874400D01*
X104631700Y-127848400D01*
X104634700Y-127822400D01*
X104639700Y-127796400D01*
X104645700Y-127771400D01*
X104652700Y-127745400D01*
X104661700Y-127721400D01*
X104671700Y-127697400D01*
X104682700Y-127673400D01*
X104695700Y-127650400D01*
X104709700Y-127628400D01*
X104723700Y-127606400D01*
X104739700Y-127585400D01*
X104756700Y-127565400D01*
X104774700Y-127546400D01*
X104793700Y-127528400D01*
X104813700Y-127511400D01*
X104834700Y-127495400D01*
X104856700Y-127481400D01*
X104878700Y-127467400D01*
X104901700Y-127454400D01*
X104925700Y-127443400D01*
X104949700Y-127433400D01*
X104973700Y-127424400D01*
X104999700Y-127417400D01*
X105024700Y-127411400D01*
X105050700Y-127406400D01*
X105076700Y-127403400D01*
X105102700Y-127401400D01*
X105128700Y-127400400D01*
X105878700Y-127400400D01*
X105904700Y-127401400D01*
G36*
X105904700Y-127401400D02*
G01*
X105930700Y-127403400D01*
X105956700Y-127406400D01*
X105982700Y-127411400D01*
X106007700Y-127417400D01*
X106033700Y-127424400D01*
X106057700Y-127433400D01*
X106081700Y-127443400D01*
X106105700Y-127454400D01*
X106128700Y-127467400D01*
X106150700Y-127481400D01*
X106172700Y-127495400D01*
X106193700Y-127511400D01*
X106213700Y-127528400D01*
X106232700Y-127546400D01*
X106250700Y-127565400D01*
X106267700Y-127585400D01*
X106283700Y-127606400D01*
X106297700Y-127628400D01*
X106311700Y-127650400D01*
X106324700Y-127673400D01*
X106335700Y-127697400D01*
X106345700Y-127721400D01*
X106354700Y-127745400D01*
X106361700Y-127771400D01*
X106367700Y-127796400D01*
X106372700Y-127822400D01*
X106375700Y-127848400D01*
X106377700Y-127874400D01*
X106378700Y-127900400D01*
X106378700Y-129300400D01*
X104628700Y-129300400D01*
X104628700Y-127900400D01*
X104629700Y-127874400D01*
X104631700Y-127848400D01*
X104634700Y-127822400D01*
X104639700Y-127796400D01*
X104645700Y-127771400D01*
X104652700Y-127745400D01*
X104661700Y-127721400D01*
X104671700Y-127697400D01*
X104682700Y-127673400D01*
X104695700Y-127650400D01*
X104709700Y-127628400D01*
X104723700Y-127606400D01*
X104739700Y-127585400D01*
X104756700Y-127565400D01*
X104774700Y-127546400D01*
X104793700Y-127528400D01*
X104813700Y-127511400D01*
X104834700Y-127495400D01*
X104856700Y-127481400D01*
X104878700Y-127467400D01*
X104901700Y-127454400D01*
X104925700Y-127443400D01*
X104949700Y-127433400D01*
X104973700Y-127424400D01*
X104999700Y-127417400D01*
X105024700Y-127411400D01*
X105050700Y-127406400D01*
X105076700Y-127403400D01*
X105102700Y-127401400D01*
X105128700Y-127400400D01*
X105878700Y-127400400D01*
X105904700Y-127401400D01*
G37*
D11*
X124765000Y-136065000D03*
X123805000Y-136065000D03*
D12*
X130490000Y-131565000D03*
X129220000Y-131565000D03*
X127950000Y-131565000D03*
X126680000Y-131565000D03*
X126680000Y-138765000D03*
X127950000Y-138765000D03*
X129220000Y-138765000D03*
X130490000Y-138765000D03*
D13*
X139487246Y-79550000D03*
D14*
X146987246Y-79550000D03*
D15*
X111655000Y-137465000D03*
X112615000Y-137465000D03*
D16*
X128400000Y-77300000D03*
X126500000Y-77300000D03*
D17*
X126325000Y-79700000D03*
X127875000Y-79700000D03*
D18*
X111460000Y-127050000D03*
X110440000Y-127050000D03*
D19*
X107500000Y-53882500D03*
X107500000Y-55432500D03*
D18*
X124195000Y-138065000D03*
X123175000Y-138065000D03*
D20*
X121885000Y-143565000D03*
D21*
X122885000Y-143565000D03*
X123885000Y-143565000D03*
D22*
X117925000Y-80900000D03*
X120875000Y-80900000D03*
D18*
X124195000Y-137065000D03*
X123175000Y-137065000D03*
D20*
X111600000Y-143600000D03*
D21*
X112600000Y-143600000D03*
X113600000Y-143600000D03*
X114600000Y-143600000D03*
X115600000Y-143600000D03*
X116600000Y-143600000D03*
X117600000Y-143600000D03*
X118600000Y-143600000D03*
D23*
X108085000Y-123625000D03*
D24*
X110625000Y-114475000D03*
D23*
X113165000Y-123625000D03*
D25*
X117085000Y-140865000D03*
X117085000Y-141825000D03*
D26*
X130760000Y-129165000D03*
X132410000Y-129165000D03*
D27*
X122500000Y-95225000D03*
X122500000Y-98175000D03*
D28*
X130250000Y-70875000D03*
X130250000Y-67925000D03*
D20*
X111500000Y-139000000D03*
D21*
X111500000Y-140000000D03*
X111500000Y-141000000D03*
X111500000Y-142000000D03*
D29*
X114250000Y-54157500D03*
X110750000Y-54157500D03*
D19*
X130250000Y-72650000D03*
X130250000Y-74200000D03*
D29*
X120250000Y-54157500D03*
X116750000Y-54157500D03*
D11*
X122545000Y-131365000D03*
X121585000Y-131365000D03*
D13*
X139587246Y-116400000D03*
D14*
X147087246Y-116400000D03*
D30*
X120350000Y-110060000D03*
D31*
X129500000Y-112600000D03*
D30*
X120350000Y-115140000D03*
D27*
X121800000Y-119275000D03*
X121800000Y-122225000D03*
D11*
X131665000Y-140715000D03*
X130705000Y-140715000D03*
D27*
X119850000Y-95250000D03*
X119850000Y-98200000D03*
X125200000Y-95250000D03*
X125200000Y-98200000D03*
D11*
X124165000Y-139065000D03*
X123205000Y-139065000D03*
D32*
X120745000Y-132695000D03*
X120345000Y-132695000D03*
X119945000Y-132695000D03*
X119545000Y-132695000D03*
X119145000Y-132695000D03*
X118745000Y-132695000D03*
X118345000Y-132695000D03*
X117945000Y-132695000D03*
X117545000Y-132695000D03*
X117145000Y-132695000D03*
X116745000Y-132695000D03*
X116345000Y-132695000D03*
X115945000Y-132695000D03*
X115545000Y-132695000D03*
D33*
X114710000Y-133530000D03*
X114710000Y-133930000D03*
X114710000Y-134330000D03*
X114710000Y-134730000D03*
X114710000Y-135130000D03*
X114710000Y-135530000D03*
X114710000Y-135930000D03*
X114710000Y-136330000D03*
X114710000Y-136730000D03*
X114710000Y-137130000D03*
X114710000Y-137530000D03*
X114710000Y-137930000D03*
X114710000Y-138330000D03*
X114710000Y-138730000D03*
D32*
X115545000Y-139565000D03*
X115945000Y-139565000D03*
X116345000Y-139565000D03*
X116745000Y-139565000D03*
X117145000Y-139565000D03*
X117545000Y-139565000D03*
X117945000Y-139565000D03*
X118345000Y-139565000D03*
X118745000Y-139565000D03*
X119145000Y-139565000D03*
X119545000Y-139565000D03*
X119945000Y-139565000D03*
X120345000Y-139565000D03*
X120745000Y-139565000D03*
D33*
X121580000Y-138730000D03*
X121580000Y-138330000D03*
X121580000Y-137930000D03*
X121580000Y-137530000D03*
X121580000Y-137130000D03*
X121580000Y-136730000D03*
X121580000Y-136330000D03*
X121580000Y-135930000D03*
X121580000Y-135530000D03*
X121580000Y-135130000D03*
X121580000Y-134730000D03*
X121580000Y-134330000D03*
X121580000Y-133930000D03*
X121580000Y-133530000D03*
D34*
X118145000Y-136130000D03*
D35*
X122745000Y-75750000D03*
X118705000Y-75750000D03*
D13*
X139487246Y-61600000D03*
D14*
X146987246Y-61600000D03*
D36*
X110000000Y-138325000D03*
X110000000Y-136675000D03*
D37*
X133200000Y-134750000D03*
D38*
X133200000Y-133480000D03*
D39*
X108203700Y-130200400D03*
X108203700Y-130850400D03*
X108203700Y-131500400D03*
X108203700Y-132150400D03*
X108203700Y-132800400D03*
D40*
X108203700Y-129000400D03*
X108203700Y-134000400D03*
D41*
X105503700Y-128000400D03*
D42*
X105503700Y-130500400D03*
X105503700Y-132500400D03*
D41*
X105503700Y-135000400D03*
D43*
X114700000Y-69950000D03*
X115720000Y-69950000D03*
D44*
X113165000Y-73425000D03*
D45*
X110625000Y-82575000D03*
D44*
X108085000Y-73425000D03*
D46*
X125800000Y-100300000D03*
X125800000Y-102125000D03*
D47*
X114700000Y-61600000D03*
D48*
X108600000Y-61600000D03*
D49*
X111700000Y-66200000D03*
D26*
X129825000Y-79700000D03*
X131475000Y-79700000D03*
D50*
X113300000Y-139980000D03*
X113300000Y-139020000D03*
D30*
X120325000Y-85485000D03*
D31*
X129475000Y-88025000D03*
D30*
X120325000Y-90565000D03*
D13*
X139587246Y-98400000D03*
D14*
X147087246Y-98400000D03*
D28*
X127750000Y-70875000D03*
X127750000Y-67925000D03*
D51*
X110485000Y-134715000D03*
X112685000Y-134715000D03*
X112685000Y-133015000D03*
X110485000Y-133015000D03*
D52*
X131405000Y-54725000D03*
D53*
X129125000Y-61025000D03*
D52*
X126845000Y-54725000D03*
D17*
X119125000Y-105000000D03*
X120675000Y-105000000D03*
D46*
X122000000Y-100300000D03*
X122000000Y-102125000D03*
D54*
X126500000Y-75137500D03*
X127450000Y-75137500D03*
X128400000Y-75137500D03*
X128400000Y-72862500D03*
X127450000Y-72862500D03*
X126500000Y-72862500D03*
D15*
X123805000Y-135065000D03*
X124765000Y-135065000D03*
D13*
X139587246Y-134600000D03*
D14*
X147087246Y-134600000D03*
D55*
X111495000Y-96255000D03*
D56*
X111495000Y-101335000D03*
D57*
X122725000Y-69850000D03*
X118725000Y-69850000D03*
D46*
X119800000Y-100287500D03*
X119800000Y-102112500D03*
D20*
X129000000Y-143600000D03*
D21*
X130000000Y-143600000D03*
X131000000Y-143600000D03*
D50*
X112700000Y-131660000D03*
X112700000Y-130700000D03*
D26*
X127560000Y-129165000D03*
X129210000Y-129165000D03*
D15*
X111655000Y-136465000D03*
X112615000Y-136465000D03*
D58*
X122100000Y-64935000D03*
X122100000Y-58565000D03*
D50*
X117000000Y-131095000D03*
X117000000Y-130135000D03*
D11*
X108560000Y-136800000D03*
X107600000Y-136800000D03*
D15*
X123205000Y-140065000D03*
X124165000Y-140065000D03*
M02*
