G04 #@! TF.GenerationSoftware,KiCad,Pcbnew,8.0.5*
G04 #@! TF.CreationDate,2024-12-11T09:51:45-08:00*
G04 #@! TF.ProjectId,OpenPEMF_Final,4f70656e-5045-44d4-965f-46696e616c2e,rev?*
G04 #@! TF.SameCoordinates,Original*
G04 #@! TF.FileFunction,Copper,L4,Bot*
G04 #@! TF.FilePolarity,Positive*
%FSLAX46Y46*%
G04 Gerber Fmt 4.6, Leading zero omitted, Abs format (unit mm)*
G04 Created by KiCad (PCBNEW 8.0.5) date 2024-12-11 09:51:45*
%MOMM*%
%LPD*%
G01*
G04 APERTURE LIST*
G04 Aperture macros list*
%AMRoundRect*
0 Rectangle with rounded corners*
0 $1 Rounding radius*
0 $2 $3 $4 $5 $6 $7 $8 $9 X,Y pos of 4 corners*
0 Add a 4 corners polygon primitive as box body*
4,1,4,$2,$3,$4,$5,$6,$7,$8,$9,$2,$3,0*
0 Add four circle primitives for the rounded corners*
1,1,$1+$1,$2,$3*
1,1,$1+$1,$4,$5*
1,1,$1+$1,$6,$7*
1,1,$1+$1,$8,$9*
0 Add four rect primitives between the rounded corners*
20,1,$1+$1,$2,$3,$4,$5,0*
20,1,$1+$1,$4,$5,$6,$7,0*
20,1,$1+$1,$6,$7,$8,$9,0*
20,1,$1+$1,$8,$9,$2,$3,0*%
G04 Aperture macros list end*
G04 #@! TA.AperFunction,ComponentPad*
%ADD10R,2.400000X2.400000*%
G04 #@! TD*
G04 #@! TA.AperFunction,ComponentPad*
%ADD11C,2.400000*%
G04 #@! TD*
G04 #@! TA.AperFunction,ComponentPad*
%ADD12R,0.850000X0.850000*%
G04 #@! TD*
G04 #@! TA.AperFunction,ComponentPad*
%ADD13O,0.850000X0.850000*%
G04 #@! TD*
G04 #@! TA.AperFunction,ComponentPad*
%ADD14R,1.000000X1.000000*%
G04 #@! TD*
G04 #@! TA.AperFunction,ComponentPad*
%ADD15O,1.000000X1.000000*%
G04 #@! TD*
G04 #@! TA.AperFunction,ComponentPad*
%ADD16O,0.650000X1.300000*%
G04 #@! TD*
G04 #@! TA.AperFunction,ComponentPad*
%ADD17O,1.550000X0.775000*%
G04 #@! TD*
G04 #@! TA.AperFunction,ComponentPad*
%ADD18R,3.500000X3.500000*%
G04 #@! TD*
G04 #@! TA.AperFunction,ComponentPad*
%ADD19RoundRect,0.750000X-0.750000X-1.000000X0.750000X-1.000000X0.750000X1.000000X-0.750000X1.000000X0*%
G04 #@! TD*
G04 #@! TA.AperFunction,ComponentPad*
%ADD20RoundRect,0.875000X-0.875000X-0.875000X0.875000X-0.875000X0.875000X0.875000X-0.875000X0.875000X0*%
G04 #@! TD*
G04 #@! TA.AperFunction,ComponentPad*
%ADD21R,2.600000X2.600000*%
G04 #@! TD*
G04 #@! TA.AperFunction,ComponentPad*
%ADD22C,2.600000*%
G04 #@! TD*
G04 #@! TA.AperFunction,SMDPad,CuDef*
%ADD23RoundRect,0.140000X0.140000X0.170000X-0.140000X0.170000X-0.140000X-0.170000X0.140000X-0.170000X0*%
G04 #@! TD*
G04 #@! TA.AperFunction,SMDPad,CuDef*
%ADD24RoundRect,0.250000X0.650000X-0.325000X0.650000X0.325000X-0.650000X0.325000X-0.650000X-0.325000X0*%
G04 #@! TD*
G04 #@! TA.AperFunction,SMDPad,CuDef*
%ADD25RoundRect,0.250000X0.325000X0.650000X-0.325000X0.650000X-0.325000X-0.650000X0.325000X-0.650000X0*%
G04 #@! TD*
G04 #@! TA.AperFunction,SMDPad,CuDef*
%ADD26RoundRect,0.200000X0.200000X0.275000X-0.200000X0.275000X-0.200000X-0.275000X0.200000X-0.275000X0*%
G04 #@! TD*
G04 #@! TA.AperFunction,SMDPad,CuDef*
%ADD27RoundRect,0.225000X0.250000X-0.225000X0.250000X0.225000X-0.250000X0.225000X-0.250000X-0.225000X0*%
G04 #@! TD*
G04 #@! TA.AperFunction,SMDPad,CuDef*
%ADD28RoundRect,0.250000X-0.325000X-0.650000X0.325000X-0.650000X0.325000X0.650000X-0.325000X0.650000X0*%
G04 #@! TD*
G04 #@! TA.AperFunction,SMDPad,CuDef*
%ADD29RoundRect,0.225000X0.225000X0.375000X-0.225000X0.375000X-0.225000X-0.375000X0.225000X-0.375000X0*%
G04 #@! TD*
G04 #@! TA.AperFunction,SMDPad,CuDef*
%ADD30RoundRect,0.250000X-0.650000X0.325000X-0.650000X-0.325000X0.650000X-0.325000X0.650000X0.325000X0*%
G04 #@! TD*
G04 #@! TA.AperFunction,SMDPad,CuDef*
%ADD31RoundRect,0.317500X-0.317500X0.382500X-0.317500X-0.382500X0.317500X-0.382500X0.317500X0.382500X0*%
G04 #@! TD*
G04 #@! TA.AperFunction,SMDPad,CuDef*
%ADD32R,4.720000X4.800000*%
G04 #@! TD*
G04 #@! TA.AperFunction,SMDPad,CuDef*
%ADD33RoundRect,0.250000X-0.600000X0.400000X-0.600000X-0.400000X0.600000X-0.400000X0.600000X0.400000X0*%
G04 #@! TD*
G04 #@! TA.AperFunction,SMDPad,CuDef*
%ADD34RoundRect,0.135000X-0.185000X0.135000X-0.185000X-0.135000X0.185000X-0.135000X0.185000X0.135000X0*%
G04 #@! TD*
G04 #@! TA.AperFunction,SMDPad,CuDef*
%ADD35RoundRect,0.317500X0.382500X0.317500X-0.382500X0.317500X-0.382500X-0.317500X0.382500X-0.317500X0*%
G04 #@! TD*
G04 #@! TA.AperFunction,SMDPad,CuDef*
%ADD36R,4.800000X4.720000*%
G04 #@! TD*
G04 #@! TA.AperFunction,SMDPad,CuDef*
%ADD37RoundRect,0.250000X0.600000X-0.400000X0.600000X0.400000X-0.600000X0.400000X-0.600000X-0.400000X0*%
G04 #@! TD*
G04 #@! TA.AperFunction,SMDPad,CuDef*
%ADD38RoundRect,0.225000X-0.375000X0.225000X-0.375000X-0.225000X0.375000X-0.225000X0.375000X0.225000X0*%
G04 #@! TD*
G04 #@! TA.AperFunction,SMDPad,CuDef*
%ADD39RoundRect,0.140000X0.170000X-0.140000X0.170000X0.140000X-0.170000X0.140000X-0.170000X-0.140000X0*%
G04 #@! TD*
G04 #@! TA.AperFunction,SMDPad,CuDef*
%ADD40RoundRect,0.140000X-0.170000X0.140000X-0.170000X-0.140000X0.170000X-0.140000X0.170000X0.140000X0*%
G04 #@! TD*
G04 #@! TA.AperFunction,SMDPad,CuDef*
%ADD41RoundRect,0.200000X-0.200000X-0.275000X0.200000X-0.275000X0.200000X0.275000X-0.200000X0.275000X0*%
G04 #@! TD*
G04 #@! TA.AperFunction,SMDPad,CuDef*
%ADD42R,1.219200X0.558800*%
G04 #@! TD*
G04 #@! TA.AperFunction,SMDPad,CuDef*
%ADD43R,0.558800X1.219200*%
G04 #@! TD*
G04 #@! TA.AperFunction,SMDPad,CuDef*
%ADD44RoundRect,0.150000X0.825000X0.150000X-0.825000X0.150000X-0.825000X-0.150000X0.825000X-0.150000X0*%
G04 #@! TD*
G04 #@! TA.AperFunction,SMDPad,CuDef*
%ADD45RoundRect,0.150000X-0.150000X0.825000X-0.150000X-0.825000X0.150000X-0.825000X0.150000X0.825000X0*%
G04 #@! TD*
G04 #@! TA.AperFunction,SMDPad,CuDef*
%ADD46RoundRect,0.225000X0.375000X-0.225000X0.375000X0.225000X-0.375000X0.225000X-0.375000X-0.225000X0*%
G04 #@! TD*
G04 #@! TA.AperFunction,SMDPad,CuDef*
%ADD47R,1.500000X2.000000*%
G04 #@! TD*
G04 #@! TA.AperFunction,SMDPad,CuDef*
%ADD48R,3.800000X2.000000*%
G04 #@! TD*
G04 #@! TA.AperFunction,SMDPad,CuDef*
%ADD49RoundRect,0.135000X-0.135000X-0.185000X0.135000X-0.185000X0.135000X0.185000X-0.135000X0.185000X0*%
G04 #@! TD*
G04 #@! TA.AperFunction,SMDPad,CuDef*
%ADD50RoundRect,0.317500X-0.382500X-0.317500X0.382500X-0.317500X0.382500X0.317500X-0.382500X0.317500X0*%
G04 #@! TD*
G04 #@! TA.AperFunction,SMDPad,CuDef*
%ADD51RoundRect,0.135000X0.135000X0.185000X-0.135000X0.185000X-0.135000X-0.185000X0.135000X-0.185000X0*%
G04 #@! TD*
G04 #@! TA.AperFunction,SMDPad,CuDef*
%ADD52RoundRect,0.250000X0.650000X-1.000000X0.650000X1.000000X-0.650000X1.000000X-0.650000X-1.000000X0*%
G04 #@! TD*
G04 #@! TA.AperFunction,SMDPad,CuDef*
%ADD53RoundRect,0.200000X0.275000X-0.200000X0.275000X0.200000X-0.275000X0.200000X-0.275000X-0.200000X0*%
G04 #@! TD*
G04 #@! TA.AperFunction,ViaPad*
%ADD54C,0.800000*%
G04 #@! TD*
G04 #@! TA.AperFunction,ViaPad*
%ADD55C,0.500000*%
G04 #@! TD*
G04 #@! TA.AperFunction,Conductor*
%ADD56C,0.500000*%
G04 #@! TD*
G04 #@! TA.AperFunction,Conductor*
%ADD57C,0.200000*%
G04 #@! TD*
G04 #@! TA.AperFunction,Conductor*
%ADD58C,0.250000*%
G04 #@! TD*
G04 #@! TA.AperFunction,Conductor*
%ADD59C,2.000000*%
G04 #@! TD*
G04 #@! TA.AperFunction,Conductor*
%ADD60C,1.000000*%
G04 #@! TD*
G04 #@! TA.AperFunction,Conductor*
%ADD61C,0.203200*%
G04 #@! TD*
G04 APERTURE END LIST*
D10*
X139487246Y-79550000D03*
D11*
X146987246Y-79550000D03*
D12*
X121885000Y-143565000D03*
D13*
X122885000Y-143565000D03*
X123885000Y-143565000D03*
D12*
X111600000Y-143600000D03*
D13*
X112600000Y-143600000D03*
X113600000Y-143600000D03*
X114600000Y-143600000D03*
X115600000Y-143600000D03*
X116600000Y-143600000D03*
X117600000Y-143600000D03*
X118600000Y-143600000D03*
D12*
X111500000Y-139000000D03*
D13*
X111500000Y-140000000D03*
X111500000Y-141000000D03*
X111500000Y-142000000D03*
D10*
X139587246Y-116400000D03*
D11*
X147087246Y-116400000D03*
D10*
X139487246Y-61600000D03*
D11*
X146987246Y-61600000D03*
D14*
X133200000Y-134750000D03*
D15*
X133200000Y-133480000D03*
D16*
X108203700Y-129000400D03*
X108203700Y-134000400D03*
D17*
X105503700Y-128000400D03*
X105503700Y-135000400D03*
D18*
X114700000Y-61600000D03*
D19*
X108600000Y-61600000D03*
D20*
X111700000Y-66200000D03*
D10*
X139587246Y-98400000D03*
D11*
X147087246Y-98400000D03*
D10*
X139587246Y-134600000D03*
D11*
X147087246Y-134600000D03*
D21*
X111495000Y-96255000D03*
D22*
X111495000Y-101335000D03*
D12*
X129000000Y-143600000D03*
D13*
X130000000Y-143600000D03*
X131000000Y-143600000D03*
D23*
X116580000Y-102300000D03*
X115620000Y-102300000D03*
D24*
X119600000Y-80350000D03*
X119600000Y-77400000D03*
D25*
X114275000Y-58300000D03*
X111325000Y-58300000D03*
D26*
X123075000Y-114000000D03*
X121425000Y-114000000D03*
D27*
X117900000Y-83875000D03*
X117900000Y-82325000D03*
D28*
X138175000Y-123600000D03*
X141125000Y-123600000D03*
D29*
X143650000Y-127150000D03*
X140350000Y-127150000D03*
D30*
X135300000Y-117875000D03*
X135300000Y-120825000D03*
D31*
X130695000Y-102160000D03*
X130695000Y-104240000D03*
D32*
X134500000Y-103200000D03*
D33*
X132750000Y-117250000D03*
X132750000Y-120750000D03*
D34*
X134850000Y-80090000D03*
X134850000Y-81110000D03*
D35*
X108640000Y-85895000D03*
X106560000Y-85895000D03*
D36*
X107600000Y-89700000D03*
D37*
X130450000Y-80600000D03*
X130450000Y-77100000D03*
D38*
X130100000Y-109075000D03*
X130100000Y-112375000D03*
D33*
X132750000Y-111800000D03*
X132750000Y-115300000D03*
D39*
X133900000Y-129480000D03*
X133900000Y-128520000D03*
D40*
X123250000Y-97770000D03*
X123250000Y-98730000D03*
D41*
X116675000Y-95000000D03*
X118325000Y-95000000D03*
D25*
X135575000Y-91750000D03*
X132625000Y-91750000D03*
D38*
X127750000Y-77100000D03*
X127750000Y-80400000D03*
D42*
X126740900Y-82665000D03*
X126740900Y-83935000D03*
X119959100Y-83935000D03*
X119959100Y-82665000D03*
D23*
X130880000Y-128150000D03*
X129920000Y-128150000D03*
D33*
X132800000Y-77100000D03*
X132800000Y-80600000D03*
D43*
X124735000Y-112090900D03*
X123465000Y-112090900D03*
X123465000Y-105309100D03*
X124735000Y-105309100D03*
D44*
X135475000Y-122895000D03*
X135475000Y-124165000D03*
X135475000Y-125435000D03*
X135475000Y-126705000D03*
X130525000Y-126705000D03*
X130525000Y-125435000D03*
X130525000Y-124165000D03*
X130525000Y-122895000D03*
D24*
X122000000Y-80350000D03*
X122000000Y-77400000D03*
D45*
X117945000Y-97825000D03*
X119215000Y-97825000D03*
X120485000Y-97825000D03*
X121755000Y-97825000D03*
X121755000Y-102775000D03*
X120485000Y-102775000D03*
X119215000Y-102775000D03*
X117945000Y-102775000D03*
D46*
X125300000Y-80400000D03*
X125300000Y-77100000D03*
D26*
X128325000Y-85400000D03*
X126675000Y-85400000D03*
D25*
X119275000Y-122200000D03*
X116325000Y-122200000D03*
D29*
X138750000Y-129650000D03*
X135450000Y-129650000D03*
D47*
X116850000Y-127725000D03*
X119150000Y-127725000D03*
D48*
X119150000Y-134025000D03*
D47*
X121450000Y-127725000D03*
D41*
X121650000Y-95250000D03*
X123300000Y-95250000D03*
D49*
X137830000Y-125400000D03*
X138850000Y-125400000D03*
D25*
X119275000Y-119700000D03*
X116325000Y-119700000D03*
X119275000Y-124700000D03*
X116325000Y-124700000D03*
D50*
X106560000Y-112005000D03*
X108640000Y-112005000D03*
D36*
X107600000Y-108200000D03*
D23*
X130780000Y-121400000D03*
X129820000Y-121400000D03*
D51*
X130310000Y-119300000D03*
X129290000Y-119300000D03*
D52*
X106400000Y-100800000D03*
X106400000Y-96800000D03*
D24*
X129100000Y-117450000D03*
X129100000Y-114500000D03*
D30*
X126500000Y-72325000D03*
X126500000Y-75275000D03*
D25*
X133175000Y-83250000D03*
X130225000Y-83250000D03*
D53*
X128150000Y-125725000D03*
X128150000Y-124075000D03*
D24*
X124550000Y-128225000D03*
X124550000Y-125275000D03*
D46*
X127650000Y-112384800D03*
X127650000Y-109084800D03*
D53*
X128150000Y-122575000D03*
X128150000Y-120925000D03*
D31*
X130635000Y-95560000D03*
X130635000Y-97640000D03*
D32*
X134440000Y-96600000D03*
D25*
X135625000Y-109050000D03*
X132675000Y-109050000D03*
D40*
X138850000Y-126620000D03*
X138850000Y-127580000D03*
D54*
X124000000Y-129400000D03*
X132200000Y-124100000D03*
X119389099Y-106549149D03*
X114300000Y-131000000D03*
X135100000Y-127500000D03*
X118800000Y-79300000D03*
X106400000Y-136800000D03*
X107750000Y-69500000D03*
X109750000Y-123750000D03*
X111750000Y-124750000D03*
X134700000Y-72900000D03*
D55*
X116400000Y-129300000D03*
D54*
X104250000Y-88250000D03*
X107200000Y-136000000D03*
X125100000Y-131900000D03*
X133700000Y-66800000D03*
X114750000Y-122750000D03*
X111031754Y-137531754D03*
X104250000Y-89250000D03*
X104250000Y-117250000D03*
X110750000Y-124750000D03*
X109750000Y-122750000D03*
X106750000Y-68500000D03*
D55*
X115900000Y-134500000D03*
D54*
X123250000Y-99750000D03*
X108750000Y-69500000D03*
X104250000Y-112250000D03*
X104250000Y-118250000D03*
X121500000Y-125800000D03*
X133600000Y-122600000D03*
D55*
X117100000Y-129300000D03*
D54*
X121500000Y-124000000D03*
X104250000Y-91250000D03*
X104250000Y-90250000D03*
X132300000Y-72900000D03*
X114300000Y-93800000D03*
X110750000Y-123750000D03*
X125400000Y-139300000D03*
X114750000Y-124750000D03*
X111750000Y-122750000D03*
X132000000Y-69300000D03*
X122600000Y-83400000D03*
X104250000Y-115250000D03*
X110750000Y-122750000D03*
X133700000Y-69300000D03*
X108750000Y-68500000D03*
X132000000Y-66800000D03*
X131800000Y-139700000D03*
X104250000Y-92250000D03*
D55*
X119400000Y-81700000D03*
D54*
X122400000Y-124900000D03*
X126400000Y-137100000D03*
X132907109Y-123392891D03*
X106750000Y-69500000D03*
X125400000Y-140300000D03*
X116200000Y-141900000D03*
X112100000Y-130500000D03*
X104250000Y-114250000D03*
X121500000Y-124900000D03*
D55*
X117700000Y-104800000D03*
D54*
X122600000Y-84100000D03*
D55*
X118800000Y-83100000D03*
D54*
X109750000Y-124750000D03*
X119400000Y-138200000D03*
X107750000Y-68500000D03*
X104250000Y-113250000D03*
X105750000Y-68500000D03*
X111750000Y-123750000D03*
X114750000Y-123750000D03*
X105750000Y-69500000D03*
X134700000Y-76600000D03*
X122400000Y-125800000D03*
X104250000Y-116250000D03*
X104250000Y-87250000D03*
X122400000Y-124000000D03*
X104250000Y-86250000D03*
D55*
X120900000Y-111200000D03*
D54*
X123894975Y-117794975D03*
X136600000Y-128500000D03*
X126750000Y-95250000D03*
X126750000Y-94500000D03*
X126750000Y-96750000D03*
X116700000Y-82400000D03*
X126750000Y-96000000D03*
D55*
X116600000Y-133900000D03*
D54*
X120625006Y-136615000D03*
X132260000Y-130665000D03*
X123285000Y-141315000D03*
X129585000Y-140565000D03*
X117145000Y-138610000D03*
X115730025Y-135919975D03*
D55*
X118972182Y-129172182D03*
D54*
X127000000Y-103750000D03*
X127000000Y-104750000D03*
X110800000Y-119600000D03*
X127000000Y-101750000D03*
X127000000Y-102750000D03*
X111500000Y-120000000D03*
D55*
X126800000Y-106700000D03*
D54*
X112100000Y-120600000D03*
D55*
X131400000Y-120700000D03*
X130300000Y-120100000D03*
D54*
X115600000Y-56700000D03*
X111500000Y-56050000D03*
X110543424Y-130840733D03*
D55*
X125182568Y-137916600D03*
D54*
X111024428Y-129897101D03*
D55*
X125182568Y-137213400D03*
D54*
X121200000Y-83600000D03*
X121800000Y-108900000D03*
D55*
X118407088Y-130788595D03*
X115889647Y-131825500D03*
D54*
X114150000Y-126374704D03*
D55*
X119850000Y-126098714D03*
X117768890Y-131075000D03*
D54*
X123500000Y-81500000D03*
X126791990Y-81208010D03*
X117100000Y-73800000D03*
D56*
X118425000Y-131775000D02*
X120150000Y-130050000D01*
X124550000Y-128225000D02*
X124550000Y-128850000D01*
D57*
X117470000Y-102300000D02*
X117945000Y-102775000D01*
D56*
X120150000Y-129760550D02*
X121450000Y-128460550D01*
D57*
X119815000Y-104128900D02*
X119815000Y-106123248D01*
D56*
X119600000Y-80100000D02*
X118800000Y-79300000D01*
D58*
X129820000Y-121400000D02*
X129820000Y-122190000D01*
D56*
X114300000Y-131000000D02*
X114574500Y-130725500D01*
D58*
X135100000Y-127400000D02*
X135100000Y-127500000D01*
D56*
X117478940Y-131775000D02*
X118425000Y-131775000D01*
D58*
X129345000Y-120925000D02*
X129820000Y-121400000D01*
X135475000Y-126705000D02*
X135475000Y-127025000D01*
D57*
X116580000Y-102300000D02*
X117470000Y-102300000D01*
D56*
X124550000Y-128225000D02*
X121950000Y-128225000D01*
D57*
X119305939Y-101072665D02*
X117945000Y-102433604D01*
D56*
X120150000Y-130050000D02*
X120150000Y-129760550D01*
X114574500Y-130725500D02*
X116429440Y-130725500D01*
D58*
X135475000Y-127025000D02*
X135100000Y-127400000D01*
D57*
X119815000Y-104128900D02*
X119815000Y-101581726D01*
D56*
X119600000Y-80350000D02*
X122000000Y-80350000D01*
D58*
X130995000Y-122895000D02*
X132200000Y-124100000D01*
X129820000Y-122190000D02*
X130525000Y-122895000D01*
D57*
X119815000Y-101581726D02*
X119305939Y-101072665D01*
X119815000Y-106123248D02*
X119389099Y-106549149D01*
D56*
X116429440Y-130725500D02*
X117478940Y-131775000D01*
D58*
X128150000Y-120925000D02*
X129345000Y-120925000D01*
D56*
X124550000Y-128850000D02*
X124000000Y-129400000D01*
D58*
X117700000Y-104359720D02*
X117700000Y-104800000D01*
X116265280Y-102925000D02*
X117700000Y-104359720D01*
D57*
X131400000Y-121400000D02*
X132895000Y-122895000D01*
D58*
X123300000Y-94300000D02*
X123800000Y-93800000D01*
D57*
X133895000Y-122895000D02*
X135475000Y-122895000D01*
X133600000Y-122600000D02*
X133895000Y-122895000D01*
X132895000Y-122895000D02*
X133305000Y-122895000D01*
X130780000Y-121400000D02*
X131400000Y-121400000D01*
D58*
X116325000Y-124700000D02*
X116325000Y-125575000D01*
X115200000Y-126700000D02*
X116225000Y-127725000D01*
X116237391Y-102925000D02*
X116265280Y-102925000D01*
X123250000Y-98730000D02*
X123250000Y-99750000D01*
D57*
X133305000Y-122895000D02*
X133600000Y-122600000D01*
D58*
X123300000Y-95250000D02*
X123300000Y-94300000D01*
X116325000Y-125575000D02*
X115200000Y-126700000D01*
X115620000Y-102307609D02*
X116237391Y-102925000D01*
D57*
X119050000Y-115625000D02*
X121219975Y-117794975D01*
D58*
X119840000Y-97000000D02*
X119840000Y-98826751D01*
X119840000Y-98826751D02*
X122548960Y-101535711D01*
X122548960Y-101535711D02*
X122548960Y-102951041D01*
D57*
X122548960Y-103592435D02*
X122548960Y-102951041D01*
X121219975Y-117794975D02*
X123894975Y-117794975D01*
X122000000Y-105755635D02*
X122000000Y-104141395D01*
X118275000Y-114850000D02*
X118275000Y-109480635D01*
X118275000Y-109480635D02*
X122000000Y-105755635D01*
D58*
X134070000Y-129650000D02*
X133900000Y-129480000D01*
X119840000Y-96823249D02*
X119840000Y-97000000D01*
D57*
X136600000Y-128500000D02*
X135450000Y-129650000D01*
D58*
X121755000Y-97825000D02*
X123195000Y-97825000D01*
X120925000Y-96525000D02*
X120138249Y-96525000D01*
X120138249Y-96525000D02*
X119840000Y-96823249D01*
X121755000Y-97355000D02*
X120925000Y-96525000D01*
X135450000Y-129650000D02*
X134070000Y-129650000D01*
D57*
X119050000Y-115625000D02*
X118275000Y-114850000D01*
X122000000Y-104141395D02*
X122548960Y-103592435D01*
X135625000Y-106575000D02*
X134900000Y-105850000D01*
X135625000Y-109050000D02*
X135625000Y-106575000D01*
D59*
X111495000Y-96255000D02*
X106945000Y-96255000D01*
X107600000Y-92360000D02*
X111495000Y-96255000D01*
D57*
X134850000Y-89525000D02*
X132625000Y-91750000D01*
X116775000Y-82325000D02*
X116700000Y-82400000D01*
D59*
X106945000Y-96255000D02*
X106400000Y-96800000D01*
D57*
X134850000Y-81110000D02*
X134850000Y-89525000D01*
X117900000Y-82325000D02*
X116775000Y-82325000D01*
D59*
X107600000Y-89700000D02*
X107600000Y-92360000D01*
D56*
X118237563Y-144475000D02*
X118227563Y-144465000D01*
X125685000Y-144465000D02*
X125685000Y-141740000D01*
X127810000Y-135490000D02*
X126185000Y-133865000D01*
X126185000Y-133865000D02*
X123435000Y-136615000D01*
X119150000Y-134025000D02*
X119150000Y-135139994D01*
X123710000Y-141740000D02*
X123285000Y-141315000D01*
X110400000Y-139000000D02*
X111500000Y-139000000D01*
X123435000Y-136615000D02*
X120625006Y-136615000D01*
X127685000Y-132365000D02*
X130560000Y-132365000D01*
X130560000Y-132365000D02*
X132260000Y-130665000D01*
X119150000Y-127725000D02*
X119150000Y-119825000D01*
D58*
X116711040Y-138610000D02*
X115730025Y-137628985D01*
D56*
X112962437Y-144475000D02*
X110725000Y-144475000D01*
X115962437Y-144475000D02*
X115237563Y-144475000D01*
X106647563Y-144465000D02*
X105100000Y-142917437D01*
X114237563Y-144475000D02*
X114227563Y-144465000D01*
X115972437Y-144465000D02*
X115962437Y-144475000D01*
X114972437Y-144465000D02*
X114962437Y-144475000D01*
X117972437Y-144465000D02*
X117962437Y-144475000D01*
X112972437Y-144465000D02*
X112962437Y-144475000D01*
X118972437Y-144465000D02*
X118962437Y-144475000D01*
X116972437Y-144465000D02*
X116962437Y-144475000D01*
X116237563Y-144475000D02*
X116227563Y-144465000D01*
X115227563Y-144465000D02*
X114972437Y-144465000D01*
D57*
X119150000Y-127725000D02*
X119150000Y-128994364D01*
D58*
X115730025Y-137628985D02*
X115730025Y-135919975D01*
D56*
X110725000Y-144465000D02*
X106647563Y-144465000D01*
X125685000Y-144465000D02*
X129585000Y-140565000D01*
X125685000Y-141740000D02*
X123710000Y-141740000D01*
X105100000Y-137800000D02*
X109200000Y-137800000D01*
X117237563Y-144475000D02*
X117227563Y-144465000D01*
X116675000Y-95000000D02*
X116675000Y-96325000D01*
X118962437Y-144475000D02*
X118237563Y-144475000D01*
D58*
X119150000Y-134025000D02*
X116725000Y-134025000D01*
D56*
X115237563Y-144475000D02*
X115227563Y-144465000D01*
X117227563Y-144465000D02*
X116972437Y-144465000D01*
X113237563Y-144475000D02*
X113227563Y-144465000D01*
X113972437Y-144465000D02*
X113962437Y-144475000D01*
X113962437Y-144475000D02*
X113237563Y-144475000D01*
D58*
X117625000Y-134025000D02*
X115730025Y-135919975D01*
D56*
X105100000Y-142917437D02*
X105100000Y-137800000D01*
X114227563Y-144465000D02*
X113972437Y-144465000D01*
X103250000Y-141067437D02*
X105100000Y-142917437D01*
X117962437Y-144475000D02*
X117237563Y-144475000D01*
X119150000Y-135139994D02*
X120625006Y-136615000D01*
X126185000Y-133865000D02*
X127685000Y-132365000D01*
X104500000Y-98750000D02*
X103250000Y-100000000D01*
X103250000Y-100000000D02*
X103250000Y-141067437D01*
X125685000Y-141740000D02*
X127810000Y-139615000D01*
X114250000Y-98750000D02*
X104500000Y-98750000D01*
X110725000Y-144475000D02*
X110725000Y-144465000D01*
X116227563Y-144465000D02*
X115972437Y-144465000D01*
D58*
X116725000Y-134025000D02*
X116600000Y-133900000D01*
X117145000Y-138610000D02*
X116711040Y-138610000D01*
D56*
X116675000Y-96325000D02*
X114250000Y-98750000D01*
X125685000Y-144465000D02*
X118972437Y-144465000D01*
X113227563Y-144465000D02*
X112972437Y-144465000D01*
D57*
X119150000Y-128994364D02*
X118972182Y-129172182D01*
D56*
X127810000Y-139615000D02*
X127810000Y-135490000D01*
X109200000Y-137800000D02*
X110400000Y-139000000D01*
X118227563Y-144465000D02*
X117972437Y-144465000D01*
X116962437Y-144475000D02*
X116237563Y-144475000D01*
X114962437Y-144475000D02*
X114237563Y-144475000D01*
D59*
X106935000Y-101335000D02*
X106400000Y-100800000D01*
D57*
X126750000Y-109527262D02*
X126750000Y-106750000D01*
X126750000Y-106750000D02*
X126800000Y-106700000D01*
D60*
X110900000Y-119400000D02*
X111500000Y-120000000D01*
D57*
X130200000Y-110800000D02*
X128022738Y-110800000D01*
X132675000Y-107625000D02*
X130900000Y-105850000D01*
X131000000Y-117674817D02*
X131000000Y-111600000D01*
D59*
X111495000Y-101335000D02*
X106935000Y-101335000D01*
D57*
X131000000Y-111600000D02*
X130200000Y-110800000D01*
D60*
X111500000Y-120000000D02*
X112100000Y-120600000D01*
D57*
X128022738Y-110800000D02*
X126750000Y-109527262D01*
D59*
X107600000Y-105230000D02*
X111495000Y-101335000D01*
X107600000Y-108200000D02*
X107600000Y-105230000D01*
D57*
X129374817Y-119300000D02*
X131000000Y-117674817D01*
X132675000Y-109050000D02*
X132675000Y-107625000D01*
X126334100Y-105309100D02*
X130100000Y-109075000D01*
X135300000Y-114350000D02*
X132750000Y-111800000D01*
X135300000Y-117875000D02*
X135300000Y-114350000D01*
X124735000Y-105309100D02*
X126334100Y-105309100D01*
X132750000Y-111725000D02*
X130100000Y-109075000D01*
X130365686Y-110400000D02*
X128965200Y-110400000D01*
X132825000Y-120825000D02*
X135300000Y-120825000D01*
X128965200Y-110400000D02*
X127650000Y-109084800D01*
X131400000Y-120700000D02*
X132700000Y-120700000D01*
X130310000Y-119300000D02*
X130310000Y-120090000D01*
X131400000Y-118210000D02*
X131400000Y-111434314D01*
X130310000Y-119300000D02*
X131400000Y-118210000D01*
X130310000Y-120090000D02*
X130300000Y-120100000D01*
X131400000Y-111434314D02*
X130365686Y-110400000D01*
X133750000Y-84450000D02*
X131425000Y-84450000D01*
X132800000Y-80600000D02*
X134050000Y-81850000D01*
X131425000Y-84450000D02*
X130225000Y-83250000D01*
X134850000Y-80090000D02*
X134340000Y-80600000D01*
X127750000Y-80400000D02*
X127750000Y-80775000D01*
X134340000Y-80600000D02*
X132800000Y-80600000D01*
X134050000Y-84150000D02*
X133750000Y-84450000D01*
X127750000Y-80775000D02*
X130225000Y-83250000D01*
X134050000Y-81850000D02*
X134050000Y-84150000D01*
X114275000Y-58025000D02*
X115600000Y-56700000D01*
D58*
X111500000Y-56050000D02*
X111500000Y-58125000D01*
D57*
X125300000Y-80689950D02*
X123324950Y-82665000D01*
X130525000Y-80600000D02*
X133175000Y-83250000D01*
X126050000Y-79650000D02*
X129500000Y-79650000D01*
X123324950Y-82665000D02*
X119959100Y-82665000D01*
X129500000Y-79650000D02*
X130450000Y-80600000D01*
X125300000Y-80400000D02*
X126050000Y-79650000D01*
X132750000Y-115300000D02*
X132750000Y-117250000D01*
X130235000Y-125725000D02*
X130525000Y-125435000D01*
X131954950Y-125435000D02*
X133224950Y-124165000D01*
X133224950Y-124165000D02*
X135475000Y-124165000D01*
X136040000Y-123600000D02*
X138175000Y-123600000D01*
X130525000Y-125435000D02*
X131954950Y-125435000D01*
X128150000Y-125725000D02*
X130235000Y-125725000D01*
X135475000Y-124165000D02*
X136040000Y-123600000D01*
X130525000Y-126705000D02*
X130525000Y-127545000D01*
X130525000Y-127545000D02*
X129920000Y-128150000D01*
D61*
X125034169Y-137768201D02*
X124919169Y-137768201D01*
X124919169Y-137768201D02*
X119919170Y-142768200D01*
X110543424Y-134362622D02*
X110543424Y-130840733D01*
X118900752Y-142768200D02*
X110846800Y-134714248D01*
X125182568Y-137916600D02*
X125034169Y-137768201D01*
X110846800Y-134665998D02*
X110543424Y-134362622D01*
X110846800Y-134714248D02*
X110846800Y-134665998D01*
X119919170Y-142768200D02*
X118900752Y-142768200D01*
X111195024Y-130067697D02*
X111024428Y-129897101D01*
X124750831Y-137361799D02*
X119750830Y-142361800D01*
X110896624Y-131409035D02*
X111195024Y-131110635D01*
X111195024Y-131110635D02*
X111195024Y-130067697D01*
X125034169Y-137361799D02*
X124750831Y-137361799D01*
X111200000Y-134519698D02*
X110896624Y-134216322D01*
X119193852Y-142361800D02*
X118133652Y-141301600D01*
X119750830Y-142361800D02*
X119193852Y-142361800D01*
X117933652Y-141301600D02*
X111200000Y-134567948D01*
X110896624Y-134216322D02*
X110896624Y-131409035D01*
X125182568Y-137213400D02*
X125034169Y-137361799D01*
X118133652Y-141301600D02*
X117933652Y-141301600D01*
X111200000Y-134567948D02*
X111200000Y-134519698D01*
D58*
X121200000Y-83600000D02*
X120294100Y-83600000D01*
X119959100Y-83935000D02*
X117960000Y-83935000D01*
X120294100Y-83600000D02*
X119959100Y-83935000D01*
D57*
X135475000Y-125435000D02*
X137795000Y-125435000D01*
D58*
X123465000Y-107235000D02*
X121800000Y-108900000D01*
X123465000Y-105309100D02*
X123465000Y-107235000D01*
D57*
X127750000Y-77100000D02*
X127750000Y-76525000D01*
X125300000Y-77100000D02*
X125300000Y-76475000D01*
X125300000Y-76475000D02*
X126500000Y-75275000D01*
X127750000Y-76525000D02*
X126500000Y-75275000D01*
X130100000Y-113500000D02*
X129100000Y-114500000D01*
X130100000Y-112375000D02*
X130100000Y-113500000D01*
X127650000Y-112384800D02*
X130090200Y-112384800D01*
X138850000Y-127580000D02*
X139920000Y-127580000D01*
X139920000Y-127580000D02*
X140350000Y-127150000D01*
X138850000Y-129550000D02*
X138850000Y-127580000D01*
X130450000Y-77100000D02*
X132800000Y-77100000D01*
X120485000Y-101586040D02*
X120485000Y-102775000D01*
X120875000Y-96025000D02*
X119400000Y-96025000D01*
X119400000Y-96025000D02*
X119225000Y-96025000D01*
X119215000Y-96210000D02*
X119400000Y-96025000D01*
X119215000Y-97825000D02*
X119215000Y-100316040D01*
X121650000Y-95250000D02*
X120875000Y-96025000D01*
X119215000Y-97825000D02*
X119215000Y-96210000D01*
X119225000Y-96025000D02*
X118450000Y-95250000D01*
X119215000Y-100316040D02*
X120485000Y-101586040D01*
X127325000Y-84938604D02*
X127325000Y-85861396D01*
X122331371Y-114600001D02*
X124231370Y-116500000D01*
X124645000Y-101885862D02*
X124645000Y-103432818D01*
X122885600Y-104399500D02*
X122885600Y-106014400D01*
X125300000Y-117144365D02*
X125300000Y-118055636D01*
X120800000Y-125493503D02*
X120400000Y-125893503D01*
X124800016Y-101730845D02*
X124645000Y-101885862D01*
X120400000Y-128700000D02*
X118407088Y-130692912D01*
X124645001Y-94793476D02*
X124645001Y-100555052D01*
X121100000Y-109300000D02*
X122331371Y-110531371D01*
X122885600Y-106014400D02*
X121100000Y-107800000D01*
X124645000Y-103432818D02*
X123678318Y-104399500D01*
X126850796Y-84464400D02*
X127325000Y-84938604D01*
X127325000Y-85861396D02*
X125200000Y-87986396D01*
X120400000Y-125893503D02*
X120400000Y-128700000D01*
X124655636Y-116500000D02*
X125300000Y-117144365D01*
X126740900Y-82665000D02*
X125881300Y-83524600D01*
X123678318Y-104399500D02*
X122885600Y-104399500D01*
X125881300Y-84464400D02*
X126850796Y-84464400D01*
X125881300Y-83524600D02*
X125881300Y-84464400D01*
X124645001Y-100555052D02*
X124800016Y-100710067D01*
X121100000Y-107800000D02*
X121100000Y-109300000D01*
X124800016Y-100710067D02*
X124800016Y-101730845D01*
X125300000Y-118055636D02*
X120800000Y-122555636D01*
X125200000Y-94238477D02*
X124645001Y-94793476D01*
X122331371Y-110531371D02*
X122331371Y-114600001D01*
X124231370Y-116500000D02*
X124655636Y-116500000D01*
X120800000Y-122555636D02*
X120800000Y-125493503D01*
X125200000Y-87986396D02*
X125200000Y-94238477D01*
X118407088Y-130692912D02*
X118407088Y-130788595D01*
X126200000Y-128327817D02*
X126200000Y-113555900D01*
X115889647Y-131825500D02*
X116100000Y-132035853D01*
X116100000Y-132165686D02*
X116659315Y-132725000D01*
X126200000Y-113555900D02*
X124735000Y-112090900D01*
X121802817Y-132725000D02*
X126200000Y-128327817D01*
X116100000Y-132035853D02*
X116100000Y-132165686D01*
X116659315Y-132725000D02*
X121802817Y-132725000D01*
X123465000Y-113610000D02*
X123465000Y-112090900D01*
X123075000Y-114000000D02*
X123465000Y-113610000D01*
D58*
X118360600Y-104039400D02*
X118360600Y-106340440D01*
X119215000Y-103185000D02*
X118360600Y-104039400D01*
X115425000Y-109276040D02*
X115425000Y-125099704D01*
X115425000Y-125099704D02*
X114150000Y-126374704D01*
X118360600Y-106340440D02*
X115425000Y-109276040D01*
D57*
X120300000Y-113977818D02*
X120300000Y-114234315D01*
X124900000Y-117310050D02*
X124900000Y-117889950D01*
X120485000Y-97825000D02*
X120485000Y-98870711D01*
X124489950Y-116900000D02*
X124900000Y-117310050D01*
X119550000Y-108771321D02*
X119550000Y-113227818D01*
X120400000Y-125327817D02*
X119850000Y-125877817D01*
X123025000Y-103682081D02*
X122400000Y-104307081D01*
X119550000Y-113227818D02*
X120300000Y-113977818D01*
X119850000Y-125877817D02*
X119850000Y-126098714D01*
X124900000Y-117889950D02*
X120400000Y-122389950D01*
X123025000Y-101410711D02*
X123025000Y-103682081D01*
X122965685Y-116900000D02*
X124489950Y-116900000D01*
X120485000Y-98870711D02*
X123025000Y-101410711D01*
X120300000Y-114234315D02*
X122965685Y-116900000D01*
X122400000Y-105921321D02*
X119550000Y-108771321D01*
X122400000Y-104307081D02*
X122400000Y-105921321D01*
X120400000Y-122389950D02*
X120400000Y-125327817D01*
X121755000Y-102775000D02*
X121200000Y-103330000D01*
X121200000Y-105989950D02*
X119189950Y-108000000D01*
X117900000Y-130512130D02*
X117768890Y-130643240D01*
X117768890Y-130643240D02*
X117768890Y-131075000D01*
X116600000Y-108710050D02*
X116600000Y-116477818D01*
X116600000Y-116477818D02*
X117900000Y-117777818D01*
X117310050Y-108000000D02*
X116600000Y-108710050D01*
X117900000Y-117777818D02*
X117900000Y-130512130D01*
X121200000Y-103330000D02*
X121200000Y-105989950D01*
X119189950Y-108000000D02*
X117310050Y-108000000D01*
X130525000Y-124165000D02*
X128240000Y-124165000D01*
X128150000Y-122575000D02*
X128150000Y-124075000D01*
D58*
X127875000Y-113936827D02*
X127097973Y-113159800D01*
X128695000Y-119675538D02*
X129494462Y-120475000D01*
X124000000Y-74825000D02*
X126500000Y-72325000D01*
X125225018Y-101906881D02*
X125225016Y-100534026D01*
X129100000Y-86000000D02*
X129100000Y-83485100D01*
X129100000Y-117450000D02*
X127875000Y-116225000D01*
X125070000Y-103608858D02*
X125070000Y-102061899D01*
X125225016Y-100534026D02*
X125070000Y-100379010D01*
X125070000Y-100379010D02*
X125070000Y-96208858D01*
X126725000Y-112837617D02*
X126725000Y-112786827D01*
X135425000Y-119925000D02*
X136625000Y-119925000D01*
X127097973Y-113159800D02*
X127047183Y-113159800D01*
X124000000Y-81100000D02*
X124000000Y-74825000D01*
D57*
X138850000Y-126620000D02*
X138850000Y-125400000D01*
D58*
X133725000Y-118225000D02*
X135425000Y-119925000D01*
D57*
X138850000Y-125400000D02*
X139050000Y-125200000D01*
D58*
X124130600Y-104548258D02*
X125070000Y-103608858D01*
X125625000Y-95653858D02*
X125625000Y-88100000D01*
X129531396Y-120475000D02*
X129731396Y-120675000D01*
X125070000Y-102061899D02*
X125225018Y-101906881D01*
X127025000Y-86700000D02*
X128400000Y-86700000D01*
X139050000Y-122350000D02*
X139050000Y-122722183D01*
X124075000Y-81175000D02*
X123750000Y-81500000D01*
D57*
X139050000Y-125200000D02*
X139050000Y-122722183D01*
D58*
X123750000Y-81500000D02*
X123500000Y-81500000D01*
X124130600Y-107230600D02*
X124130600Y-104548258D01*
X129731396Y-120675000D02*
X130538173Y-120675000D01*
X130538173Y-120675000D02*
X132988173Y-118225000D01*
X128695000Y-117855000D02*
X128695000Y-119675538D01*
X126725000Y-112786827D02*
X125339400Y-111401227D01*
X136625000Y-119925000D02*
X139050000Y-122350000D01*
X129494462Y-120475000D02*
X129531396Y-120475000D01*
X125339400Y-108439400D02*
X124130600Y-107230600D01*
X124075000Y-81175000D02*
X124000000Y-81100000D01*
X129100000Y-83485100D02*
X126789900Y-81175000D01*
X128400000Y-86700000D02*
X129100000Y-86000000D01*
X125070000Y-96208858D02*
X125625000Y-95653858D01*
X125339400Y-111401227D02*
X125339400Y-108439400D01*
X125625000Y-88100000D02*
X127025000Y-86700000D01*
X127047183Y-113159800D02*
X126725000Y-112837617D01*
X127875000Y-116225000D02*
X127875000Y-113936827D01*
X132988173Y-118225000D02*
X133725000Y-118225000D01*
D57*
X117945000Y-97825000D02*
X117500000Y-97380000D01*
X117500000Y-97380000D02*
X117500000Y-85000000D01*
X117500000Y-85000000D02*
X116000000Y-83500000D01*
X116000000Y-83500000D02*
X116000000Y-74900000D01*
X116000000Y-74900000D02*
X117100000Y-73800000D01*
X127071100Y-83935000D02*
X128000000Y-84863900D01*
X128000000Y-84863900D02*
X128000000Y-85300000D01*
G04 #@! TA.AperFunction,Conductor*
G36*
X151575621Y-52119590D02*
G01*
X151642640Y-52139339D01*
X151688344Y-52192187D01*
X151699500Y-52243590D01*
X151699500Y-145725754D01*
X151679815Y-145792793D01*
X151627011Y-145838548D01*
X151575428Y-145849754D01*
X102724428Y-145821571D01*
X102657400Y-145801848D01*
X102611676Y-145749017D01*
X102600500Y-145697571D01*
X102600500Y-141920087D01*
X102620185Y-141853048D01*
X102672989Y-141807293D01*
X102742147Y-141797349D01*
X102805703Y-141826374D01*
X102812181Y-141832406D01*
X104435032Y-143455257D01*
X104435053Y-143455280D01*
X106105397Y-145125624D01*
X106105405Y-145125630D01*
X106244690Y-145218697D01*
X106244693Y-145218698D01*
X106244701Y-145218704D01*
X106335369Y-145256259D01*
X106399481Y-145282816D01*
X106563791Y-145315499D01*
X106563795Y-145315500D01*
X106563796Y-145315500D01*
X106563797Y-145315500D01*
X106731330Y-145315500D01*
X110578748Y-145315500D01*
X110602938Y-145317882D01*
X110641231Y-145325499D01*
X110641232Y-145325500D01*
X110641233Y-145325500D01*
X113046204Y-145325500D01*
X113075810Y-145319611D01*
X113124190Y-145319611D01*
X113153796Y-145325500D01*
X114046204Y-145325500D01*
X114075810Y-145319611D01*
X114124190Y-145319611D01*
X114153796Y-145325500D01*
X115046204Y-145325500D01*
X115075810Y-145319611D01*
X115124190Y-145319611D01*
X115153796Y-145325500D01*
X116046204Y-145325500D01*
X116075810Y-145319611D01*
X116124190Y-145319611D01*
X116153796Y-145325500D01*
X117046204Y-145325500D01*
X117075810Y-145319611D01*
X117124190Y-145319611D01*
X117153796Y-145325500D01*
X118046204Y-145325500D01*
X118075810Y-145319611D01*
X118124190Y-145319611D01*
X118153796Y-145325500D01*
X119046205Y-145325500D01*
X119046205Y-145325499D01*
X119084498Y-145317882D01*
X119108689Y-145315500D01*
X125768768Y-145315500D01*
X125768769Y-145315499D01*
X125823538Y-145304605D01*
X125933074Y-145282818D01*
X125933078Y-145282816D01*
X125933082Y-145282816D01*
X125978415Y-145264037D01*
X126087863Y-145218704D01*
X126227162Y-145125627D01*
X129788787Y-141564000D01*
X129840467Y-141533024D01*
X129969727Y-141493814D01*
X130143538Y-141400910D01*
X130295883Y-141275883D01*
X130420910Y-141123538D01*
X130467362Y-141036632D01*
X130513811Y-140949733D01*
X130513811Y-140949732D01*
X130513814Y-140949727D01*
X130571024Y-140761132D01*
X130590341Y-140565000D01*
X130571024Y-140368868D01*
X130513814Y-140180273D01*
X130513811Y-140180269D01*
X130513811Y-140180266D01*
X130420913Y-140006467D01*
X130420909Y-140006460D01*
X130295883Y-139854116D01*
X130143539Y-139729090D01*
X130143532Y-139729086D01*
X129969733Y-139636188D01*
X129969727Y-139636186D01*
X129781132Y-139578976D01*
X129781129Y-139578975D01*
X129585000Y-139559659D01*
X129388870Y-139578975D01*
X129200266Y-139636188D01*
X129026467Y-139729086D01*
X129026460Y-139729090D01*
X128874116Y-139854116D01*
X128865418Y-139864715D01*
X128807670Y-139904047D01*
X128737826Y-139905914D01*
X128678059Y-139869724D01*
X128647346Y-139806967D01*
X128647951Y-139761854D01*
X128654469Y-139729086D01*
X128660500Y-139698767D01*
X128660500Y-139531233D01*
X128660500Y-135406233D01*
X128627816Y-135241918D01*
X128602898Y-135181762D01*
X128563704Y-135087137D01*
X128561651Y-135084065D01*
X128470627Y-134947838D01*
X128470624Y-134947834D01*
X127475469Y-133952680D01*
X127441984Y-133891357D01*
X127446968Y-133821665D01*
X127475469Y-133777318D01*
X127772789Y-133479999D01*
X132094785Y-133479999D01*
X132094785Y-133480000D01*
X132113602Y-133683082D01*
X132169417Y-133879247D01*
X132169422Y-133879260D01*
X132260327Y-134061821D01*
X132383237Y-134224581D01*
X132533958Y-134361980D01*
X132533960Y-134361982D01*
X132599663Y-134402663D01*
X132707363Y-134469348D01*
X132897544Y-134543024D01*
X133098024Y-134580500D01*
X133098026Y-134580500D01*
X133301974Y-134580500D01*
X133301976Y-134580500D01*
X133502456Y-134543024D01*
X133692637Y-134469348D01*
X133866041Y-134361981D01*
X134016764Y-134224579D01*
X134139673Y-134061821D01*
X134230582Y-133879250D01*
X134286397Y-133683083D01*
X134305215Y-133480000D01*
X134297670Y-133398580D01*
X134294155Y-133360645D01*
X137786746Y-133360645D01*
X137786746Y-135839363D01*
X137802199Y-135956753D01*
X137802202Y-135956762D01*
X137862710Y-136102841D01*
X137958964Y-136228282D01*
X138084405Y-136324536D01*
X138230484Y-136385044D01*
X138347885Y-136400500D01*
X140826606Y-136400499D01*
X140826609Y-136400499D01*
X140943999Y-136385046D01*
X140944003Y-136385044D01*
X140944008Y-136385044D01*
X141090087Y-136324536D01*
X141215528Y-136228282D01*
X141311782Y-136102841D01*
X141372290Y-135956762D01*
X141387746Y-135839361D01*
X141387745Y-133360640D01*
X141387745Y-133360639D01*
X141387745Y-133360636D01*
X141372292Y-133243246D01*
X141372290Y-133243239D01*
X141372290Y-133243238D01*
X141311782Y-133097159D01*
X141215528Y-132971718D01*
X141090087Y-132875464D01*
X141041240Y-132855231D01*
X140944008Y-132814956D01*
X140944006Y-132814955D01*
X140826616Y-132799501D01*
X140826613Y-132799500D01*
X140826607Y-132799500D01*
X140826600Y-132799500D01*
X138347882Y-132799500D01*
X138230492Y-132814953D01*
X138230483Y-132814956D01*
X138084406Y-132875463D01*
X137958964Y-132971718D01*
X137862709Y-133097160D01*
X137802202Y-133243237D01*
X137802201Y-133243239D01*
X137786747Y-133360629D01*
X137786747Y-133360636D01*
X137786746Y-133360645D01*
X134294155Y-133360645D01*
X134286397Y-133276917D01*
X134275042Y-133237008D01*
X134230582Y-133080750D01*
X134139673Y-132898179D01*
X134054557Y-132785467D01*
X134016762Y-132735418D01*
X133866041Y-132598019D01*
X133866039Y-132598017D01*
X133692642Y-132490655D01*
X133692635Y-132490651D01*
X133597546Y-132453814D01*
X133502456Y-132416976D01*
X133301976Y-132379500D01*
X133098024Y-132379500D01*
X132897544Y-132416976D01*
X132897541Y-132416976D01*
X132897541Y-132416977D01*
X132707364Y-132490651D01*
X132707357Y-132490655D01*
X132533960Y-132598017D01*
X132533958Y-132598019D01*
X132383237Y-132735418D01*
X132260327Y-132898178D01*
X132169422Y-133080739D01*
X132169417Y-133080752D01*
X132113602Y-133276917D01*
X132094785Y-133479999D01*
X127772789Y-133479999D01*
X128000969Y-133251819D01*
X128062292Y-133218334D01*
X128088650Y-133215500D01*
X130643768Y-133215500D01*
X130643769Y-133215499D01*
X130808082Y-133182816D01*
X130864642Y-133159388D01*
X130962863Y-133118704D01*
X131102162Y-133025627D01*
X132463786Y-131664000D01*
X132515466Y-131633024D01*
X132644727Y-131593814D01*
X132818538Y-131500910D01*
X132970883Y-131375883D01*
X133095910Y-131223538D01*
X133188814Y-131049727D01*
X133246024Y-130861132D01*
X133265341Y-130665000D01*
X133246024Y-130468868D01*
X133237617Y-130441157D01*
X133236995Y-130371292D01*
X133274243Y-130312179D01*
X133337537Y-130282588D01*
X133406782Y-130291913D01*
X133408685Y-130292781D01*
X133414908Y-130295682D01*
X133414921Y-130295690D01*
X133579239Y-130350139D01*
X133680657Y-130360500D01*
X133910919Y-130360499D01*
X133935113Y-130362882D01*
X133998544Y-130375500D01*
X133998545Y-130375500D01*
X134400469Y-130375500D01*
X134467508Y-130395185D01*
X134511557Y-130444406D01*
X134525344Y-130472206D01*
X134525346Y-130472209D01*
X134525347Y-130472210D01*
X134637841Y-130612159D01*
X134777790Y-130724653D01*
X134938651Y-130804433D01*
X135112900Y-130847766D01*
X135153216Y-130850500D01*
X135153218Y-130850500D01*
X135746782Y-130850500D01*
X135746784Y-130850500D01*
X135787100Y-130847766D01*
X135961349Y-130804433D01*
X136122210Y-130724653D01*
X136262159Y-130612159D01*
X136374653Y-130472210D01*
X136454433Y-130311349D01*
X136497766Y-130137100D01*
X136500500Y-130096784D01*
X136500500Y-129641519D01*
X136520185Y-129574480D01*
X136536819Y-129553838D01*
X136552339Y-129538318D01*
X136613662Y-129504833D01*
X136627857Y-129502597D01*
X136796132Y-129486024D01*
X136984727Y-129428814D01*
X137158538Y-129335910D01*
X137310883Y-129210883D01*
X137435910Y-129058538D01*
X137493694Y-128950432D01*
X137511845Y-128916474D01*
X137538539Y-128889298D01*
X137535807Y-128864731D01*
X137539257Y-128850301D01*
X137559851Y-128782411D01*
X137586024Y-128696132D01*
X137605341Y-128500000D01*
X137586024Y-128303868D01*
X137528814Y-128115273D01*
X137528811Y-128115269D01*
X137528811Y-128115266D01*
X137435913Y-127941467D01*
X137435909Y-127941460D01*
X137310883Y-127789116D01*
X137158539Y-127664090D01*
X137158532Y-127664086D01*
X136984728Y-127571186D01*
X136922181Y-127552212D01*
X136863742Y-127513914D01*
X136835286Y-127450102D01*
X136845847Y-127381035D01*
X136870492Y-127345875D01*
X136892712Y-127323656D01*
X136984814Y-127174334D01*
X137039999Y-127007797D01*
X137050500Y-126905009D01*
X137050499Y-126504992D01*
X137039999Y-126402203D01*
X137005635Y-126298502D01*
X137003234Y-126228676D01*
X137038965Y-126168634D01*
X137101486Y-126137441D01*
X137123342Y-126135500D01*
X137154208Y-126135500D01*
X137221247Y-126155185D01*
X137231119Y-126162234D01*
X137235714Y-126165867D01*
X137382044Y-126256125D01*
X137382046Y-126256126D01*
X137382048Y-126256127D01*
X137545256Y-126310209D01*
X137645989Y-126320500D01*
X137815500Y-126320499D01*
X137882539Y-126340183D01*
X137928294Y-126392987D01*
X137939500Y-126444499D01*
X137939500Y-126809335D01*
X137939501Y-126809353D01*
X137949860Y-126910760D01*
X137949862Y-126910767D01*
X137999642Y-127060997D01*
X138002043Y-127130826D01*
X137999642Y-127139003D01*
X137949861Y-127289235D01*
X137939500Y-127390650D01*
X137939500Y-127769335D01*
X137939501Y-127769353D01*
X137949860Y-127870760D01*
X137949861Y-127870763D01*
X138004309Y-128035076D01*
X138004314Y-128035087D01*
X138095183Y-128182407D01*
X138095186Y-128182411D01*
X138113181Y-128200406D01*
X138146666Y-128261729D01*
X138149500Y-128288087D01*
X138149500Y-128462868D01*
X138129815Y-128529907D01*
X138083321Y-128571516D01*
X138083455Y-128571726D01*
X138082169Y-128572547D01*
X138080597Y-128573955D01*
X138077789Y-128575347D01*
X137937841Y-128687840D01*
X137937840Y-128687841D01*
X137825346Y-128827790D01*
X137769005Y-128941392D01*
X137740360Y-128972387D01*
X137742600Y-129000202D01*
X137741538Y-129004852D01*
X137702235Y-129162894D01*
X137702234Y-129162896D01*
X137702234Y-129162900D01*
X137699500Y-129203216D01*
X137699500Y-130096784D01*
X137700139Y-130106202D01*
X137702234Y-130137102D01*
X137745567Y-130311350D01*
X137825346Y-130472209D01*
X137825347Y-130472210D01*
X137937841Y-130612159D01*
X138077790Y-130724653D01*
X138238651Y-130804433D01*
X138412900Y-130847766D01*
X138453216Y-130850500D01*
X138453218Y-130850500D01*
X139046782Y-130850500D01*
X139046784Y-130850500D01*
X139087100Y-130847766D01*
X139261349Y-130804433D01*
X139422210Y-130724653D01*
X139562159Y-130612159D01*
X139674653Y-130472210D01*
X139754433Y-130311349D01*
X139797766Y-130137100D01*
X139800500Y-130096784D01*
X139800500Y-129203216D01*
X139797766Y-129162900D01*
X139754433Y-128988651D01*
X139674653Y-128827790D01*
X139638173Y-128782407D01*
X139577853Y-128707365D01*
X139551194Y-128642781D01*
X139550500Y-128629678D01*
X139550500Y-128404500D01*
X139570185Y-128337461D01*
X139622989Y-128291706D01*
X139674500Y-128280500D01*
X139761335Y-128280500D01*
X139816428Y-128293411D01*
X139838651Y-128304433D01*
X140012900Y-128347766D01*
X140053216Y-128350500D01*
X140053218Y-128350500D01*
X140646782Y-128350500D01*
X140646784Y-128350500D01*
X140687100Y-128347766D01*
X140861349Y-128304433D01*
X141022210Y-128224653D01*
X141162159Y-128112159D01*
X141274653Y-127972210D01*
X141354433Y-127811349D01*
X141397766Y-127637100D01*
X141400500Y-127596784D01*
X141400500Y-126703216D01*
X141397766Y-126662900D01*
X141354433Y-126488651D01*
X141274653Y-126327790D01*
X141162159Y-126187841D01*
X141153358Y-126180766D01*
X141022209Y-126075346D01*
X140861350Y-125995567D01*
X140687102Y-125952234D01*
X140687103Y-125952234D01*
X140662910Y-125950593D01*
X140646784Y-125949500D01*
X140053216Y-125949500D01*
X140037089Y-125950593D01*
X140012897Y-125952234D01*
X139904819Y-125979112D01*
X139838651Y-125995567D01*
X139838649Y-125995567D01*
X139838644Y-125995569D01*
X139835326Y-125996788D01*
X139833166Y-125996931D01*
X139832127Y-125997190D01*
X139832080Y-125997003D01*
X139765610Y-126001422D01*
X139704456Y-125967630D01*
X139671279Y-125906139D01*
X139674869Y-125841390D01*
X139710209Y-125734744D01*
X139720500Y-125634011D01*
X139720499Y-125432028D01*
X139722882Y-125407836D01*
X139750500Y-125268996D01*
X139750500Y-122931531D01*
X139752883Y-122907339D01*
X139775500Y-122793640D01*
X139775500Y-122278542D01*
X139747620Y-122138385D01*
X139747619Y-122138384D01*
X139747619Y-122138380D01*
X139692929Y-122006347D01*
X139658102Y-121954225D01*
X139613532Y-121887520D01*
X139613530Y-121887518D01*
X139613528Y-121887515D01*
X137087482Y-119361469D01*
X137015524Y-119313389D01*
X136968653Y-119282071D01*
X136836620Y-119227381D01*
X136836614Y-119227379D01*
X136696457Y-119199500D01*
X136696455Y-119199500D01*
X136377996Y-119199500D01*
X136310957Y-119179815D01*
X136265202Y-119127011D01*
X136255258Y-119057853D01*
X136284283Y-118994297D01*
X136322902Y-118964412D01*
X136350953Y-118950500D01*
X136410753Y-118920842D01*
X136554940Y-118804940D01*
X136670842Y-118660753D01*
X136753037Y-118495021D01*
X136797683Y-118315495D01*
X136800500Y-118273954D01*
X136800500Y-117476046D01*
X136797683Y-117434505D01*
X136753037Y-117254979D01*
X136670842Y-117089247D01*
X136586673Y-116984537D01*
X136554940Y-116945059D01*
X136452785Y-116862945D01*
X136410753Y-116829158D01*
X136410751Y-116829157D01*
X136410750Y-116829156D01*
X136245023Y-116746964D01*
X136245021Y-116746963D01*
X136156935Y-116725057D01*
X136094573Y-116709548D01*
X136034266Y-116674265D01*
X136002608Y-116611980D01*
X136000500Y-116589213D01*
X136000500Y-115160645D01*
X137786746Y-115160645D01*
X137786747Y-117639361D01*
X137802199Y-117756753D01*
X137802202Y-117756762D01*
X137862710Y-117902841D01*
X137958964Y-118028282D01*
X138084405Y-118124536D01*
X138230484Y-118185044D01*
X138347885Y-118200500D01*
X140826606Y-118200499D01*
X140826609Y-118200499D01*
X140943999Y-118185046D01*
X140944003Y-118185044D01*
X140944008Y-118185044D01*
X141090087Y-118124536D01*
X141215528Y-118028282D01*
X141311782Y-117902841D01*
X141372290Y-117756762D01*
X141387746Y-117639361D01*
X141387745Y-115160640D01*
X141387745Y-115160639D01*
X141387745Y-115160636D01*
X141372292Y-115043246D01*
X141372290Y-115043239D01*
X141372290Y-115043238D01*
X141311782Y-114897159D01*
X141215528Y-114771718D01*
X141090087Y-114675464D01*
X141065213Y-114665161D01*
X140944008Y-114614956D01*
X140944006Y-114614955D01*
X140826616Y-114599501D01*
X140826613Y-114599500D01*
X140826607Y-114599500D01*
X140826600Y-114599500D01*
X138347882Y-114599500D01*
X138230492Y-114614953D01*
X138230483Y-114614956D01*
X138084406Y-114675463D01*
X137958964Y-114771718D01*
X137862709Y-114897160D01*
X137802202Y-115043237D01*
X137802201Y-115043239D01*
X137786747Y-115160629D01*
X137786747Y-115160636D01*
X137786746Y-115160645D01*
X136000500Y-115160645D01*
X136000500Y-114281006D01*
X135996686Y-114261837D01*
X135985247Y-114204328D01*
X135983190Y-114193988D01*
X135977417Y-114164963D01*
X135973580Y-114145672D01*
X135920775Y-114018189D01*
X135844114Y-113903457D01*
X135844112Y-113903454D01*
X134236819Y-112296161D01*
X134203334Y-112234838D01*
X134200500Y-112208480D01*
X134200500Y-111326048D01*
X134200500Y-111326046D01*
X134197683Y-111284505D01*
X134153037Y-111104979D01*
X134070842Y-110939247D01*
X134014853Y-110869594D01*
X133954940Y-110795059D01*
X133852785Y-110712945D01*
X133810753Y-110679158D01*
X133810751Y-110679157D01*
X133810750Y-110679156D01*
X133645023Y-110596964D01*
X133645021Y-110596963D01*
X133645019Y-110596962D01*
X133645015Y-110596961D01*
X133579589Y-110580690D01*
X133519282Y-110545408D01*
X133487624Y-110483122D01*
X133494665Y-110413608D01*
X133531829Y-110363709D01*
X133604938Y-110304942D01*
X133604940Y-110304940D01*
X133720842Y-110160753D01*
X133803037Y-109995021D01*
X133847683Y-109815495D01*
X133850500Y-109773954D01*
X133850500Y-108329500D01*
X133870185Y-108262461D01*
X133922989Y-108216706D01*
X133974500Y-108205500D01*
X134325500Y-108205500D01*
X134392539Y-108225185D01*
X134438294Y-108277989D01*
X134449500Y-108329500D01*
X134449500Y-109773951D01*
X134452317Y-109815499D01*
X134496963Y-109995021D01*
X134496964Y-109995023D01*
X134579156Y-110160750D01*
X134695059Y-110304940D01*
X134727488Y-110331007D01*
X134839247Y-110420842D01*
X135004979Y-110503037D01*
X135184501Y-110547682D01*
X135184502Y-110547682D01*
X135184505Y-110547683D01*
X135226046Y-110550500D01*
X135226048Y-110550500D01*
X136023952Y-110550500D01*
X136023954Y-110550500D01*
X136065495Y-110547683D01*
X136245021Y-110503037D01*
X136410753Y-110420842D01*
X136554940Y-110304940D01*
X136670842Y-110160753D01*
X136753037Y-109995021D01*
X136797683Y-109815495D01*
X136800500Y-109773954D01*
X136800500Y-108329500D01*
X136820185Y-108262461D01*
X136872989Y-108216706D01*
X136924500Y-108205500D01*
X142876726Y-108205500D01*
X142876731Y-108205500D01*
X142985249Y-108193995D01*
X143003683Y-108192041D01*
X143003684Y-108192040D01*
X143003691Y-108192040D01*
X143054534Y-108181137D01*
X143054535Y-108181136D01*
X143054538Y-108181136D01*
X143188906Y-108135298D01*
X143188909Y-108135297D01*
X143188908Y-108135297D01*
X143188912Y-108135296D01*
X143321373Y-108049045D01*
X143374447Y-108003604D01*
X143395890Y-107984342D01*
X143495799Y-107861853D01*
X143560601Y-107717680D01*
X143580682Y-107650758D01*
X143584660Y-107636907D01*
X143606218Y-107480317D01*
X143704751Y-90828317D01*
X143691301Y-90697770D01*
X143680097Y-90645525D01*
X143632698Y-90507919D01*
X143632697Y-90507917D01*
X143632696Y-90507915D01*
X143545666Y-90375973D01*
X143545656Y-90375960D01*
X143499917Y-90323174D01*
X143480526Y-90301845D01*
X143357449Y-90202661D01*
X143357446Y-90202660D01*
X143212898Y-90138713D01*
X143212893Y-90138711D01*
X143145853Y-90119026D01*
X143131980Y-90115132D01*
X142975271Y-90094500D01*
X142975264Y-90094500D01*
X135543944Y-90094500D01*
X135476905Y-90074815D01*
X135431150Y-90022011D01*
X135421206Y-89952853D01*
X135440842Y-89901609D01*
X135470775Y-89856811D01*
X135523580Y-89729329D01*
X135523580Y-89729325D01*
X135523582Y-89729322D01*
X135528934Y-89702411D01*
X135528934Y-89702409D01*
X135550500Y-89593993D01*
X135550500Y-81821016D01*
X135570185Y-81753977D01*
X135586819Y-81733335D01*
X135615865Y-81704289D01*
X135706127Y-81557952D01*
X135760209Y-81394744D01*
X135770500Y-81294011D01*
X135770499Y-80925990D01*
X135769003Y-80911349D01*
X135760209Y-80825256D01*
X135760208Y-80825253D01*
X135748690Y-80790495D01*
X135706127Y-80662048D01*
X135706125Y-80662044D01*
X135703073Y-80655499D01*
X135705124Y-80654542D01*
X135689567Y-80597726D01*
X135704939Y-80545371D01*
X135703073Y-80544501D01*
X135706123Y-80537958D01*
X135706127Y-80537952D01*
X135760209Y-80374744D01*
X135770500Y-80274011D01*
X135770499Y-79905990D01*
X135760209Y-79805256D01*
X135706127Y-79642048D01*
X135684922Y-79607670D01*
X135615867Y-79495714D01*
X135615864Y-79495710D01*
X135494289Y-79374135D01*
X135494285Y-79374132D01*
X135347955Y-79283874D01*
X135347953Y-79283873D01*
X135253266Y-79252497D01*
X135184744Y-79229791D01*
X135184742Y-79229790D01*
X135084012Y-79219500D01*
X134615996Y-79219500D01*
X134615978Y-79219501D01*
X134515256Y-79229790D01*
X134515253Y-79229791D01*
X134352047Y-79283873D01*
X134352044Y-79283874D01*
X134205714Y-79374132D01*
X134205710Y-79374135D01*
X134084132Y-79495713D01*
X134082855Y-79497329D01*
X134081697Y-79498148D01*
X134079028Y-79500818D01*
X134078571Y-79500361D01*
X134025831Y-79537703D01*
X133956031Y-79540838D01*
X133907906Y-79517060D01*
X133860753Y-79479157D01*
X133695023Y-79396964D01*
X133695021Y-79396963D01*
X133515497Y-79352317D01*
X133515501Y-79352317D01*
X133484339Y-79350204D01*
X133473954Y-79349500D01*
X132126046Y-79349500D01*
X132114177Y-79350304D01*
X132084500Y-79352317D01*
X131904978Y-79396963D01*
X131904976Y-79396964D01*
X131739250Y-79479155D01*
X131739248Y-79479156D01*
X131702686Y-79508546D01*
X131638102Y-79535204D01*
X131569358Y-79522713D01*
X131547314Y-79508546D01*
X131510751Y-79479156D01*
X131510749Y-79479155D01*
X131345023Y-79396964D01*
X131345021Y-79396963D01*
X131165497Y-79352317D01*
X131165501Y-79352317D01*
X131134339Y-79350204D01*
X131123954Y-79349500D01*
X131123952Y-79349500D01*
X130241519Y-79349500D01*
X130174480Y-79329815D01*
X130153838Y-79313181D01*
X129946546Y-79105888D01*
X129946545Y-79105887D01*
X129831807Y-79029222D01*
X129704332Y-78976421D01*
X129704322Y-78976418D01*
X129568996Y-78949500D01*
X129568994Y-78949500D01*
X129568993Y-78949500D01*
X125981007Y-78949500D01*
X125981003Y-78949500D01*
X125872590Y-78971065D01*
X125872589Y-78971065D01*
X125845681Y-78976418D01*
X125845671Y-78976420D01*
X125718190Y-79029224D01*
X125603454Y-79105887D01*
X125603453Y-79105888D01*
X125396162Y-79313181D01*
X125334839Y-79346666D01*
X125308481Y-79349500D01*
X124851117Y-79349500D01*
X124851117Y-79348835D01*
X124785980Y-79332049D01*
X124738488Y-79280801D01*
X124725500Y-79225554D01*
X124725500Y-78274445D01*
X124745185Y-78207406D01*
X124797989Y-78161651D01*
X124851117Y-78151036D01*
X124851117Y-78150500D01*
X125746782Y-78150500D01*
X125746784Y-78150500D01*
X125787100Y-78147766D01*
X125961349Y-78104433D01*
X126122210Y-78024653D01*
X126262159Y-77912159D01*
X126374653Y-77772210D01*
X126398335Y-77724459D01*
X126413912Y-77693052D01*
X126461333Y-77641739D01*
X126528968Y-77624209D01*
X126595343Y-77646029D01*
X126636088Y-77693052D01*
X126675344Y-77772206D01*
X126675346Y-77772209D01*
X126693685Y-77795023D01*
X126787841Y-77912159D01*
X126927790Y-78024653D01*
X127088651Y-78104433D01*
X127262900Y-78147766D01*
X127303216Y-78150500D01*
X127303218Y-78150500D01*
X128196782Y-78150500D01*
X128196784Y-78150500D01*
X128237100Y-78147766D01*
X128411349Y-78104433D01*
X128572210Y-78024653D01*
X128712159Y-77912159D01*
X128824653Y-77772210D01*
X128824660Y-77772195D01*
X128825843Y-77770347D01*
X128826868Y-77769454D01*
X128828865Y-77766970D01*
X128829309Y-77767327D01*
X128878531Y-77724459D01*
X128947664Y-77714341D01*
X129011293Y-77743206D01*
X129043256Y-77789355D01*
X129043976Y-77788998D01*
X129046415Y-77793916D01*
X129046717Y-77794352D01*
X129046962Y-77795019D01*
X129129156Y-77960750D01*
X129245059Y-78104940D01*
X129302405Y-78151036D01*
X129389247Y-78220842D01*
X129554979Y-78303037D01*
X129734501Y-78347682D01*
X129734502Y-78347682D01*
X129734505Y-78347683D01*
X129776046Y-78350500D01*
X129776048Y-78350500D01*
X131123952Y-78350500D01*
X131123954Y-78350500D01*
X131165495Y-78347683D01*
X131345021Y-78303037D01*
X131510753Y-78220842D01*
X131547311Y-78191454D01*
X131611895Y-78164795D01*
X131680639Y-78177285D01*
X131702687Y-78191453D01*
X131704907Y-78193238D01*
X131739248Y-78220843D01*
X131821451Y-78261611D01*
X131904979Y-78303037D01*
X132084501Y-78347682D01*
X132084502Y-78347682D01*
X132084505Y-78347683D01*
X132126046Y-78350500D01*
X132126048Y-78350500D01*
X133473952Y-78350500D01*
X133473954Y-78350500D01*
X133515495Y-78347683D01*
X133664428Y-78310645D01*
X137686746Y-78310645D01*
X137686746Y-80789363D01*
X137702199Y-80906753D01*
X137702202Y-80906762D01*
X137728403Y-80970018D01*
X137762710Y-81052841D01*
X137858964Y-81178282D01*
X137984405Y-81274536D01*
X138130484Y-81335044D01*
X138247885Y-81350500D01*
X140726606Y-81350499D01*
X140726609Y-81350499D01*
X140843999Y-81335046D01*
X140844003Y-81335044D01*
X140844008Y-81335044D01*
X140990087Y-81274536D01*
X141115528Y-81178282D01*
X141211782Y-81052841D01*
X141272290Y-80906762D01*
X141287746Y-80789361D01*
X141287745Y-78310640D01*
X141287745Y-78310639D01*
X141287745Y-78310636D01*
X141272292Y-78193246D01*
X141272290Y-78193239D01*
X141272290Y-78193238D01*
X141211782Y-78047159D01*
X141115528Y-77921718D01*
X140990087Y-77825464D01*
X140916586Y-77795019D01*
X140844008Y-77764956D01*
X140844006Y-77764955D01*
X140726616Y-77749501D01*
X140726613Y-77749500D01*
X140726607Y-77749500D01*
X140726600Y-77749500D01*
X138247882Y-77749500D01*
X138130492Y-77764953D01*
X138130483Y-77764956D01*
X137984406Y-77825463D01*
X137858964Y-77921718D01*
X137762709Y-78047160D01*
X137702202Y-78193237D01*
X137702201Y-78193239D01*
X137686747Y-78310629D01*
X137686747Y-78310636D01*
X137686746Y-78310645D01*
X133664428Y-78310645D01*
X133695021Y-78303037D01*
X133860753Y-78220842D01*
X134004940Y-78104940D01*
X134120842Y-77960753D01*
X134203037Y-77795021D01*
X134247683Y-77615495D01*
X134250500Y-77573954D01*
X134250500Y-76626046D01*
X134247683Y-76584505D01*
X134203037Y-76404979D01*
X134120842Y-76239247D01*
X134005348Y-76095567D01*
X134004940Y-76095059D01*
X133897313Y-76008546D01*
X133860753Y-75979158D01*
X133860751Y-75979157D01*
X133860750Y-75979156D01*
X133695023Y-75896964D01*
X133695021Y-75896963D01*
X133515497Y-75852317D01*
X133515501Y-75852317D01*
X133484339Y-75850204D01*
X133473954Y-75849500D01*
X132126046Y-75849500D01*
X132114177Y-75850304D01*
X132084500Y-75852317D01*
X131904978Y-75896963D01*
X131904976Y-75896964D01*
X131739250Y-75979155D01*
X131739248Y-75979156D01*
X131702686Y-76008546D01*
X131638102Y-76035204D01*
X131569358Y-76022713D01*
X131547314Y-76008546D01*
X131510751Y-75979156D01*
X131510749Y-75979155D01*
X131345023Y-75896964D01*
X131345021Y-75896963D01*
X131165497Y-75852317D01*
X131165501Y-75852317D01*
X131134339Y-75850204D01*
X131123954Y-75849500D01*
X129776046Y-75849500D01*
X129764177Y-75850304D01*
X129734500Y-75852317D01*
X129554978Y-75896963D01*
X129554976Y-75896964D01*
X129389249Y-75979156D01*
X129245059Y-76095059D01*
X129129156Y-76239249D01*
X129046961Y-76404981D01*
X129046715Y-76405653D01*
X129046454Y-76406004D01*
X129043976Y-76411002D01*
X129043079Y-76410557D01*
X129005112Y-76461786D01*
X128939765Y-76486516D01*
X128871422Y-76471991D01*
X128829193Y-76432766D01*
X128828865Y-76433030D01*
X128827060Y-76430785D01*
X128825847Y-76429658D01*
X128824653Y-76427790D01*
X128712159Y-76287841D01*
X128712158Y-76287840D01*
X128572209Y-76175346D01*
X128491128Y-76135133D01*
X128411349Y-76095567D01*
X128411347Y-76095566D01*
X128411345Y-76095565D01*
X128311490Y-76070732D01*
X128253736Y-76038079D01*
X128033256Y-75817599D01*
X127999771Y-75756276D01*
X127998745Y-75721039D01*
X127997313Y-75720942D01*
X127997682Y-75715498D01*
X127997683Y-75715495D01*
X128000500Y-75673954D01*
X128000500Y-74876046D01*
X127997683Y-74834505D01*
X127996812Y-74831004D01*
X127963158Y-74695677D01*
X127953037Y-74654979D01*
X127870842Y-74489247D01*
X127768976Y-74362521D01*
X127754940Y-74345059D01*
X127652785Y-74262945D01*
X127610753Y-74229158D01*
X127610751Y-74229157D01*
X127610750Y-74229156D01*
X127445023Y-74146964D01*
X127445021Y-74146963D01*
X127265497Y-74102317D01*
X127265501Y-74102317D01*
X127234339Y-74100204D01*
X127223954Y-74099500D01*
X126050873Y-74099500D01*
X125983834Y-74079815D01*
X125938079Y-74027011D01*
X125928135Y-73957853D01*
X125957160Y-73894297D01*
X125963192Y-73887819D01*
X126051012Y-73800000D01*
X126314193Y-73536819D01*
X126375516Y-73503334D01*
X126401874Y-73500500D01*
X127223952Y-73500500D01*
X127223954Y-73500500D01*
X127265495Y-73497683D01*
X127445021Y-73453037D01*
X127610753Y-73370842D01*
X127754940Y-73254940D01*
X127870842Y-73110753D01*
X127953037Y-72945021D01*
X127997683Y-72765495D01*
X128000500Y-72723954D01*
X128000500Y-71926046D01*
X127997683Y-71884505D01*
X127953037Y-71704979D01*
X127870842Y-71539247D01*
X127820945Y-71477173D01*
X127754940Y-71395059D01*
X127652785Y-71312945D01*
X127610753Y-71279158D01*
X127610751Y-71279157D01*
X127610750Y-71279156D01*
X127445023Y-71196964D01*
X127445021Y-71196963D01*
X127265497Y-71152317D01*
X127265501Y-71152317D01*
X127234339Y-71150204D01*
X127223954Y-71149500D01*
X125776046Y-71149500D01*
X125764177Y-71150304D01*
X125734500Y-71152317D01*
X125554978Y-71196963D01*
X125554976Y-71196964D01*
X125389249Y-71279156D01*
X125245059Y-71395059D01*
X125129156Y-71539249D01*
X125046964Y-71704976D01*
X125046963Y-71704978D01*
X125002317Y-71884500D01*
X124999500Y-71926048D01*
X124999500Y-72723955D01*
X125000484Y-72738468D01*
X124985380Y-72806685D01*
X124964449Y-72834537D01*
X123436472Y-74362514D01*
X123436466Y-74362521D01*
X123375706Y-74453457D01*
X123357072Y-74481344D01*
X123357070Y-74481348D01*
X123302381Y-74613379D01*
X123302379Y-74613385D01*
X123274500Y-74753542D01*
X123274500Y-79185458D01*
X123254815Y-79252497D01*
X123202011Y-79298252D01*
X123132853Y-79308196D01*
X123095407Y-79296547D01*
X122945021Y-79221963D01*
X122945019Y-79221962D01*
X122945018Y-79221962D01*
X122765497Y-79177317D01*
X122765501Y-79177317D01*
X122734339Y-79175204D01*
X122723954Y-79174500D01*
X121276046Y-79174500D01*
X121264177Y-79175304D01*
X121234500Y-79177317D01*
X121054978Y-79221963D01*
X121054976Y-79221964D01*
X120889250Y-79304155D01*
X120889248Y-79304156D01*
X120877686Y-79313451D01*
X120813102Y-79340109D01*
X120744358Y-79327618D01*
X120722314Y-79313451D01*
X120710751Y-79304156D01*
X120710749Y-79304155D01*
X120545023Y-79221964D01*
X120545021Y-79221963D01*
X120365497Y-79177317D01*
X120365501Y-79177317D01*
X120334339Y-79175204D01*
X120323954Y-79174500D01*
X120323952Y-79174500D01*
X119928651Y-79174500D01*
X119861612Y-79154815D01*
X119840970Y-79138181D01*
X119799002Y-79096213D01*
X119768023Y-79044529D01*
X119728814Y-78915273D01*
X119728812Y-78915270D01*
X119728812Y-78915268D01*
X119635913Y-78741467D01*
X119635909Y-78741460D01*
X119510883Y-78589116D01*
X119358539Y-78464090D01*
X119358532Y-78464086D01*
X119184733Y-78371188D01*
X119184727Y-78371186D01*
X118996132Y-78313976D01*
X118996129Y-78313975D01*
X118800000Y-78294659D01*
X118603870Y-78313975D01*
X118415266Y-78371188D01*
X118241467Y-78464086D01*
X118241460Y-78464090D01*
X118089116Y-78589116D01*
X117964090Y-78741460D01*
X117964086Y-78741467D01*
X117871188Y-78915266D01*
X117813975Y-79103870D01*
X117794659Y-79300000D01*
X117813975Y-79496129D01*
X117815259Y-79500361D01*
X117858239Y-79642048D01*
X117871188Y-79684733D01*
X117964086Y-79858532D01*
X117964090Y-79858539D01*
X118003023Y-79905978D01*
X118071353Y-79989238D01*
X118098666Y-80053546D01*
X118099500Y-80067902D01*
X118099500Y-80748951D01*
X118102317Y-80790499D01*
X118146962Y-80970018D01*
X118209148Y-81095406D01*
X118221299Y-81164211D01*
X118194322Y-81228663D01*
X118136782Y-81268299D01*
X118098059Y-81274500D01*
X117578216Y-81274500D01*
X117562089Y-81275593D01*
X117537897Y-81277234D01*
X117363649Y-81320567D01*
X117202790Y-81400346D01*
X117202785Y-81400349D01*
X117157488Y-81436760D01*
X117092904Y-81463418D01*
X117043807Y-81458773D01*
X116896130Y-81413975D01*
X116812345Y-81405723D01*
X116747558Y-81379562D01*
X116707199Y-81322527D01*
X116700500Y-81282320D01*
X116700500Y-75241518D01*
X116720185Y-75174479D01*
X116736815Y-75153841D01*
X117052339Y-74838316D01*
X117113660Y-74804833D01*
X117127855Y-74802597D01*
X117296132Y-74786024D01*
X117484727Y-74728814D01*
X117658538Y-74635910D01*
X117810883Y-74510883D01*
X117935910Y-74358538D01*
X118028814Y-74184727D01*
X118086024Y-73996132D01*
X118105341Y-73800000D01*
X118086024Y-73603868D01*
X118028814Y-73415273D01*
X118028811Y-73415269D01*
X118028811Y-73415266D01*
X117935913Y-73241467D01*
X117935909Y-73241460D01*
X117810883Y-73089116D01*
X117658539Y-72964090D01*
X117658532Y-72964086D01*
X117484733Y-72871188D01*
X117484727Y-72871186D01*
X117296132Y-72813976D01*
X117296129Y-72813975D01*
X117100000Y-72794659D01*
X116903870Y-72813975D01*
X116715266Y-72871188D01*
X116541467Y-72964086D01*
X116541460Y-72964090D01*
X116389116Y-73089116D01*
X116264090Y-73241460D01*
X116264086Y-73241467D01*
X116171188Y-73415266D01*
X116113975Y-73603870D01*
X116097403Y-73772133D01*
X116071242Y-73836921D01*
X116061681Y-73847660D01*
X115455890Y-74453451D01*
X115455886Y-74453457D01*
X115407556Y-74525788D01*
X115407556Y-74525789D01*
X115379223Y-74568191D01*
X115379222Y-74568193D01*
X115326421Y-74695667D01*
X115326418Y-74695677D01*
X115299500Y-74831004D01*
X115299500Y-74831007D01*
X115299500Y-83431006D01*
X115299500Y-83568994D01*
X115299500Y-83568996D01*
X115299499Y-83568996D01*
X115326418Y-83704322D01*
X115326421Y-83704332D01*
X115379222Y-83831807D01*
X115455887Y-83946545D01*
X115455888Y-83946546D01*
X116763181Y-85253837D01*
X116796666Y-85315160D01*
X116799500Y-85341518D01*
X116799500Y-93800500D01*
X116779815Y-93867539D01*
X116727011Y-93913294D01*
X116675500Y-93924500D01*
X116430039Y-93924500D01*
X116295750Y-93939630D01*
X116295745Y-93939631D01*
X116125476Y-93999211D01*
X115972737Y-94095184D01*
X115845184Y-94222737D01*
X115749211Y-94375476D01*
X115689631Y-94545745D01*
X115689630Y-94545750D01*
X115674500Y-94680039D01*
X115674500Y-95319960D01*
X115689630Y-95454249D01*
X115689631Y-95454254D01*
X115749211Y-95624524D01*
X115805493Y-95714094D01*
X115824500Y-95780067D01*
X115824500Y-95921349D01*
X115804815Y-95988388D01*
X115788181Y-96009030D01*
X113934030Y-97863181D01*
X113872707Y-97896666D01*
X113846349Y-97899500D01*
X113487859Y-97899500D01*
X113420820Y-97879815D01*
X113375065Y-97827011D01*
X113365121Y-97757853D01*
X113373296Y-97728052D01*
X113380044Y-97711762D01*
X113395500Y-97594361D01*
X113395499Y-94915640D01*
X113395499Y-94915636D01*
X113380046Y-94798246D01*
X113380044Y-94798241D01*
X113380044Y-94798238D01*
X113319536Y-94652159D01*
X113223282Y-94526718D01*
X113097841Y-94430464D01*
X112951762Y-94369956D01*
X112951760Y-94369955D01*
X112834370Y-94354501D01*
X112834367Y-94354500D01*
X112834361Y-94354500D01*
X112834354Y-94354500D01*
X111909311Y-94354500D01*
X111842272Y-94334815D01*
X111821630Y-94318181D01*
X110280896Y-92777447D01*
X110247411Y-92716124D01*
X110252395Y-92646432D01*
X110294267Y-92590499D01*
X110299979Y-92586730D01*
X110302835Y-92584538D01*
X110302841Y-92584536D01*
X110428282Y-92488282D01*
X110524536Y-92362841D01*
X110585044Y-92216762D01*
X110600500Y-92099361D01*
X110600499Y-87300640D01*
X110600499Y-87300639D01*
X110600499Y-87300636D01*
X110585046Y-87183246D01*
X110585044Y-87183239D01*
X110585044Y-87183238D01*
X110524536Y-87037159D01*
X110428282Y-86911718D01*
X110302841Y-86815464D01*
X110156762Y-86754956D01*
X110156760Y-86754955D01*
X110039370Y-86739501D01*
X110039367Y-86739500D01*
X110039361Y-86739500D01*
X110039354Y-86739500D01*
X105160636Y-86739500D01*
X105043246Y-86754953D01*
X105043237Y-86754956D01*
X104897160Y-86815463D01*
X104771718Y-86911718D01*
X104675463Y-87037160D01*
X104614956Y-87183237D01*
X104614955Y-87183239D01*
X104599501Y-87300629D01*
X104599501Y-87300636D01*
X104599500Y-87300645D01*
X104599500Y-92099363D01*
X104614953Y-92216753D01*
X104614956Y-92216762D01*
X104675464Y-92362841D01*
X104771718Y-92488282D01*
X104897159Y-92584536D01*
X105043238Y-92645044D01*
X105160639Y-92660500D01*
X105924682Y-92660499D01*
X105991721Y-92680183D01*
X106037476Y-92732987D01*
X106042611Y-92746177D01*
X106116759Y-92974379D01*
X106231130Y-93198845D01*
X106309843Y-93307184D01*
X106309844Y-93307185D01*
X106379203Y-93402652D01*
X107419370Y-94442819D01*
X107452855Y-94504142D01*
X107447871Y-94573834D01*
X107405999Y-94629767D01*
X107340535Y-94654184D01*
X107331689Y-94654500D01*
X106819038Y-94654500D01*
X106694626Y-94674205D01*
X106570214Y-94693910D01*
X106330616Y-94771760D01*
X106147089Y-94865273D01*
X106106151Y-94886132D01*
X106051528Y-94925818D01*
X105985722Y-94949298D01*
X105978643Y-94949500D01*
X105676046Y-94949500D01*
X105664177Y-94950304D01*
X105634500Y-94952317D01*
X105454978Y-94996963D01*
X105454976Y-94996964D01*
X105289249Y-95079156D01*
X105145059Y-95195059D01*
X105029156Y-95339249D01*
X104946964Y-95504976D01*
X104946963Y-95504978D01*
X104902317Y-95684500D01*
X104899500Y-95726048D01*
X104899500Y-96219099D01*
X104893431Y-96257417D01*
X104838910Y-96425211D01*
X104838910Y-96425214D01*
X104838910Y-96425216D01*
X104799500Y-96674038D01*
X104799500Y-96925962D01*
X104803306Y-96949992D01*
X104838909Y-97174780D01*
X104893431Y-97342581D01*
X104899500Y-97380899D01*
X104899500Y-97775500D01*
X104879815Y-97842539D01*
X104827011Y-97888294D01*
X104775500Y-97899500D01*
X104416228Y-97899500D01*
X104251925Y-97932182D01*
X104251913Y-97932185D01*
X104206583Y-97950962D01*
X104097143Y-97996292D01*
X104097130Y-97996299D01*
X103957838Y-98089372D01*
X103957834Y-98089375D01*
X102812181Y-99235029D01*
X102750858Y-99268514D01*
X102681166Y-99263530D01*
X102625233Y-99221658D01*
X102600816Y-99156194D01*
X102600500Y-99147348D01*
X102600500Y-65243541D01*
X109349500Y-65243541D01*
X109349500Y-67156458D01*
X109355812Y-67258132D01*
X109355813Y-67258134D01*
X109405993Y-67497457D01*
X109405994Y-67497461D01*
X109405996Y-67497468D01*
X109494880Y-67725254D01*
X109494881Y-67725256D01*
X109620051Y-67935317D01*
X109778088Y-68121912D01*
X109964683Y-68279949D01*
X110174744Y-68405119D01*
X110257608Y-68437452D01*
X110402531Y-68494003D01*
X110402534Y-68494003D01*
X110402543Y-68494007D01*
X110641866Y-68544187D01*
X110743548Y-68550500D01*
X110743559Y-68550500D01*
X112656441Y-68550500D01*
X112656452Y-68550500D01*
X112758134Y-68544187D01*
X112997457Y-68494007D01*
X112997466Y-68494003D01*
X112997468Y-68494003D01*
X113059527Y-68469786D01*
X113225256Y-68405119D01*
X113435317Y-68279949D01*
X113621912Y-68121912D01*
X113779949Y-67935317D01*
X113905119Y-67725256D01*
X113994007Y-67497457D01*
X114044187Y-67258134D01*
X114050500Y-67156452D01*
X114050500Y-65243548D01*
X114044187Y-65141866D01*
X113994007Y-64902543D01*
X113994003Y-64902534D01*
X113994003Y-64902531D01*
X113905119Y-64674745D01*
X113905117Y-64674741D01*
X113779952Y-64464688D01*
X113779951Y-64464687D01*
X113779949Y-64464683D01*
X113621912Y-64278088D01*
X113493254Y-64169121D01*
X113454820Y-64110773D01*
X113454032Y-64040908D01*
X113491142Y-63981708D01*
X113554366Y-63951968D01*
X113573396Y-63950499D01*
X116489363Y-63950499D01*
X116606753Y-63935046D01*
X116606757Y-63935044D01*
X116606762Y-63935044D01*
X116752841Y-63874536D01*
X116878282Y-63778282D01*
X116974536Y-63652841D01*
X117035044Y-63506762D01*
X117050500Y-63389361D01*
X117050499Y-60360645D01*
X137686746Y-60360645D01*
X137686746Y-62839363D01*
X137702199Y-62956753D01*
X137702202Y-62956762D01*
X137762710Y-63102841D01*
X137858964Y-63228282D01*
X137984405Y-63324536D01*
X138130484Y-63385044D01*
X138247885Y-63400500D01*
X140726606Y-63400499D01*
X140726609Y-63400499D01*
X140843999Y-63385046D01*
X140844003Y-63385044D01*
X140844008Y-63385044D01*
X140990087Y-63324536D01*
X141115528Y-63228282D01*
X141211782Y-63102841D01*
X141272290Y-62956762D01*
X141287746Y-62839361D01*
X141287745Y-60360640D01*
X141287745Y-60360639D01*
X141287745Y-60360636D01*
X141272292Y-60243246D01*
X141272290Y-60243239D01*
X141272290Y-60243238D01*
X141211782Y-60097159D01*
X141115528Y-59971718D01*
X140990087Y-59875464D01*
X140844008Y-59814956D01*
X140844006Y-59814955D01*
X140726616Y-59799501D01*
X140726613Y-59799500D01*
X140726607Y-59799500D01*
X140726600Y-59799500D01*
X138247882Y-59799500D01*
X138130492Y-59814953D01*
X138130483Y-59814956D01*
X137984406Y-59875463D01*
X137858964Y-59971718D01*
X137762709Y-60097160D01*
X137702202Y-60243237D01*
X137702201Y-60243239D01*
X137686747Y-60360629D01*
X137686747Y-60360636D01*
X137686746Y-60360645D01*
X117050499Y-60360645D01*
X117050499Y-59810640D01*
X117050499Y-59810639D01*
X117050499Y-59810636D01*
X117035046Y-59693246D01*
X117035044Y-59693241D01*
X117035044Y-59693238D01*
X116974536Y-59547159D01*
X116878282Y-59421718D01*
X116752841Y-59325464D01*
X116606762Y-59264956D01*
X116606760Y-59264955D01*
X116489370Y-59249501D01*
X116489367Y-59249500D01*
X116489361Y-59249500D01*
X116489354Y-59249500D01*
X115560538Y-59249500D01*
X115493499Y-59229815D01*
X115447744Y-59177011D01*
X115437800Y-59107853D01*
X115440203Y-59095574D01*
X115447682Y-59065499D01*
X115447681Y-59065499D01*
X115447683Y-59065495D01*
X115450500Y-59023954D01*
X115450500Y-57891519D01*
X115470185Y-57824480D01*
X115486814Y-57803841D01*
X115552339Y-57738316D01*
X115613660Y-57704833D01*
X115627857Y-57702597D01*
X115796132Y-57686024D01*
X115984727Y-57628814D01*
X116158538Y-57535910D01*
X116310883Y-57410883D01*
X116435910Y-57258538D01*
X116528814Y-57084727D01*
X116586024Y-56896132D01*
X116605341Y-56700000D01*
X116586024Y-56503868D01*
X116528814Y-56315273D01*
X116528811Y-56315269D01*
X116528811Y-56315266D01*
X116435913Y-56141467D01*
X116435909Y-56141460D01*
X116310883Y-55989116D01*
X116158539Y-55864090D01*
X116158532Y-55864086D01*
X115984733Y-55771188D01*
X115984727Y-55771186D01*
X115796132Y-55713976D01*
X115796129Y-55713975D01*
X115600000Y-55694659D01*
X115403870Y-55713975D01*
X115215266Y-55771188D01*
X115041467Y-55864086D01*
X115041460Y-55864090D01*
X114889116Y-55989116D01*
X114764090Y-56141460D01*
X114764086Y-56141467D01*
X114671188Y-56315266D01*
X114613975Y-56503870D01*
X114597403Y-56672132D01*
X114571242Y-56736920D01*
X114561687Y-56747654D01*
X114546167Y-56763176D01*
X114484846Y-56796665D01*
X114458480Y-56799500D01*
X113876046Y-56799500D01*
X113864177Y-56800304D01*
X113834500Y-56802317D01*
X113654978Y-56846963D01*
X113654976Y-56846964D01*
X113489249Y-56929156D01*
X113345059Y-57045059D01*
X113229156Y-57189249D01*
X113146964Y-57354976D01*
X113146963Y-57354978D01*
X113102317Y-57534500D01*
X113099500Y-57576048D01*
X113099500Y-59023951D01*
X113102317Y-59065499D01*
X113109797Y-59095574D01*
X113106873Y-59165383D01*
X113066672Y-59222529D01*
X113001958Y-59248869D01*
X112989463Y-59249500D01*
X112910637Y-59249500D01*
X112793246Y-59264953D01*
X112793237Y-59264956D01*
X112666434Y-59317480D01*
X112647162Y-59325463D01*
X112639651Y-59328574D01*
X112638821Y-59326570D01*
X112581982Y-59340346D01*
X112515960Y-59317480D01*
X112472781Y-59262549D01*
X112466155Y-59192994D01*
X112467575Y-59186561D01*
X112497681Y-59065504D01*
X112497682Y-59065501D01*
X112497682Y-59065498D01*
X112497683Y-59065495D01*
X112500500Y-59023954D01*
X112500500Y-57576046D01*
X112497683Y-57534505D01*
X112453037Y-57354979D01*
X112370842Y-57189247D01*
X112254940Y-57045060D01*
X112254939Y-57045059D01*
X112252853Y-57042464D01*
X112226194Y-56977880D01*
X112225500Y-56964776D01*
X112225500Y-56787440D01*
X112245185Y-56720401D01*
X112253647Y-56708775D01*
X112335910Y-56608538D01*
X112428814Y-56434727D01*
X112486024Y-56246132D01*
X112505341Y-56050000D01*
X112486024Y-55853868D01*
X112428814Y-55665273D01*
X112428811Y-55665269D01*
X112428811Y-55665266D01*
X112335913Y-55491467D01*
X112335909Y-55491460D01*
X112210883Y-55339116D01*
X112058539Y-55214090D01*
X112058532Y-55214086D01*
X111884733Y-55121188D01*
X111884727Y-55121186D01*
X111696132Y-55063976D01*
X111696129Y-55063975D01*
X111500000Y-55044659D01*
X111303870Y-55063975D01*
X111115266Y-55121188D01*
X110941467Y-55214086D01*
X110941460Y-55214090D01*
X110789116Y-55339116D01*
X110664090Y-55491460D01*
X110664086Y-55491467D01*
X110571188Y-55665266D01*
X110513975Y-55853870D01*
X110494659Y-56050000D01*
X110513975Y-56246129D01*
X110571188Y-56434733D01*
X110664086Y-56608532D01*
X110664090Y-56608539D01*
X110716097Y-56671909D01*
X110743410Y-56736219D01*
X110731619Y-56805087D01*
X110684467Y-56856647D01*
X110675339Y-56861662D01*
X110539247Y-56929157D01*
X110395059Y-57045059D01*
X110279156Y-57189249D01*
X110196964Y-57354976D01*
X110196963Y-57354978D01*
X110152317Y-57534500D01*
X110149500Y-57576048D01*
X110149500Y-59023951D01*
X110152317Y-59065499D01*
X110196963Y-59245021D01*
X110196964Y-59245023D01*
X110279156Y-59410750D01*
X110395059Y-59554940D01*
X110459480Y-59606723D01*
X110539247Y-59670842D01*
X110704979Y-59753037D01*
X110884501Y-59797682D01*
X110884502Y-59797682D01*
X110884505Y-59797683D01*
X110926046Y-59800500D01*
X110926048Y-59800500D01*
X111723952Y-59800500D01*
X111723954Y-59800500D01*
X111765495Y-59797683D01*
X111945021Y-59753037D01*
X112110753Y-59670842D01*
X112157354Y-59633383D01*
X112221937Y-59606723D01*
X112290682Y-59619213D01*
X112341761Y-59666886D01*
X112358958Y-59734606D01*
X112357981Y-59746213D01*
X112349501Y-59810626D01*
X112349500Y-59810645D01*
X112349500Y-63389363D01*
X112364953Y-63506753D01*
X112364956Y-63506762D01*
X112425465Y-63652843D01*
X112429528Y-63659881D01*
X112427551Y-63661022D01*
X112448489Y-63715193D01*
X112434445Y-63783637D01*
X112385627Y-63833623D01*
X112324918Y-63849500D01*
X110743541Y-63849500D01*
X110641867Y-63855812D01*
X110641863Y-63855813D01*
X110517416Y-63881906D01*
X110402543Y-63905993D01*
X110402539Y-63905994D01*
X110402531Y-63905996D01*
X110174745Y-63994880D01*
X110174741Y-63994882D01*
X109964688Y-64120047D01*
X109778088Y-64278088D01*
X109620047Y-64464688D01*
X109494882Y-64674741D01*
X109494880Y-64674745D01*
X109405996Y-64902531D01*
X109405994Y-64902539D01*
X109405993Y-64902543D01*
X109381906Y-65017416D01*
X109355813Y-65141863D01*
X109355812Y-65141867D01*
X109349500Y-65243541D01*
X102600500Y-65243541D01*
X102600500Y-52196592D01*
X102620185Y-52129553D01*
X102672989Y-52083798D01*
X102724617Y-52072592D01*
X151575621Y-52119590D01*
G37*
G04 #@! TD.AperFunction*
G04 #@! TA.AperFunction,Conductor*
G36*
X116765300Y-97540001D02*
G01*
X116821234Y-97581873D01*
X116836528Y-97608731D01*
X116879204Y-97711762D01*
X116879225Y-97711811D01*
X116890073Y-97728046D01*
X116955887Y-97826545D01*
X116955888Y-97826546D01*
X117008180Y-97878837D01*
X117041666Y-97940160D01*
X117044500Y-97966519D01*
X117044500Y-98700001D01*
X117044501Y-98700019D01*
X117055000Y-98802796D01*
X117055001Y-98802799D01*
X117110185Y-98969331D01*
X117110186Y-98969334D01*
X117202288Y-99118656D01*
X117326344Y-99242712D01*
X117475666Y-99334814D01*
X117642203Y-99389999D01*
X117744991Y-99400500D01*
X118145008Y-99400499D01*
X118145016Y-99400498D01*
X118145019Y-99400498D01*
X118201302Y-99394748D01*
X118247797Y-99389999D01*
X118351497Y-99355635D01*
X118421324Y-99353234D01*
X118481366Y-99388965D01*
X118512559Y-99451486D01*
X118514500Y-99473342D01*
X118514500Y-100247046D01*
X118514500Y-100385034D01*
X118514500Y-100385036D01*
X118514499Y-100385036D01*
X118541418Y-100520362D01*
X118541420Y-100520368D01*
X118594223Y-100647847D01*
X118594229Y-100647857D01*
X118596117Y-100650683D01*
X118596651Y-100652388D01*
X118597098Y-100653225D01*
X118596939Y-100653309D01*
X118616993Y-100717361D01*
X118598507Y-100784740D01*
X118580694Y-100807252D01*
X118224765Y-101163181D01*
X118163442Y-101196666D01*
X118137084Y-101199500D01*
X117744998Y-101199500D01*
X117744980Y-101199501D01*
X117642203Y-101210000D01*
X117642200Y-101210001D01*
X117475668Y-101265185D01*
X117475663Y-101265187D01*
X117326342Y-101357289D01*
X117224546Y-101459084D01*
X117163223Y-101492568D01*
X117093531Y-101487583D01*
X117071769Y-101476941D01*
X117035081Y-101454311D01*
X117035076Y-101454309D01*
X116870762Y-101399861D01*
X116769344Y-101389500D01*
X116390664Y-101389500D01*
X116390646Y-101389501D01*
X116289239Y-101399860D01*
X116289236Y-101399861D01*
X116124923Y-101454309D01*
X116124912Y-101454314D01*
X115977592Y-101545183D01*
X115977588Y-101545186D01*
X115855186Y-101667588D01*
X115855183Y-101667592D01*
X115764314Y-101814912D01*
X115764309Y-101814923D01*
X115709861Y-101979237D01*
X115699500Y-102080649D01*
X115699500Y-102519335D01*
X115699501Y-102519353D01*
X115709860Y-102620760D01*
X115709861Y-102620763D01*
X115764309Y-102785076D01*
X115764314Y-102785087D01*
X115855183Y-102932407D01*
X115855186Y-102932411D01*
X115977588Y-103054813D01*
X115977592Y-103054816D01*
X116124912Y-103145685D01*
X116124915Y-103145686D01*
X116124921Y-103145690D01*
X116289239Y-103200139D01*
X116390657Y-103210500D01*
X116769342Y-103210499D01*
X116769350Y-103210498D01*
X116769353Y-103210498D01*
X116824885Y-103204825D01*
X116870761Y-103200139D01*
X116877654Y-103197854D01*
X116881496Y-103196582D01*
X116951324Y-103194180D01*
X117011366Y-103229912D01*
X117042559Y-103292432D01*
X117044500Y-103314288D01*
X117044500Y-103650000D01*
X117044501Y-103650019D01*
X117055000Y-103752796D01*
X117055001Y-103752799D01*
X117110185Y-103919331D01*
X117110186Y-103919334D01*
X117202288Y-104068656D01*
X117326344Y-104192712D01*
X117475666Y-104284814D01*
X117550105Y-104309480D01*
X117607548Y-104349251D01*
X117634372Y-104413766D01*
X117635100Y-104427185D01*
X117635100Y-105988565D01*
X117615415Y-106055604D01*
X117598781Y-106076246D01*
X114861470Y-108813556D01*
X114861467Y-108813559D01*
X114816758Y-108880471D01*
X114816759Y-108880472D01*
X114782070Y-108932388D01*
X114727381Y-109064419D01*
X114727379Y-109064425D01*
X114699500Y-109204582D01*
X114699500Y-124747829D01*
X114679815Y-124814868D01*
X114663181Y-124835510D01*
X114158443Y-125340247D01*
X114097120Y-125373732D01*
X114082917Y-125375969D01*
X113953871Y-125388679D01*
X113765266Y-125445892D01*
X113591467Y-125538790D01*
X113591460Y-125538794D01*
X113439116Y-125663820D01*
X113314090Y-125816164D01*
X113314086Y-125816171D01*
X113221188Y-125989970D01*
X113163975Y-126178574D01*
X113144659Y-126374704D01*
X113163975Y-126570833D01*
X113163976Y-126570836D01*
X113191903Y-126662900D01*
X113221188Y-126759437D01*
X113314086Y-126933236D01*
X113314090Y-126933243D01*
X113439116Y-127085587D01*
X113591460Y-127210613D01*
X113591467Y-127210617D01*
X113765266Y-127303515D01*
X113765269Y-127303515D01*
X113765273Y-127303518D01*
X113953868Y-127360728D01*
X114150000Y-127380045D01*
X114346132Y-127360728D01*
X114534727Y-127303518D01*
X114537547Y-127302011D01*
X114708532Y-127210617D01*
X114708538Y-127210614D01*
X114860883Y-127085587D01*
X114985910Y-126933242D01*
X115052140Y-126809335D01*
X115078811Y-126759437D01*
X115078811Y-126759436D01*
X115078814Y-126759431D01*
X115136024Y-126570836D01*
X115148733Y-126441785D01*
X115174893Y-126377000D01*
X115184446Y-126366268D01*
X115988532Y-125562184D01*
X116067929Y-125443357D01*
X116122619Y-125311324D01*
X116127025Y-125289175D01*
X116141168Y-125218073D01*
X116150500Y-125171161D01*
X116150500Y-117318337D01*
X116170185Y-117251298D01*
X116222989Y-117205543D01*
X116292147Y-117195599D01*
X116355703Y-117224624D01*
X116362181Y-117230656D01*
X117163181Y-118031656D01*
X117196666Y-118092979D01*
X117199500Y-118119337D01*
X117199500Y-129993408D01*
X117179815Y-130060447D01*
X117127011Y-130106202D01*
X117057853Y-130116146D01*
X116994297Y-130087121D01*
X116987819Y-130081089D01*
X116971605Y-130064875D01*
X116971601Y-130064872D01*
X116832309Y-129971799D01*
X116832296Y-129971792D01*
X116696085Y-129915373D01*
X116689227Y-129912532D01*
X116677522Y-129907684D01*
X116677518Y-129907683D01*
X116677514Y-129907682D01*
X116513211Y-129875000D01*
X116513207Y-129875000D01*
X114490733Y-129875000D01*
X114490728Y-129875000D01*
X114326425Y-129907682D01*
X114326418Y-129907684D01*
X114307855Y-129915373D01*
X114171640Y-129971794D01*
X114171635Y-129971797D01*
X114127661Y-130001179D01*
X114094768Y-130016735D01*
X113915271Y-130071186D01*
X113741467Y-130164086D01*
X113741460Y-130164090D01*
X113589116Y-130289116D01*
X113464090Y-130441460D01*
X113464086Y-130441467D01*
X113371188Y-130615266D01*
X113313975Y-130803870D01*
X113294659Y-131000000D01*
X113313975Y-131196129D01*
X113313976Y-131196132D01*
X113350162Y-131315422D01*
X113371188Y-131384733D01*
X113464086Y-131558532D01*
X113464090Y-131558539D01*
X113589116Y-131710883D01*
X113741460Y-131835909D01*
X113741467Y-131835913D01*
X113915266Y-131928811D01*
X113915269Y-131928811D01*
X113915273Y-131928814D01*
X114103868Y-131986024D01*
X114300000Y-132005341D01*
X114496132Y-131986024D01*
X114684727Y-131928814D01*
X114858538Y-131835910D01*
X114858540Y-131835907D01*
X114863627Y-131833189D01*
X114932030Y-131818947D01*
X114997274Y-131843947D01*
X115038645Y-131900252D01*
X115045402Y-131929585D01*
X115053150Y-132003304D01*
X115053151Y-132003307D01*
X115108394Y-132173329D01*
X115108397Y-132173335D01*
X115197788Y-132328165D01*
X115239459Y-132374446D01*
X115317411Y-132461021D01*
X115317414Y-132461023D01*
X115317417Y-132461026D01*
X115462054Y-132566112D01*
X115527071Y-132595060D01*
X115564316Y-132620658D01*
X116030280Y-133086622D01*
X116063765Y-133147945D01*
X116058781Y-133217637D01*
X116030930Y-133258574D01*
X116032118Y-133259644D01*
X115908140Y-133397336D01*
X115818750Y-133552164D01*
X115818747Y-133552170D01*
X115763504Y-133722192D01*
X115763503Y-133722194D01*
X115744815Y-133900000D01*
X115763503Y-134077805D01*
X115763504Y-134077807D01*
X115818747Y-134247829D01*
X115818750Y-134247835D01*
X115908141Y-134402665D01*
X115920647Y-134416554D01*
X115977787Y-134480015D01*
X116008017Y-134543007D01*
X115999392Y-134612342D01*
X115973318Y-134650668D01*
X115738468Y-134885518D01*
X115677145Y-134919003D01*
X115662942Y-134921240D01*
X115533896Y-134933950D01*
X115345291Y-134991163D01*
X115171492Y-135084061D01*
X115171485Y-135084065D01*
X115019141Y-135209091D01*
X114894115Y-135361435D01*
X114894111Y-135361442D01*
X114801213Y-135535241D01*
X114744000Y-135723845D01*
X114724684Y-135919975D01*
X114744000Y-136116104D01*
X114801213Y-136304708D01*
X114894111Y-136478507D01*
X114894115Y-136478514D01*
X114976378Y-136578750D01*
X115003691Y-136643059D01*
X115004525Y-136657415D01*
X115004525Y-137080191D01*
X114984840Y-137147230D01*
X114932036Y-137192985D01*
X114862878Y-137202929D01*
X114799322Y-137173904D01*
X114792844Y-137167872D01*
X111846771Y-134221799D01*
X111826748Y-134191598D01*
X111825064Y-134192499D01*
X111822192Y-134187125D01*
X111777596Y-134120384D01*
X111745355Y-134072132D01*
X111643247Y-133970024D01*
X111643227Y-133970006D01*
X111635036Y-133961815D01*
X111601556Y-133900491D01*
X111598724Y-133874140D01*
X111598724Y-131751217D01*
X111618409Y-131684178D01*
X111635038Y-131663540D01*
X111740381Y-131558198D01*
X111817217Y-131443205D01*
X111835415Y-131399271D01*
X111835418Y-131399265D01*
X111870141Y-131315434D01*
X111870143Y-131315430D01*
X111897124Y-131179786D01*
X111897124Y-130417877D01*
X111911766Y-130359423D01*
X111916729Y-130350139D01*
X111953242Y-130281828D01*
X112010452Y-130093233D01*
X112029769Y-129897101D01*
X112010452Y-129700969D01*
X111953242Y-129512374D01*
X111953239Y-129512370D01*
X111953239Y-129512367D01*
X111860341Y-129338568D01*
X111860337Y-129338561D01*
X111735311Y-129186217D01*
X111582967Y-129061191D01*
X111582960Y-129061187D01*
X111409161Y-128968289D01*
X111409155Y-128968287D01*
X111283425Y-128930147D01*
X111220557Y-128911076D01*
X111024428Y-128891760D01*
X110828298Y-128911076D01*
X110639694Y-128968289D01*
X110465895Y-129061187D01*
X110465888Y-129061191D01*
X110313544Y-129186217D01*
X110188518Y-129338561D01*
X110188514Y-129338568D01*
X110095616Y-129512367D01*
X110038403Y-129700971D01*
X110019087Y-129897101D01*
X110019849Y-129904838D01*
X110006830Y-129973484D01*
X109975111Y-130012844D01*
X109832540Y-130129849D01*
X109707514Y-130282193D01*
X109707510Y-130282200D01*
X109614612Y-130455999D01*
X109557399Y-130644603D01*
X109538083Y-130840733D01*
X109557399Y-131036862D01*
X109557400Y-131036865D01*
X109605713Y-131196132D01*
X109614612Y-131225466D01*
X109707510Y-131399265D01*
X109707514Y-131399272D01*
X109813177Y-131528021D01*
X109840490Y-131592331D01*
X109841324Y-131606686D01*
X109841324Y-134431777D01*
X109868303Y-134567409D01*
X109868305Y-134567417D01*
X109921231Y-134695191D01*
X109998067Y-134810185D01*
X110200030Y-135012147D01*
X110220198Y-135042263D01*
X110221734Y-135041443D01*
X110224603Y-135046811D01*
X110301444Y-135161813D01*
X110301445Y-135161814D01*
X117513995Y-142374363D01*
X117547480Y-142435686D01*
X117542496Y-142505378D01*
X117500624Y-142561311D01*
X117438469Y-142585447D01*
X117398968Y-142589337D01*
X117205656Y-142647978D01*
X117158452Y-142673209D01*
X117090049Y-142687450D01*
X117041548Y-142673209D01*
X116994343Y-142647978D01*
X116994342Y-142647977D01*
X116994341Y-142647977D01*
X116897687Y-142618657D01*
X116801031Y-142589337D01*
X116600000Y-142569538D01*
X116398968Y-142589337D01*
X116205656Y-142647978D01*
X116158452Y-142673209D01*
X116090049Y-142687450D01*
X116041548Y-142673209D01*
X115994343Y-142647978D01*
X115994342Y-142647977D01*
X115994341Y-142647977D01*
X115897687Y-142618657D01*
X115801031Y-142589337D01*
X115600000Y-142569538D01*
X115398968Y-142589337D01*
X115205656Y-142647978D01*
X115158452Y-142673209D01*
X115090049Y-142687450D01*
X115041548Y-142673209D01*
X114994343Y-142647978D01*
X114994342Y-142647977D01*
X114994341Y-142647977D01*
X114897687Y-142618657D01*
X114801031Y-142589337D01*
X114600000Y-142569538D01*
X114398968Y-142589337D01*
X114205656Y-142647978D01*
X114158452Y-142673209D01*
X114090049Y-142687450D01*
X114041548Y-142673209D01*
X113994343Y-142647978D01*
X113994342Y-142647977D01*
X113994341Y-142647977D01*
X113897687Y-142618657D01*
X113801031Y-142589337D01*
X113600000Y-142569538D01*
X113398968Y-142589337D01*
X113205656Y-142647978D01*
X113158452Y-142673209D01*
X113090049Y-142687450D01*
X113041548Y-142673209D01*
X112994343Y-142647978D01*
X112994342Y-142647977D01*
X112994341Y-142647977D01*
X112897687Y-142618657D01*
X112801031Y-142589337D01*
X112600000Y-142569538D01*
X112398967Y-142589337D01*
X112315178Y-142614754D01*
X112245311Y-142615377D01*
X112231732Y-142610654D01*
X112181765Y-142589957D01*
X112181760Y-142589955D01*
X112064361Y-142574500D01*
X111135636Y-142574500D01*
X111018246Y-142589953D01*
X111018237Y-142589956D01*
X110872160Y-142650463D01*
X110746718Y-142746718D01*
X110650463Y-142872160D01*
X110589956Y-143018237D01*
X110589955Y-143018239D01*
X110577703Y-143111306D01*
X110574500Y-143135639D01*
X110574500Y-143313557D01*
X110574501Y-143490500D01*
X110554817Y-143557539D01*
X110502013Y-143603294D01*
X110450501Y-143614500D01*
X107051214Y-143614500D01*
X106984175Y-143594815D01*
X106963533Y-143578181D01*
X105986819Y-142601467D01*
X105953334Y-142540144D01*
X105950500Y-142513786D01*
X105950500Y-138774500D01*
X105970185Y-138707461D01*
X106022989Y-138661706D01*
X106074500Y-138650500D01*
X108796349Y-138650500D01*
X108863388Y-138670185D01*
X108884030Y-138686819D01*
X109857831Y-139660620D01*
X109857834Y-139660622D01*
X109857838Y-139660626D01*
X109997137Y-139753704D01*
X110074525Y-139785758D01*
X110074526Y-139785759D01*
X110106406Y-139798964D01*
X110151918Y-139817816D01*
X110316228Y-139850499D01*
X110316232Y-139850500D01*
X110316233Y-139850500D01*
X110347450Y-139850500D01*
X110414489Y-139870185D01*
X110460244Y-139922989D01*
X110470852Y-139986653D01*
X110469538Y-139999999D01*
X110469538Y-140000002D01*
X110489337Y-140201031D01*
X110489338Y-140201033D01*
X110545503Y-140386186D01*
X110547978Y-140394343D01*
X110573209Y-140441548D01*
X110587450Y-140509951D01*
X110573209Y-140558452D01*
X110547978Y-140605656D01*
X110489337Y-140798968D01*
X110469538Y-141000000D01*
X110489337Y-141201031D01*
X110547978Y-141394345D01*
X110643198Y-141572488D01*
X110643203Y-141572495D01*
X110771352Y-141728647D01*
X110855067Y-141797349D01*
X110927506Y-141856798D01*
X110927509Y-141856799D01*
X110927511Y-141856801D01*
X111105654Y-141952021D01*
X111105656Y-141952021D01*
X111105659Y-141952023D01*
X111298967Y-142010662D01*
X111500000Y-142030462D01*
X111701033Y-142010662D01*
X111894341Y-141952023D01*
X112072494Y-141856798D01*
X112228647Y-141728647D01*
X112356798Y-141572494D01*
X112452023Y-141394341D01*
X112510662Y-141201033D01*
X112530462Y-141000000D01*
X112510662Y-140798967D01*
X112452023Y-140605659D01*
X112426790Y-140558452D01*
X112412548Y-140490053D01*
X112426789Y-140441548D01*
X112452023Y-140394341D01*
X112510662Y-140201033D01*
X112530462Y-140000000D01*
X112510662Y-139798967D01*
X112485246Y-139715181D01*
X112484622Y-139645314D01*
X112489346Y-139631731D01*
X112510043Y-139581764D01*
X112510042Y-139581764D01*
X112510044Y-139581762D01*
X112525500Y-139464361D01*
X112525499Y-138535640D01*
X112525499Y-138535636D01*
X112510046Y-138418246D01*
X112510044Y-138418241D01*
X112510044Y-138418238D01*
X112449536Y-138272159D01*
X112353282Y-138146718D01*
X112227841Y-138050464D01*
X112081762Y-137989956D01*
X112081760Y-137989955D01*
X111964361Y-137974500D01*
X111035636Y-137974500D01*
X110918246Y-137989953D01*
X110918237Y-137989956D01*
X110804980Y-138036869D01*
X110772162Y-138050463D01*
X110764651Y-138053574D01*
X110763633Y-138051117D01*
X110705992Y-138062520D01*
X110641001Y-138036869D01*
X110629494Y-138026706D01*
X109742165Y-137139375D01*
X109742161Y-137139372D01*
X109602866Y-137046297D01*
X109602863Y-137046296D01*
X109490434Y-136999727D01*
X109448082Y-136982184D01*
X109448074Y-136982182D01*
X109283771Y-136949500D01*
X109283767Y-136949500D01*
X105183767Y-136949500D01*
X105016233Y-136949500D01*
X105016228Y-136949500D01*
X104851925Y-136982182D01*
X104851917Y-136982184D01*
X104697139Y-137046295D01*
X104557837Y-137139373D01*
X104439373Y-137257837D01*
X104346295Y-137397139D01*
X104346293Y-137397143D01*
X104339060Y-137414606D01*
X104295219Y-137469009D01*
X104228924Y-137491073D01*
X104161225Y-137473793D01*
X104113615Y-137422655D01*
X104100500Y-137367152D01*
X104100500Y-135667425D01*
X104120185Y-135600386D01*
X104172989Y-135554631D01*
X104242147Y-135544687D01*
X104305703Y-135573712D01*
X104327601Y-135598533D01*
X104335293Y-135610044D01*
X104348771Y-135630216D01*
X104486382Y-135767827D01*
X104486386Y-135767830D01*
X104648199Y-135875951D01*
X104648212Y-135875958D01*
X104760024Y-135922271D01*
X104828011Y-135950432D01*
X104828013Y-135950432D01*
X104828018Y-135950434D01*
X105018885Y-135988399D01*
X105018889Y-135988400D01*
X105018890Y-135988400D01*
X105988511Y-135988400D01*
X105988512Y-135988399D01*
X106052136Y-135975744D01*
X106179381Y-135950434D01*
X106179384Y-135950432D01*
X106179389Y-135950432D01*
X106359194Y-135875955D01*
X106521014Y-135767830D01*
X106658630Y-135630214D01*
X106766755Y-135468394D01*
X106841232Y-135288589D01*
X106850516Y-135241918D01*
X106867711Y-135155469D01*
X106879200Y-135097710D01*
X106879200Y-134903090D01*
X106851492Y-134763791D01*
X106841234Y-134712218D01*
X106841231Y-134712209D01*
X106766758Y-134532412D01*
X106766751Y-134532399D01*
X106689346Y-134416556D01*
X107278199Y-134416556D01*
X107313765Y-134595352D01*
X107313768Y-134595362D01*
X107383531Y-134763787D01*
X107383533Y-134763791D01*
X107484813Y-134915367D01*
X107484819Y-134915375D01*
X107613724Y-135044280D01*
X107613732Y-135044286D01*
X107765308Y-135145566D01*
X107765312Y-135145568D01*
X107918672Y-135209091D01*
X107933742Y-135215333D01*
X107933746Y-135215333D01*
X107933747Y-135215334D01*
X108112543Y-135250900D01*
X108112546Y-135250900D01*
X108294856Y-135250900D01*
X108415145Y-135226972D01*
X108473658Y-135215333D01*
X108602865Y-135161814D01*
X108642087Y-135145568D01*
X108642091Y-135145566D01*
X108758494Y-135067788D01*
X108793672Y-135044283D01*
X108922583Y-134915372D01*
X109023867Y-134763789D01*
X109093633Y-134595358D01*
X109116577Y-134480015D01*
X109129200Y-134416556D01*
X109129200Y-133584243D01*
X109093634Y-133405447D01*
X109093633Y-133405446D01*
X109093633Y-133405442D01*
X109090790Y-133398578D01*
X109023868Y-133237012D01*
X109023866Y-133237008D01*
X108922586Y-133085432D01*
X108922580Y-133085424D01*
X108793675Y-132956519D01*
X108793667Y-132956513D01*
X108642091Y-132855233D01*
X108642087Y-132855231D01*
X108473662Y-132785468D01*
X108473652Y-132785465D01*
X108294856Y-132749900D01*
X108294854Y-132749900D01*
X108112546Y-132749900D01*
X108112544Y-132749900D01*
X107933747Y-132785465D01*
X107933737Y-132785468D01*
X107765312Y-132855231D01*
X107765308Y-132855233D01*
X107613732Y-132956513D01*
X107613724Y-132956519D01*
X107484819Y-133085424D01*
X107484813Y-133085432D01*
X107383533Y-133237008D01*
X107383531Y-133237012D01*
X107313768Y-133405437D01*
X107313765Y-133405447D01*
X107278200Y-133584243D01*
X107278200Y-133584246D01*
X107278200Y-134416554D01*
X107278200Y-134416556D01*
X107278199Y-134416556D01*
X106689346Y-134416556D01*
X106658630Y-134370586D01*
X106658627Y-134370582D01*
X106521017Y-134232972D01*
X106521013Y-134232969D01*
X106359200Y-134124848D01*
X106359187Y-134124841D01*
X106179390Y-134050368D01*
X106179381Y-134050365D01*
X105988514Y-134012400D01*
X105988510Y-134012400D01*
X105018890Y-134012400D01*
X105018885Y-134012400D01*
X104828018Y-134050365D01*
X104828009Y-134050368D01*
X104648212Y-134124841D01*
X104648199Y-134124848D01*
X104486386Y-134232969D01*
X104486382Y-134232972D01*
X104348772Y-134370582D01*
X104327602Y-134402266D01*
X104273989Y-134447070D01*
X104204664Y-134455777D01*
X104141637Y-134425622D01*
X104104918Y-134366179D01*
X104100500Y-134333374D01*
X104100500Y-129416556D01*
X107278199Y-129416556D01*
X107313765Y-129595352D01*
X107313768Y-129595362D01*
X107383531Y-129763787D01*
X107383533Y-129763791D01*
X107484813Y-129915367D01*
X107484819Y-129915375D01*
X107613724Y-130044280D01*
X107613732Y-130044286D01*
X107765308Y-130145566D01*
X107765312Y-130145568D01*
X107933737Y-130215331D01*
X107933742Y-130215333D01*
X107933746Y-130215333D01*
X107933747Y-130215334D01*
X108112543Y-130250900D01*
X108112546Y-130250900D01*
X108294856Y-130250900D01*
X108415145Y-130226972D01*
X108473658Y-130215333D01*
X108642089Y-130145567D01*
X108642091Y-130145566D01*
X108738655Y-130081044D01*
X108793672Y-130044283D01*
X108922583Y-129915372D01*
X108973564Y-129839072D01*
X109023866Y-129763791D01*
X109023868Y-129763787D01*
X109058998Y-129678975D01*
X109093633Y-129595358D01*
X109115381Y-129486024D01*
X109129200Y-129416556D01*
X109129200Y-128584243D01*
X109093634Y-128405447D01*
X109093633Y-128405446D01*
X109093633Y-128405442D01*
X109078683Y-128369349D01*
X109023868Y-128237012D01*
X109023866Y-128237008D01*
X108922586Y-128085432D01*
X108922580Y-128085424D01*
X108793675Y-127956519D01*
X108793667Y-127956513D01*
X108642091Y-127855233D01*
X108642087Y-127855231D01*
X108473662Y-127785468D01*
X108473652Y-127785465D01*
X108294856Y-127749900D01*
X108294854Y-127749900D01*
X108112546Y-127749900D01*
X108112544Y-127749900D01*
X107933747Y-127785465D01*
X107933737Y-127785468D01*
X107765312Y-127855231D01*
X107765308Y-127855233D01*
X107613732Y-127956513D01*
X107613724Y-127956519D01*
X107484819Y-128085424D01*
X107484813Y-128085432D01*
X107383533Y-128237008D01*
X107383531Y-128237012D01*
X107313768Y-128405437D01*
X107313765Y-128405447D01*
X107278200Y-128584243D01*
X107278200Y-128584246D01*
X107278200Y-129416554D01*
X107278200Y-129416556D01*
X107278199Y-129416556D01*
X104100500Y-129416556D01*
X104100500Y-128667425D01*
X104120185Y-128600386D01*
X104172989Y-128554631D01*
X104242147Y-128544687D01*
X104305703Y-128573712D01*
X104327601Y-128598533D01*
X104328248Y-128599501D01*
X104348771Y-128630216D01*
X104486382Y-128767827D01*
X104486386Y-128767830D01*
X104648199Y-128875951D01*
X104648212Y-128875958D01*
X104746028Y-128916474D01*
X104828011Y-128950432D01*
X104828013Y-128950432D01*
X104828018Y-128950434D01*
X105018885Y-128988399D01*
X105018889Y-128988400D01*
X105018890Y-128988400D01*
X105988511Y-128988400D01*
X105988512Y-128988399D01*
X106069013Y-128972387D01*
X106179381Y-128950434D01*
X106179384Y-128950432D01*
X106179389Y-128950432D01*
X106359194Y-128875955D01*
X106521014Y-128767830D01*
X106658630Y-128630214D01*
X106766755Y-128468394D01*
X106841232Y-128288589D01*
X106846888Y-128260157D01*
X106866544Y-128161336D01*
X106879200Y-128097710D01*
X106879200Y-127903090D01*
X106860952Y-127811349D01*
X106841234Y-127712218D01*
X106841231Y-127712209D01*
X106766758Y-127532412D01*
X106766751Y-127532399D01*
X106658630Y-127370586D01*
X106658627Y-127370582D01*
X106521017Y-127232972D01*
X106521013Y-127232969D01*
X106359200Y-127124848D01*
X106359187Y-127124841D01*
X106179390Y-127050368D01*
X106179381Y-127050365D01*
X105988514Y-127012400D01*
X105988510Y-127012400D01*
X105018890Y-127012400D01*
X105018885Y-127012400D01*
X104828018Y-127050365D01*
X104828009Y-127050368D01*
X104648212Y-127124841D01*
X104648199Y-127124848D01*
X104486386Y-127232969D01*
X104486382Y-127232972D01*
X104348772Y-127370582D01*
X104327602Y-127402266D01*
X104273989Y-127447070D01*
X104204664Y-127455777D01*
X104141637Y-127425622D01*
X104104918Y-127366179D01*
X104100500Y-127333374D01*
X104100500Y-119599997D01*
X109794659Y-119599997D01*
X109794659Y-119599999D01*
X109813975Y-119796129D01*
X109871188Y-119984733D01*
X109964086Y-120158532D01*
X109964090Y-120158539D01*
X110089116Y-120310883D01*
X110241460Y-120435909D01*
X110241467Y-120435913D01*
X110415265Y-120528810D01*
X110415266Y-120528810D01*
X110415273Y-120528814D01*
X110467657Y-120544704D01*
X110519341Y-120575683D01*
X110660586Y-120716928D01*
X111383072Y-121439414D01*
X111523212Y-121541232D01*
X111677555Y-121619873D01*
X111842299Y-121673402D01*
X112013389Y-121700500D01*
X112013390Y-121700500D01*
X112186610Y-121700500D01*
X112186611Y-121700500D01*
X112357701Y-121673402D01*
X112522445Y-121619873D01*
X112676788Y-121541232D01*
X112816928Y-121439414D01*
X112939414Y-121316928D01*
X113041232Y-121176788D01*
X113119873Y-121022445D01*
X113173402Y-120857701D01*
X113200500Y-120686611D01*
X113200500Y-120513389D01*
X113173402Y-120342299D01*
X113119873Y-120177555D01*
X113041232Y-120023212D01*
X112939414Y-119883072D01*
X112216928Y-119160586D01*
X111616928Y-118560586D01*
X111476788Y-118458768D01*
X111322445Y-118380127D01*
X111157701Y-118326598D01*
X111157699Y-118326597D01*
X111157698Y-118326597D01*
X111026271Y-118305781D01*
X110986611Y-118299500D01*
X110813389Y-118299500D01*
X110773728Y-118305781D01*
X110642302Y-118326597D01*
X110477552Y-118380128D01*
X110323211Y-118458768D01*
X110273314Y-118495021D01*
X110183072Y-118560586D01*
X110183070Y-118560588D01*
X110183069Y-118560588D01*
X110060588Y-118683069D01*
X110060588Y-118683070D01*
X110060586Y-118683072D01*
X110043088Y-118707156D01*
X109958768Y-118823211D01*
X109880128Y-118977552D01*
X109826597Y-119142302D01*
X109799500Y-119313389D01*
X109799500Y-119486611D01*
X109800912Y-119495531D01*
X109801840Y-119527071D01*
X109794659Y-119599997D01*
X104100500Y-119599997D01*
X104100500Y-100403651D01*
X104120185Y-100336612D01*
X104136819Y-100315970D01*
X104687819Y-99764970D01*
X104749142Y-99731485D01*
X104818834Y-99736469D01*
X104874767Y-99778341D01*
X104899184Y-99843805D01*
X104899500Y-99852651D01*
X104899500Y-100219099D01*
X104893431Y-100257417D01*
X104838910Y-100425211D01*
X104838910Y-100425214D01*
X104820177Y-100543487D01*
X104799500Y-100674038D01*
X104799500Y-100925962D01*
X104805552Y-100964170D01*
X104835562Y-101153649D01*
X104838910Y-101174784D01*
X104893431Y-101342581D01*
X104899500Y-101380899D01*
X104899500Y-101873951D01*
X104902317Y-101915499D01*
X104946963Y-102095021D01*
X104946964Y-102095023D01*
X105029156Y-102260750D01*
X105145059Y-102404940D01*
X105227173Y-102470945D01*
X105289247Y-102520842D01*
X105454979Y-102603037D01*
X105634501Y-102647682D01*
X105634502Y-102647682D01*
X105634505Y-102647683D01*
X105676046Y-102650500D01*
X105982407Y-102650500D01*
X106049446Y-102670185D01*
X106055292Y-102674182D01*
X106089763Y-102699226D01*
X106096155Y-102703870D01*
X106235679Y-102774961D01*
X106320616Y-102818239D01*
X106320618Y-102818239D01*
X106320621Y-102818241D01*
X106560215Y-102896090D01*
X106809038Y-102935500D01*
X107331689Y-102935500D01*
X107398728Y-102955185D01*
X107444483Y-103007989D01*
X107454427Y-103077147D01*
X107425402Y-103140703D01*
X107419370Y-103147181D01*
X106379205Y-104187345D01*
X106379201Y-104187350D01*
X106231132Y-104391151D01*
X106116760Y-104615616D01*
X106038910Y-104855214D01*
X105999500Y-105104038D01*
X105999500Y-105115500D01*
X105979815Y-105182539D01*
X105927011Y-105228294D01*
X105875500Y-105239500D01*
X105160636Y-105239500D01*
X105043246Y-105254953D01*
X105043237Y-105254956D01*
X104897160Y-105315463D01*
X104771718Y-105411718D01*
X104675463Y-105537160D01*
X104614956Y-105683237D01*
X104614955Y-105683239D01*
X104599501Y-105800629D01*
X104599501Y-105800636D01*
X104599500Y-105800645D01*
X104599500Y-110599363D01*
X104614953Y-110716753D01*
X104614956Y-110716762D01*
X104668708Y-110846532D01*
X104675464Y-110862841D01*
X104771718Y-110988282D01*
X104897159Y-111084536D01*
X105043238Y-111145044D01*
X105160639Y-111160500D01*
X110039360Y-111160499D01*
X110039363Y-111160499D01*
X110156753Y-111145046D01*
X110156757Y-111145044D01*
X110156762Y-111145044D01*
X110302841Y-111084536D01*
X110428282Y-110988282D01*
X110524536Y-110862841D01*
X110585044Y-110716762D01*
X110600500Y-110599361D01*
X110600499Y-105800640D01*
X110600499Y-105800639D01*
X110600499Y-105800636D01*
X110585046Y-105683246D01*
X110585044Y-105683239D01*
X110585044Y-105683238D01*
X110524536Y-105537159D01*
X110428282Y-105411718D01*
X110302841Y-105315464D01*
X110156762Y-105254956D01*
X110156760Y-105254955D01*
X110129571Y-105251376D01*
X110124812Y-105250749D01*
X110060916Y-105222484D01*
X110022445Y-105164159D01*
X110021614Y-105094294D01*
X110053315Y-105040132D01*
X111876304Y-103217143D01*
X111937622Y-103183661D01*
X112031801Y-103163175D01*
X112286513Y-103068172D01*
X112286517Y-103068169D01*
X112286519Y-103068169D01*
X112493434Y-102955185D01*
X112525113Y-102937887D01*
X112742742Y-102774971D01*
X112934971Y-102582742D01*
X113097887Y-102365113D01*
X113228172Y-102126513D01*
X113323175Y-101871801D01*
X113380961Y-101606160D01*
X113400355Y-101335000D01*
X113380961Y-101063840D01*
X113323175Y-100798199D01*
X113228172Y-100543487D01*
X113228170Y-100543484D01*
X113228169Y-100543480D01*
X113097890Y-100304892D01*
X113097889Y-100304891D01*
X113097887Y-100304887D01*
X112934971Y-100087258D01*
X112934966Y-100087253D01*
X112934961Y-100087247D01*
X112742752Y-99895038D01*
X112742746Y-99895033D01*
X112742742Y-99895029D01*
X112647546Y-99823765D01*
X112605676Y-99767833D01*
X112600692Y-99698142D01*
X112634177Y-99636819D01*
X112695500Y-99603334D01*
X112721858Y-99600500D01*
X114333768Y-99600500D01*
X114333769Y-99600499D01*
X114498082Y-99567816D01*
X114554876Y-99544291D01*
X114652863Y-99503704D01*
X114792162Y-99410627D01*
X116634288Y-97568500D01*
X116695609Y-97535017D01*
X116765300Y-97540001D01*
G37*
G04 #@! TD.AperFunction*
G04 #@! TA.AperFunction,Conductor*
G36*
X117148910Y-135617373D02*
G01*
X117210639Y-135625500D01*
X118385236Y-135625499D01*
X118452275Y-135645184D01*
X118485298Y-135677621D01*
X118485509Y-135677448D01*
X118487118Y-135679408D01*
X118488336Y-135680605D01*
X118489371Y-135682154D01*
X118489375Y-135682159D01*
X119626002Y-136818784D01*
X119656981Y-136870469D01*
X119696192Y-136999728D01*
X119789092Y-137173532D01*
X119789096Y-137173539D01*
X119914122Y-137325883D01*
X120066466Y-137450909D01*
X120066473Y-137450913D01*
X120240272Y-137543811D01*
X120240275Y-137543811D01*
X120240279Y-137543814D01*
X120428874Y-137601024D01*
X120625006Y-137620341D01*
X120821138Y-137601024D01*
X121009733Y-137543814D01*
X121128855Y-137480141D01*
X121187308Y-137465500D01*
X123354847Y-137465500D01*
X123421886Y-137485185D01*
X123467641Y-137537989D01*
X123477585Y-137607147D01*
X123448560Y-137670703D01*
X123442528Y-137677181D01*
X119560022Y-141559687D01*
X119498699Y-141593172D01*
X119429007Y-141588188D01*
X119384660Y-141559687D01*
X118581217Y-140756244D01*
X118519712Y-140715148D01*
X118466221Y-140679407D01*
X118338447Y-140626481D01*
X118338439Y-140626479D01*
X118266744Y-140612218D01*
X118204833Y-140579833D01*
X118203254Y-140578282D01*
X117395243Y-139770271D01*
X117361758Y-139708948D01*
X117366742Y-139639256D01*
X117408614Y-139583323D01*
X117446923Y-139563932D01*
X117529727Y-139538814D01*
X117703538Y-139445910D01*
X117855883Y-139320883D01*
X117980910Y-139168538D01*
X118073814Y-138994727D01*
X118131024Y-138806132D01*
X118150341Y-138610000D01*
X118131024Y-138413868D01*
X118073814Y-138225273D01*
X118073811Y-138225269D01*
X118073811Y-138225266D01*
X117980913Y-138051467D01*
X117980909Y-138051460D01*
X117855883Y-137899116D01*
X117703539Y-137774090D01*
X117703532Y-137774086D01*
X117529733Y-137681188D01*
X117529727Y-137681186D01*
X117341132Y-137623976D01*
X117341129Y-137623975D01*
X117145000Y-137604659D01*
X116948867Y-137623976D01*
X116868193Y-137648447D01*
X116798326Y-137649070D01*
X116744518Y-137617467D01*
X116491844Y-137364792D01*
X116458359Y-137303469D01*
X116455525Y-137277111D01*
X116455525Y-136657415D01*
X116475210Y-136590376D01*
X116483672Y-136578750D01*
X116565934Y-136478514D01*
X116565938Y-136478507D01*
X116568995Y-136472789D01*
X116615896Y-136385043D01*
X116658836Y-136304708D01*
X116658836Y-136304707D01*
X116658839Y-136304702D01*
X116716049Y-136116107D01*
X116728758Y-135987056D01*
X116754918Y-135922271D01*
X116764471Y-135911539D01*
X117025901Y-135650109D01*
X117087222Y-135616626D01*
X117129765Y-135614853D01*
X117148910Y-135617373D01*
G37*
G04 #@! TD.AperFunction*
G04 #@! TA.AperFunction,Conductor*
G36*
X126228332Y-135126968D02*
G01*
X126272680Y-135155469D01*
X126923181Y-135805970D01*
X126956666Y-135867293D01*
X126959500Y-135893651D01*
X126959500Y-139211349D01*
X126939815Y-139278388D01*
X126923181Y-139299030D01*
X125369030Y-140853181D01*
X125307707Y-140886666D01*
X125281349Y-140889500D01*
X124266343Y-140889500D01*
X124199304Y-140869815D01*
X124156984Y-140823952D01*
X124120911Y-140756463D01*
X124120909Y-140756460D01*
X123995883Y-140604116D01*
X123843539Y-140479090D01*
X123843532Y-140479086D01*
X123669728Y-140386186D01*
X123579499Y-140358815D01*
X123521061Y-140320518D01*
X123492604Y-140256705D01*
X123503165Y-140187638D01*
X123527811Y-140152477D01*
X124897135Y-138783153D01*
X124958456Y-138749670D01*
X125010594Y-138749546D01*
X125093177Y-138767100D01*
X125093178Y-138767100D01*
X125271957Y-138767100D01*
X125271959Y-138767100D01*
X125446835Y-138729929D01*
X125610161Y-138657212D01*
X125754798Y-138552126D01*
X125874427Y-138419265D01*
X125963818Y-138264435D01*
X126019065Y-138094403D01*
X126037753Y-137916600D01*
X126019065Y-137738797D01*
X125975043Y-137603314D01*
X125973049Y-137533478D01*
X125975031Y-137526723D01*
X126019065Y-137391203D01*
X126037753Y-137213400D01*
X126019065Y-137035597D01*
X125991090Y-136949500D01*
X125963820Y-136865570D01*
X125963817Y-136865564D01*
X125874427Y-136710735D01*
X125813491Y-136643059D01*
X125754803Y-136577878D01*
X125754800Y-136577876D01*
X125754799Y-136577875D01*
X125754798Y-136577874D01*
X125610161Y-136472788D01*
X125446835Y-136400071D01*
X125446833Y-136400070D01*
X125319162Y-136372933D01*
X125271959Y-136362900D01*
X125189250Y-136362900D01*
X125122211Y-136343215D01*
X125076456Y-136290411D01*
X125066512Y-136221253D01*
X125095537Y-136157697D01*
X125101569Y-136151219D01*
X126097318Y-135155469D01*
X126158641Y-135121984D01*
X126228332Y-135126968D01*
G37*
G04 #@! TD.AperFunction*
G04 #@! TA.AperFunction,Conductor*
G36*
X133893697Y-124885185D02*
G01*
X133939452Y-124937989D01*
X133949396Y-125007147D01*
X133944365Y-125028498D01*
X133910001Y-125132203D01*
X133910001Y-125132204D01*
X133910000Y-125132204D01*
X133899500Y-125234983D01*
X133899500Y-125635001D01*
X133899501Y-125635019D01*
X133910000Y-125737796D01*
X133910001Y-125737799D01*
X133965185Y-125904331D01*
X133965189Y-125904340D01*
X134027217Y-126004904D01*
X134045657Y-126072296D01*
X134027217Y-126135096D01*
X133965189Y-126235659D01*
X133965185Y-126235668D01*
X133952311Y-126274521D01*
X133910001Y-126402203D01*
X133910001Y-126402204D01*
X133910000Y-126402204D01*
X133899500Y-126504983D01*
X133899500Y-126905001D01*
X133899501Y-126905019D01*
X133910000Y-127007796D01*
X133910001Y-127007799D01*
X133965185Y-127174331D01*
X133965187Y-127174336D01*
X133987565Y-127210617D01*
X134043937Y-127302011D01*
X134057289Y-127323657D01*
X134065648Y-127332016D01*
X134099133Y-127393339D01*
X134101370Y-127431849D01*
X134094659Y-127499998D01*
X134094659Y-127500000D01*
X134096391Y-127517589D01*
X134113975Y-127696129D01*
X134118856Y-127712218D01*
X134166949Y-127870761D01*
X134171188Y-127884733D01*
X134264086Y-128058532D01*
X134264090Y-128058539D01*
X134389116Y-128210883D01*
X134541460Y-128335909D01*
X134541467Y-128335913D01*
X134696831Y-128418957D01*
X134746675Y-128467919D01*
X134762136Y-128536057D01*
X134738305Y-128601736D01*
X134716066Y-128624962D01*
X134637839Y-128687842D01*
X134637834Y-128687847D01*
X134635278Y-128691028D01*
X134633225Y-128692456D01*
X134633083Y-128692599D01*
X134633057Y-128692573D01*
X134577931Y-128730943D01*
X134508109Y-128733518D01*
X134473539Y-128718873D01*
X134385081Y-128664311D01*
X134385076Y-128664309D01*
X134220762Y-128609861D01*
X134119344Y-128599500D01*
X133680664Y-128599500D01*
X133680646Y-128599501D01*
X133579239Y-128609860D01*
X133579236Y-128609861D01*
X133414923Y-128664309D01*
X133414912Y-128664314D01*
X133267592Y-128755183D01*
X133267588Y-128755186D01*
X133145186Y-128877588D01*
X133145183Y-128877592D01*
X133054314Y-129024912D01*
X133054309Y-129024923D01*
X132999861Y-129189237D01*
X132989500Y-129290650D01*
X132989500Y-129669335D01*
X132989502Y-129669355D01*
X132992957Y-129703180D01*
X132980187Y-129771872D01*
X132932306Y-129822756D01*
X132864515Y-129839676D01*
X132811146Y-129825138D01*
X132644732Y-129736188D01*
X132644729Y-129736187D01*
X132644727Y-129736186D01*
X132456132Y-129678976D01*
X132456129Y-129678975D01*
X132260000Y-129659659D01*
X132063870Y-129678975D01*
X131875266Y-129736188D01*
X131701467Y-129829086D01*
X131701460Y-129829090D01*
X131549116Y-129954116D01*
X131424090Y-130106460D01*
X131424086Y-130106467D01*
X131331186Y-130280271D01*
X131291976Y-130409528D01*
X131260997Y-130461213D01*
X130244030Y-131478181D01*
X130182707Y-131511666D01*
X130156349Y-131514500D01*
X127601228Y-131514500D01*
X127436925Y-131547182D01*
X127436917Y-131547184D01*
X127282139Y-131611295D01*
X127142837Y-131704373D01*
X125625397Y-133221813D01*
X125625396Y-133221813D01*
X125625397Y-133221814D01*
X125524373Y-133322838D01*
X123119030Y-135728181D01*
X123057707Y-135761666D01*
X123031349Y-135764500D01*
X121437987Y-135764500D01*
X121370948Y-135744815D01*
X121325193Y-135692011D01*
X121315249Y-135622853D01*
X121344274Y-135559297D01*
X121362497Y-135542126D01*
X121478282Y-135453282D01*
X121574536Y-135327841D01*
X121635044Y-135181762D01*
X121650500Y-135064361D01*
X121650499Y-133549499D01*
X121670184Y-133482461D01*
X121722987Y-133436706D01*
X121774499Y-133425500D01*
X121871813Y-133425500D01*
X121972673Y-133405437D01*
X122007145Y-133398580D01*
X122098743Y-133360639D01*
X122134624Y-133345777D01*
X122134625Y-133345776D01*
X122134628Y-133345775D01*
X122249360Y-133269114D01*
X126744114Y-128774360D01*
X126820775Y-128659628D01*
X126830944Y-128635079D01*
X126870417Y-128539781D01*
X126873580Y-128532145D01*
X126886261Y-128468394D01*
X126900500Y-128396813D01*
X126900500Y-126293560D01*
X126920185Y-126226521D01*
X126972989Y-126180766D01*
X127042147Y-126170822D01*
X127105703Y-126199847D01*
X127141542Y-126252606D01*
X127149210Y-126274521D01*
X127226567Y-126397633D01*
X127245184Y-126427262D01*
X127372738Y-126554816D01*
X127398229Y-126570833D01*
X127525000Y-126650489D01*
X127525478Y-126650789D01*
X127695745Y-126710368D01*
X127695750Y-126710369D01*
X127786246Y-126720565D01*
X127830040Y-126725499D01*
X127830043Y-126725500D01*
X127830046Y-126725500D01*
X128469957Y-126725500D01*
X128469958Y-126725499D01*
X128537104Y-126717934D01*
X128604249Y-126710369D01*
X128604252Y-126710368D01*
X128604255Y-126710368D01*
X128774522Y-126650789D01*
X128774522Y-126650788D01*
X128781095Y-126648489D01*
X128781795Y-126650489D01*
X128840623Y-126640795D01*
X128904761Y-126668509D01*
X128943735Y-126726499D01*
X128949500Y-126763868D01*
X128949500Y-126905000D01*
X128949501Y-126905019D01*
X128960000Y-127007796D01*
X128960001Y-127007799D01*
X129015185Y-127174331D01*
X129015187Y-127174336D01*
X129037565Y-127210617D01*
X129107288Y-127323656D01*
X129138447Y-127354815D01*
X129166309Y-127382677D01*
X129199793Y-127444001D01*
X129194808Y-127513692D01*
X129184166Y-127535455D01*
X129104311Y-127664918D01*
X129104309Y-127664923D01*
X129049861Y-127829237D01*
X129039500Y-127930649D01*
X129039500Y-128369335D01*
X129039501Y-128369353D01*
X129049860Y-128470760D01*
X129049861Y-128470763D01*
X129104309Y-128635076D01*
X129104314Y-128635087D01*
X129195183Y-128782407D01*
X129195186Y-128782411D01*
X129317588Y-128904813D01*
X129317592Y-128904816D01*
X129464912Y-128995685D01*
X129464915Y-128995686D01*
X129464921Y-128995690D01*
X129629239Y-129050139D01*
X129730657Y-129060500D01*
X130109342Y-129060499D01*
X130109350Y-129060498D01*
X130109353Y-129060498D01*
X130164885Y-129054825D01*
X130210761Y-129050139D01*
X130375079Y-128995690D01*
X130522411Y-128904814D01*
X130644814Y-128782411D01*
X130735690Y-128635079D01*
X130790139Y-128470761D01*
X130800500Y-128369343D01*
X130800499Y-128311518D01*
X130820182Y-128244480D01*
X130836809Y-128223846D01*
X131069114Y-127991543D01*
X131145775Y-127876811D01*
X131148282Y-127870760D01*
X131182099Y-127789117D01*
X131198580Y-127749329D01*
X131198580Y-127749325D01*
X131198582Y-127749322D01*
X131203934Y-127722411D01*
X131203935Y-127722411D01*
X131203935Y-127722403D01*
X131207337Y-127705299D01*
X131239726Y-127643391D01*
X131300445Y-127608821D01*
X131328953Y-127605499D01*
X131400002Y-127605499D01*
X131400008Y-127605499D01*
X131502797Y-127594999D01*
X131669334Y-127539814D01*
X131818656Y-127447712D01*
X131942712Y-127323656D01*
X132034814Y-127174334D01*
X132089999Y-127007797D01*
X132100500Y-126905009D01*
X132100499Y-126504992D01*
X132089999Y-126402203D01*
X132047151Y-126272899D01*
X132044750Y-126203076D01*
X132080481Y-126143034D01*
X132140667Y-126112282D01*
X132159278Y-126108580D01*
X132252419Y-126070000D01*
X132286757Y-126055777D01*
X132286758Y-126055776D01*
X132286761Y-126055775D01*
X132401493Y-125979114D01*
X133478788Y-124901819D01*
X133540111Y-124868334D01*
X133566469Y-124865500D01*
X133826658Y-124865500D01*
X133893697Y-124885185D01*
G37*
G04 #@! TD.AperFunction*
G04 #@! TA.AperFunction,Conductor*
G36*
X125418834Y-119029973D02*
G01*
X125474767Y-119071845D01*
X125499184Y-119137309D01*
X125499500Y-119146155D01*
X125499500Y-126939462D01*
X125479815Y-127006501D01*
X125427011Y-127052256D01*
X125357853Y-127062200D01*
X125345574Y-127059797D01*
X125315497Y-127052317D01*
X125315501Y-127052317D01*
X125284339Y-127050204D01*
X125273954Y-127049500D01*
X123826046Y-127049500D01*
X123814177Y-127050304D01*
X123784500Y-127052317D01*
X123604978Y-127096963D01*
X123604976Y-127096964D01*
X123439249Y-127179156D01*
X123295063Y-127295057D01*
X123295061Y-127295058D01*
X123295060Y-127295060D01*
X123268429Y-127328189D01*
X123211089Y-127368106D01*
X123171785Y-127374500D01*
X122924499Y-127374500D01*
X122857460Y-127354815D01*
X122811705Y-127302011D01*
X122800499Y-127250500D01*
X122800499Y-126685636D01*
X122785046Y-126568246D01*
X122785044Y-126568241D01*
X122785044Y-126568238D01*
X122724536Y-126422159D01*
X122628282Y-126296718D01*
X122502841Y-126200464D01*
X122501351Y-126199847D01*
X122356762Y-126139956D01*
X122356760Y-126139955D01*
X122239370Y-126124501D01*
X122239367Y-126124500D01*
X122239361Y-126124500D01*
X122239354Y-126124500D01*
X121452853Y-126124500D01*
X121385814Y-126104815D01*
X121340059Y-126052011D01*
X121330115Y-125982853D01*
X121349751Y-125931609D01*
X121372240Y-125897952D01*
X121420775Y-125825314D01*
X121454409Y-125744114D01*
X121473580Y-125697832D01*
X121480345Y-125663820D01*
X121481899Y-125656010D01*
X121481899Y-125656007D01*
X121500500Y-125562496D01*
X121500500Y-122897155D01*
X121520185Y-122830116D01*
X121536819Y-122809474D01*
X125287819Y-119058474D01*
X125349142Y-119024989D01*
X125418834Y-119029973D01*
G37*
G04 #@! TD.AperFunction*
G04 #@! TA.AperFunction,Conductor*
G36*
X136940073Y-121279850D02*
G01*
X136981008Y-121307020D01*
X137612895Y-121938907D01*
X137646380Y-122000230D01*
X137641396Y-122069922D01*
X137599524Y-122125855D01*
X137561092Y-122144099D01*
X137561292Y-122144644D01*
X137555335Y-122146832D01*
X137555150Y-122146920D01*
X137554979Y-122146963D01*
X137554977Y-122146963D01*
X137554976Y-122146964D01*
X137389249Y-122229156D01*
X137245059Y-122345059D01*
X137129156Y-122489249D01*
X137046964Y-122654976D01*
X137046963Y-122654977D01*
X137009549Y-122805426D01*
X136974267Y-122865733D01*
X136911981Y-122897392D01*
X136889214Y-122899500D01*
X135971004Y-122899500D01*
X135835677Y-122926418D01*
X135835667Y-122926421D01*
X135708192Y-122979222D01*
X135593454Y-123055887D01*
X135421160Y-123228181D01*
X135359837Y-123261666D01*
X135333479Y-123264500D01*
X134599998Y-123264500D01*
X134599980Y-123264501D01*
X134497203Y-123275000D01*
X134497200Y-123275001D01*
X134330668Y-123330185D01*
X134330663Y-123330187D01*
X134181342Y-123422289D01*
X134175451Y-123428181D01*
X134114128Y-123461666D01*
X134087770Y-123464500D01*
X133155952Y-123464500D01*
X133071353Y-123481328D01*
X133001761Y-123475101D01*
X132951308Y-123438375D01*
X132910882Y-123389116D01*
X132758539Y-123264090D01*
X132758532Y-123264086D01*
X132584733Y-123171188D01*
X132584727Y-123171186D01*
X132396132Y-123113976D01*
X132396129Y-123113975D01*
X132267081Y-123101265D01*
X132202294Y-123075104D01*
X132191555Y-123065543D01*
X132136818Y-123010806D01*
X132103333Y-122949483D01*
X132100499Y-122923125D01*
X132100499Y-122694998D01*
X132100498Y-122694981D01*
X132089999Y-122592203D01*
X132089998Y-122592200D01*
X132055883Y-122489249D01*
X132034814Y-122425666D01*
X131942712Y-122276344D01*
X131857227Y-122190859D01*
X131823742Y-122129536D01*
X131828726Y-122059844D01*
X131870598Y-122003911D01*
X131936062Y-121979494D01*
X131974835Y-121982844D01*
X132034495Y-121997681D01*
X132034498Y-121997682D01*
X132034502Y-121997682D01*
X132034505Y-121997683D01*
X132076046Y-122000500D01*
X132076048Y-122000500D01*
X133423952Y-122000500D01*
X133423954Y-122000500D01*
X133465495Y-121997683D01*
X133645021Y-121953037D01*
X133810753Y-121870842D01*
X133922313Y-121781166D01*
X133986896Y-121754508D01*
X134055640Y-121766998D01*
X134077685Y-121781165D01*
X134189247Y-121870842D01*
X134354979Y-121953037D01*
X134534501Y-121997682D01*
X134534502Y-121997682D01*
X134534505Y-121997683D01*
X134576046Y-122000500D01*
X134576048Y-122000500D01*
X136023952Y-122000500D01*
X136023954Y-122000500D01*
X136065495Y-121997683D01*
X136245021Y-121953037D01*
X136410753Y-121870842D01*
X136554940Y-121754940D01*
X136670842Y-121610753D01*
X136753037Y-121445021D01*
X136772993Y-121364773D01*
X136808273Y-121304469D01*
X136870559Y-121272809D01*
X136940073Y-121279850D01*
G37*
G04 #@! TD.AperFunction*
G04 #@! TA.AperFunction,Conductor*
G36*
X130897385Y-121386105D02*
G01*
X130972407Y-121440612D01*
X131135733Y-121513329D01*
X131310609Y-121550500D01*
X131322737Y-121550500D01*
X131389776Y-121570185D01*
X131427215Y-121607714D01*
X131429155Y-121610750D01*
X131545059Y-121754940D01*
X131580902Y-121783751D01*
X131620820Y-121841095D01*
X131623400Y-121910917D01*
X131587821Y-121971049D01*
X131525380Y-122002401D01*
X131490611Y-122003756D01*
X131400016Y-121994500D01*
X131400009Y-121994500D01*
X130771151Y-121994500D01*
X130704112Y-121974815D01*
X130658357Y-121922011D01*
X130648413Y-121852853D01*
X130653445Y-121831496D01*
X130690139Y-121720761D01*
X130700500Y-121619343D01*
X130700499Y-121486422D01*
X130720183Y-121419384D01*
X130772987Y-121373629D01*
X130842145Y-121363685D01*
X130897385Y-121386105D01*
G37*
G04 #@! TD.AperFunction*
G04 #@! TA.AperFunction,Conductor*
G36*
X120455703Y-109604560D02*
G01*
X120477603Y-109629383D01*
X120479224Y-109631809D01*
X120479225Y-109631811D01*
X120516238Y-109687205D01*
X120555887Y-109746545D01*
X120555888Y-109746546D01*
X121594552Y-110785209D01*
X121628037Y-110846532D01*
X121630871Y-110872890D01*
X121630871Y-114275167D01*
X121611186Y-114342206D01*
X121558382Y-114387961D01*
X121489224Y-114397905D01*
X121425668Y-114368880D01*
X121419190Y-114362848D01*
X121035733Y-113979391D01*
X121002248Y-113918068D01*
X121001732Y-113914791D01*
X121001689Y-113914800D01*
X120973581Y-113773495D01*
X120973580Y-113773494D01*
X120973580Y-113773490D01*
X120952804Y-113723333D01*
X120934439Y-113678996D01*
X120920778Y-113646014D01*
X120920777Y-113646013D01*
X120920775Y-113646007D01*
X120844114Y-113531275D01*
X120844112Y-113531272D01*
X120286819Y-112973979D01*
X120253334Y-112912656D01*
X120250500Y-112886298D01*
X120250500Y-109698273D01*
X120270185Y-109631234D01*
X120322989Y-109585479D01*
X120392147Y-109575535D01*
X120455703Y-109604560D01*
G37*
G04 #@! TD.AperFunction*
G04 #@! TA.AperFunction,Conductor*
G36*
X123889458Y-98575633D02*
G01*
X123934228Y-98629274D01*
X123944501Y-98678691D01*
X123944501Y-100486058D01*
X123944501Y-100624046D01*
X123944501Y-100624048D01*
X123944500Y-100624048D01*
X123971419Y-100759374D01*
X123971422Y-100759384D01*
X124024224Y-100886860D01*
X124024225Y-100886862D01*
X124024226Y-100886863D01*
X124078618Y-100968267D01*
X124099496Y-101034943D01*
X124099516Y-101037157D01*
X124099516Y-101403754D01*
X124079831Y-101470793D01*
X124078619Y-101472643D01*
X124072806Y-101481343D01*
X124072806Y-101481344D01*
X124024448Y-101553718D01*
X124024357Y-101553854D01*
X124024226Y-101554049D01*
X124024221Y-101554058D01*
X123971420Y-101681532D01*
X123971417Y-101681541D01*
X123971117Y-101683054D01*
X123970740Y-101683772D01*
X123969650Y-101687369D01*
X123968968Y-101687162D01*
X123938731Y-101744965D01*
X123878014Y-101779538D01*
X123808245Y-101775797D01*
X123751574Y-101734930D01*
X123725993Y-101669911D01*
X123725500Y-101658861D01*
X123725500Y-101341717D01*
X123725499Y-101341714D01*
X123703006Y-101228631D01*
X123703005Y-101228630D01*
X123698580Y-101206382D01*
X123676707Y-101153577D01*
X123645775Y-101078900D01*
X123645773Y-101078897D01*
X123645771Y-101078893D01*
X123569115Y-100964170D01*
X123530906Y-100925961D01*
X123471542Y-100866597D01*
X122152739Y-99547794D01*
X122119254Y-99486471D01*
X122124238Y-99416779D01*
X122166110Y-99360846D01*
X122201412Y-99342409D01*
X122224334Y-99334814D01*
X122373656Y-99242712D01*
X122497712Y-99118656D01*
X122589814Y-98969334D01*
X122644999Y-98802797D01*
X122654677Y-98708062D01*
X122681073Y-98643371D01*
X122738254Y-98603220D01*
X122808065Y-98600356D01*
X122817007Y-98602949D01*
X122929239Y-98640139D01*
X123030657Y-98650500D01*
X123469342Y-98650499D01*
X123469350Y-98650498D01*
X123469353Y-98650498D01*
X123539121Y-98643371D01*
X123570761Y-98640139D01*
X123735079Y-98585690D01*
X123755403Y-98573153D01*
X123822793Y-98554712D01*
X123889458Y-98575633D01*
G37*
G04 #@! TD.AperFunction*
G04 #@! TA.AperFunction,Conductor*
G36*
X125795103Y-81470185D02*
G01*
X125840858Y-81522989D01*
X125846724Y-81538504D01*
X125863174Y-81592734D01*
X125909815Y-81679993D01*
X125924056Y-81748396D01*
X125899056Y-81813640D01*
X125847911Y-81853006D01*
X125828461Y-81861062D01*
X125703018Y-81957318D01*
X125606763Y-82082760D01*
X125546256Y-82228837D01*
X125546255Y-82228839D01*
X125530801Y-82346229D01*
X125530800Y-82346245D01*
X125530800Y-82833080D01*
X125511115Y-82900119D01*
X125494485Y-82920756D01*
X125386405Y-83028838D01*
X125337184Y-83078059D01*
X125260522Y-83192792D01*
X125207721Y-83320267D01*
X125207718Y-83320279D01*
X125195382Y-83382298D01*
X125187735Y-83420745D01*
X125180800Y-83455607D01*
X125180800Y-84533393D01*
X125180800Y-84533395D01*
X125180799Y-84533395D01*
X125207718Y-84668722D01*
X125207721Y-84668732D01*
X125260521Y-84796204D01*
X125260528Y-84796217D01*
X125337185Y-84910941D01*
X125337188Y-84910945D01*
X125434754Y-85008511D01*
X125434758Y-85008514D01*
X125549482Y-85085171D01*
X125549495Y-85085178D01*
X125642212Y-85123582D01*
X125676972Y-85137980D01*
X125676976Y-85137980D01*
X125676977Y-85137981D01*
X125812304Y-85164900D01*
X125812307Y-85164900D01*
X125950293Y-85164900D01*
X126500500Y-85164900D01*
X126567539Y-85184585D01*
X126613294Y-85237389D01*
X126624500Y-85288900D01*
X126624500Y-85519876D01*
X126604815Y-85586915D01*
X126588181Y-85607557D01*
X124655888Y-87539849D01*
X124655887Y-87539850D01*
X124627711Y-87582020D01*
X124599661Y-87624000D01*
X124579225Y-87654585D01*
X124579222Y-87654590D01*
X124526421Y-87782063D01*
X124526418Y-87782073D01*
X124499500Y-87917400D01*
X124499500Y-93896957D01*
X124479815Y-93963996D01*
X124463181Y-93984638D01*
X124100889Y-94346929D01*
X124100888Y-94346930D01*
X124024224Y-94461668D01*
X123971422Y-94589144D01*
X123971422Y-94589145D01*
X123971421Y-94589148D01*
X123958422Y-94654500D01*
X123958422Y-94654501D01*
X123944501Y-94724481D01*
X123944501Y-96861308D01*
X123924816Y-96928347D01*
X123872012Y-96974102D01*
X123802854Y-96984046D01*
X123755405Y-96966847D01*
X123735079Y-96954310D01*
X123701593Y-96943214D01*
X123570762Y-96899861D01*
X123469344Y-96889500D01*
X123030664Y-96889500D01*
X123030646Y-96889501D01*
X122929239Y-96899860D01*
X122929232Y-96899862D01*
X122805653Y-96940812D01*
X122735825Y-96943214D01*
X122675783Y-96907482D01*
X122647679Y-96853447D01*
X122647129Y-96853630D01*
X122645996Y-96850212D01*
X122645396Y-96849058D01*
X122644998Y-96847200D01*
X122589814Y-96680666D01*
X122497712Y-96531344D01*
X122373656Y-96407288D01*
X122373655Y-96407287D01*
X122329619Y-96380126D01*
X122282894Y-96328178D01*
X122271671Y-96259216D01*
X122299514Y-96195134D01*
X122328742Y-96169594D01*
X122352262Y-96154816D01*
X122479816Y-96027262D01*
X122575789Y-95874522D01*
X122635368Y-95704255D01*
X122637594Y-95684505D01*
X122650499Y-95569960D01*
X122650500Y-95569956D01*
X122650500Y-94930043D01*
X122650499Y-94930039D01*
X122650023Y-94925818D01*
X122635368Y-94795745D01*
X122575789Y-94625478D01*
X122479816Y-94472738D01*
X122352262Y-94345184D01*
X122309287Y-94318181D01*
X122199523Y-94249211D01*
X122029254Y-94189631D01*
X122029249Y-94189630D01*
X121894960Y-94174500D01*
X121894954Y-94174500D01*
X121405046Y-94174500D01*
X121405039Y-94174500D01*
X121270750Y-94189630D01*
X121270745Y-94189631D01*
X121100476Y-94249211D01*
X120947737Y-94345184D01*
X120820184Y-94472737D01*
X120724211Y-94625476D01*
X120664631Y-94795745D01*
X120664630Y-94795750D01*
X120649500Y-94930039D01*
X120649500Y-95200500D01*
X120629815Y-95267539D01*
X120577011Y-95313294D01*
X120525500Y-95324500D01*
X119566519Y-95324500D01*
X119499480Y-95304815D01*
X119478838Y-95288181D01*
X119361819Y-95171162D01*
X119328334Y-95109839D01*
X119325500Y-95083481D01*
X119325500Y-94680043D01*
X119325499Y-94680039D01*
X119322621Y-94654499D01*
X119319352Y-94625478D01*
X119310369Y-94545750D01*
X119310368Y-94545745D01*
X119280947Y-94461665D01*
X119250789Y-94375478D01*
X119247319Y-94369956D01*
X119154815Y-94222737D01*
X119027262Y-94095184D01*
X118874523Y-93999211D01*
X118704254Y-93939631D01*
X118704249Y-93939630D01*
X118569960Y-93924500D01*
X118569954Y-93924500D01*
X118324500Y-93924500D01*
X118257461Y-93904815D01*
X118211706Y-93852011D01*
X118200500Y-93800500D01*
X118200500Y-85035025D01*
X118220185Y-84967986D01*
X118272989Y-84922231D01*
X118294571Y-84914690D01*
X118436349Y-84879433D01*
X118597210Y-84799653D01*
X118736296Y-84687853D01*
X118800880Y-84661194D01*
X118813983Y-84660500D01*
X118902347Y-84660500D01*
X118969386Y-84680185D01*
X118977832Y-84686123D01*
X119046659Y-84738936D01*
X119192738Y-84799444D01*
X119310139Y-84814900D01*
X120608060Y-84814899D01*
X120608063Y-84814899D01*
X120725453Y-84799446D01*
X120725457Y-84799444D01*
X120725462Y-84799444D01*
X120871541Y-84738936D01*
X120996982Y-84642682D01*
X120996986Y-84642676D01*
X120996988Y-84642675D01*
X121002734Y-84636931D01*
X121003978Y-84638175D01*
X121052352Y-84602846D01*
X121106463Y-84596128D01*
X121200000Y-84605341D01*
X121396132Y-84586024D01*
X121584727Y-84528814D01*
X121758538Y-84435910D01*
X121910883Y-84310883D01*
X122035910Y-84158538D01*
X122128814Y-83984727D01*
X122186024Y-83796132D01*
X122205341Y-83600000D01*
X122195655Y-83501654D01*
X122208674Y-83433008D01*
X122256739Y-83382298D01*
X122319058Y-83365500D01*
X123393946Y-83365500D01*
X123484990Y-83347389D01*
X123529278Y-83338580D01*
X123622419Y-83300000D01*
X123656757Y-83285777D01*
X123656758Y-83285776D01*
X123656761Y-83285775D01*
X123771493Y-83209114D01*
X125493787Y-81486818D01*
X125555110Y-81453334D01*
X125581468Y-81450500D01*
X125728064Y-81450500D01*
X125795103Y-81470185D01*
G37*
G04 #@! TD.AperFunction*
G04 #@! TA.AperFunction,Conductor*
G36*
X120855639Y-81372380D02*
G01*
X120877689Y-81386551D01*
X120889248Y-81395843D01*
X120925811Y-81413976D01*
X121054979Y-81478037D01*
X121234501Y-81522682D01*
X121234502Y-81522682D01*
X121234505Y-81522683D01*
X121276046Y-81525500D01*
X122384783Y-81525500D01*
X122451822Y-81545185D01*
X122497577Y-81597989D01*
X122508186Y-81637346D01*
X122513975Y-81696130D01*
X122546851Y-81804505D01*
X122547474Y-81874371D01*
X122510226Y-81933484D01*
X122446932Y-81963075D01*
X122428190Y-81964500D01*
X121048434Y-81964500D01*
X120981395Y-81944815D01*
X120972948Y-81938876D01*
X120871542Y-81861064D01*
X120725462Y-81800556D01*
X120725460Y-81800555D01*
X120608070Y-81785101D01*
X120608067Y-81785100D01*
X120608061Y-81785100D01*
X120608054Y-81785100D01*
X119310136Y-81785100D01*
X119192746Y-81800553D01*
X119192734Y-81800557D01*
X119075972Y-81848921D01*
X119006503Y-81856390D01*
X118944024Y-81825114D01*
X118917435Y-81789459D01*
X118875344Y-81704592D01*
X118863194Y-81635789D01*
X118890171Y-81571337D01*
X118947710Y-81531702D01*
X118986434Y-81525500D01*
X120323952Y-81525500D01*
X120323954Y-81525500D01*
X120365495Y-81522683D01*
X120545021Y-81478037D01*
X120710753Y-81395842D01*
X120722311Y-81386550D01*
X120786894Y-81359892D01*
X120855639Y-81372380D01*
G37*
G04 #@! TD.AperFunction*
G04 #@! TA.AperFunction,Conductor*
G36*
X143042303Y-90719685D02*
G01*
X143088058Y-90772489D01*
X143099262Y-90824734D01*
X143000729Y-107476734D01*
X142980648Y-107543656D01*
X142927574Y-107589097D01*
X142876731Y-107600000D01*
X133529500Y-107600000D01*
X133462461Y-107580315D01*
X133416706Y-107527511D01*
X133405500Y-107476000D01*
X133405500Y-106224507D01*
X133405499Y-106224490D01*
X133393947Y-106117048D01*
X133393947Y-106117045D01*
X133382741Y-106065533D01*
X133348613Y-105962994D01*
X133345292Y-105957827D01*
X133304105Y-105893739D01*
X133270825Y-105841955D01*
X133270820Y-105841949D01*
X133225073Y-105789153D01*
X133116335Y-105694931D01*
X133116334Y-105694930D01*
X133072357Y-105674846D01*
X132984785Y-105634853D01*
X132931981Y-105589098D01*
X132912297Y-105522059D01*
X132912298Y-105521591D01*
X132984832Y-93263291D01*
X133004913Y-93196371D01*
X133057987Y-93150930D01*
X133096230Y-93140669D01*
X133102797Y-93139999D01*
X133269334Y-93084814D01*
X133418656Y-92992712D01*
X133542712Y-92868656D01*
X133634814Y-92719334D01*
X133689999Y-92552797D01*
X133700500Y-92450009D01*
X133700499Y-91575095D01*
X133720183Y-91508057D01*
X133736813Y-91487420D01*
X134277031Y-90947203D01*
X134487916Y-90736319D01*
X134549239Y-90702834D01*
X134575597Y-90700000D01*
X142975264Y-90700000D01*
X143042303Y-90719685D01*
G37*
G04 #@! TD.AperFunction*
G04 #@! TA.AperFunction,Conductor*
G36*
X131708412Y-100319685D02*
G01*
X131754167Y-100372489D01*
X131764111Y-100441647D01*
X131740639Y-100498312D01*
X131696204Y-100557668D01*
X131696202Y-100557671D01*
X131645908Y-100692517D01*
X131639501Y-100752116D01*
X131639500Y-100752135D01*
X131639500Y-105647870D01*
X131639501Y-105647876D01*
X131645908Y-105707483D01*
X131696202Y-105842328D01*
X131696206Y-105842335D01*
X131782452Y-105957544D01*
X131782455Y-105957547D01*
X131897664Y-106043793D01*
X131897671Y-106043797D01*
X132032517Y-106094091D01*
X132032516Y-106094091D01*
X132039444Y-106094835D01*
X132092127Y-106100500D01*
X132776002Y-106100499D01*
X132843039Y-106120183D01*
X132888794Y-106172987D01*
X132900000Y-106224499D01*
X132900000Y-107474378D01*
X132880315Y-107541417D01*
X132827511Y-107587172D01*
X132774390Y-107598368D01*
X129479575Y-107555578D01*
X129412797Y-107535024D01*
X129393504Y-107519269D01*
X126821690Y-104947455D01*
X126821688Y-104947452D01*
X126702817Y-104828581D01*
X126702812Y-104828577D01*
X126598262Y-104768216D01*
X126598260Y-104768215D01*
X126565887Y-104749524D01*
X126565886Y-104749523D01*
X126565885Y-104749523D01*
X126413157Y-104708599D01*
X126255043Y-104708599D01*
X126247447Y-104708599D01*
X126247431Y-104708600D01*
X125632408Y-104708600D01*
X125565369Y-104688915D01*
X125519614Y-104636111D01*
X125509118Y-104597849D01*
X125508491Y-104592017D01*
X125458197Y-104457171D01*
X125458193Y-104457164D01*
X125371926Y-104341927D01*
X125347508Y-104276463D01*
X125362359Y-104208190D01*
X125383508Y-104179938D01*
X125468729Y-104094718D01*
X125468733Y-104094716D01*
X125555858Y-104007591D01*
X125624311Y-103905144D01*
X125671463Y-103791310D01*
X125695500Y-103670464D01*
X125695500Y-102366240D01*
X125715185Y-102299201D01*
X125716399Y-102297348D01*
X125779327Y-102203171D01*
X125779327Y-102203169D01*
X125779330Y-102203166D01*
X125826481Y-102089332D01*
X125850519Y-101968487D01*
X125850519Y-101845274D01*
X125850519Y-101835291D01*
X125850516Y-101835273D01*
X125850516Y-100472419D01*
X125845697Y-100448191D01*
X125851924Y-100378601D01*
X125894786Y-100323423D01*
X125960676Y-100300178D01*
X125967314Y-100300000D01*
X131641373Y-100300000D01*
X131708412Y-100319685D01*
G37*
G04 #@! TD.AperFunction*
G04 #@! TA.AperFunction,Conductor*
G36*
X126101042Y-105929285D02*
G01*
X126121684Y-105945919D01*
X127492709Y-107316944D01*
X127526194Y-107378267D01*
X127521210Y-107447959D01*
X127479338Y-107503892D01*
X127413874Y-107528309D01*
X127403418Y-107528615D01*
X125336121Y-107501767D01*
X125269343Y-107481213D01*
X125250050Y-107465458D01*
X125236319Y-107451727D01*
X125202834Y-107390404D01*
X125200000Y-107364046D01*
X125200000Y-106467034D01*
X125219685Y-106399995D01*
X125249689Y-106367767D01*
X125256729Y-106362496D01*
X125256731Y-106362496D01*
X125371946Y-106276246D01*
X125458196Y-106161031D01*
X125508491Y-106026183D01*
X125509119Y-106020344D01*
X125535857Y-105955793D01*
X125593250Y-105915945D01*
X125632408Y-105909600D01*
X126034003Y-105909600D01*
X126101042Y-105929285D01*
G37*
G04 #@! TD.AperFunction*
G04 #@! TA.AperFunction,Conductor*
G36*
X132943039Y-87519685D02*
G01*
X132988794Y-87572489D01*
X133000000Y-87624000D01*
X133000000Y-92549231D01*
X132980315Y-92616270D01*
X132927511Y-92662025D01*
X132917626Y-92666035D01*
X132865650Y-92684555D01*
X132850720Y-92689876D01*
X132729226Y-92766942D01*
X132729220Y-92766946D01*
X132676156Y-92812379D01*
X132676145Y-92812390D01*
X132581287Y-92920560D01*
X132581284Y-92920564D01*
X132520743Y-93051079D01*
X132502248Y-93112714D01*
X132501555Y-93114696D01*
X132500657Y-93118010D01*
X132479341Y-93260288D01*
X132479340Y-93260301D01*
X132477471Y-93576234D01*
X132457390Y-93643156D01*
X132404316Y-93688597D01*
X132353473Y-93699500D01*
X132032130Y-93699500D01*
X132032123Y-93699501D01*
X131972516Y-93705908D01*
X131837671Y-93756202D01*
X131837664Y-93756206D01*
X131722455Y-93842452D01*
X131722452Y-93842455D01*
X131636206Y-93957664D01*
X131636202Y-93957671D01*
X131585908Y-94092517D01*
X131579501Y-94152116D01*
X131579500Y-94152135D01*
X131579500Y-99047870D01*
X131579501Y-99047876D01*
X131585908Y-99107483D01*
X131636202Y-99242328D01*
X131636206Y-99242335D01*
X131722452Y-99357544D01*
X131722455Y-99357547D01*
X131837664Y-99443793D01*
X131837671Y-99443797D01*
X131882618Y-99460561D01*
X131972517Y-99494091D01*
X132032127Y-99500500D01*
X132317681Y-99500499D01*
X132384719Y-99520183D01*
X132430474Y-99572987D01*
X132441678Y-99625233D01*
X132438922Y-100090936D01*
X132418841Y-100157858D01*
X132365767Y-100203299D01*
X132296551Y-100212833D01*
X132233168Y-100183433D01*
X132210609Y-100157241D01*
X132136206Y-100041468D01*
X132136193Y-100041451D01*
X132090449Y-99988659D01*
X132090445Y-99988656D01*
X132090443Y-99988653D01*
X131981709Y-99894433D01*
X131981706Y-99894431D01*
X131981704Y-99894430D01*
X131850838Y-99834664D01*
X131850833Y-99834662D01*
X131850832Y-99834662D01*
X131783793Y-99814977D01*
X131783795Y-99814977D01*
X131783790Y-99814976D01*
X131728752Y-99807063D01*
X131641373Y-99794500D01*
X125967314Y-99794500D01*
X125963550Y-99794550D01*
X125953738Y-99794682D01*
X125947154Y-99794859D01*
X125947135Y-99794859D01*
X125947126Y-99794860D01*
X125938902Y-99795190D01*
X125933615Y-99795403D01*
X125933610Y-99795404D01*
X125843691Y-99813290D01*
X125774099Y-99807063D01*
X125718922Y-99764200D01*
X125695678Y-99698310D01*
X125695500Y-99691673D01*
X125695500Y-96519310D01*
X125715185Y-96452271D01*
X125731819Y-96431629D01*
X126110855Y-96052594D01*
X126110855Y-96052593D01*
X126110858Y-96052591D01*
X126179312Y-95950143D01*
X126226463Y-95836309D01*
X126250501Y-95715464D01*
X126250501Y-95592251D01*
X126250501Y-95587141D01*
X126250500Y-95587115D01*
X126250500Y-88410452D01*
X126270185Y-88343413D01*
X126286819Y-88322771D01*
X127073271Y-87536319D01*
X127134594Y-87502834D01*
X127160952Y-87500000D01*
X132876000Y-87500000D01*
X132943039Y-87519685D01*
G37*
G04 #@! TD.AperFunction*
M02*
