%TF.GenerationSoftware,KiCad,Pcbnew,8.0.5*%
%TF.CreationDate,2024-12-11T09:52:40-08:00*%
%TF.ProjectId,OpenPEMF_Final,4f70656e-5045-44d4-965f-46696e616c2e,rev?*%
%TF.SameCoordinates,Original*%
%TF.FileFunction,Drillmap*%
%TF.FilePolarity,Positive*%
%FSLAX45Y45*%
G04 Gerber Fmt 4.5, Leading zero omitted, Abs format (unit mm)*
G04 Created by KiCad (PCBNEW 8.0.5) date 2024-12-11 09:52:40*
%MOMM*%
%LPD*%
G01*
G04 APERTURE LIST*
%ADD10C,0.100000*%
%ADD11C,0.200000*%
G04 APERTURE END LIST*
D10*
X10230000Y-4910000D02*
X10230000Y-14890000D01*
X15200000Y-4910000D02*
X15200000Y-14890000D01*
X10230000Y-14890000D02*
X15200000Y-14890000D01*
X15200000Y-4910000D02*
X10230000Y-4910000D01*
D11*
X10485777Y-15206484D02*
X10485777Y-15006484D01*
X10485777Y-15006484D02*
X10533396Y-15006484D01*
X10533396Y-15006484D02*
X10561967Y-15016008D01*
X10561967Y-15016008D02*
X10581015Y-15035055D01*
X10581015Y-15035055D02*
X10590539Y-15054103D01*
X10590539Y-15054103D02*
X10600063Y-15092198D01*
X10600063Y-15092198D02*
X10600063Y-15120769D01*
X10600063Y-15120769D02*
X10590539Y-15158865D01*
X10590539Y-15158865D02*
X10581015Y-15177912D01*
X10581015Y-15177912D02*
X10561967Y-15196960D01*
X10561967Y-15196960D02*
X10533396Y-15206484D01*
X10533396Y-15206484D02*
X10485777Y-15206484D01*
X10685777Y-15206484D02*
X10685777Y-15073150D01*
X10685777Y-15111246D02*
X10695301Y-15092198D01*
X10695301Y-15092198D02*
X10704824Y-15082674D01*
X10704824Y-15082674D02*
X10723872Y-15073150D01*
X10723872Y-15073150D02*
X10742920Y-15073150D01*
X10809586Y-15206484D02*
X10809586Y-15073150D01*
X10809586Y-15006484D02*
X10800063Y-15016008D01*
X10800063Y-15016008D02*
X10809586Y-15025531D01*
X10809586Y-15025531D02*
X10819110Y-15016008D01*
X10819110Y-15016008D02*
X10809586Y-15006484D01*
X10809586Y-15006484D02*
X10809586Y-15025531D01*
X10933396Y-15206484D02*
X10914348Y-15196960D01*
X10914348Y-15196960D02*
X10904824Y-15177912D01*
X10904824Y-15177912D02*
X10904824Y-15006484D01*
X11038158Y-15206484D02*
X11019110Y-15196960D01*
X11019110Y-15196960D02*
X11009586Y-15177912D01*
X11009586Y-15177912D02*
X11009586Y-15006484D01*
X11266729Y-15206484D02*
X11266729Y-15006484D01*
X11266729Y-15006484D02*
X11333396Y-15149341D01*
X11333396Y-15149341D02*
X11400062Y-15006484D01*
X11400062Y-15006484D02*
X11400062Y-15206484D01*
X11581015Y-15206484D02*
X11581015Y-15101722D01*
X11581015Y-15101722D02*
X11571491Y-15082674D01*
X11571491Y-15082674D02*
X11552443Y-15073150D01*
X11552443Y-15073150D02*
X11514348Y-15073150D01*
X11514348Y-15073150D02*
X11495301Y-15082674D01*
X11581015Y-15196960D02*
X11561967Y-15206484D01*
X11561967Y-15206484D02*
X11514348Y-15206484D01*
X11514348Y-15206484D02*
X11495301Y-15196960D01*
X11495301Y-15196960D02*
X11485777Y-15177912D01*
X11485777Y-15177912D02*
X11485777Y-15158865D01*
X11485777Y-15158865D02*
X11495301Y-15139817D01*
X11495301Y-15139817D02*
X11514348Y-15130293D01*
X11514348Y-15130293D02*
X11561967Y-15130293D01*
X11561967Y-15130293D02*
X11581015Y-15120769D01*
X11676253Y-15073150D02*
X11676253Y-15273150D01*
X11676253Y-15082674D02*
X11695301Y-15073150D01*
X11695301Y-15073150D02*
X11733396Y-15073150D01*
X11733396Y-15073150D02*
X11752443Y-15082674D01*
X11752443Y-15082674D02*
X11761967Y-15092198D01*
X11761967Y-15092198D02*
X11771491Y-15111246D01*
X11771491Y-15111246D02*
X11771491Y-15168388D01*
X11771491Y-15168388D02*
X11761967Y-15187436D01*
X11761967Y-15187436D02*
X11752443Y-15196960D01*
X11752443Y-15196960D02*
X11733396Y-15206484D01*
X11733396Y-15206484D02*
X11695301Y-15206484D01*
X11695301Y-15206484D02*
X11676253Y-15196960D01*
X11857205Y-15187436D02*
X11866729Y-15196960D01*
X11866729Y-15196960D02*
X11857205Y-15206484D01*
X11857205Y-15206484D02*
X11847682Y-15196960D01*
X11847682Y-15196960D02*
X11857205Y-15187436D01*
X11857205Y-15187436D02*
X11857205Y-15206484D01*
X11857205Y-15082674D02*
X11866729Y-15092198D01*
X11866729Y-15092198D02*
X11857205Y-15101722D01*
X11857205Y-15101722D02*
X11847682Y-15092198D01*
X11847682Y-15092198D02*
X11857205Y-15082674D01*
X11857205Y-15082674D02*
X11857205Y-15101722D01*
M02*
