G04 #@! TF.GenerationSoftware,KiCad,Pcbnew,8.0.5*
G04 #@! TF.CreationDate,2024-12-11T09:51:45-08:00*
G04 #@! TF.ProjectId,OpenPEMF_Final,4f70656e-5045-44d4-965f-46696e616c2e,rev?*
G04 #@! TF.SameCoordinates,Original*
G04 #@! TF.FileFunction,Paste,Top*
G04 #@! TF.FilePolarity,Positive*
%FSLAX46Y46*%
G04 Gerber Fmt 4.6, Leading zero omitted, Abs format (unit mm)*
G04 Created by KiCad (PCBNEW 8.0.5) date 2024-12-11 09:51:45*
%MOMM*%
%LPD*%
G01*
G04 APERTURE LIST*
G04 Aperture macros list*
%AMRoundRect*
0 Rectangle with rounded corners*
0 $1 Rounding radius*
0 $2 $3 $4 $5 $6 $7 $8 $9 X,Y pos of 4 corners*
0 Add a 4 corners polygon primitive as box body*
4,1,4,$2,$3,$4,$5,$6,$7,$8,$9,$2,$3,0*
0 Add four circle primitives for the rounded corners*
1,1,$1+$1,$2,$3*
1,1,$1+$1,$4,$5*
1,1,$1+$1,$6,$7*
1,1,$1+$1,$8,$9*
0 Add four rect primitives between the rounded corners*
20,1,$1+$1,$2,$3,$4,$5,0*
20,1,$1+$1,$4,$5,$6,$7,0*
20,1,$1+$1,$6,$7,$8,$9,0*
20,1,$1+$1,$8,$9,$2,$3,0*%
G04 Aperture macros list end*
%ADD10C,0.010000*%
%ADD11C,0.000100*%
%ADD12RoundRect,0.140000X0.140000X0.170000X-0.140000X0.170000X-0.140000X-0.170000X0.140000X-0.170000X0*%
%ADD13RoundRect,0.150000X-0.150000X0.650000X-0.150000X-0.650000X0.150000X-0.650000X0.150000X0.650000X0*%
%ADD14RoundRect,0.140000X-0.140000X-0.170000X0.140000X-0.170000X0.140000X0.170000X-0.140000X0.170000X0*%
%ADD15RoundRect,0.250000X0.250000X0.475000X-0.250000X0.475000X-0.250000X-0.475000X0.250000X-0.475000X0*%
%ADD16RoundRect,0.225000X-0.225000X-0.250000X0.225000X-0.250000X0.225000X0.250000X-0.225000X0.250000X0*%
%ADD17RoundRect,0.135000X0.135000X0.185000X-0.135000X0.185000X-0.135000X-0.185000X0.135000X-0.185000X0*%
%ADD18RoundRect,0.225000X-0.250000X0.225000X-0.250000X-0.225000X0.250000X-0.225000X0.250000X0.225000X0*%
%ADD19RoundRect,0.250000X-0.325000X-0.650000X0.325000X-0.650000X0.325000X0.650000X-0.325000X0.650000X0*%
%ADD20RoundRect,0.250000X0.300000X-2.050000X0.300000X2.050000X-0.300000X2.050000X-0.300000X-2.050000X0*%
%ADD21RoundRect,0.250000X2.375000X-2.025000X2.375000X2.025000X-2.375000X2.025000X-2.375000X-2.025000X0*%
%ADD22RoundRect,0.140000X-0.170000X0.140000X-0.170000X-0.140000X0.170000X-0.140000X0.170000X0.140000X0*%
%ADD23RoundRect,0.200000X-0.200000X-0.275000X0.200000X-0.275000X0.200000X0.275000X-0.200000X0.275000X0*%
%ADD24RoundRect,0.250000X-0.650000X0.325000X-0.650000X-0.325000X0.650000X-0.325000X0.650000X0.325000X0*%
%ADD25RoundRect,0.250000X0.650000X-0.325000X0.650000X0.325000X-0.650000X0.325000X-0.650000X-0.325000X0*%
%ADD26RoundRect,0.250000X0.400000X0.600000X-0.400000X0.600000X-0.400000X-0.600000X0.400000X-0.600000X0*%
%ADD27RoundRect,0.250000X-2.050000X-0.300000X2.050000X-0.300000X2.050000X0.300000X-2.050000X0.300000X0*%
%ADD28RoundRect,0.250000X-2.025000X-2.375000X2.025000X-2.375000X2.025000X2.375000X-2.025000X2.375000X0*%
%ADD29RoundRect,0.006000X-0.094000X0.414000X-0.094000X-0.414000X0.094000X-0.414000X0.094000X0.414000X0*%
%ADD30RoundRect,0.020000X-0.400000X0.080000X-0.400000X-0.080000X0.400000X-0.080000X0.400000X0.080000X0*%
%ADD31R,1.430000X5.500000*%
%ADD32RoundRect,0.200000X0.275000X-0.200000X0.275000X0.200000X-0.275000X0.200000X-0.275000X-0.200000X0*%
%ADD33R,1.350000X0.400000*%
%ADD34R,1.550000X1.500000*%
%ADD35RoundRect,0.135000X-0.135000X-0.185000X0.135000X-0.185000X0.135000X0.185000X-0.135000X0.185000X0*%
%ADD36RoundRect,0.250000X-0.300000X2.050000X-0.300000X-2.050000X0.300000X-2.050000X0.300000X2.050000X0*%
%ADD37RoundRect,0.250000X-2.375000X2.025000X-2.375000X-2.025000X2.375000X-2.025000X2.375000X2.025000X0*%
%ADD38RoundRect,0.250000X-0.450000X0.262500X-0.450000X-0.262500X0.450000X-0.262500X0.450000X0.262500X0*%
%ADD39RoundRect,0.140000X0.170000X-0.140000X0.170000X0.140000X-0.170000X0.140000X-0.170000X-0.140000X0*%
%ADD40R,1.400000X1.200000*%
%ADD41RoundRect,0.250000X-0.350000X0.850000X-0.350000X-0.850000X0.350000X-0.850000X0.350000X0.850000X0*%
%ADD42RoundRect,0.250000X-1.125000X1.275000X-1.125000X-1.275000X1.125000X-1.275000X1.125000X1.275000X0*%
%ADD43RoundRect,0.150000X0.150000X-0.512500X0.150000X0.512500X-0.150000X0.512500X-0.150000X-0.512500X0*%
%ADD44RoundRect,0.250000X1.000000X0.650000X-1.000000X0.650000X-1.000000X-0.650000X1.000000X-0.650000X0*%
%ADD45R,3.810000X4.240000*%
G04 APERTURE END LIST*
D10*
X119125000Y-137110000D02*
X117165000Y-137110000D01*
X117165000Y-135150000D01*
X119125000Y-135150000D01*
X119125000Y-137110000D01*
G36*
X119125000Y-137110000D02*
G01*
X117165000Y-137110000D01*
X117165000Y-135150000D01*
X119125000Y-135150000D01*
X119125000Y-137110000D01*
G37*
D11*
X104733700Y-135000400D02*
X104903700Y-135000400D01*
X106273700Y-128000400D02*
X106103700Y-128000400D01*
X106278700Y-135000400D02*
X106078700Y-135000400D01*
X106078700Y-134987400D01*
X106077700Y-134974400D01*
X106075700Y-134961400D01*
X106073700Y-134948400D01*
X106069700Y-134935400D01*
X106066700Y-134923400D01*
X106061700Y-134910400D01*
X106056700Y-134898400D01*
X106051700Y-134887400D01*
X106045700Y-134875400D01*
X106038700Y-134864400D01*
X106030700Y-134853400D01*
X106022700Y-134843400D01*
X106014700Y-134833400D01*
X106005700Y-134823400D01*
X105995700Y-134814400D01*
X105985700Y-134806400D01*
X105975700Y-134798400D01*
X105964700Y-134790400D01*
X105953700Y-134783400D01*
X105941700Y-134777400D01*
X105930700Y-134772400D01*
X105918700Y-134767400D01*
X105905700Y-134762400D01*
X105893700Y-134759400D01*
X105880700Y-134755400D01*
X105867700Y-134753400D01*
X105854700Y-134751400D01*
X105841700Y-134750400D01*
X105828700Y-134750400D01*
X105178700Y-134750400D01*
X105165700Y-134750400D01*
X105152700Y-134751400D01*
X105139700Y-134753400D01*
X105126700Y-134755400D01*
X105113700Y-134759400D01*
X105101700Y-134762400D01*
X105088700Y-134767400D01*
X105076700Y-134772400D01*
X105065700Y-134777400D01*
X105053700Y-134783400D01*
X105042700Y-134790400D01*
X105031700Y-134798400D01*
X105021700Y-134806400D01*
X105011700Y-134814400D01*
X105001700Y-134823400D01*
X104992700Y-134833400D01*
X104984700Y-134843400D01*
X104976700Y-134853400D01*
X104968700Y-134864400D01*
X104961700Y-134875400D01*
X104955700Y-134887400D01*
X104950700Y-134898400D01*
X104945700Y-134910400D01*
X104940700Y-134923400D01*
X104937700Y-134935400D01*
X104933700Y-134948400D01*
X104931700Y-134961400D01*
X104929700Y-134974400D01*
X104928700Y-134987400D01*
X104928700Y-135000400D01*
X104728700Y-135000400D01*
X104728700Y-133800400D01*
X106278700Y-133800400D01*
X106278700Y-135000400D01*
G36*
X106278700Y-135000400D02*
G01*
X106078700Y-135000400D01*
X106078700Y-134987400D01*
X106077700Y-134974400D01*
X106075700Y-134961400D01*
X106073700Y-134948400D01*
X106069700Y-134935400D01*
X106066700Y-134923400D01*
X106061700Y-134910400D01*
X106056700Y-134898400D01*
X106051700Y-134887400D01*
X106045700Y-134875400D01*
X106038700Y-134864400D01*
X106030700Y-134853400D01*
X106022700Y-134843400D01*
X106014700Y-134833400D01*
X106005700Y-134823400D01*
X105995700Y-134814400D01*
X105985700Y-134806400D01*
X105975700Y-134798400D01*
X105964700Y-134790400D01*
X105953700Y-134783400D01*
X105941700Y-134777400D01*
X105930700Y-134772400D01*
X105918700Y-134767400D01*
X105905700Y-134762400D01*
X105893700Y-134759400D01*
X105880700Y-134755400D01*
X105867700Y-134753400D01*
X105854700Y-134751400D01*
X105841700Y-134750400D01*
X105828700Y-134750400D01*
X105178700Y-134750400D01*
X105165700Y-134750400D01*
X105152700Y-134751400D01*
X105139700Y-134753400D01*
X105126700Y-134755400D01*
X105113700Y-134759400D01*
X105101700Y-134762400D01*
X105088700Y-134767400D01*
X105076700Y-134772400D01*
X105065700Y-134777400D01*
X105053700Y-134783400D01*
X105042700Y-134790400D01*
X105031700Y-134798400D01*
X105021700Y-134806400D01*
X105011700Y-134814400D01*
X105001700Y-134823400D01*
X104992700Y-134833400D01*
X104984700Y-134843400D01*
X104976700Y-134853400D01*
X104968700Y-134864400D01*
X104961700Y-134875400D01*
X104955700Y-134887400D01*
X104950700Y-134898400D01*
X104945700Y-134910400D01*
X104940700Y-134923400D01*
X104937700Y-134935400D01*
X104933700Y-134948400D01*
X104931700Y-134961400D01*
X104929700Y-134974400D01*
X104928700Y-134987400D01*
X104928700Y-135000400D01*
X104728700Y-135000400D01*
X104728700Y-133800400D01*
X106278700Y-133800400D01*
X106278700Y-135000400D01*
G37*
X104928700Y-128013400D02*
X104929700Y-128026400D01*
X104931700Y-128039400D01*
X104933700Y-128052400D01*
X104937700Y-128065400D01*
X104940700Y-128077400D01*
X104945700Y-128090400D01*
X104950700Y-128102400D01*
X104955700Y-128113400D01*
X104961700Y-128125400D01*
X104968700Y-128136400D01*
X104976700Y-128147400D01*
X104984700Y-128157400D01*
X104992700Y-128167400D01*
X105001700Y-128177400D01*
X105011700Y-128186400D01*
X105021700Y-128194400D01*
X105031700Y-128202400D01*
X105042700Y-128210400D01*
X105053700Y-128217400D01*
X105065700Y-128223400D01*
X105076700Y-128228400D01*
X105088700Y-128233400D01*
X105101700Y-128238400D01*
X105113700Y-128241400D01*
X105126700Y-128245400D01*
X105139700Y-128247400D01*
X105152700Y-128249400D01*
X105165700Y-128250400D01*
X105178700Y-128250400D01*
X105828700Y-128250400D01*
X105841700Y-128250400D01*
X105854700Y-128249400D01*
X105867700Y-128247400D01*
X105880700Y-128245400D01*
X105893700Y-128241400D01*
X105905700Y-128238400D01*
X105918700Y-128233400D01*
X105930700Y-128228400D01*
X105941700Y-128223400D01*
X105953700Y-128217400D01*
X105964700Y-128210400D01*
X105975700Y-128202400D01*
X105985700Y-128194400D01*
X105995700Y-128186400D01*
X106005700Y-128177400D01*
X106014700Y-128167400D01*
X106022700Y-128157400D01*
X106030700Y-128147400D01*
X106038700Y-128136400D01*
X106045700Y-128125400D01*
X106051700Y-128113400D01*
X106056700Y-128102400D01*
X106061700Y-128090400D01*
X106066700Y-128077400D01*
X106069700Y-128065400D01*
X106073700Y-128052400D01*
X106075700Y-128039400D01*
X106077700Y-128026400D01*
X106078700Y-128013400D01*
X106078700Y-128000400D01*
X106278700Y-128000400D01*
X106278700Y-129200400D01*
X104728700Y-129200400D01*
X104728700Y-128000400D01*
X104928700Y-128000400D01*
X104928700Y-128013400D01*
G36*
X104928700Y-128013400D02*
G01*
X104929700Y-128026400D01*
X104931700Y-128039400D01*
X104933700Y-128052400D01*
X104937700Y-128065400D01*
X104940700Y-128077400D01*
X104945700Y-128090400D01*
X104950700Y-128102400D01*
X104955700Y-128113400D01*
X104961700Y-128125400D01*
X104968700Y-128136400D01*
X104976700Y-128147400D01*
X104984700Y-128157400D01*
X104992700Y-128167400D01*
X105001700Y-128177400D01*
X105011700Y-128186400D01*
X105021700Y-128194400D01*
X105031700Y-128202400D01*
X105042700Y-128210400D01*
X105053700Y-128217400D01*
X105065700Y-128223400D01*
X105076700Y-128228400D01*
X105088700Y-128233400D01*
X105101700Y-128238400D01*
X105113700Y-128241400D01*
X105126700Y-128245400D01*
X105139700Y-128247400D01*
X105152700Y-128249400D01*
X105165700Y-128250400D01*
X105178700Y-128250400D01*
X105828700Y-128250400D01*
X105841700Y-128250400D01*
X105854700Y-128249400D01*
X105867700Y-128247400D01*
X105880700Y-128245400D01*
X105893700Y-128241400D01*
X105905700Y-128238400D01*
X105918700Y-128233400D01*
X105930700Y-128228400D01*
X105941700Y-128223400D01*
X105953700Y-128217400D01*
X105964700Y-128210400D01*
X105975700Y-128202400D01*
X105985700Y-128194400D01*
X105995700Y-128186400D01*
X106005700Y-128177400D01*
X106014700Y-128167400D01*
X106022700Y-128157400D01*
X106030700Y-128147400D01*
X106038700Y-128136400D01*
X106045700Y-128125400D01*
X106051700Y-128113400D01*
X106056700Y-128102400D01*
X106061700Y-128090400D01*
X106066700Y-128077400D01*
X106069700Y-128065400D01*
X106073700Y-128052400D01*
X106075700Y-128039400D01*
X106077700Y-128026400D01*
X106078700Y-128013400D01*
X106078700Y-128000400D01*
X106278700Y-128000400D01*
X106278700Y-129200400D01*
X104728700Y-129200400D01*
X104728700Y-128000400D01*
X104928700Y-128000400D01*
X104928700Y-128013400D01*
G37*
X104928700Y-135013400D02*
X104929700Y-135026400D01*
X104931700Y-135039400D01*
X104933700Y-135052400D01*
X104937700Y-135065400D01*
X104940700Y-135077400D01*
X104945700Y-135090400D01*
X104950700Y-135102400D01*
X104955700Y-135113400D01*
X104961700Y-135125400D01*
X104968700Y-135136400D01*
X104976700Y-135147400D01*
X104984700Y-135157400D01*
X104992700Y-135167400D01*
X105001700Y-135177400D01*
X105011700Y-135186400D01*
X105021700Y-135194400D01*
X105031700Y-135202400D01*
X105042700Y-135210400D01*
X105053700Y-135217400D01*
X105065700Y-135223400D01*
X105076700Y-135228400D01*
X105088700Y-135233400D01*
X105101700Y-135238400D01*
X105113700Y-135241400D01*
X105126700Y-135245400D01*
X105139700Y-135247400D01*
X105152700Y-135249400D01*
X105165700Y-135250400D01*
X105178700Y-135250400D01*
X105828700Y-135250400D01*
X105841700Y-135250400D01*
X105854700Y-135249400D01*
X105867700Y-135247400D01*
X105880700Y-135245400D01*
X105893700Y-135241400D01*
X105905700Y-135238400D01*
X105918700Y-135233400D01*
X105930700Y-135228400D01*
X105941700Y-135223400D01*
X105953700Y-135217400D01*
X105964700Y-135210400D01*
X105975700Y-135202400D01*
X105985700Y-135194400D01*
X105995700Y-135186400D01*
X106005700Y-135177400D01*
X106014700Y-135167400D01*
X106022700Y-135157400D01*
X106030700Y-135147400D01*
X106038700Y-135136400D01*
X106045700Y-135125400D01*
X106051700Y-135113400D01*
X106056700Y-135102400D01*
X106061700Y-135090400D01*
X106066700Y-135077400D01*
X106069700Y-135065400D01*
X106073700Y-135052400D01*
X106075700Y-135039400D01*
X106077700Y-135026400D01*
X106078700Y-135013400D01*
X106078700Y-135000400D01*
X106278700Y-135000400D01*
X106277700Y-135026400D01*
X106275700Y-135052400D01*
X106272700Y-135078400D01*
X106267700Y-135104400D01*
X106261700Y-135129400D01*
X106254700Y-135155400D01*
X106245700Y-135179400D01*
X106235700Y-135203400D01*
X106224700Y-135227400D01*
X106211700Y-135250400D01*
X106197700Y-135272400D01*
X106183700Y-135294400D01*
X106167700Y-135315400D01*
X106150700Y-135335400D01*
X106132700Y-135354400D01*
X106113700Y-135372400D01*
X106093700Y-135389400D01*
X106072700Y-135405400D01*
X106050700Y-135419400D01*
X106028700Y-135433400D01*
X106005700Y-135446400D01*
X105981700Y-135457400D01*
X105957700Y-135467400D01*
X105933700Y-135476400D01*
X105907700Y-135483400D01*
X105882700Y-135489400D01*
X105856700Y-135494400D01*
X105830700Y-135497400D01*
X105804700Y-135499400D01*
X105778700Y-135500400D01*
X105228700Y-135500400D01*
X105202700Y-135499400D01*
X105176700Y-135497400D01*
X105150700Y-135494400D01*
X105124700Y-135489400D01*
X105099700Y-135483400D01*
X105073700Y-135476400D01*
X105049700Y-135467400D01*
X105025700Y-135457400D01*
X105001700Y-135446400D01*
X104978700Y-135433400D01*
X104956700Y-135419400D01*
X104934700Y-135405400D01*
X104913700Y-135389400D01*
X104893700Y-135372400D01*
X104874700Y-135354400D01*
X104856700Y-135335400D01*
X104839700Y-135315400D01*
X104823700Y-135294400D01*
X104809700Y-135272400D01*
X104795700Y-135250400D01*
X104782700Y-135227400D01*
X104771700Y-135203400D01*
X104761700Y-135179400D01*
X104752700Y-135155400D01*
X104745700Y-135129400D01*
X104739700Y-135104400D01*
X104734700Y-135078400D01*
X104731700Y-135052400D01*
X104729700Y-135026400D01*
X104728700Y-135000400D01*
X104928700Y-135000400D01*
X104928700Y-135013400D01*
G36*
X104928700Y-135013400D02*
G01*
X104929700Y-135026400D01*
X104931700Y-135039400D01*
X104933700Y-135052400D01*
X104937700Y-135065400D01*
X104940700Y-135077400D01*
X104945700Y-135090400D01*
X104950700Y-135102400D01*
X104955700Y-135113400D01*
X104961700Y-135125400D01*
X104968700Y-135136400D01*
X104976700Y-135147400D01*
X104984700Y-135157400D01*
X104992700Y-135167400D01*
X105001700Y-135177400D01*
X105011700Y-135186400D01*
X105021700Y-135194400D01*
X105031700Y-135202400D01*
X105042700Y-135210400D01*
X105053700Y-135217400D01*
X105065700Y-135223400D01*
X105076700Y-135228400D01*
X105088700Y-135233400D01*
X105101700Y-135238400D01*
X105113700Y-135241400D01*
X105126700Y-135245400D01*
X105139700Y-135247400D01*
X105152700Y-135249400D01*
X105165700Y-135250400D01*
X105178700Y-135250400D01*
X105828700Y-135250400D01*
X105841700Y-135250400D01*
X105854700Y-135249400D01*
X105867700Y-135247400D01*
X105880700Y-135245400D01*
X105893700Y-135241400D01*
X105905700Y-135238400D01*
X105918700Y-135233400D01*
X105930700Y-135228400D01*
X105941700Y-135223400D01*
X105953700Y-135217400D01*
X105964700Y-135210400D01*
X105975700Y-135202400D01*
X105985700Y-135194400D01*
X105995700Y-135186400D01*
X106005700Y-135177400D01*
X106014700Y-135167400D01*
X106022700Y-135157400D01*
X106030700Y-135147400D01*
X106038700Y-135136400D01*
X106045700Y-135125400D01*
X106051700Y-135113400D01*
X106056700Y-135102400D01*
X106061700Y-135090400D01*
X106066700Y-135077400D01*
X106069700Y-135065400D01*
X106073700Y-135052400D01*
X106075700Y-135039400D01*
X106077700Y-135026400D01*
X106078700Y-135013400D01*
X106078700Y-135000400D01*
X106278700Y-135000400D01*
X106277700Y-135026400D01*
X106275700Y-135052400D01*
X106272700Y-135078400D01*
X106267700Y-135104400D01*
X106261700Y-135129400D01*
X106254700Y-135155400D01*
X106245700Y-135179400D01*
X106235700Y-135203400D01*
X106224700Y-135227400D01*
X106211700Y-135250400D01*
X106197700Y-135272400D01*
X106183700Y-135294400D01*
X106167700Y-135315400D01*
X106150700Y-135335400D01*
X106132700Y-135354400D01*
X106113700Y-135372400D01*
X106093700Y-135389400D01*
X106072700Y-135405400D01*
X106050700Y-135419400D01*
X106028700Y-135433400D01*
X106005700Y-135446400D01*
X105981700Y-135457400D01*
X105957700Y-135467400D01*
X105933700Y-135476400D01*
X105907700Y-135483400D01*
X105882700Y-135489400D01*
X105856700Y-135494400D01*
X105830700Y-135497400D01*
X105804700Y-135499400D01*
X105778700Y-135500400D01*
X105228700Y-135500400D01*
X105202700Y-135499400D01*
X105176700Y-135497400D01*
X105150700Y-135494400D01*
X105124700Y-135489400D01*
X105099700Y-135483400D01*
X105073700Y-135476400D01*
X105049700Y-135467400D01*
X105025700Y-135457400D01*
X105001700Y-135446400D01*
X104978700Y-135433400D01*
X104956700Y-135419400D01*
X104934700Y-135405400D01*
X104913700Y-135389400D01*
X104893700Y-135372400D01*
X104874700Y-135354400D01*
X104856700Y-135335400D01*
X104839700Y-135315400D01*
X104823700Y-135294400D01*
X104809700Y-135272400D01*
X104795700Y-135250400D01*
X104782700Y-135227400D01*
X104771700Y-135203400D01*
X104761700Y-135179400D01*
X104752700Y-135155400D01*
X104745700Y-135129400D01*
X104739700Y-135104400D01*
X104734700Y-135078400D01*
X104731700Y-135052400D01*
X104729700Y-135026400D01*
X104728700Y-135000400D01*
X104928700Y-135000400D01*
X104928700Y-135013400D01*
G37*
X105804700Y-127501400D02*
X105830700Y-127503400D01*
X105856700Y-127506400D01*
X105882700Y-127511400D01*
X105907700Y-127517400D01*
X105933700Y-127524400D01*
X105957700Y-127533400D01*
X105981700Y-127543400D01*
X106005700Y-127554400D01*
X106028700Y-127567400D01*
X106050700Y-127581400D01*
X106072700Y-127595400D01*
X106093700Y-127611400D01*
X106113700Y-127628400D01*
X106132700Y-127646400D01*
X106150700Y-127665400D01*
X106167700Y-127685400D01*
X106183700Y-127706400D01*
X106197700Y-127728400D01*
X106211700Y-127750400D01*
X106224700Y-127773400D01*
X106235700Y-127797400D01*
X106245700Y-127821400D01*
X106254700Y-127845400D01*
X106261700Y-127871400D01*
X106267700Y-127896400D01*
X106272700Y-127922400D01*
X106275700Y-127948400D01*
X106277700Y-127974400D01*
X106278700Y-128000400D01*
X106078700Y-128000400D01*
X106078700Y-127987400D01*
X106077700Y-127974400D01*
X106075700Y-127961400D01*
X106073700Y-127948400D01*
X106069700Y-127935400D01*
X106066700Y-127923400D01*
X106061700Y-127910400D01*
X106056700Y-127898400D01*
X106051700Y-127887400D01*
X106045700Y-127875400D01*
X106038700Y-127864400D01*
X106030700Y-127853400D01*
X106022700Y-127843400D01*
X106014700Y-127833400D01*
X106005700Y-127823400D01*
X105995700Y-127814400D01*
X105985700Y-127806400D01*
X105975700Y-127798400D01*
X105964700Y-127790400D01*
X105953700Y-127783400D01*
X105941700Y-127777400D01*
X105930700Y-127772400D01*
X105918700Y-127767400D01*
X105905700Y-127762400D01*
X105893700Y-127759400D01*
X105880700Y-127755400D01*
X105867700Y-127753400D01*
X105854700Y-127751400D01*
X105841700Y-127750400D01*
X105828700Y-127750400D01*
X105178700Y-127750400D01*
X105165700Y-127750400D01*
X105152700Y-127751400D01*
X105139700Y-127753400D01*
X105126700Y-127755400D01*
X105113700Y-127759400D01*
X105101700Y-127762400D01*
X105088700Y-127767400D01*
X105076700Y-127772400D01*
X105065700Y-127777400D01*
X105053700Y-127783400D01*
X105042700Y-127790400D01*
X105031700Y-127798400D01*
X105021700Y-127806400D01*
X105011700Y-127814400D01*
X105001700Y-127823400D01*
X104992700Y-127833400D01*
X104984700Y-127843400D01*
X104976700Y-127853400D01*
X104968700Y-127864400D01*
X104961700Y-127875400D01*
X104955700Y-127887400D01*
X104950700Y-127898400D01*
X104945700Y-127910400D01*
X104940700Y-127923400D01*
X104937700Y-127935400D01*
X104933700Y-127948400D01*
X104931700Y-127961400D01*
X104929700Y-127974400D01*
X104928700Y-127987400D01*
X104928700Y-128000400D01*
X104728700Y-128000400D01*
X104729700Y-127974400D01*
X104731700Y-127948400D01*
X104734700Y-127922400D01*
X104739700Y-127896400D01*
X104745700Y-127871400D01*
X104752700Y-127845400D01*
X104761700Y-127821400D01*
X104771700Y-127797400D01*
X104782700Y-127773400D01*
X104795700Y-127750400D01*
X104809700Y-127728400D01*
X104823700Y-127706400D01*
X104839700Y-127685400D01*
X104856700Y-127665400D01*
X104874700Y-127646400D01*
X104893700Y-127628400D01*
X104913700Y-127611400D01*
X104934700Y-127595400D01*
X104956700Y-127581400D01*
X104978700Y-127567400D01*
X105001700Y-127554400D01*
X105025700Y-127543400D01*
X105049700Y-127533400D01*
X105073700Y-127524400D01*
X105099700Y-127517400D01*
X105124700Y-127511400D01*
X105150700Y-127506400D01*
X105176700Y-127503400D01*
X105202700Y-127501400D01*
X105228700Y-127500400D01*
X105778700Y-127500400D01*
X105804700Y-127501400D01*
G36*
X105804700Y-127501400D02*
G01*
X105830700Y-127503400D01*
X105856700Y-127506400D01*
X105882700Y-127511400D01*
X105907700Y-127517400D01*
X105933700Y-127524400D01*
X105957700Y-127533400D01*
X105981700Y-127543400D01*
X106005700Y-127554400D01*
X106028700Y-127567400D01*
X106050700Y-127581400D01*
X106072700Y-127595400D01*
X106093700Y-127611400D01*
X106113700Y-127628400D01*
X106132700Y-127646400D01*
X106150700Y-127665400D01*
X106167700Y-127685400D01*
X106183700Y-127706400D01*
X106197700Y-127728400D01*
X106211700Y-127750400D01*
X106224700Y-127773400D01*
X106235700Y-127797400D01*
X106245700Y-127821400D01*
X106254700Y-127845400D01*
X106261700Y-127871400D01*
X106267700Y-127896400D01*
X106272700Y-127922400D01*
X106275700Y-127948400D01*
X106277700Y-127974400D01*
X106278700Y-128000400D01*
X106078700Y-128000400D01*
X106078700Y-127987400D01*
X106077700Y-127974400D01*
X106075700Y-127961400D01*
X106073700Y-127948400D01*
X106069700Y-127935400D01*
X106066700Y-127923400D01*
X106061700Y-127910400D01*
X106056700Y-127898400D01*
X106051700Y-127887400D01*
X106045700Y-127875400D01*
X106038700Y-127864400D01*
X106030700Y-127853400D01*
X106022700Y-127843400D01*
X106014700Y-127833400D01*
X106005700Y-127823400D01*
X105995700Y-127814400D01*
X105985700Y-127806400D01*
X105975700Y-127798400D01*
X105964700Y-127790400D01*
X105953700Y-127783400D01*
X105941700Y-127777400D01*
X105930700Y-127772400D01*
X105918700Y-127767400D01*
X105905700Y-127762400D01*
X105893700Y-127759400D01*
X105880700Y-127755400D01*
X105867700Y-127753400D01*
X105854700Y-127751400D01*
X105841700Y-127750400D01*
X105828700Y-127750400D01*
X105178700Y-127750400D01*
X105165700Y-127750400D01*
X105152700Y-127751400D01*
X105139700Y-127753400D01*
X105126700Y-127755400D01*
X105113700Y-127759400D01*
X105101700Y-127762400D01*
X105088700Y-127767400D01*
X105076700Y-127772400D01*
X105065700Y-127777400D01*
X105053700Y-127783400D01*
X105042700Y-127790400D01*
X105031700Y-127798400D01*
X105021700Y-127806400D01*
X105011700Y-127814400D01*
X105001700Y-127823400D01*
X104992700Y-127833400D01*
X104984700Y-127843400D01*
X104976700Y-127853400D01*
X104968700Y-127864400D01*
X104961700Y-127875400D01*
X104955700Y-127887400D01*
X104950700Y-127898400D01*
X104945700Y-127910400D01*
X104940700Y-127923400D01*
X104937700Y-127935400D01*
X104933700Y-127948400D01*
X104931700Y-127961400D01*
X104929700Y-127974400D01*
X104928700Y-127987400D01*
X104928700Y-128000400D01*
X104728700Y-128000400D01*
X104729700Y-127974400D01*
X104731700Y-127948400D01*
X104734700Y-127922400D01*
X104739700Y-127896400D01*
X104745700Y-127871400D01*
X104752700Y-127845400D01*
X104761700Y-127821400D01*
X104771700Y-127797400D01*
X104782700Y-127773400D01*
X104795700Y-127750400D01*
X104809700Y-127728400D01*
X104823700Y-127706400D01*
X104839700Y-127685400D01*
X104856700Y-127665400D01*
X104874700Y-127646400D01*
X104893700Y-127628400D01*
X104913700Y-127611400D01*
X104934700Y-127595400D01*
X104956700Y-127581400D01*
X104978700Y-127567400D01*
X105001700Y-127554400D01*
X105025700Y-127543400D01*
X105049700Y-127533400D01*
X105073700Y-127524400D01*
X105099700Y-127517400D01*
X105124700Y-127511400D01*
X105150700Y-127506400D01*
X105176700Y-127503400D01*
X105202700Y-127501400D01*
X105228700Y-127500400D01*
X105778700Y-127500400D01*
X105804700Y-127501400D01*
G37*
D12*
X124765000Y-136065000D03*
X123805000Y-136065000D03*
D13*
X130490000Y-131565000D03*
X129220000Y-131565000D03*
X127950000Y-131565000D03*
X126680000Y-131565000D03*
X126680000Y-138765000D03*
X127950000Y-138765000D03*
X129220000Y-138765000D03*
X130490000Y-138765000D03*
D14*
X111655000Y-137465000D03*
X112615000Y-137465000D03*
D15*
X128400000Y-77300000D03*
X126500000Y-77300000D03*
D16*
X126325000Y-79700000D03*
X127875000Y-79700000D03*
D17*
X111460000Y-127050000D03*
X110440000Y-127050000D03*
D18*
X107500000Y-53882500D03*
X107500000Y-55432500D03*
D17*
X124195000Y-138065000D03*
X123175000Y-138065000D03*
D19*
X117925000Y-80900000D03*
X120875000Y-80900000D03*
D17*
X124195000Y-137065000D03*
X123175000Y-137065000D03*
D20*
X108085000Y-123625000D03*
D21*
X107850000Y-116900000D03*
X113400000Y-116900000D03*
X107850000Y-112050000D03*
X113400000Y-112050000D03*
D20*
X113165000Y-123625000D03*
D22*
X117085000Y-140865000D03*
X117085000Y-141825000D03*
D23*
X130760000Y-129165000D03*
X132410000Y-129165000D03*
D24*
X122500000Y-95225000D03*
X122500000Y-98175000D03*
D25*
X130250000Y-70875000D03*
X130250000Y-67925000D03*
D26*
X114250000Y-54157500D03*
X110750000Y-54157500D03*
D18*
X130250000Y-72650000D03*
X130250000Y-74200000D03*
D26*
X120250000Y-54157500D03*
X116750000Y-54157500D03*
D12*
X122545000Y-131365000D03*
X121585000Y-131365000D03*
D27*
X120350000Y-110060000D03*
D28*
X127075000Y-109825000D03*
X127075000Y-115375000D03*
X131925000Y-109825000D03*
X131925000Y-115375000D03*
D27*
X120350000Y-115140000D03*
D24*
X121800000Y-119275000D03*
X121800000Y-122225000D03*
D12*
X131665000Y-140715000D03*
X130705000Y-140715000D03*
D24*
X119850000Y-95250000D03*
X119850000Y-98200000D03*
X125200000Y-95250000D03*
X125200000Y-98200000D03*
D12*
X124165000Y-139065000D03*
X123205000Y-139065000D03*
D29*
X120745000Y-132695000D03*
X120345000Y-132695000D03*
X119945000Y-132695000D03*
X119545000Y-132695000D03*
X119145000Y-132695000D03*
X118745000Y-132695000D03*
X118345000Y-132695000D03*
X117945000Y-132695000D03*
X117545000Y-132695000D03*
X117145000Y-132695000D03*
X116745000Y-132695000D03*
X116345000Y-132695000D03*
X115945000Y-132695000D03*
X115545000Y-132695000D03*
D30*
X114710000Y-133530000D03*
X114710000Y-133930000D03*
X114710000Y-134330000D03*
X114710000Y-134730000D03*
X114710000Y-135130000D03*
X114710000Y-135530000D03*
X114710000Y-135930000D03*
X114710000Y-136330000D03*
X114710000Y-136730000D03*
X114710000Y-137130000D03*
X114710000Y-137530000D03*
X114710000Y-137930000D03*
X114710000Y-138330000D03*
X114710000Y-138730000D03*
D29*
X115545000Y-139565000D03*
X115945000Y-139565000D03*
X116345000Y-139565000D03*
X116745000Y-139565000D03*
X117145000Y-139565000D03*
X117545000Y-139565000D03*
X117945000Y-139565000D03*
X118345000Y-139565000D03*
X118745000Y-139565000D03*
X119145000Y-139565000D03*
X119545000Y-139565000D03*
X119945000Y-139565000D03*
X120345000Y-139565000D03*
X120745000Y-139565000D03*
D30*
X121580000Y-138730000D03*
X121580000Y-138330000D03*
X121580000Y-137930000D03*
X121580000Y-137530000D03*
X121580000Y-137130000D03*
X121580000Y-136730000D03*
X121580000Y-136330000D03*
X121580000Y-135930000D03*
X121580000Y-135530000D03*
X121580000Y-135130000D03*
X121580000Y-134730000D03*
X121580000Y-134330000D03*
X121580000Y-133930000D03*
X121580000Y-133530000D03*
D31*
X122745000Y-75750000D03*
X118705000Y-75750000D03*
D32*
X110000000Y-138325000D03*
X110000000Y-136675000D03*
D33*
X108203700Y-130200400D03*
X108203700Y-130850400D03*
X108203700Y-131500400D03*
X108203700Y-132150400D03*
X108203700Y-132800400D03*
D34*
X105503700Y-130500400D03*
X105503700Y-132500400D03*
D35*
X114700000Y-69950000D03*
X115720000Y-69950000D03*
D36*
X113165000Y-73425000D03*
D37*
X113400000Y-80150000D03*
X107850000Y-80150000D03*
X113400000Y-85000000D03*
X107850000Y-85000000D03*
D36*
X108085000Y-73425000D03*
D38*
X125800000Y-100300000D03*
X125800000Y-102125000D03*
D23*
X129825000Y-79700000D03*
X131475000Y-79700000D03*
D39*
X113300000Y-139980000D03*
X113300000Y-139020000D03*
D27*
X120325000Y-85485000D03*
D28*
X127050000Y-85250000D03*
X127050000Y-90800000D03*
X131900000Y-85250000D03*
X131900000Y-90800000D03*
D27*
X120325000Y-90565000D03*
D25*
X127750000Y-70875000D03*
X127750000Y-67925000D03*
D40*
X110485000Y-134715000D03*
X112685000Y-134715000D03*
X112685000Y-133015000D03*
X110485000Y-133015000D03*
D41*
X131405000Y-54725000D03*
D42*
X130650000Y-59350000D03*
X127600000Y-59350000D03*
X130650000Y-62700000D03*
X127600000Y-62700000D03*
D41*
X126845000Y-54725000D03*
D16*
X119125000Y-105000000D03*
X120675000Y-105000000D03*
D38*
X122000000Y-100300000D03*
X122000000Y-102125000D03*
D43*
X126500000Y-75137500D03*
X127450000Y-75137500D03*
X128400000Y-75137500D03*
X128400000Y-72862500D03*
X127450000Y-72862500D03*
X126500000Y-72862500D03*
D14*
X123805000Y-135065000D03*
X124765000Y-135065000D03*
D44*
X122725000Y-69850000D03*
X118725000Y-69850000D03*
D38*
X119800000Y-100287500D03*
X119800000Y-102112500D03*
D39*
X112700000Y-131660000D03*
X112700000Y-130700000D03*
D23*
X127560000Y-129165000D03*
X129210000Y-129165000D03*
D14*
X111655000Y-136465000D03*
X112615000Y-136465000D03*
D45*
X122100000Y-64935000D03*
X122100000Y-58565000D03*
D39*
X117000000Y-131095000D03*
X117000000Y-130135000D03*
D12*
X108560000Y-136800000D03*
X107600000Y-136800000D03*
D14*
X123205000Y-140065000D03*
X124165000Y-140065000D03*
M02*
